<svg width="698" height="400" viewBox="0 0 698 400" fill="none" xmlns="http://www.w3.org/2000/svg">
<path opacity="0.3" d="M697.957 91.4924C692.288 94.2288 685.135 94.0352 679.03 93.0213C672.809 92.0633 666.95 90.1931 661.11 88.1129C649.408 83.8967 637.663 78.6109 621.92 74.9854C590.276 67.5833 564.215 84.1461 553.166 89.9995C548.14 92.6834 540.17 97.0636 533.569 101.067C532.069 101.979 530.641 102.848 529.312 103.659C539.747 91.2529 551.193 84.5989 562.787 79.3525C575.52 73.5056 588.812 69.5618 603.797 58.9607C613.766 51.8112 620.892 42.8474 624.421 34.4675C628.12 26.1435 628.166 18.6528 626.998 13.4753C626.006 8.27812 623.318 4.833 621.641 2.83156C619.825 0.800579 618.46 0 618.46 0C616.142 11.6379 608.287 18.2361 599.989 21.947C591.49 25.8055 582.171 27.5576 570.836 32.2299C559.472 36.843 551.311 45.505 545.823 54.4098C540.285 63.3343 537.541 72.3441 535.594 77.3969C533.861 81.9543 531.34 89.3892 529.532 95.7151C528.573 99.2685 527.72 102.431 527.148 104.538C508.546 107.297 490.032 110.657 471.66 114.689C479.407 105.355 487.475 99.216 495.797 93.4052C506.133 86.1114 517.169 79.1031 526.712 66.2479C539.268 48.6844 538.414 33.3389 534.905 24.9722C531.284 16.3134 525.766 13.1078 525.766 13.1078C523.429 23.1118 517.393 29.5099 510.637 34.5397C503.79 39.6254 496.19 43.4412 488.296 49.3931C480.411 55.2924 476.659 63.6231 474.371 72.1801C472.09 80.6583 471.473 89.153 470.626 93.9597C469.736 99.2488 468.075 109.131 466.966 115.736C463.805 116.451 460.643 117.18 457.492 117.938C453.117 118.282 447.878 119.122 443.81 120.559C441.936 121.284 440.328 121.97 439.018 122.666C435.335 123.663 431.645 124.641 427.975 125.701C419.795 128.112 411.661 130.727 403.56 133.447C410.791 126.203 417.343 120.881 424.25 115.946C429.167 112.386 434.094 109.013 438.929 105.273C443.843 101.359 448.229 97.9397 453.478 91.6302C459.646 83.9492 462.085 78.1713 463.575 73.1512C464.983 68.2132 465.239 63.9708 465.489 60.0106C465.682 56.3391 465.876 52.6774 466.02 49.9246C466.158 47.3195 466.083 45.6592 466.083 45.6592C456.094 50.5251 448.662 55.0201 440.328 59.1477C436.405 61.2049 432.121 63.4524 428.136 65.5425C426.071 66.6744 424.085 67.767 422.257 68.771C420.416 69.7586 418.541 70.779 416.263 72.436C407.699 78.4502 404.236 86.8792 402.401 95.1573C400.612 103.409 400.389 111.599 399.65 116.32C399.026 120.507 397.897 127.453 396.456 133.454C396.246 134.35 396.029 135.213 395.813 136.052C375.073 143.317 354.721 151.726 335.029 161.497C344.9 146.152 353.855 135.196 363.007 124.605C373.11 112.836 383.211 101.483 391.522 85.9605C392.921 83.3422 394.158 80.8125 395.284 78.25C396.525 75.343 397.365 72.9314 398.061 70.6183C399.453 66.0018 400.185 62.0678 400.618 58.5768C401.452 51.6242 401.101 46.2892 400.654 41.6629C400.175 37.0694 399.532 33.2175 398.99 30.4745C398.465 27.7414 397.897 26.1402 397.897 26.1402C388.253 36.1114 381.642 44.7012 373.829 52.6479C370.005 56.6442 366.217 60.4601 362.311 64.0037C358.257 67.8589 354.009 72.2982 349.87 77.3904C341.555 87.5781 338.65 98.5893 337.314 108.787C336.04 118.958 336.323 128.355 335.873 133.959C335.453 138.887 334.767 147.106 333.706 154.108C333.247 157.448 332.745 160.49 332.341 162.787C321.912 168.046 311.674 173.693 301.682 179.792C293.442 184.753 285.42 190.095 277.558 195.669C285.883 157.205 304.738 140.121 319.355 108.702C329.629 86.8267 330.9 71.3959 329.567 60.9096C328.267 50.4922 324.154 45.2327 324.154 45.2327C311.375 70.0769 293.367 78.9062 276.816 103.849C260.456 128.867 268.36 156.313 270.182 167.931C271.403 175.465 274.092 189.8 275.477 197.123C259.491 208.616 244.411 221.373 230.499 235.328C228.536 218.824 232.268 204.39 236.509 190.849C241.351 175.012 248.186 159.302 248.99 137.427C250.047 110.788 242.976 94.6028 236.303 85.9146C229.56 77.1312 223.143 75.1888 223.143 75.1888C224.833 89.5402 222.365 101.014 218.879 112.301C217.031 117.875 215.022 123.936 213.137 129.618C211.109 135.695 209.408 142.293 207.488 148.274C203.605 161.596 204.206 174.739 206.664 186.391C209.08 197.992 213.472 207.517 215.764 213.131C217.759 218.191 221.488 226.154 225.02 232.368C226.14 234.36 227.22 236.148 228.195 237.696C217.861 248.275 208.132 259.44 199.292 271.334C195.52 276.446 191.903 281.676 188.426 287.001C189.014 275.947 188.856 266.166 188.669 256.992C188.285 244.866 187.839 233.792 187.002 222.955C186.194 212.176 185.068 201.375 183.174 190.672C181.457 180.511 179.563 169.693 176.028 157.648C171.337 141.627 164.746 128.867 157.557 119.788C150.394 110.657 142.877 105.286 136.752 102.431C130.486 99.6163 125.706 99.111 122.476 99.275C119.305 99.3997 117.752 100.033 117.752 100.033C130.732 111.556 134.973 125.602 137.064 139.084C139.158 152.842 138.978 166.898 141.456 185.154C144.197 204.236 151.126 217.416 157.495 229.31C163.945 241 170.461 250.729 173.586 257.176C176.412 262.842 180.775 272.42 183.496 281.358C184.566 284.727 185.413 287.972 186.053 290.709C177.892 303.613 170.668 317.118 164.736 331.217C162.067 337.506 159.622 343.881 157.396 350.332C157.393 349.856 157.393 349.377 157.39 348.905C157.216 339.15 156.644 329.829 155.308 320.517C154.094 311.15 152.275 301.713 149.272 291.824C146.301 281.909 142.257 271.495 135.866 260.487C129.583 249.492 120.894 240.033 112.041 233.277C103.024 226.367 93.8521 221.816 85.2878 218.693C68.0642 212.511 53.5814 211.96 45.0697 211.51C37.4377 211.031 25.2397 211.327 15.8089 213.148C6.24674 214.818 0 217.777 0 217.777C13.3929 216.527 27.3077 220.169 38.8788 225.255C50.6107 230.416 60.7703 237.093 69.6858 244.577C87.8843 259.706 99.6064 276.649 112.747 299.987C129.882 330.984 138.085 349.63 144.45 361.97C146.885 367.019 148.976 371.006 150.562 373.998C148.74 381.929 147.345 390 146.531 398.252L146.528 398.275C146.357 400.152 147.739 401.812 149.616 401.986C151.494 402.156 153.155 400.775 153.326 398.898L153.355 398.593C153.917 392.454 154.862 386.299 156.08 380.163C156.69 379.747 157.321 379.317 157.888 378.93C159.202 378.339 160.439 377.781 161.611 377.256C164.004 376.111 166.574 375.16 169.315 374.438C172.007 373.69 174.511 372.843 177.272 372.374C188 370.127 198.487 369.428 208.811 369.241C229.508 368.87 249.709 370.563 274.387 368.745C307.288 366.386 326.948 358.069 337.685 350.509C348.485 342.759 350.661 336.2 350.661 336.2C314.185 342.474 292.398 331.141 253.73 329.494C214.789 327.529 185.948 348.777 174.36 357.58C169.742 360.851 162.983 366.399 157.921 371.784C161.063 358.804 165.429 345.985 170.582 333.69C171.682 331.023 172.834 328.372 174.026 325.744C178.933 320.674 185.262 316.947 192.096 314.805C202.548 311.327 213.522 310.605 224.374 311.127C235.443 311.576 245.707 313.345 258.821 314.552C270.399 315.52 282.278 316.757 295.845 317.475C331.953 319.743 355.726 313.922 368.377 307.009C374.801 303.593 378.684 300.181 380.969 297.615C383.254 295.079 383.972 293.465 383.972 293.465C363.778 296.004 347.7 292.776 331.819 288.691C315.849 284.563 299.896 279.074 277.981 275.986C272.506 275.229 267.093 274.887 261.894 274.936C259.143 274.959 257.032 275.012 254.869 275.143C252.519 275.245 250.227 275.399 247.838 275.619C238.351 276.449 229.117 278.395 221.058 281.098C204.714 286.584 193.495 295.174 187.494 300.453C187.31 300.604 187.107 300.791 186.916 300.952C192.172 291.965 197.89 283.241 204.012 274.822C210.006 266.639 216.45 258.807 223.195 251.234C242.411 245.473 260.666 247.061 277.335 249.863C297.214 253.222 316.132 259.148 341.509 261.058C356.071 262.157 369.89 262.573 380.91 260.841C392.038 259.214 400.605 255.903 406.425 252.113C412.281 248.294 415.321 244.364 416.762 241.476C418.203 238.592 418.325 236.945 418.325 236.945C410.456 239.901 402.427 239.993 395.13 238.979C387.78 237.962 380.966 235.895 374.138 233.51C367.29 231.118 360.456 228.342 352.611 225.77C348.787 224.467 344.102 223.342 340.278 222.243C336.392 221.166 332.157 220.064 327.627 219.044C309.543 214.854 292.215 216.091 277.935 219.683C263.63 223.204 252.735 229.084 246.301 232.345C243.189 233.825 239.185 236.046 235.104 238.536C250.713 222.751 267.894 208.498 286.194 195.837C293.341 192.145 302.535 191.397 310.981 192.625C321.21 194.18 330.703 197.766 339.759 202.271C344.299 204.476 348.77 206.973 353.415 209.529L360.866 213.548C363.374 214.811 365.869 216.064 368.324 217.295C378.271 222.22 389.087 227.204 402.004 231.187C419.155 236.532 434.774 237.628 447.08 235.935C459.481 234.274 468.367 229.746 474.013 225.557C476.833 223.247 478.924 221.104 480.49 219.201C482.003 217.121 482.995 215.31 483.667 213.833C485 210.877 485.109 209.2 485.109 209.2C468.4 216.429 453.179 213.663 440.118 208.492C426.764 203.206 414.635 195.44 397.848 186.889C389.527 182.607 380.69 179.441 372.887 177.502C365.173 175.438 356.474 173.84 348.793 173.457C335.006 172.633 323.57 174.972 316.154 176.948C332.61 167.492 349.683 159.138 367.185 151.729C382.18 152.609 394.211 159.433 404.695 167.19C417.057 176.387 430.352 188.467 450.169 196.066C463.352 201.152 474.949 202.422 484.065 201.798C493.223 201.182 500.002 198.757 504.87 196.109C509.229 193.681 512.039 191.099 513.907 188.956C516.244 189.842 518.558 190.531 520.816 190.984C529.502 192.835 536.684 191.532 541.431 189.268C546.243 187.027 548.918 184.041 550.455 181.781C551.984 179.527 552.437 178.007 552.437 178.007C541.142 178.355 533.605 171.983 528.714 164.765C523.715 157.471 520.015 148.504 512.919 138.887C506.911 129.907 496.391 123.384 486.385 120.507C481.78 119.096 477.322 118.404 473.314 118.056C484.531 115.526 495.806 113.252 507.131 111.215C519.625 114.673 528.054 122.804 535.283 131.443C543.45 140.997 550.862 152.372 565.765 161.766C575.671 167.866 585.312 170.451 593.053 170.392C600.76 170.694 606.685 168.384 610.834 166.196C619.218 161.139 621.444 155.217 621.444 155.217C610.637 154.535 602.907 149.488 596.851 143.412C590.712 137.181 586.369 129.828 579.729 122.124C573.17 114.397 563.88 110.263 554.43 108.147C548.095 106.71 541.973 106.405 537.091 106.359C539.691 105.982 542.284 105.588 544.887 105.233C557.433 104.643 568.64 105.877 579.446 107.688C596.542 110.568 612.728 115.011 633.189 116.743C660.336 119.109 678.682 113.663 688.763 106.264C693.752 102.599 696.444 98.7829 697.324 95.8398C698.246 93.0017 697.957 91.4924 697.957 91.4924ZM482.735 174.192C473.127 168.256 464.625 161.038 453.553 153.298C448.015 149.403 442.34 146.611 436.51 144.541C430.595 142.408 424.338 140.974 418.364 140.282C410.108 139.281 402.657 139.796 396.857 140.525C397.024 140.341 397.198 140.134 397.365 139.95C407.853 136.197 418.439 132.719 429.088 129.497C433.661 128.139 438.253 126.862 442.852 125.609C446.387 126.442 449.883 128.043 452.91 130.061C458.283 133.602 462.659 138.257 466.601 143.238C470.57 148.248 474.095 153.623 478.284 159.312C480.454 162.203 482.591 165.044 485.542 168.243C488.424 171.376 490.906 173.817 494.162 176.688C496.611 178.847 499.155 180.78 501.738 182.522C494.667 180.698 488.483 177.709 482.735 174.192Z" fill="#014422" fill-opacity="0.17"/>
</svg>
