<svg width="116" height="120" viewBox="0 0 116 120" fill="none" xmlns="http://www.w3.org/2000/svg">
<path fill-rule="evenodd" clip-rule="evenodd" d="M114.992 58.9773L115.992 58.9941C115.997 58.6634 116 58.332 116 58C116 57.668 115.997 57.3366 115.992 57.0059L114.992 57.0227L113.992 57.0395C113.997 57.359 114 57.6792 114 58C114 58.3208 113.997 58.641 113.992 58.9605L114.992 58.9773ZM114.927 55.0803L115.925 55.0299C115.892 54.3671 115.847 53.7072 115.792 53.0504L114.795 53.1346L113.799 53.2188C113.852 53.8531 113.896 54.4904 113.928 55.1306L114.927 55.0803ZM114.598 51.1982L115.591 51.0801C115.513 50.4234 115.424 49.77 115.325 49.1202L114.336 49.2721L113.348 49.4239C113.444 50.0513 113.53 50.6821 113.605 51.3162L114.598 51.1982ZM114.589 45.226C114.733 45.8686 114.867 46.5152 114.99 47.1657L114.007 47.3514L113.025 47.537C112.906 46.9091 112.777 46.2849 112.637 45.6646L113.613 45.4453L114.589 45.226ZM113.154 43.5556L114.122 43.3029C113.954 42.6624 113.776 42.0262 113.588 41.3945L112.63 41.6803L111.671 41.9661C111.853 42.5759 112.025 43.19 112.187 43.8083L113.154 43.5556ZM112.041 39.8247L112.989 39.5061C112.778 38.8794 112.557 38.2575 112.326 37.6407L111.39 37.9917L110.453 38.3428C110.677 38.9383 110.89 39.5385 111.093 40.1434L112.041 39.8247ZM110.675 36.1814L111.599 35.7983C111.346 35.1873 111.082 34.5816 110.809 33.9814L109.899 34.396L108.989 34.8106C109.253 35.39 109.507 35.9747 109.751 36.5644L110.675 36.1814ZM109.062 32.6392L109.957 32.1937C109.662 31.6021 109.358 31.0163 109.045 30.4364L108.165 30.9123L107.286 31.3882C107.588 31.9481 107.882 32.5136 108.166 33.0847L109.062 32.6392ZM107.209 29.2159L108.072 28.7102C107.738 28.1401 107.394 27.5763 107.041 27.0188L106.196 27.5537L105.351 28.0886C105.692 28.6268 106.024 29.1712 106.346 29.7216L107.209 29.2159ZM105.127 25.9274L105.954 25.364C105.581 24.8181 105.2 24.2789 104.81 23.7466L104.003 24.3378L103.197 24.929C103.574 25.443 103.942 25.9637 104.301 26.4908L105.127 25.9274ZM102.826 22.7875L103.612 22.1692C103.204 21.6501 102.787 21.1382 102.361 20.6336L101.597 21.2782L100.832 21.9229C101.243 22.4101 101.646 22.9045 102.04 23.4058L102.826 22.7875ZM100.317 19.8115L101.059 19.1413C100.616 18.6512 100.165 18.1687 99.7065 17.694L98.9875 18.389L98.2685 19.084C98.7116 19.5424 99.147 20.0084 99.5744 20.4817L100.317 19.8115ZM97.611 17.0125L98.306 16.2935C97.8313 15.8346 97.3488 15.3838 96.8587 14.9412L96.1885 15.6834L95.5183 16.4256C95.9916 16.853 96.4576 17.2884 96.916 17.7315L97.611 17.0125ZM94.7218 14.4034L95.3664 13.6389C94.8618 13.2135 94.3499 12.7965 93.8308 12.3882L93.2125 13.1741L92.5942 13.9601C93.0955 14.3544 93.5899 14.7571 94.0771 15.1679L94.7218 14.4034ZM91.6622 11.9967L92.2534 11.1901C91.7211 10.8 91.1819 10.4187 90.636 10.0464L90.0726 10.8726L89.5092 11.6988C90.0363 12.0583 90.557 12.4264 91.071 12.8032L91.6622 11.9967ZM88.4463 9.80376L88.9811 8.95884C88.4237 8.60596 87.8599 8.26232 87.2898 7.92814L86.7841 8.79083L86.2784 9.65353C86.8288 9.97618 87.3732 10.308 87.9114 10.6487L88.4463 9.80376ZM85.0877 7.83497L85.5636 6.95548C84.9837 6.64169 84.3979 6.33749 83.8063 6.0431L83.3608 6.93837L82.9153 7.83364C83.4864 8.11784 84.0519 8.41152 84.6118 8.71446L85.0877 7.83497ZM81.604 6.10137L82.0186 5.19135C81.4183 4.91792 80.8127 4.65442 80.2017 4.40107L79.8186 5.32479L79.4356 6.24852C80.0253 6.49308 80.61 6.74744 81.1894 7.01139L81.604 6.10137ZM78.0083 4.61028L78.3593 3.67393C77.7424 3.44264 77.1206 3.22155 76.4939 3.01088L76.1752 3.95875L75.8566 4.90662C76.4615 5.10997 77.0617 5.32337 77.6572 5.54663L78.0083 4.61028ZM74.3197 3.37029L74.6055 2.41201C73.9738 2.22358 73.3376 2.04562 72.697 1.87834L72.4444 2.84589L72.1917 3.81344C72.81 3.97491 73.4241 4.14668 74.0338 4.32856L74.3197 3.37029ZM70.5547 2.38692L70.774 1.41126C70.1314 1.26683 69.4847 1.13306 68.8343 1.01016L68.6486 1.99277L68.4629 2.97538C69.0909 3.09403 69.7151 3.22316 70.3354 3.36258L70.5547 2.38692ZM66.7279 1.66388L66.8797 0.675477C66.2299 0.575643 65.5766 0.486595 64.9198 0.408519L64.8018 1.40153L64.6837 2.39453C65.3178 2.46992 65.9487 2.5559 66.576 2.65228L66.7279 1.66388ZM62.8653 1.20468L62.9495 0.208228C62.2928 0.152724 61.6329 0.108164 60.9701 0.0747307L60.9197 1.07346L60.8693 2.07219C61.5095 2.10448 62.1469 2.14752 62.7811 2.20112L62.8653 1.20468ZM58.9773 1.00821L58.9941 0.00834718C58.6634 0.00278978 58.332 0 58 0C57.668 0 57.3366 0.00279006 57.0059 0.00834801L57.0227 1.00821L57.0395 2.00807C57.359 2.0027 57.6792 2 58 2C58.3208 2 58.641 2.0027 58.9605 2.00806L58.9773 1.00821ZM55.0803 1.07346L55.0299 0.0747332C54.3671 0.108167 53.7072 0.152727 53.0504 0.208232L53.1346 1.20468L53.2188 2.20113C53.8531 2.14753 54.4904 2.10449 55.1306 2.07219L55.0803 1.07346ZM51.1982 1.40153L51.0801 0.408523C50.4234 0.486599 49.77 0.575648 49.1202 0.675482L49.2721 1.66388L49.4239 2.65229C50.0513 2.5559 50.6821 2.46993 51.3162 2.39454L51.1982 1.40153ZM47.3514 1.99278L47.1657 1.01016C46.5152 1.13307 45.8686 1.26684 45.226 1.41127L45.4453 2.38693L45.6646 3.36259C46.2849 3.22317 46.9091 3.09404 47.537 2.97539L47.3514 1.99278ZM41.3945 2.41202C42.0262 2.22358 42.6624 2.04563 43.3029 1.87834L43.5556 2.84589L43.8083 3.81344C43.19 3.97491 42.5759 4.14669 41.9661 4.32857L41.6803 3.37029L41.3945 2.41202ZM39.8247 3.95875L39.5061 3.01089C38.8794 3.22156 38.2575 3.44264 37.6407 3.67394L37.9917 4.61028L38.3428 5.54663C38.9383 5.32338 39.5385 5.10997 40.1434 4.90662L39.8247 3.95875ZM36.1814 5.3248L35.7983 4.40107C35.1873 4.65443 34.5816 4.91792 33.9814 5.19135L34.396 6.10137L34.8106 7.01139C35.39 6.74744 35.9747 6.49309 36.5644 6.24852L36.1814 5.3248ZM32.6392 6.93837L32.1937 6.0431C31.6021 6.3375 31.0163 6.64169 30.4364 6.95548L30.9123 7.83497L31.3882 8.71446C31.9481 8.41152 32.5136 8.11784 33.0847 7.83364L32.6392 6.93837ZM29.2159 8.79084L28.7102 7.92814C28.1401 8.26233 27.5763 8.60597 27.0188 8.95885L27.5537 9.80377L28.0886 10.6487C28.6268 10.308 29.1712 9.97618 29.7216 9.65353L29.2159 8.79084ZM25.9274 10.8726L25.364 10.0464C24.8181 10.4187 24.2789 10.8 23.7466 11.1901L24.3378 11.9967L24.929 12.8032C25.443 12.4264 25.9637 12.0583 26.4908 11.6988L25.9274 10.8726ZM22.7875 13.1741L22.1692 12.3882C21.6501 12.7965 21.1382 13.2135 20.6336 13.6389L21.2782 14.4034L21.9229 15.168C22.4101 14.7571 22.9045 14.3544 23.4058 13.9601L22.7875 13.1741ZM19.8115 15.6834L19.1413 14.9412C18.6512 15.3838 18.1687 15.8346 17.694 16.2935L18.389 17.0125L19.084 17.7315C19.5424 17.2884 20.0084 16.853 20.4817 16.4256L19.8115 15.6834ZM17.0125 18.389L16.2935 17.694C15.8346 18.1687 15.3838 18.6512 14.9412 19.1413L15.6834 19.8115L16.4256 20.4817C16.853 20.0084 17.2884 19.5425 17.7315 19.084L17.0125 18.389ZM14.4034 21.2782L13.6389 20.6336C13.2135 21.1382 12.7965 21.6501 12.3882 22.1692L13.1741 22.7875L13.9601 23.4058C14.3544 22.9045 14.7571 22.4101 15.1679 21.9229L14.4034 21.2782ZM11.9967 24.3378L11.1901 23.7466C10.8 24.2789 10.4187 24.8181 10.0464 25.364L10.8726 25.9274L11.6988 26.4908C12.0583 25.9637 12.4264 25.443 12.8032 24.929L11.9967 24.3378ZM9.80376 27.5537L8.95884 27.0189C8.60596 27.5763 8.26232 28.1401 7.92814 28.7102L8.79083 29.2159L9.65353 29.7216C9.97618 29.1712 10.308 28.6268 10.6487 28.0886L9.80376 27.5537ZM7.83497 30.9123L6.95548 30.4364C6.64169 31.0163 6.33749 31.6021 6.0431 32.1937L6.93837 32.6392L7.83364 33.0847C8.11784 32.5136 8.41152 31.9481 8.71446 31.3882L7.83497 30.9123ZM6.10137 34.396L5.19135 33.9814C4.91792 34.5817 4.65442 35.1873 4.40107 35.7983L5.32479 36.1814L6.24852 36.5644C6.49308 35.9747 6.74744 35.39 7.01139 34.8106L6.10137 34.396ZM4.61028 37.9917L3.67393 37.6407C3.44264 38.2576 3.22155 38.8794 3.01088 39.5061L3.95875 39.8248L4.90662 40.1434C5.10997 39.5385 5.32337 38.9383 5.54663 38.3428L4.61028 37.9917ZM3.37029 41.6803L2.41201 41.3945C2.22358 42.0262 2.04562 42.6624 1.87834 43.303L2.84589 43.5556L3.81344 43.8083C3.97491 43.19 4.14668 42.5759 4.32856 41.9662L3.37029 41.6803ZM2.38692 45.4453L1.41126 45.226C1.26683 45.8686 1.13306 46.5153 1.01016 47.1657L1.99277 47.3514L2.97538 47.5371C3.09403 46.9091 3.22316 46.2849 3.36258 45.6646L2.38692 45.4453ZM1.66388 49.2721L0.675476 49.1203C0.575643 49.7701 0.486595 50.4234 0.408519 51.0802L1.40153 51.1982L2.39453 51.3163C2.46992 50.6822 2.5559 50.0513 2.65228 49.424L1.66388 49.2721ZM1.20468 53.1347L0.208228 53.0505C0.152724 53.7072 0.108164 54.3671 0.0747307 55.0299L1.07346 55.0803L2.07219 55.1307C2.10448 54.4905 2.14752 53.8531 2.20112 53.2189L1.20468 53.1347ZM0 58C0 57.668 0.00278978 57.3366 0.00834718 57.0059L1.00821 57.0227L2.00806 57.0395C2.0027 57.359 2 57.6792 2 58C2 58.3208 2.0027 58.641 2.00807 58.9605L1.00821 58.9773L0.00834801 58.9941C0.00279006 58.6634 0 58.332 0 58ZM1.07346 60.9197L0.0747332 60.9701C0.108167 61.6329 0.152727 62.2928 0.208232 62.9496L1.20468 62.8654L2.20113 62.7812C2.14753 62.1469 2.10449 61.5096 2.07219 60.8694L1.07346 60.9197ZM1.40153 64.8018L0.408524 64.9199C0.486599 65.5766 0.575648 66.23 0.675481 66.8798L1.66388 66.7279L2.65229 66.5761C2.5559 65.9487 2.46993 65.3179 2.39454 64.6838L1.40153 64.8018ZM1.99278 68.6486L1.01016 68.8343C1.13307 69.4848 1.26684 70.1314 1.41127 70.774L2.38693 70.5547L3.36259 70.3354C3.22317 69.7151 3.09404 69.0909 2.97539 68.463L1.99278 68.6486ZM2.84589 72.4444L1.87834 72.6971C2.04562 73.3376 2.22358 73.9738 2.41201 74.6055L3.37029 74.3197L4.32857 74.0339C4.14669 73.4241 3.97491 72.81 3.81344 72.1917L2.84589 72.4444ZM3.95875 76.1753L3.01089 76.4939C3.22156 77.1206 3.44264 77.7425 3.67393 78.3593L4.61028 78.0083L5.54663 77.6572C5.32338 77.0617 5.10997 76.4615 4.90662 75.8566L3.95875 76.1753ZM5.3248 79.8186L4.40107 80.2017C4.65443 80.8127 4.91792 81.4184 5.19135 82.0186L6.10137 81.604L7.01139 81.1894C6.74744 80.61 6.49309 80.0253 6.24852 79.4356L5.3248 79.8186ZM6.93837 83.3608L6.0431 83.8063C6.33749 84.3979 6.64169 84.9837 6.95548 85.5636L7.83497 85.0877L8.71446 84.6118C8.41152 84.0519 8.11784 83.4864 7.83364 82.9153L6.93837 83.3608ZM8.79084 86.7841L7.92814 87.2898C8.26233 87.8599 8.60597 88.4237 8.95885 88.9812L9.80377 88.4463L10.6487 87.9114C10.308 87.3732 9.97618 86.8288 9.65353 86.2784L8.79084 86.7841ZM10.8726 90.0726L10.0464 90.636C10.4187 91.1819 10.8 91.7211 11.1901 92.2534L11.9967 91.6622L12.8032 91.071C12.4264 90.557 12.0583 90.0363 11.6988 89.5092L10.8726 90.0726ZM13.1741 93.2125L12.3882 93.8308C12.7965 94.3499 13.2135 94.8618 13.6389 95.3664L14.4034 94.7218L15.168 94.0771C14.7571 93.5899 14.3544 93.0955 13.9601 92.5942L13.1741 93.2125ZM15.6834 96.1885L14.9412 96.8587C15.3838 97.3488 15.8346 97.8313 16.2935 98.306L17.0125 97.611L17.7315 96.916C17.2884 96.4576 16.853 95.9916 16.4256 95.5183L15.6834 96.1885ZM18.389 98.9875L17.694 99.7065C18.1687 100.165 18.6512 100.616 19.1413 101.059L19.8115 100.317L20.4817 99.5744C20.0084 99.147 19.5425 98.7116 19.084 98.2685L18.389 98.9875ZM21.2782 101.597L20.6336 102.361C21.1382 102.787 21.6501 103.204 22.1692 103.612L22.7875 102.826L23.4058 102.04C22.9045 101.646 22.4101 101.243 21.9229 100.832L21.2782 101.597ZM24.3378 104.003L23.7466 104.81C24.2789 105.2 24.8181 105.581 25.364 105.954L25.9274 105.127L26.4908 104.301C25.9637 103.942 25.443 103.574 24.929 103.197L24.3378 104.003ZM27.5537 106.196L27.0189 107.041C27.5763 107.394 28.1401 107.738 28.7102 108.072L29.2159 107.209L29.7216 106.346C29.1712 106.024 28.6268 105.692 28.0886 105.351L27.5537 106.196ZM30.9123 108.165L30.4364 109.045C31.0163 109.358 31.6021 109.663 32.1937 109.957L32.6392 109.062L33.0541 108.228L33.0421 108.145C32.4855 107.868 31.9341 107.581 31.3882 107.286L30.9123 108.165ZM57.4788 115.998L58.1048 114C58.3906 113.999 58.6758 113.997 58.9605 113.992L58.9773 114.992L58.9941 115.992C58.6634 115.997 58.332 116 58 116C57.8261 116 57.6524 115.999 57.4788 115.998ZM60.9197 114.927L60.9701 115.925C61.6329 115.892 62.2928 115.847 62.9496 115.792L62.8654 114.795L62.7812 113.799C62.1469 113.852 61.5096 113.896 60.8694 113.928L60.9197 114.927ZM64.8018 114.598L64.9199 115.591C65.5766 115.513 66.23 115.424 66.8798 115.325L66.7279 114.336L66.5761 113.348C65.9487 113.444 65.3179 113.53 64.6838 113.605L64.8018 114.598ZM68.6486 114.007L68.8343 114.99C69.4848 114.867 70.1314 114.733 70.774 114.589L70.5547 113.613L70.3354 112.637C69.7151 112.777 69.0909 112.906 68.463 113.025L68.6486 114.007ZM72.4444 113.154L72.6971 114.122C73.3376 113.954 73.9738 113.776 74.6055 113.588L74.3197 112.63L74.0339 111.671C73.4241 111.853 72.81 112.025 72.1917 112.187L72.4444 113.154ZM76.1753 112.041L76.4939 112.989C77.1206 112.778 77.7425 112.557 78.3593 112.326L78.0083 111.39L77.6572 110.453C77.0617 110.677 76.4615 110.89 75.8566 111.093L76.1753 112.041ZM79.8186 110.675L80.2017 111.599C80.8127 111.346 81.4184 111.082 82.0186 110.809L81.604 109.899L81.1894 108.989C80.61 109.253 80.0253 109.507 79.4356 109.751L79.8186 110.675ZM83.3608 109.062L83.8063 109.957C84.3979 109.663 84.9837 109.358 85.5636 109.045L85.0877 108.165L84.6118 107.286C84.0519 107.588 83.4864 107.882 82.9153 108.166L83.3608 109.062ZM86.7841 107.209L87.2898 108.072C87.8599 107.738 88.4237 107.394 88.9812 107.041L88.4463 106.196L87.9114 105.351C87.3732 105.692 86.8288 106.024 86.2784 106.346L86.7841 107.209ZM90.0726 105.127L90.636 105.954C91.1819 105.581 91.7211 105.2 92.2534 104.81L91.6622 104.003L91.071 103.197C90.557 103.574 90.0363 103.942 89.5092 104.301L90.0726 105.127ZM93.2125 102.826L93.8308 103.612C94.3499 103.204 94.8618 102.787 95.3664 102.361L94.7218 101.597L94.0771 100.832C93.5899 101.243 93.0955 101.646 92.5942 102.04L93.2125 102.826ZM96.1885 100.317L96.8587 101.059C97.3488 100.616 97.8313 100.165 98.306 99.7065L97.611 98.9875L96.916 98.2685C96.4576 98.7116 95.9916 99.147 95.5183 99.5744L96.1885 100.317ZM98.9875 97.611L99.7065 98.306C100.165 97.8313 100.616 97.3488 101.059 96.8587L100.317 96.1885L99.5744 95.5183C99.147 95.9916 98.7116 96.4576 98.2685 96.916L98.9875 97.611ZM101.597 94.7218L102.361 95.3664C102.787 94.8618 103.204 94.3499 103.612 93.8308L102.826 93.2125L102.04 92.5942C101.646 93.0955 101.243 93.5899 100.832 94.0771L101.597 94.7218ZM105.954 90.636C105.581 91.1819 105.2 91.7211 104.81 92.2534L104.003 91.6622L103.197 91.071C103.574 90.557 103.942 90.0363 104.301 89.5092L105.127 90.0726L105.954 90.636ZM106.196 88.4463L107.041 88.9811C107.394 88.4237 107.738 87.8599 108.072 87.2898L107.209 86.7841L106.346 86.2784C106.024 86.8288 105.692 87.3732 105.351 87.9114L106.196 88.4463ZM108.165 85.0877L109.045 85.5636C109.358 84.9837 109.663 84.3979 109.957 83.8063L109.062 83.3608L108.166 82.9153C107.882 83.4864 107.588 84.0519 107.286 84.6118L108.165 85.0877ZM109.899 81.604L110.809 82.0186C111.082 81.4183 111.346 80.8127 111.599 80.2017L110.675 79.8186L109.751 79.4356C109.507 80.0253 109.253 80.61 108.989 81.1894L109.899 81.604ZM111.39 78.0083L112.326 78.3593C112.557 77.7424 112.778 77.1206 112.989 76.4939L112.041 76.1752L111.093 75.8566C110.89 76.4615 110.677 77.0617 110.453 77.6572L111.39 78.0083ZM112.63 74.3197L113.588 74.6055C113.776 73.9738 113.954 73.3376 114.122 72.697L113.154 72.4444L112.187 72.1917C112.025 72.81 111.853 73.4241 111.671 74.0338L112.63 74.3197ZM113.613 70.5547L114.589 70.774C114.733 70.1314 114.867 69.4847 114.99 68.8343L114.007 68.6486L113.025 68.4629C112.906 69.0909 112.777 69.7151 112.637 70.3354L113.613 70.5547ZM114.336 66.7279L115.325 66.8797C115.424 66.2299 115.513 65.5766 115.591 64.9198L114.598 64.8018L113.605 64.6837C113.53 65.3178 113.444 65.9487 113.348 66.576L114.336 66.7279ZM114.795 62.8653L115.792 62.9495C115.847 62.2928 115.892 61.6329 115.925 60.9701L114.927 60.9197L113.928 60.8693C113.896 61.5095 113.852 62.1469 113.799 62.7811L114.795 62.8653Z" fill="#C3911A"/>
<path d="M37.2613 58.6062V36.1963L48.345 39.3935C52.8539 40.6942 57.6387 40.6942 62.1476 39.3935L73.2313 36.1963V58.6062C73.2313 68.5391 65.1791 76.5912 55.2463 76.5912C45.3135 76.5912 37.2613 68.539 37.2613 58.6062Z" fill="#F5F3EF" stroke="black" stroke-width="1.8"/>
<path d="M45.8037 52.705C45.8037 50.7494 47.389 49.1641 49.3446 49.1641C51.3002 49.1641 52.8856 50.7494 52.8856 52.705H45.8037Z" fill="#C3911A"/>
<path d="M62.3523 61.012C62.3422 63.6746 60.1755 65.8248 57.513 65.8147L55.3418 65.8064C52.6792 65.7962 50.529 63.6296 50.5392 60.967L62.3523 61.012Z" fill="#C3911A"/>
<path d="M58.7871 52.705C58.7871 50.7494 60.3724 49.1641 62.328 49.1641C64.2836 49.1641 65.869 50.7494 65.869 52.705H58.7871Z" fill="#C3911A"/>
<path d="M63.2281 84.5729V62.8942L77.6041 59.3791C80.3558 58.7062 83.2316 58.7275 85.973 59.4411L99.1981 62.8835V84.5729C99.1981 94.5058 91.1459 102.558 81.2131 102.558C71.2803 102.558 63.2281 94.5058 63.2281 84.5729Z" fill="#F5F3EF" stroke="black" stroke-width="1.8"/>
<path d="M77.2664 69.2293C78.6477 71.0729 78.2731 73.6872 76.4295 75.0686C74.5859 76.45 71.9715 76.0753 70.5901 74.2317L77.2664 69.2293Z" fill="#C3911A"/>
<path d="M74.7617 90.2015C74.8232 87.0656 77.4152 84.5733 80.5511 84.6348L83.1083 84.685C86.2442 84.7465 88.7365 87.3386 88.675 90.4745L84.3363 89.4255C82.6409 89.0156 80.8765 88.9803 79.1661 89.3219L74.7617 90.2015Z" fill="#C3911A"/>
<path d="M92.4184 72.5604C91.4986 74.6726 89.0407 75.6391 86.9286 74.7193C84.8165 73.7995 83.8499 71.3417 84.7697 69.2296L92.4184 72.5604Z" fill="#C3911A"/>
<path d="M22.697 91.9216C27.2624 94.543 27.4262 97.3282 25.0593 103.771C24.4479 107.509 25.1385 109.504 29.0032 113.251C33.7277 116.213 35.8973 116.194 39.8234 117.398C44.8347 118.228 47.815 118.347 53.997 116.806C57.3858 115.44 59.2195 114.984 63.4461 109.696C65.2242 106.952 66.2162 105.38 66.9895 98.4389C67.0474 94.9482 66.9895 93.1066 63.4461 86.5893C61.575 83.4549 59.9192 81.257 54.6041 76.5172C49.1257 72.412 46.3362 70.5925 35.1154 70C27.4231 70.2459 22.1228 70.3054 17.3982 77.1097C16.2105 78.8203 15.3446 80.6646 16.6586 85.9969C17.7067 87.7743 19.0374 89.7956 22.697 91.9216Z" fill="#F5F3EF" stroke="black" stroke-width="1.8"/>
<path d="M20.9908 91.6744C25.7313 94.405 26.3867 97.1723 23.9289 103.884C23.2941 107.777 24.5333 110.15 28.5462 114.053C33.4519 117.139 35.7047 117.119 39.7813 118.373C44.9847 119.237 48.0793 119.362 54.4984 117.756C58.0172 116.333 59.9212 115.858 64.3098 110.35C66.1561 107.491 67.1862 105.855 67.989 98.6238C68.0492 94.9877 67.9891 93.0693 64.3098 86.2806C62.3669 83.0156 60.6477 80.7261 55.1288 75.7888C49.4403 71.5125 46.5438 69.6172 34.8928 69C26.9056 69.2561 21.402 69.3181 16.4963 76.406C15.263 78.1878 14.2787 80.8874 15.7024 86.4419C16.9411 88.5771 17.1909 89.4598 20.9908 91.6744Z" stroke="#F5F3EF"/>
<circle cx="26.4778" cy="82.802" r="4.13109" fill="#C3911A"/>
<circle cx="38.871" cy="81.0312" r="3.54093" fill="#C3911A"/>
<circle cx="49.4931" cy="85.7528" r="3.54093" fill="#C3911A"/>
<circle cx="57.7558" cy="96.3759" r="3.54093" fill="#C3911A"/>
<circle cx="35.3296" cy="105.818" r="4.72124" fill="#C3911A"/>
</svg>
