<svg width="118" height="116" viewBox="0 0 118 116" fill="none" xmlns="http://www.w3.org/2000/svg">
<path d="M15.5 115H33.5" stroke="black" stroke-width="1.5"/>
<path d="M36.5 115H43.5" stroke="black" stroke-width="1.5"/>
<path d="M45.5 115H104.5M113 115H104.5M23 114.5C23.526 111.26 25.0964 110.172 31 110H99C103.573 110.82 104.351 112.11 104.5 115" stroke="black" stroke-width="1.5"/>
<path fill-rule="evenodd" clip-rule="evenodd" d="M116.217 59.6003L117.217 59.6171C117.222 59.2829 117.225 58.948 117.225 58.6125C117.225 58.277 117.222 57.9421 117.217 57.6079L116.217 57.6247L115.217 57.6415C115.222 57.9645 115.225 58.2882 115.225 58.6125C115.225 58.9368 115.222 59.2605 115.217 59.5835L116.217 59.6003ZM116.151 55.6614L117.149 55.611C117.116 54.9412 117.071 54.2743 117.015 53.6106L116.018 53.6948L115.022 53.7791C115.076 54.4202 115.119 55.0645 115.152 55.7118L116.151 55.6614ZM115.819 51.7376L116.812 51.6195C116.733 50.9559 116.643 50.2956 116.542 49.639L115.554 49.7908L114.566 49.9427C114.663 50.5769 114.75 51.2146 114.826 51.8557L115.819 51.7376ZM115.222 47.8495L116.204 47.6638C116.08 47.0064 115.945 46.353 115.799 45.7036L114.823 45.9229L113.847 46.1422C113.988 46.7693 114.119 47.4003 114.239 48.0351L115.222 47.8495ZM114.359 44.0129L115.327 43.7602C115.158 43.1129 114.978 42.47 114.787 41.8316L113.829 42.1174L112.871 42.4033C113.055 43.0197 113.228 43.6405 113.392 44.2656L114.359 44.0129ZM113.234 40.2419L114.182 39.9233C113.969 39.29 113.746 38.6616 113.512 38.0382L112.576 38.3892L111.64 38.7403C111.865 39.3423 112.081 39.9491 112.287 40.5606L113.234 40.2419ZM111.854 36.5594L112.777 36.1763C112.521 35.5589 112.255 34.9468 111.979 34.3403L111.069 34.7549L110.159 35.1694C110.426 35.7552 110.683 36.3462 110.93 36.9424L111.854 36.5594ZM110.223 32.9792L111.118 32.5336C110.821 31.9358 110.513 31.3438 110.196 30.7578L109.317 31.2337L108.437 31.7096C108.743 32.2756 109.04 32.8474 109.328 33.4247L110.223 32.9792ZM108.35 29.5191L109.213 29.0134C108.875 28.4373 108.528 27.8675 108.172 27.3042L107.327 27.8391L106.482 28.3739C106.826 28.918 107.162 29.4684 107.488 30.0248L108.35 29.5191ZM106.246 26.1952L107.072 25.6318C106.696 25.0802 106.311 24.5353 105.917 23.9974L105.11 24.5886L104.304 25.1798C104.684 25.6994 105.057 26.2257 105.42 26.7586L106.246 26.1952ZM103.92 23.0216L104.706 22.4033C104.293 21.8788 103.872 21.3614 103.442 20.8515L102.678 21.4961L101.913 22.1408C102.328 22.6334 102.735 23.1331 103.134 23.6399L103.92 23.0216ZM101.384 20.0137L102.126 19.3435C101.679 18.8482 101.223 18.3606 100.759 17.8809L100.04 18.5759L99.3214 19.2709C99.7694 19.7343 100.21 20.2054 100.642 20.6839L101.384 20.0137ZM98.6491 17.1846L99.3441 16.4656C98.8644 16.0018 98.3768 15.5463 97.8815 15.099L97.2113 15.8412L96.5411 16.5834C97.0196 17.0154 97.4907 17.4556 97.9541 17.9036L98.6491 17.1846ZM95.7288 14.5475L96.3735 13.783C95.8636 13.353 95.3462 12.9316 94.8217 12.519L94.2034 13.3049L93.5851 14.0909C94.0918 14.4895 94.5916 14.8966 95.0842 15.312L95.7288 14.5475ZM92.6364 12.1148L93.2276 11.3083C92.6897 10.914 92.1448 10.5287 91.5931 10.1525L91.0298 10.9787L90.4664 11.8049C90.9992 12.1683 91.5256 12.5405 92.0452 12.9214L92.6364 12.1148ZM89.3859 9.89837L89.9208 9.05345C89.3575 8.69684 88.7877 8.34957 88.2116 8.01186L87.7059 8.87455L87.2002 9.73725C87.7566 10.0634 88.3069 10.3988 88.851 10.7433L89.3859 9.89837ZM85.9912 7.90842L86.4672 7.02893C85.8812 6.71182 85.2891 6.40442 84.6913 6.10691L84.2458 7.00218L83.8003 7.89745C84.3776 8.18476 84.9494 8.48165 85.5153 8.78791L85.9912 7.90842ZM82.4701 6.15619L82.8847 5.24617C82.2781 4.96985 81.666 4.70357 81.0486 4.44754L80.6656 5.37127L80.2825 6.295C80.8787 6.54223 81.4698 6.79937 82.0556 7.06621L82.4701 6.15619ZM78.8358 4.64908L79.1868 3.71273C78.5634 3.479 77.935 3.25558 77.3017 3.04268L76.983 3.99055L76.6644 4.93842C77.2759 5.14399 77.8827 5.35973 78.4847 5.58543L78.8358 4.64908ZM75.1075 3.39576L75.3934 2.43748C74.755 2.24706 74.1121 2.06723 73.4647 1.89818L73.2121 2.86573L72.9594 3.83328C73.5844 3.99651 74.2053 4.17017 74.8217 4.35404L75.1075 3.39576ZM71.3021 2.40183L71.5214 1.42617C70.872 1.28021 70.2185 1.14503 69.5612 1.02083L69.3755 2.00344L69.1899 2.98606C69.8247 3.106 70.4557 3.23655 71.0828 3.37749L71.3021 2.40183ZM67.4342 1.67102L67.586 0.682615C66.9294 0.581727 66.2691 0.491738 65.6054 0.412838L65.4874 1.40584L65.3693 2.39885C66.0104 2.47506 66.6481 2.56198 67.2823 2.65942L67.4342 1.67102ZM63.5301 1.20688L63.6143 0.21043C62.9506 0.15434 62.2838 0.109309 61.614 0.0755225L61.5636 1.07425L61.5132 2.07298C62.1604 2.10563 62.8047 2.14914 63.4459 2.20333L63.5301 1.20688ZM59.6003 1.00829L59.6171 0.00843617C59.2829 0.00281952 58.948 0 58.6125 0C58.277 0 57.9421 0.00281952 57.6079 0.00843617L57.6247 1.00829L57.6415 2.00815C57.9645 2.00273 58.2882 2 58.6125 2C58.9368 2 59.2605 2.00273 59.5835 2.00815L59.6003 1.00829ZM55.6614 1.07425L55.611 0.0755223C54.9412 0.109309 54.2743 0.15434 53.6106 0.210431L53.6948 1.20688L53.7791 2.20333C54.4202 2.14914 55.0645 2.10563 55.7118 2.07298L55.6614 1.07425ZM51.7376 1.40584L51.6195 0.412838C50.9559 0.491738 50.2956 0.581727 49.639 0.682615L49.7908 1.67102L49.9427 2.65942C50.5769 2.56198 51.2146 2.47506 51.8557 2.39885L51.7376 1.40584ZM47.8495 2.00344L47.6638 1.02083C47.0064 1.14503 46.353 1.28021 45.7036 1.42617L45.9229 2.40183L46.1422 3.37749C46.7693 3.23655 47.4003 3.106 48.0351 2.98606L47.8495 2.00344ZM44.0129 2.86573L43.7602 1.89818C43.1129 2.06723 42.47 2.24706 41.8316 2.43749L42.1174 3.39576L42.4033 4.35404C43.0197 4.17017 43.6405 3.99651 44.2656 3.83328L44.0129 2.86573ZM40.2419 3.99055L39.9233 3.04268C39.29 3.25558 38.6616 3.479 38.0382 3.71273L38.3892 4.64908L38.7403 5.58543C39.3423 5.35973 39.9491 5.144 40.5606 4.93842L40.2419 3.99055ZM36.5594 5.37127L36.1763 4.44755C35.5589 4.70358 34.9468 4.96986 34.3403 5.24617L34.7549 6.15619L35.1694 7.06621C35.7552 6.79938 36.3462 6.54224 36.9424 6.295L36.5594 5.37127ZM32.9792 7.00219L32.5336 6.10692C31.9358 6.40442 31.3438 6.71183 30.7578 7.02893L31.2337 7.90842L31.7096 8.78791C32.2756 8.48165 32.8474 8.18477 33.4247 7.89746L32.9792 7.00219ZM29.5191 8.87456L29.0134 8.01187C28.4373 8.34958 27.8675 8.69685 27.3042 9.05345L27.8391 9.89837L28.3739 10.7433C28.918 10.3988 29.4684 10.0634 30.0248 9.73725L29.5191 8.87456ZM26.1952 10.9787L25.6318 10.1525C25.0802 10.5287 24.5353 10.914 23.9974 11.3083L24.5886 12.1148L25.1798 12.9214C25.6994 12.5405 26.2257 12.1683 26.7586 11.8049L26.1952 10.9787ZM23.0216 13.3049L22.4033 12.519C21.8788 12.9316 21.3614 13.353 20.8515 13.783L21.4961 14.5475L22.1408 15.312C22.6334 14.8966 23.1331 14.4895 23.6399 14.0909L23.0216 13.3049ZM20.0137 15.8412L19.3435 15.099C18.8482 15.5463 18.3606 16.0019 17.8809 16.4656L18.5759 17.1846L19.2709 17.9036C19.7343 17.4556 20.2054 17.0154 20.6839 16.5834L20.0137 15.8412ZM17.1846 18.5759L16.4656 17.8809C16.0018 18.3606 15.5463 18.8482 15.099 19.3435L15.8412 20.0137L16.5834 20.6839C17.0154 20.2054 17.4556 19.7343 17.9036 19.2709L17.1846 18.5759ZM14.5475 21.4961L13.783 20.8515C13.353 21.3614 12.9316 21.8788 12.519 22.4033L13.3049 23.0216L14.0909 23.6399C14.4895 23.1331 14.8966 22.6334 15.312 22.1408L14.5475 21.4961ZM12.1148 24.5886L11.3083 23.9974C10.914 24.5353 10.5287 25.0802 10.1525 25.6318L10.9787 26.1952L11.8049 26.7586C12.1683 26.2257 12.5405 25.6994 12.9214 25.1798L12.1148 24.5886ZM9.89837 27.8391L9.05345 27.3042C8.69684 27.8675 8.34957 28.4373 8.01186 29.0134L8.87455 29.5191L9.73725 30.0248C10.0634 29.4684 10.3988 28.9181 10.7433 28.374L9.89837 27.8391ZM7.90842 31.2337L7.02893 30.7578C6.71183 31.3438 6.40442 31.9358 6.10692 32.5336L7.00218 32.9792L7.89745 33.4247C8.18476 32.8474 8.48165 32.2756 8.78791 31.7097L7.90842 31.2337ZM6.15619 34.7549L5.24617 34.3403C4.96985 34.9469 4.70358 35.5589 4.44755 36.1763L5.37127 36.5594L6.295 36.9425C6.54223 36.3462 6.79937 35.7552 7.06621 35.1694L6.15619 34.7549ZM4.64908 38.3892L3.71273 38.0382C3.479 38.6616 3.25558 39.29 3.04268 39.9233L3.99055 40.2419L4.93842 40.5606C5.14399 39.9491 5.35973 39.3423 5.58543 38.7403L4.64908 38.3892ZM3.39576 42.1174L2.43748 41.8316C2.24706 42.47 2.06723 43.1129 1.89818 43.7602L2.86573 44.0129L3.83328 44.2656C3.99651 43.6405 4.17017 43.0197 4.35404 42.4033L3.39576 42.1174ZM2.40183 45.9229L1.42617 45.7036C1.28021 46.353 1.14503 47.0065 1.02083 47.6638L2.00344 47.8495L2.98606 48.0351C3.106 47.4003 3.23655 46.7693 3.37749 46.1422L2.40183 45.9229ZM1.67102 49.7908L0.682616 49.639C0.581728 50.2956 0.491738 50.9559 0.412838 51.6195L1.40584 51.7376L2.39885 51.8557C2.47506 51.2146 2.56198 50.5769 2.65942 49.9427L1.67102 49.7908ZM1.20688 53.6948L0.21043 53.6106C0.15434 54.2743 0.109309 54.9412 0.0755225 55.611L1.07425 55.6614L2.07298 55.7118C2.10563 55.0645 2.14914 54.4202 2.20333 53.7791L1.20688 53.6948ZM0 58.6125C0 58.277 0.00281952 57.9421 0.00843617 57.6079L1.00829 57.6247L2.00815 57.6415C2.00273 57.9645 2 58.2882 2 58.6125C2 58.9368 2.00273 59.2605 2.00815 59.5835L1.00829 59.6003L0.00843617 59.6171C0.00281952 59.2829 0 58.948 0 58.6125ZM1.07425 61.5636L0.0755223 61.614C0.109309 62.2838 0.15434 62.9506 0.210431 63.6144L1.20688 63.5301L2.20333 63.4459C2.14914 62.8047 2.10563 62.1604 2.07298 61.5132L1.07425 61.5636ZM1.40584 65.4874L0.412838 65.6054C0.491738 66.2691 0.581727 66.9294 0.682615 67.586L1.67102 67.4342L2.65942 67.2823C2.56198 66.6481 2.47506 66.0104 2.39885 65.3693L1.40584 65.4874ZM2.00344 69.3755L1.02083 69.5612C1.14503 70.2185 1.28021 70.872 1.42617 71.5214L2.40183 71.3021L3.37749 71.0828C3.23655 70.4557 3.106 69.8247 2.98606 69.1899L2.00344 69.3755ZM2.86573 73.2121L1.89818 73.4648C2.06723 74.1121 2.24706 74.755 2.43749 75.3934L3.39576 75.1076L4.35404 74.8217C4.17017 74.2053 3.99651 73.5844 3.83328 72.9594L2.86573 73.2121ZM3.99055 76.9831L3.04268 77.3017C3.25558 77.935 3.479 78.5634 3.71273 79.1868L4.64908 78.8358L5.58543 78.4847C5.35973 77.8827 5.144 77.2759 4.93842 76.6644L3.99055 76.9831ZM5.37127 80.6656L4.44755 81.0486C4.70358 81.6661 4.96986 82.2781 5.24617 82.8847L6.15619 82.4701L7.06621 82.0556C6.79938 81.4698 6.54224 80.8787 6.295 80.2825L5.37127 80.6656ZM7.00219 84.2458L6.10692 84.6913C6.40442 85.2892 6.71183 85.8812 7.02893 86.4672L7.90842 85.9913L8.78791 85.5153C8.48165 84.9494 8.18477 84.3776 7.89746 83.8003L7.00219 84.2458ZM8.87456 87.7059L8.01187 88.2116C8.34958 88.7877 8.69685 89.3575 9.05345 89.9208L9.89837 89.3859L10.7433 88.851C10.3988 88.3069 10.0634 87.7566 9.73725 87.2002L8.87456 87.7059ZM10.9787 91.0298L10.1525 91.5931C10.5287 92.1448 10.914 92.6897 11.3083 93.2276L12.1148 92.6364L12.9214 92.0452C12.5405 91.5256 12.1683 90.9992 11.8049 90.4664L10.9787 91.0298ZM13.3049 94.2034L12.519 94.8217C12.9316 95.3462 13.353 95.8636 13.783 96.3735L14.5475 95.7288L15.312 95.0842C14.8966 94.5916 14.4895 94.0919 14.0909 93.5851L13.3049 94.2034ZM16.4656 99.3441C16.0019 98.8644 15.5463 98.3768 15.099 97.8815L15.8412 97.2113L16.5834 96.5411C17.0154 97.0196 17.4556 97.4907 17.9036 97.9541L17.1846 98.6491L16.4656 99.3441ZM18.5759 100.04L17.8809 100.759C18.3606 101.223 18.8482 101.679 19.3435 102.126L20.0137 101.384L20.6839 100.642C20.2054 100.21 19.7343 99.7694 19.2709 99.3214L18.5759 100.04ZM21.4961 102.678L20.8515 103.442C21.3614 103.872 21.8788 104.293 22.4033 104.706L23.0216 103.92L23.6399 103.134C23.1331 102.735 22.6334 102.328 22.1408 101.913L21.4961 102.678ZM24.5886 105.11L23.9974 105.917C24.5353 106.311 25.0802 106.696 25.6318 107.072L26.1952 106.246L26.7586 105.42C26.2257 105.057 25.6994 104.684 25.1798 104.304L24.5886 105.11ZM27.8391 107.327L27.3042 108.172C27.535 108.318 27.767 108.462 28 108.605V107.072L27.8391 107.327ZM87.7317 108.394L88 107.5L87.9244 107.056C88.2352 106.867 88.5441 106.676 88.851 106.482L89.3859 107.327L89.9208 108.172C89.3575 108.528 88.7877 108.875 88.2116 109.213L87.7317 108.394ZM91.0298 106.246L91.5931 107.072C92.1448 106.696 92.6897 106.311 93.2276 105.917L92.6364 105.11L92.0452 104.304C91.5256 104.684 90.9992 105.057 90.4664 105.42L91.0298 106.246ZM94.2034 103.92L94.8217 104.706C95.3462 104.293 95.8636 103.872 96.3735 103.442L95.7288 102.678L95.0842 101.913C94.5916 102.328 94.0919 102.735 93.5851 103.134L94.2034 103.92ZM97.2113 101.384L97.8815 102.126C98.3768 101.679 98.8644 101.223 99.3441 100.759L98.6491 100.04L97.9541 99.3214C97.4907 99.7694 97.0196 100.21 96.5411 100.642L97.2113 101.384ZM100.04 98.6491L100.759 99.3441C101.223 98.8644 101.679 98.3768 102.126 97.8815L101.384 97.2113L100.642 96.5411C100.21 97.0196 99.7694 97.4907 99.3214 97.9541L100.04 98.6491ZM102.678 95.7288L103.442 96.3735C103.872 95.8636 104.293 95.3462 104.706 94.8217L103.92 94.2034L103.134 93.5851C102.735 94.0918 102.328 94.5916 101.913 95.0842L102.678 95.7288ZM105.11 92.6364L105.917 93.2276C106.311 92.6897 106.696 92.1448 107.072 91.5931L106.246 91.0298L105.42 90.4664C105.057 90.9992 104.684 91.5256 104.304 92.0452L105.11 92.6364ZM107.327 89.3859L108.172 89.9208C108.528 89.3575 108.875 88.7877 109.213 88.2116L108.35 87.7059L107.488 87.2002C107.162 87.7566 106.826 88.3069 106.482 88.851L107.327 89.3859ZM109.317 85.9912L110.196 86.4672C110.513 85.8812 110.821 85.2891 111.118 84.6913L110.223 84.2458L109.328 83.8003C109.04 84.3776 108.743 84.9494 108.437 85.5153L109.317 85.9912ZM111.069 82.4701L111.979 82.8847C112.255 82.2781 112.521 81.666 112.777 81.0486L111.854 80.6656L110.93 80.2825C110.683 80.8787 110.426 81.4698 110.159 82.0556L111.069 82.4701ZM112.576 78.8358L113.512 79.1868C113.746 78.5634 113.969 77.935 114.182 77.3017L113.234 76.983L112.287 76.6644C112.081 77.2759 111.865 77.8827 111.64 78.4847L112.576 78.8358ZM113.829 75.1075L114.787 75.3934C114.978 74.755 115.158 74.1121 115.327 73.4647L114.359 73.2121L113.392 72.9594C113.228 73.5844 113.055 74.2053 112.871 74.8217L113.829 75.1075ZM114.823 71.3021L115.799 71.5214C115.945 70.872 116.08 70.2185 116.204 69.5612L115.222 69.3755L114.239 69.1899C114.119 69.8247 113.988 70.4557 113.847 71.0828L114.823 71.3021ZM116.812 65.6054C116.733 66.2691 116.643 66.9294 116.542 67.586L115.554 67.4342L114.566 67.2823C114.663 66.6481 114.75 66.0104 114.826 65.3693L115.819 65.4874L116.812 65.6054ZM116.018 63.5301L117.015 63.6143C117.071 62.9506 117.116 62.2838 117.149 61.614L116.151 61.5636L115.152 61.5132C115.119 62.1604 115.076 62.8047 115.022 63.4459L116.018 63.5301Z" fill="#C3911A"/>
<path d="M28 110C33.4724 83.6895 37.3865 74.442 45.5 65.5M51.5 64C43.5333 77.0886 40.401 88.2953 37.5 110" stroke="black" stroke-width="1.5"/>
<path d="M51 62.5L55.358 75.574C55.4483 75.845 55.6502 76.0644 55.9128 76.1769L57.9693 77.0583C58.5185 77.2936 58.7401 77.9548 58.4437 78.4736L57.1994 80.6511C57.0714 80.875 57.0349 81.1397 57.0975 81.3898L57.4034 82.6137C57.621 83.4842 58.7796 83.6457 59.2077 82.8572C64.8251 72.5104 64.1601 67.4191 56 61" stroke="black" stroke-width="1.5"/>
<path d="M47 61.0005L35.4084 61.9664C35.1467 61.9883 34.8869 61.9062 34.6852 61.7381L32.7682 60.1407C32.3439 59.7871 31.7134 59.8444 31.3598 60.2687L29.7998 62.1407C29.6099 62.3687 29.3284 62.5005 29.0316 62.5005H27.4073C26.5174 62.5005 26.076 61.4273 26.7171 60.8101C35.5293 52.3274 40.5169 50.7875 48 56.5005" stroke="black" stroke-width="1.5"/>
<path d="M49 56.5L46.6003 44.9814C46.537 44.6778 46.6182 44.3621 46.82 44.1266L48.7434 41.8827C49.1416 41.4181 49.033 40.7081 48.5142 40.3839L45.8259 38.7037C45.6161 38.5726 45.4624 38.3683 45.3944 38.1304L45.2516 37.6305C44.9955 36.7341 45.9946 36.0171 46.7512 36.5617C55.4996 42.859 58.5653 48.229 53 58.5" stroke="black" stroke-width="1.5"/>
<path d="M55.5 60.9998L68.5642 61.4835C68.8421 61.4938 69.1117 61.3879 69.3083 61.1913L70.71 59.7897C71.1314 59.3682 71.8256 59.4067 72.1979 59.8721L73.1605 61.0752C73.3722 61.3399 73.7036 61.4793 74.0408 61.4455L76.0081 61.2488C76.9069 61.1589 77.233 60.0183 76.5134 59.4723C67.3158 52.4941 61.2688 49.5393 53 58.5" stroke="black" stroke-width="1.5"/>
<circle cx="49" cy="59" r="3" fill="#C3911A" stroke="black" stroke-width="1.5"/>
<circle cx="48" cy="64" r="3" fill="#C3911A" stroke="black" stroke-width="1.5"/>
<circle cx="53" cy="61" r="3" fill="#C3911A" stroke="black" stroke-width="1.5"/>
<rect x="59.75" y="88.75" width="28.5" height="20.5" rx="3.25" stroke="black" stroke-width="1.5"/>
<path d="M70 88V86.5C70 85.3954 70.8954 84.5 72 84.5H76.5C77.6046 84.5 78.5 85.3954 78.5 86.5V88.5" stroke="black" stroke-width="1.5"/>
<path d="M60 98H88.5" stroke="black" stroke-width="1.5"/>
<rect x="66.75" y="95.75" width="2.5" height="6.5" rx="1.25" fill="#F5F3EF" stroke="black" stroke-width="1.5"/>
<rect x="79.75" y="95.75" width="2.5" height="6.5" rx="1.25" fill="#F5F3EF" stroke="black" stroke-width="1.5"/>
</svg>
