<svg width="152" height="149" viewBox="0 0 152 149" fill="none" xmlns="http://www.w3.org/2000/svg">
<path fill-rule="evenodd" clip-rule="evenodd" d="M129.788 98.5861L130.719 98.9503C130.839 98.6451 130.956 98.3385 131.071 98.0303C131.185 97.7221 131.297 97.4136 131.407 97.1048L130.464 96.7708L129.522 96.4367C129.416 96.7354 129.307 97.0339 129.196 97.332C129.085 97.6301 128.972 97.9267 128.857 98.2219L129.788 98.5861ZM131.079 94.9447L132.031 95.2482C132.231 94.622 132.419 93.9948 132.597 93.3666L131.635 93.0942L130.673 92.8218C130.501 93.4291 130.319 94.0356 130.126 94.6412L131.079 94.9447ZM132.13 91.2308L133.101 91.4717C133.259 90.8355 133.406 90.1986 133.542 89.5613L132.564 89.3522L131.586 89.1432C131.454 89.7592 131.312 90.3748 131.16 90.9898L132.13 91.2308ZM132.937 87.4579L133.921 87.6347C134.037 86.9899 134.142 86.3448 134.236 85.6996L133.246 85.5553L132.257 85.4109C132.166 86.0343 132.064 86.6578 131.952 87.2811L132.937 87.4579ZM133.493 83.6427L134.487 83.7544C134.56 83.1028 134.623 82.4514 134.674 81.8005L133.677 81.7216L132.68 81.6427C132.631 82.2718 132.57 82.9012 132.499 83.5309L133.493 83.6427ZM133.798 79.7976L134.796 79.8435C134.827 79.1892 134.846 78.5355 134.854 77.8828L133.854 77.8698L132.855 77.8568C132.846 78.4875 132.828 79.1192 132.799 79.7516L133.798 79.7976ZM133.848 75.9402L134.848 75.9203C134.834 75.2657 134.811 74.6124 134.776 73.9605L133.777 74.0134L132.779 74.0663C132.812 74.6963 132.835 75.3277 132.848 75.9602L133.848 75.9402ZM133.644 72.0893L134.64 72.0036C134.584 71.3512 134.517 70.7004 134.44 70.0515L133.447 70.1699L132.454 70.2883C132.529 70.9154 132.593 71.5444 132.647 72.175L133.644 72.0893ZM133.187 68.259L134.176 68.1081C134.077 67.4611 133.968 66.8164 133.848 66.1741L132.865 66.3573L131.882 66.5405C131.998 67.1613 132.103 67.7845 132.199 68.4098L133.187 68.259ZM132.481 64.4665L133.457 64.2512C133.316 63.6123 133.165 62.9761 133.004 62.3428L132.035 62.5899L131.066 62.8369C131.222 63.449 131.368 64.0641 131.504 64.6817L132.481 64.4665ZM131.528 60.7288L132.488 60.4503C132.306 59.8218 132.114 59.1966 131.911 58.575L130.96 58.8846L130.009 59.1943C130.205 59.7953 130.391 60.3997 130.567 61.0073L131.528 60.7288ZM130.333 57.0603L131.273 56.7199C131.051 56.1049 130.818 55.4937 130.576 54.8865L129.647 55.2574L128.718 55.6283C128.953 56.2153 129.178 56.8062 129.393 57.4008L130.333 57.0603ZM128.902 53.4775L129.818 53.0766C129.556 52.4775 129.284 51.8827 129.003 51.2925L128.1 51.7229L127.198 52.1534C127.47 52.7241 127.733 53.2991 127.986 53.8784L128.902 53.4775ZM127.242 49.9952L128.13 49.5356C127.829 48.955 127.519 48.3791 127.2 47.8083L126.327 48.2965L125.455 48.7848C125.763 49.3366 126.063 49.8934 126.353 50.4548L127.242 49.9952ZM125.358 46.6285L126.215 46.1122C125.877 45.5523 125.53 44.9977 125.174 44.4487L124.335 44.9927L123.496 45.5367C123.84 46.0675 124.175 46.6036 124.502 47.1449L125.358 46.6285ZM122.934 41.2287C123.325 41.7533 123.707 42.284 124.08 42.8204L123.259 43.3915L122.439 43.9626C122.078 43.444 121.708 42.9311 121.33 42.4239L122.132 41.8263L122.934 41.2287ZM120.954 40.2984L121.736 39.6748C121.328 39.1641 120.912 38.6595 120.488 38.1615L119.727 38.8103L118.966 39.4591C119.376 39.9405 119.778 40.4281 120.172 40.9219L120.954 40.2984ZM118.452 37.3635L119.191 36.6901C118.751 36.207 118.303 35.7307 117.846 35.2613L117.129 35.9586L116.412 36.6559C116.854 37.1096 117.287 37.57 117.712 38.0369L118.452 37.3635ZM115.762 34.5985L116.455 33.878C115.985 33.4253 115.506 32.9797 115.02 32.5416L114.351 33.2845L113.681 34.0275C114.151 34.4509 114.614 34.8815 115.068 35.319L115.762 34.5985ZM112.896 32.0168L113.54 31.2522C113.041 30.8315 112.534 30.4183 112.02 30.0129L111.401 30.7984L110.782 31.5838C111.279 31.9756 111.769 32.3749 112.251 32.7815L112.896 32.0168ZM109.867 29.6304L110.46 28.8249C109.934 28.4379 109.401 28.0588 108.86 27.6879L108.294 28.5124L107.728 29.337C108.251 29.6955 108.766 30.0618 109.275 30.4358L109.867 29.6304ZM106.686 27.4477L107.225 26.6049C106.675 26.254 106.119 25.9112 105.555 25.5768L105.045 26.4368L104.535 27.2968C105.079 27.6199 105.617 27.9512 106.148 28.2904L106.686 27.4477ZM103.369 25.4789L103.85 24.6027C103.279 24.2887 102.702 23.9831 102.117 23.6862L101.664 24.5778L101.211 25.4694C101.776 25.7564 102.335 26.0517 102.887 26.3552L103.369 25.4789ZM99.9312 23.7327L100.355 22.8269C99.7635 22.5503 99.1658 22.2825 98.5618 22.0235L98.1678 22.9427L97.7738 23.8618C98.3579 24.1121 98.9358 24.3711 99.5076 24.6385L99.9312 23.7327ZM96.385 22.2122L96.7492 21.2809C96.444 21.1616 96.1374 21.0445 95.8292 20.9296C95.521 20.8148 95.2125 20.7027 94.9037 20.5933L94.5697 21.5358L94.2356 22.4784C94.5344 22.5842 94.8328 22.6927 95.1309 22.8038C95.429 22.9149 95.7256 23.0281 96.0208 23.1435L96.385 22.2122ZM92.7436 20.9216L93.0471 19.9687C92.4209 19.7693 91.7937 19.5807 91.1656 19.4029L90.8932 20.3651L90.6208 21.3272C91.2281 21.4992 91.8346 21.6815 92.4401 21.8744L92.7436 20.9216ZM89.0297 19.8701L89.2706 18.8995C88.6344 18.7416 87.9975 18.5946 87.3602 18.4583L87.1512 19.4362L86.9421 20.4141C87.5581 20.5458 88.1737 20.688 88.7887 20.8406L89.0297 19.8701ZM85.2568 19.0636L85.4337 18.0794C84.7888 17.9635 84.1437 17.8586 83.4986 17.7645L83.3542 18.754L83.2098 19.7435C83.8332 19.8345 84.4567 19.9359 85.08 20.0479L85.2568 19.0636ZM81.4416 18.507L81.5533 17.5132C80.9017 17.44 80.2503 17.3776 79.5994 17.3261L79.5205 18.323L79.4416 19.3199C80.0707 19.3697 80.7001 19.4299 81.3298 19.5007L81.4416 18.507ZM77.5965 18.2026L77.6425 17.2037C76.9881 17.1736 76.3344 17.1543 75.6817 17.1458L75.6687 18.1458L75.6557 19.1457C76.2864 19.1539 76.9181 19.1725 77.5505 19.2016L77.5965 18.2026ZM73.7392 18.1525L73.7192 17.1527C73.0647 17.1658 72.4113 17.1896 71.7594 17.2241L71.8123 18.2227L71.8652 19.2213C72.4952 19.188 73.1266 19.1649 73.7591 19.1523L73.7392 18.1525ZM69.8882 18.3564L69.8025 17.36C69.1501 17.4162 68.4993 17.483 67.8505 17.5603L67.9688 18.5533L68.0872 19.5462C68.7143 19.4715 69.3433 19.4069 69.9739 19.3527L69.8882 18.3564ZM66.0579 18.813L65.907 17.8244C65.26 17.9232 64.6153 18.0324 63.973 18.1521L64.1562 19.1352L64.3394 20.1183C64.9602 20.0026 65.5834 19.897 66.2088 19.8015L66.0579 18.813ZM62.2654 19.5196L62.0502 18.5431C61.4112 18.6839 60.775 18.8351 60.1418 18.9965L60.3888 19.9656L60.6358 20.9346C61.248 20.7785 61.863 20.6323 62.4807 20.4962L62.2654 19.5196ZM58.5277 20.4725L58.2492 19.512C57.6207 19.6943 56.9956 19.8867 56.3739 20.0891L56.6836 21.04L56.9932 21.9908C57.5942 21.7951 58.1986 21.6091 58.8062 21.4329L58.5277 20.4725ZM54.8592 21.6671L54.5188 20.7269C53.9038 20.9495 53.2926 21.1822 52.6854 21.4246L53.0563 22.3533L53.4272 23.282C54.0142 23.0476 54.6051 22.8227 55.1997 22.6074L54.8592 21.6671ZM51.2764 23.0979L50.8756 22.1818C50.2765 22.4439 49.6816 22.7158 49.0914 22.9973L49.5218 23.8999L49.9523 24.8025C50.523 24.5303 51.0981 24.2675 51.6773 24.014L51.2764 23.0979ZM47.7941 24.7586L47.3345 23.8704C46.7539 24.1709 46.178 24.4809 45.6072 24.8002L46.0955 25.6729L46.5837 26.5456C47.1355 26.2369 47.6923 25.9372 48.2537 25.6467L47.7941 24.7586ZM44.4275 26.642L43.9111 25.7857C43.3512 26.1233 42.7966 26.4701 42.2476 26.8261L42.7916 27.6652L43.3356 28.5042C43.8664 28.1601 44.4026 27.8248 44.9438 27.4984L44.4275 26.642ZM41.1904 28.7408L40.6193 27.9199C40.0829 28.2931 39.5523 28.6753 39.0276 29.0663L39.6253 29.8681L40.2229 30.6699C40.73 30.2919 41.243 29.9224 41.7615 29.5617L41.1904 28.7408ZM38.0973 31.0463L37.4738 30.2645C36.963 30.6718 36.4585 31.0879 35.9604 31.5125L36.6092 32.2734L37.258 33.0344C37.7394 32.624 38.2271 32.2219 38.7208 31.8281L38.0973 31.0463ZM35.1624 33.5485L34.489 32.8093C34.0059 33.2493 33.5296 33.6977 33.0602 34.1543L33.7575 34.8711L34.4548 35.5878C34.9085 35.1465 35.3689 34.7131 35.8358 34.2878L35.1624 33.5485ZM32.3974 36.2386L31.6769 35.5451C31.2242 36.0155 30.7787 36.4939 30.3405 36.9803L31.0834 37.6497L31.8264 38.319C32.2499 37.8489 32.6805 37.3866 33.1179 36.932L32.3974 36.2386ZM29.8157 39.1043L29.0511 38.4599C28.6304 38.959 28.2172 39.4659 27.8118 39.9804L28.5973 40.5993L29.3828 41.2182C29.7745 40.721 30.1738 40.2311 30.5804 39.7488L29.8157 39.1043ZM27.4293 42.133L26.6238 41.5403C26.2369 42.0662 25.8578 42.5996 25.4868 43.1402L26.3113 43.706L27.1359 44.2718C27.4944 43.7493 27.8608 43.2339 28.2347 42.7257L27.4293 42.133ZM25.2466 45.3139L24.4038 44.7756C24.0529 45.325 23.7101 45.8815 23.3757 46.445L24.2357 46.9553L25.0957 47.4656C25.4188 46.9211 25.7501 46.3832 26.0893 45.8522L25.2466 45.3139ZM23.2779 48.6316L22.4016 48.1498C22.0876 48.7209 21.782 49.2987 21.4852 49.8831L22.3767 50.336L23.2683 50.7889C23.5553 50.2239 23.8506 49.6654 24.1541 49.1134L23.2779 48.6316ZM21.5316 52.069L20.6258 51.6454C20.3492 52.2367 20.0814 52.8344 19.8225 53.4384L20.7416 53.8324L21.6607 54.2264C21.9111 53.6423 22.17 53.0644 22.4374 52.4926L21.5316 52.069ZM18.7286 56.171C18.8434 55.8628 18.9605 55.5561 19.0798 55.251L20.0111 55.6152L20.9425 55.9794C20.827 56.2746 20.7138 56.5712 20.6027 56.8693C20.4916 57.1674 20.3832 57.4658 20.2773 57.7645L19.3347 57.4305L18.3922 57.0965C18.5016 56.7877 18.6137 56.4792 18.7286 56.171ZM18.7205 59.2566L17.7677 58.9531C17.5682 59.5793 17.3796 60.2065 17.2018 60.8346L18.164 61.107L19.1261 61.3794C19.2981 60.7721 19.4804 60.1656 19.6733 59.5601L18.7205 59.2566ZM17.669 62.9705L16.6985 62.7296C16.5405 63.3658 16.3935 64.0026 16.2572 64.6399L17.2351 64.849L18.213 65.0581C18.3447 64.4421 18.4869 63.8264 18.6395 63.2114L17.669 62.9705ZM16.8626 66.7434L15.8783 66.5665C15.7625 67.2114 15.6575 67.8565 15.5634 68.5016L16.5529 68.646L17.5424 68.7904C17.6334 68.1669 17.7348 67.5435 17.8468 66.9202L16.8626 66.7434ZM16.3059 70.5586L15.3121 70.4469C15.2389 71.0985 15.1766 71.7499 15.125 72.4008L16.1219 72.4797L17.1188 72.5585C17.1686 71.9295 17.2288 71.3 17.2996 70.6703L16.3059 70.5586ZM16.0016 74.4037L15.0026 74.3577C14.9725 75.0121 14.9533 75.6658 14.9448 76.3185L15.9447 76.3315L16.9446 76.3445C16.9528 75.7137 16.9714 75.082 17.0005 74.4497L16.0016 74.4037ZM15.9514 78.261L14.9516 78.281C14.9647 78.9355 14.9885 79.5889 15.023 80.2408L16.0216 80.1879L17.0202 80.135C16.9869 79.505 16.9638 78.8736 16.9512 78.2411L15.9514 78.261ZM16.1553 82.1119L15.159 82.1976C15.2151 82.8501 15.2819 83.5009 15.3592 84.1497L16.3522 84.0313L17.3452 83.913C17.2704 83.2858 17.2058 82.6569 17.1516 82.0263L16.1553 82.1119ZM16.6119 85.9423L15.6233 86.0932C15.7221 86.7402 15.8314 87.3849 15.951 88.0272L16.9341 87.844L17.9172 87.6608C17.8015 87.04 17.6959 86.4168 17.6004 85.7914L16.6119 85.9423ZM17.3186 89.7348L16.342 89.95C16.4828 90.589 16.634 91.2252 16.7955 91.8584L17.7645 91.6114L18.7335 91.3644C18.5774 90.7522 18.4313 90.1372 18.2951 89.5195L17.3186 89.7348ZM18.2714 93.4725L17.311 93.751C17.4932 94.3794 17.6856 95.0046 17.888 95.6263L18.8389 95.3166L19.7897 95.007C19.594 94.4059 19.408 93.8015 19.2318 93.194L18.2714 93.4725ZM19.466 97.1409L18.5258 97.4814C18.7485 98.0964 18.9811 98.7076 19.2235 99.3147L20.1522 98.9439L21.0809 98.573C20.8465 97.986 20.6216 97.3951 20.4063 96.8005L19.466 97.1409ZM20.8968 100.724L19.9807 101.125C20.2428 101.724 20.5147 102.319 20.7962 102.909L21.6988 102.478L22.6014 102.048C22.3292 101.477 22.0664 100.902 21.8129 100.323L20.8968 100.724ZM22.5991 106.393C22.2798 105.822 21.9698 105.246 21.6693 104.666L22.5575 104.206L23.4456 103.746C23.7361 104.308 24.0358 104.865 24.3445 105.416L23.4718 105.905L22.5991 106.393ZM24.4409 107.573L23.5846 108.089C23.9222 108.649 24.269 109.204 24.625 109.753L25.4641 109.209L26.3031 108.665C25.959 108.134 25.6237 107.598 25.2973 107.056L24.4409 107.573ZM26.5397 110.81L25.7188 111.381C26.092 111.917 26.4742 112.448 26.8652 112.973L27.667 112.375L28.4688 111.777C28.0908 111.27 27.7213 110.757 27.3606 110.239L26.5397 110.81ZM29.3114 116.04C28.8868 115.542 28.4707 115.037 28.0634 114.526L28.8452 113.903L29.627 113.279C30.0208 113.773 30.4229 114.261 30.8333 114.742L30.0723 115.391L29.3114 116.04ZM31.3474 116.838L30.6082 117.511C30.7605 117.678 30.9138 117.845 31.0681 118.01L33.0314 117.891L33.3868 117.545C32.9454 117.092 32.512 116.631 32.0867 116.164L31.3474 116.838ZM115.851 119.135L114.912 119.029C115.057 118.891 115.201 118.753 115.344 118.613L115.851 119.135ZM117.402 117.963L118.122 118.656C118.575 118.186 119.02 117.707 119.459 117.221L118.716 116.552L117.973 115.882C117.549 116.352 117.119 116.815 116.681 117.269L117.402 117.963ZM119.983 115.097L120.748 115.741C121.169 115.242 121.582 114.735 121.987 114.221L121.202 113.602L120.416 112.983C120.025 113.48 119.625 113.97 119.219 114.452L119.983 115.097ZM122.37 112.068L123.175 112.661C123.562 112.135 123.941 111.602 124.312 111.061L123.488 110.495L122.663 109.929C122.305 110.452 121.938 110.967 121.564 111.476L122.37 112.068ZM126.423 107.756C126.089 108.32 125.746 108.876 125.395 109.426L124.553 108.887L123.71 108.349C124.049 107.818 124.38 107.28 124.703 106.736L125.563 107.246L126.423 107.756ZM126.521 105.57L127.398 106.051C127.712 105.48 128.017 104.903 128.314 104.318L127.422 103.865L126.531 103.412C126.244 103.977 125.948 104.536 125.645 105.088L126.521 105.57ZM128.267 102.132L129.173 102.556C129.45 101.965 129.718 101.367 129.977 100.763L129.058 100.369L128.138 99.9749C127.888 100.559 127.629 101.137 127.362 101.709L128.267 102.132Z" fill="#C3911A"/>
<path d="M57.8252 77.8397C58.3714 69.2996 59.8065 65.053 67.0553 59.8652C67.1194 59.8194 67.1927 59.7794 67.2658 59.7499C76.8406 55.8757 77.7966 52.6446 78.6342 46.7041" stroke="black" stroke-width="1.5"/>
<path d="M57.8258 78.5468C50.2509 55.6873 58.1843 41.3963 75.7646 39.2734C93.7031 42.104 97.4007 57.2854 94.0621 76.4239C91.2186 61.1032 86.0424 57.6584 72.5356 57.6718" stroke="black" stroke-width="1.5"/>
<path d="M28.1348 93.9861V70.3115C28.1348 69.7592 28.5825 69.3115 29.1348 69.3115L54.9549 69.3115M48.8757 98.6349H65.3254M85.3511 98.6349H121.184C121.736 98.6349 122.184 98.1872 122.184 97.6349V71.3843C122.184 70.832 121.736 70.3843 121.184 70.3843H95.364" stroke="black" stroke-width="1.5"/>
<path d="M61.8983 81.1695L53.9282 87.3684C53.5654 87.6506 53.4417 88.1438 53.6284 88.5639L55.0328 91.7238C55.2316 92.1713 55.7252 92.4089 56.199 92.2853L66.3759 89.6305C66.8777 89.4996 67.199 89.0056 67.0963 88.4972C66.547 85.7782 65.6926 83.9812 63.2295 81.2763C62.8838 80.8966 62.3036 80.8542 61.8983 81.1695Z" fill="#C3911A" stroke="#C3911A" stroke-width="1.5"/>
<path d="M29.5652 104.356L47.8029 95.4163L54.2397 93.2707L66.7033 89.9022C67.1527 89.7807 67.4605 89.3637 67.4342 88.899C67.198 84.7259 66.3265 82.4926 63.4264 79.8551C63.0792 79.5393 62.5559 79.5263 62.1819 79.8099L52.5091 87.148C52.4709 87.1769 52.4307 87.2031 52.3887 87.2263L46.5929 90.4324L28.1348 98.6347" stroke="black" stroke-width="1.5"/>
<path d="M52.0941 87.1904L54.4552 91.9128C54.7218 92.4458 54.4658 93.0923 53.9065 93.2983L49.0234 95.0973C48.5356 95.2771 47.9914 95.053 47.7715 94.5819L45.6572 90.0512" stroke="black" stroke-width="1.5"/>
<path d="M66.2295 92.3114C74.0722 101.146 78.1648 99.1709 85.3036 91.9526C88.8746 88.4821 90.7811 84.1807 94.1343 75.4463" stroke="black" stroke-width="1.5"/>
<path d="M64.2529 72.8867C68.1236 74.7804 69.7728 74.3342 72.4778 72.8867" stroke="black" stroke-width="1.5"/>
<path d="M78.1992 72.8867C82.0698 74.7804 83.719 74.3342 86.4241 72.8867" stroke="black" stroke-width="1.5"/>
<path d="M70.332 89.3359C75.3807 91.4883 77.5318 90.9812 81.0601 89.3359" stroke="black" stroke-width="1.5"/>
<path d="M73.1924 82.8994C75.885 85.0518 77.0323 84.5447 78.914 82.8994" stroke="black" stroke-width="1.5"/>
<path d="M33.4986 132.964C31.825 116.908 34.1615 111.441 44.858 109.024C44.9128 109.011 44.9724 109.003 45.0284 109C64.7497 107.964 66.0016 102.98 66.398 93.2705" stroke="black" stroke-width="1.5"/>
<path d="M83.5635 94.3447C87.5158 105.757 93.1546 107.55 104.662 109.364C114.353 112.213 116.341 114.572 117.164 119.293C117.173 119.348 117.178 119.405 117.178 119.461V132.608" stroke="black" stroke-width="1.5"/>
<path d="M47.4453 132.607C47.5387 127.745 48.6869 126.038 53.0661 125.119C53.1321 125.105 53.2009 125.098 53.2683 125.098H99.1793C99.2579 125.098 99.338 125.107 99.4143 125.126C102.568 125.912 103.151 127.254 103.577 130.029C103.585 130.078 103.589 130.129 103.589 130.179V132.607" stroke="black" stroke-width="1.5"/>
</svg>
