<svg width="65" height="65" viewBox="0 0 65 65" fill="none" xmlns="http://www.w3.org/2000/svg">
<circle cx="32.2535" cy="32.2535" r="32.2535" fill="#9E421B"/>
<g clip-path="url(#clip0_1039_3715)">
<path d="M39.3694 21.7707H42.2793L42.4352 14.5137H36.6519C33.6096 14.5137 27.8566 16.0624 27.8577 21.8032C27.8546 21.865 27.7881 23.1818 27.8416 26.6087H21.2637V33.0594H27.916V50.7989H35.7778V33.0595H42.2284V26.6088H35.7778V24.9793C35.7779 23.7414 36.8023 21.7707 39.3694 21.7707ZM40.6159 28.2214V31.4467H34.1652V49.1862H29.5288V31.4467H22.8765V28.2214H29.4858L29.4693 27.369C29.3909 23.5082 29.4676 21.8842 29.4693 21.8283C29.4693 16.2178 36.3598 16.1263 36.6531 16.1263H40.788L40.7006 20.158H39.3694C36.1543 20.158 34.1653 22.6129 34.1653 24.9792V28.2214H40.6159Z" fill="white"/>
</g>
<defs>
<clipPath id="clip0_1039_3715">
<rect width="36.2852" height="36.2852" fill="white" transform="translate(13.707 14.5137)"/>
</clipPath>
</defs>
</svg>
