<svg width="65" height="65" viewBox="0 0 65 65" fill="none" xmlns="http://www.w3.org/2000/svg">
<circle cx="32.7457" cy="32.2535" r="32.2535" fill="#9E421B"/>
<path d="M33.1504 25.8674C31.8073 25.8674 30.4944 26.2657 29.3776 27.0118C28.2609 27.758 27.3905 28.8186 26.8765 30.0595C26.3625 31.3004 26.228 32.6658 26.4901 33.9831C26.7521 35.3004 27.3988 36.5104 28.3486 37.4601C29.2983 38.4099 30.5083 39.0566 31.8256 39.3187C33.1429 39.5807 34.5083 39.4462 35.7492 38.9322C36.9901 38.4182 38.0507 37.5478 38.7969 36.4311C39.543 35.3143 39.9413 34.0014 39.9413 32.6583C39.9393 30.8578 39.2232 29.1317 37.9501 27.8586C36.677 26.5855 34.9509 25.8694 33.1504 25.8674ZM33.1504 38.2144C32.0515 38.2144 30.9773 37.8886 30.0636 37.278C29.1499 36.6675 28.4377 35.7998 28.0172 34.7845C27.5967 33.7693 27.4866 32.6521 27.701 31.5743C27.9154 30.4965 28.4446 29.5065 29.2216 28.7295C29.9987 27.9524 30.9887 27.4232 32.0665 27.2088C33.1443 26.9945 34.2614 27.1045 35.2767 27.525C36.292 27.9456 37.1597 28.6577 37.7702 29.5714C38.3808 30.4851 38.7066 31.5594 38.7066 32.6583C38.705 34.1313 38.119 35.5436 37.0774 36.5852C36.0358 37.6269 34.6235 38.2128 33.1504 38.2144ZM39.9413 17.8418H26.3596C24.2318 17.8442 22.1919 18.6905 20.6873 20.1951C19.1827 21.6997 18.3364 23.7396 18.334 25.8674V39.4491C18.3364 41.5769 19.1827 43.6169 20.6873 45.1214C22.1919 46.626 24.2318 47.4723 26.3596 47.4747H39.9413C42.0691 47.4723 44.109 46.626 45.6136 45.1214C47.1182 43.6169 47.9645 41.5769 47.9669 39.4491V25.8674C47.9645 23.7396 47.1182 21.6997 45.6136 20.1951C44.109 18.6905 42.0691 17.8442 39.9413 17.8418ZM46.7322 39.4491C46.7302 41.2496 46.014 42.9757 44.741 44.2488C43.4679 45.5219 41.7418 46.238 39.9413 46.24H26.3596C24.5591 46.238 22.833 45.5219 21.5599 44.2488C20.2868 42.9757 19.5707 41.2496 19.5687 39.4491V25.8674C19.5707 24.067 20.2868 22.3408 21.5599 21.0678C22.833 19.7947 24.5591 19.0785 26.3596 19.0765H39.9413C41.7418 19.0785 43.4679 19.7947 44.741 21.0678C46.014 22.3408 46.7302 24.067 46.7322 25.8674V39.4491ZM42.4107 24.6327C42.4107 24.8769 42.3383 25.1156 42.2027 25.3186C42.067 25.5217 41.8741 25.6799 41.6485 25.7734C41.4229 25.8668 41.1747 25.8913 40.9351 25.8437C40.6956 25.796 40.4756 25.6784 40.303 25.5057C40.1303 25.3331 40.0127 25.1131 39.965 24.8736C39.9174 24.634 39.9419 24.3858 40.0353 24.1602C40.1288 23.9346 40.287 23.7417 40.4901 23.6061C40.6931 23.4704 40.9318 23.398 41.176 23.398C41.5034 23.3983 41.8172 23.5285 42.0487 23.76C42.2802 23.9915 42.4104 24.3053 42.4107 24.6327Z" fill="white"/>
</svg>
