<svg width="26" height="32" viewBox="0 0 26 32" fill="none" xmlns="http://www.w3.org/2000/svg">
<path d="M13 27.6083L20.0121 20.5961C23.8848 16.7235 23.8848 10.4445 20.0121 6.57184C16.1395 2.69914 9.86055 2.69914 5.98785 6.57184C2.11516 10.4445 2.11516 16.7235 5.98785 20.5961L13 27.6083ZM13 31.6152L3.98439 22.5997C-0.994797 17.6204 -0.994797 9.54756 3.98439 4.56837C8.96358 -0.410812 17.0364 -0.410812 22.0157 4.56837C26.9948 9.54756 26.9948 17.6204 22.0157 22.5997L13 31.6152ZM13 16.4173C14.5648 16.4173 15.8333 15.1488 15.8333 13.584C15.8333 12.0192 14.5648 10.7507 13 10.7507C11.4351 10.7507 10.1667 12.0192 10.1667 13.584C10.1667 15.1488 11.4351 16.4173 13 16.4173ZM13 19.2507C9.87038 19.2507 7.33333 16.7135 7.33333 13.584C7.33333 10.4544 9.87038 7.91732 13 7.91732C16.1296 7.91732 18.6667 10.4544 18.6667 13.584C18.6667 16.7135 16.1296 19.2507 13 19.2507Z" fill="#9E421B"/>
</svg>
