<svg width="50" height="50" viewBox="0 0 50 50" fill="none" xmlns="http://www.w3.org/2000/svg">
<circle cx="25" cy="25" r="25" fill="#CC8874"/>
<path d="M23.3046 23.4018C24.085 24.774 25.226 25.915 26.5982 26.6953L27.3353 25.6634C27.5804 25.3204 28.043 25.2144 28.413 25.4165C29.5853 26.0569 30.8809 26.4461 32.2324 26.5531C32.6658 26.5874 33 26.9491 33 27.3838V31.1028C33 31.5301 32.6768 31.8881 32.2518 31.9317C31.8102 31.9772 31.3647 32 30.9167 32C23.783 32 18 26.217 18 19.0833C18 18.6352 18.0229 18.1898 18.0682 17.7481C18.1119 17.3231 18.47 17 18.8972 17H22.6162C23.0509 17 23.4126 17.3342 23.4469 17.7676C23.5539 19.1191 23.9431 20.4147 24.5835 21.587C24.7856 21.957 24.6796 22.4196 24.3366 22.6646L23.3046 23.4018ZM21.2035 22.8543L22.7868 21.7234C22.3379 20.7543 22.0302 19.7265 21.8727 18.6667H19.6742C19.6692 18.8053 19.6667 18.9442 19.6667 19.0833C19.6667 25.2965 24.7035 30.3333 30.9167 30.3333C31.0558 30.3333 31.1947 30.3308 31.3333 30.3257V28.1272C30.2735 27.9697 29.2457 27.6621 28.2766 27.2132L27.1457 28.7965C26.6882 28.6187 26.2463 28.4096 25.8228 28.1717L25.7744 28.1442C24.1414 27.2156 22.7844 25.8586 21.8558 24.2256L21.8283 24.1772C21.5904 23.7537 21.3813 23.3118 21.2035 22.8543Z" fill="#9E421B"/>
</svg>
