<svg width="25" height="25" viewBox="0 0 25 25" fill="none" xmlns="http://www.w3.org/2000/svg">
<path d="M8.87764 10.6879C10.1652 12.9521 12.0479 14.8348 14.3121 16.1223L15.5283 14.4196C15.9327 13.8537 16.6959 13.6788 17.3064 14.0122C19.2408 15.0689 21.3785 15.711 23.6085 15.8876C24.3236 15.9442 24.875 16.541 24.875 17.2583V23.3947C24.875 24.0996 24.3418 24.6903 23.6405 24.7624C22.9119 24.8373 22.1768 24.875 21.4375 24.875C9.66694 24.875 0.125 15.333 0.125 3.5625C0.125 2.82312 0.162703 2.0881 0.237599 1.35942C0.309663 0.658156 0.900418 0.125 1.60539 0.125H7.7417C8.45901 0.125 9.0558 0.67643 9.11241 1.3915C9.28892 3.62146 9.93109 5.75926 10.9878 7.69361C11.3212 8.30405 11.1463 9.06737 10.5804 9.47166L8.87764 10.6879ZM5.41084 9.78465L8.02327 7.91862C7.28252 6.31957 6.77489 4.62377 6.515 2.875H2.88747C2.87917 3.10369 2.875 3.33288 2.875 3.5625C2.875 13.8142 11.1858 22.125 21.4375 22.125C21.6671 22.125 21.8963 22.1209 22.125 22.1125V18.485C20.3763 18.2251 18.6805 17.7174 17.0814 16.9767L15.2154 19.5892C14.4605 19.2959 13.7314 18.9508 13.0327 18.5584L12.9528 18.5129C10.2583 16.9807 8.01934 14.7417 6.48712 12.0472L6.44167 11.9673C6.04917 11.2686 5.70412 10.5395 5.41084 9.78465Z" fill="#9E421B"/>
</svg>
