<svg width="501" height="396" viewBox="0 0 501 396" fill="none" xmlns="http://www.w3.org/2000/svg">
<path d="M500.033 391.528C462.039 391.667 424.061 392.423 386.084 392.825L386.501 392.439C388.477 390.478 390.254 389.937 390.223 386.911C390.192 383.885 390.223 380.735 389.883 377.646C390.662 376.234 391.304 374.75 391.798 373.215C392.721 370.06 392.982 366.749 392.565 363.488C392.148 360.228 391.061 357.089 389.373 354.268C385.94 348.269 381.251 343.081 375.628 339.059C379.253 339.921 383.004 340.125 386.701 339.661C397.404 338.117 403.783 328.729 405.142 318.538C405.486 315.937 405.554 313.308 405.343 310.694C405.204 308.81 404.849 306.231 402.825 305.428C402.205 305.219 401.534 305.212 400.909 305.409C400.284 305.606 399.738 305.997 399.35 306.524C398.738 307.277 398.219 308.102 397.806 308.98C397.649 308.484 397.391 308.026 397.048 307.635C396.705 307.245 396.285 306.929 395.814 306.71C393.481 305.644 390.856 307.127 389.327 308.871C389.033 309.211 388.771 309.551 388.508 309.921C388.428 309.698 388.276 309.508 388.076 309.381C385.25 307.621 382.361 307.914 379.226 308.578C375.411 309.381 371.828 309.844 368.153 308.254C360.647 305.027 357.681 297.028 353.31 290.744C351.256 287.794 348.677 285.216 346.762 282.205C344.563 278.79 342.95 275.033 341.99 271.087C340.09 263.366 340.322 255.445 340.986 247.632C341.758 238.753 343.117 229.921 343.086 220.996V196.784C343.086 189.064 343.349 181.204 343.086 173.437C342.875 166.645 341.837 159.905 339.997 153.364C339.114 150.44 337.758 147.68 335.982 145.195C334.633 142.852 332.839 140.796 330.7 139.142C329.321 138.285 327.881 137.531 326.391 136.888C324.846 136.085 323.549 134.896 321.927 134.201C318.876 132.964 315.613 132.334 312.321 132.348C308.762 132.616 305.186 132.513 301.649 132.039C297.618 131.252 294.189 128.951 290.59 127.067C285.787 124.566 280.814 122.435 276.69 118.945C276.567 118.698 276.443 118.436 276.304 118.189C273.957 113.958 270.281 110.885 267.223 107.225C265.965 105.397 264.865 103.465 263.933 101.451C263.141 99.6787 262.7 97.7699 262.636 95.83C262.636 95.3668 262.497 94.9343 262.435 94.4865C262.481 92.859 262.657 91.2377 262.96 89.638C263.547 88.0939 264.289 86.4726 264.86 84.8513C265.096 84.1669 265.277 83.4646 265.401 82.7513C266.096 81.2072 266.698 79.5241 267.269 77.9182C267.339 77.7563 267.356 77.5764 267.317 77.4044C267.278 77.2324 267.186 77.0771 267.053 76.9609L268.227 74.2432C268.269 74.1601 268.3 74.0719 268.32 73.9807L268.582 73.8881C269.401 73.5329 270.127 72.4366 270.59 71.7727C271.841 70.1912 272.957 68.5073 273.926 66.7388C275.64 63.5425 277.447 59.1881 275.687 55.6366C275.345 54.8252 274.8 54.1151 274.105 53.5744C273.41 53.0336 272.588 52.6804 271.717 52.5484C272.169 51.8544 272.577 51.1324 272.937 50.3867C274.398 47.5849 275.28 44.5184 275.532 41.369C275.609 39.7168 275.841 38.0492 275.872 36.397C275.774 34.5034 275.536 32.6197 275.161 30.761C274.844 27.0769 274.071 23.4463 272.86 19.9522C271.374 16.3288 268.994 13.1413 265.941 10.6875C264.567 9.62205 262.929 9.69925 261.493 8.84999C260.381 8.20146 259.763 6.9507 258.837 6.07056C258.156 5.44695 257.41 4.89823 256.613 4.4338C253.076 2.36468 248.89 1.77793 244.875 1.06764C240.643 0.311022 236.628 -0.476463 232.303 0.357359C227.574 1.15271 222.924 2.35646 218.403 3.95513C214.463 5.60879 210.865 7.98075 207.793 10.95C201.615 16.7404 196.889 24.4146 195.839 32.8918C195.298 37.308 193.63 41.8786 194.294 46.3874C194.881 50.0624 196.765 53.8146 197.939 57.3506C198.313 58.7471 198.788 60.1147 199.36 61.4425C199.254 61.56 199.179 61.7018 199.141 61.8554C199.103 62.009 199.104 62.1695 199.144 62.3227C199.374 63.1317 199.679 63.9174 200.055 64.6697C199.913 64.8697 199.789 65.0815 199.684 65.3028C198.711 67.3102 199.545 70.1822 200.194 72.1896C200.186 72.7552 200.124 73.3188 200.009 73.8726C199.493 75.4837 199.07 77.1232 198.742 78.7829C198.464 80.991 198.464 83.1991 198.171 85.4072C197.831 88.0631 197.399 91.9233 198.325 94.4865C198.998 95.662 199.762 96.7825 200.611 97.8373C201.292 99.3349 202.158 100.741 203.19 102.022C204.093 103.033 205.19 103.852 206.417 104.428C207.644 105.005 208.975 105.327 210.33 105.376C211.684 105.425 213.035 105.2 214.3 104.714C215.566 104.227 216.719 103.49 217.693 102.547C217.934 102.336 218.161 102.109 218.372 101.867C218.063 103.751 217.662 105.62 217.198 107.442C216.617 110.097 215.486 112.6 213.878 114.792C212.889 116.225 211.795 117.583 210.604 118.853C208.204 120.922 205.345 122.388 202.264 123.13C195.437 125.338 189.028 128.519 182.186 130.851C179.058 132.089 175.867 133.161 172.626 134.062C169.46 134.788 166.185 134.742 163.112 135.977C152.888 140.115 150.154 150.538 149.305 160.497C148.841 165.825 147.76 170.982 146.833 176.263C145.907 181.544 145.289 187.242 144.362 192.708C143.235 198.884 141.273 204.69 139.837 210.743C138.076 218.201 136.949 225.798 135.852 233.38C134.756 240.961 133.984 249.052 131.899 256.541C129.968 263.459 125.258 269.157 121.18 274.916C119.09 277.662 117.299 280.623 115.836 283.749C114.597 286.968 113.566 290.264 112.748 293.616C111.728 297.244 110.23 300.719 109.149 304.332C108.284 307.188 107.496 310.06 106.554 312.871C104.577 318.738 101.921 324.591 96.5772 328.096C95.9813 327.16 95.2167 326.343 94.3223 325.687C92.0468 324.186 89.2957 323.581 86.6001 323.988C85.4066 324.135 84.2029 324.181 83.0016 324.127C81.5316 323.536 79.9504 323.273 78.3682 323.355H78.1674H77.9667C76.7498 323.407 75.5606 323.735 74.49 324.316C73.4194 324.897 72.4956 325.714 71.7889 326.706C70.7232 328.25 67.588 330.504 68.7 332.774C68.8739 333.14 69.1401 333.454 69.4722 333.685L68.9934 334.118C66.406 336.409 64.8064 339.613 64.53 343.058C64.2179 345.022 64.2703 347.027 64.6844 348.972C65.2874 350.754 66.2084 352.413 67.4027 353.867C68.5919 355.612 71.202 359.796 73.8275 358.175L74.1982 357.897C74.9298 359.184 76.0162 360.234 77.3279 360.921C78.6395 361.608 80.1211 361.904 81.5961 361.773C82.722 361.601 83.7391 361.004 84.4379 360.105C85.4727 361.649 87.1716 362.607 88.6079 361.649C88.9444 361.624 89.2714 361.526 89.5671 361.364C89.8628 361.202 90.1203 360.978 90.3222 360.707L90.5385 360.893C91.0159 361.294 91.5917 361.56 92.2065 361.665C89.6028 363.372 87.2035 365.371 85.0557 367.625C81.9464 370.634 79.7421 374.453 78.6926 378.65C77.8149 382.131 77.4199 385.716 77.5188 389.304C70.3271 389.947 63.0942 389.983 55.8965 389.412C48.8384 389.104 41.8266 389.412 34.784 389.721C19.1078 390.293 3.43171 390.74 -12.229 391.265C-20.8315 391.543 -29.4186 391.821 -38.0212 392.146C-39.3185 392.146 -39.334 394.23 -38.0212 394.168C-22.5767 393.597 -7.13229 393.149 8.38939 392.624C16.1837 392.377 23.9883 392.12 31.8032 391.852C38.7686 391.605 45.7032 391.08 52.7304 391.296C61.1322 391.574 69.6112 392.408 77.9821 391.296H78.2447C78.424 391.349 78.6136 391.356 78.7964 391.317C78.9792 391.278 79.1495 391.195 79.292 391.074C79.4344 390.953 79.5445 390.798 79.6125 390.624C79.6804 390.45 79.7039 390.262 79.681 390.076C79.4086 386.441 79.7586 382.786 80.7158 379.268C81.7629 375.172 83.9727 371.466 87.0789 368.598C90.4742 365.267 94.3598 362.476 98.6005 360.321C100.546 359.488 102.412 358.48 104.176 357.31C106.338 355.861 108.66 354.664 111.095 353.743C116.531 351.196 122.014 348.91 127.682 346.903C130.092 346.054 132.532 345.266 134.988 344.587C136.161 344.278 137.335 343.985 138.509 343.722C140.289 343.513 142.057 343.214 143.806 342.827C144.165 342.71 144.516 342.571 144.857 342.41C147.325 342.589 149.771 343.003 152.162 343.645C158.34 345.343 163.529 349.389 169.027 352.431C171.936 354.006 174.987 355.303 178.139 356.307C171.924 357.779 165.823 359.699 159.884 362.051C154.263 364.399 148.943 367.411 144.038 371.022C141.891 372.566 139.806 374.218 137.768 375.901C136.223 377.214 133.134 378.99 132.47 381.09C131.08 385.413 139.837 384.271 141.737 383.576C144.594 382.526 146.957 380.796 149.938 380.256C152.919 379.715 155.652 378.048 158.525 376.982C171.05 372.35 184.642 370.806 196.673 364.815C198.125 364.089 199.53 363.271 200.92 362.514C202.295 363.039 203.468 363.811 204.812 364.398C206.156 364.985 207.422 365 208.75 365.54C210.079 366.081 211.839 367.085 213.291 367.749C216.565 369.293 219.824 370.96 223.098 372.566C229.276 375.654 235.454 378.65 241.709 381.553C247.41 384.32 253.35 386.568 259.454 388.27C265.632 389.814 272.011 391.111 278.328 392.176C291.98 394.477 305.973 394.771 319.781 394.91C348.137 395.203 376.493 394.91 404.849 394.585C436.571 394.184 468.31 393.628 500.048 393.504C500.268 393.447 500.462 393.318 500.6 393.138C500.739 392.958 500.813 392.737 500.811 392.51C500.809 392.283 500.732 392.063 500.591 391.885C500.45 391.707 500.253 391.582 500.033 391.528ZM388.06 385.166C388.286 386.183 388.286 387.237 388.06 388.254C387.69 389.042 386.763 389.32 386.145 389.798C385.095 390.679 384.601 391.852 383.056 392.176C381.962 392.341 380.852 392.367 379.751 392.254C378.17 392.398 376.581 392.44 374.994 392.377C379.965 389.281 384.342 385.322 387.921 380.688C387.999 382.201 387.952 383.684 388.06 385.166ZM381.512 347.196C385.767 351.362 388.814 356.602 390.331 362.36C391.189 366.311 390.806 370.431 389.234 374.157C388.674 372.251 387.94 370.4 387.041 368.629C385.715 366.098 383.855 363.885 381.589 362.143C380.462 361.155 379.597 359.92 378.423 359.055C377.34 358.251 376.169 357.573 374.933 357.032C374.903 356.903 374.846 356.781 374.766 356.675C374.686 356.568 374.585 356.48 374.469 356.415C364.338 350.362 352.245 351.118 340.862 350.949C328.198 350.748 315.518 350.949 302.838 351.072C290.158 351.196 277.447 351.242 264.752 350.748C258.749 350.501 252.746 350.233 246.744 349.945C242.913 349.775 239.021 349.497 235.176 349.018C237.683 348.781 240.171 348.369 242.62 347.783H242.852C248.18 347.011 253.477 346.069 258.775 345.112C263.227 344.555 267.645 343.755 272.011 342.718L272.891 342.471C276.768 341.73 280.613 341.035 284.583 340.68C291.131 340.093 297.695 339.877 304.228 339.136C307.016 338.828 309.771 338.27 312.46 337.468C315.379 336.588 318.638 336.696 321.727 336.063C327.456 334.859 333.109 333.469 338.932 332.759C344.405 332.048 349.95 332.094 355.411 332.898C356.643 333.852 358.111 334.455 359.658 334.643C360.77 334.859 361.882 335.013 362.963 335.245C363.913 335.657 364.888 336.007 365.882 336.295C366.469 336.48 367.071 336.65 367.658 336.774C369.165 337.525 370.62 338.376 372.014 339.321C375.462 341.586 378.648 344.227 381.512 347.196ZM144.084 340.371C142.54 340.263 140.995 340.217 139.451 340.202C136.022 340.202 132.594 340.202 129.18 340.109C127.451 340.109 124.856 340.248 123.265 339.414C122.74 339.136 121.721 338.287 121.844 337.53C121.983 335.863 123.945 337.175 124.933 337.669C125.136 337.805 125.385 337.856 125.625 337.81C125.865 337.763 126.077 337.624 126.215 337.422C126.392 337.243 126.49 337.002 126.49 336.75C126.49 336.499 126.392 336.258 126.215 336.079C125.849 335.676 125.428 335.328 124.964 335.044C124.759 334.911 124.512 334.856 124.269 334.89C123.729 334.596 123.142 334.257 122.555 333.886C123.596 332.805 124.58 331.671 125.505 330.489C126.601 330.844 127.667 331.261 128.733 331.694C129.026 331.832 129.319 331.941 129.628 332.064C129.822 332.15 130.04 332.157 130.239 332.085C130.437 332.013 130.601 331.867 130.694 331.678C130.753 331.592 130.799 331.499 130.833 331.4V331.292C130.872 331.135 130.872 330.971 130.833 330.813C130.787 330.603 130.666 330.417 130.493 330.288C129.814 329.578 128.949 328.513 127.806 328.899L126.987 328.59C127.821 327.54 128.702 326.521 129.582 325.502C131.036 325.938 132.524 326.253 134.03 326.443C134.423 326.562 134.842 326.562 135.235 326.443C135.422 326.405 135.59 326.305 135.714 326.16C135.837 326.014 135.908 325.831 135.914 325.641C135.954 325.482 135.949 325.316 135.9 325.161C135.851 325.006 135.76 324.867 135.636 324.76C135.439 324.549 135.2 324.38 134.934 324.266C134.668 324.152 134.381 324.094 134.092 324.096C133.237 323.813 132.365 323.581 131.482 323.402C133.721 321.07 136.115 318.769 138.401 316.53C139.158 315.789 139.945 314.986 140.625 314.291L141.412 314.538C148.779 317.024 155.312 321.919 161.784 326.057C163.663 327.362 165.683 328.45 167.807 329.3C160.049 332.059 152.571 335.549 145.474 339.723C145.025 339.968 144.561 340.184 144.084 340.371ZM120.609 329.563C121.169 329.401 121.763 329.401 122.323 329.563H122.647L123.373 329.763C122.586 330.77 121.741 331.729 120.84 332.635C119.512 331.57 118.771 330.396 120.609 329.547V329.563ZM118.555 324.93C119.299 324.587 120.09 324.358 120.902 324.251H121.35C123.25 324.529 125.18 324.652 127.095 324.822H127.173C126.339 325.795 125.551 326.814 124.779 327.91C123.945 327.679 123.111 327.478 122.261 327.293C121.412 327.107 120.501 326.953 119.636 326.706C118.771 326.459 116.686 325.764 118.555 324.946V324.93ZM119.512 321.842C116.624 320.931 115.79 318.244 118.292 316.129C121.257 313.627 125.551 313.18 129.289 313.041C132.313 312.874 135.347 313.113 138.308 313.751C135.219 316.839 131.914 319.927 128.872 323.016C128.3 323.016 127.713 322.877 127.126 322.83C125.433 322.328 123.673 322.083 121.906 322.105L120.871 322.182C120.414 322.107 119.96 322.01 119.512 321.888V321.842ZM177.8 206.126C177.908 216.194 180.657 226.4 183.699 235.788C185.846 242.444 188.41 248.913 189.877 255.769C191.983 264.379 191.85 273.383 189.491 281.927C187.082 290.095 181.537 296.534 178.124 304.239C176.684 307.909 175.648 311.725 175.035 315.619C174.634 317.611 174.263 319.618 173.815 321.61C173.367 323.602 173.166 326.799 171.159 327.54C167.977 328.698 164.07 325.131 161.629 323.571C158.262 321.394 154.926 319.171 151.451 317.163C148.466 315.399 145.316 313.931 142.046 312.778C144.904 309.721 147.605 306.52 150.139 303.189C154.057 298.394 157.362 293.129 159.977 287.516C162.399 281.904 164.361 276.105 165.846 270.176C167.39 263.999 168.934 257.823 170.186 251.477C171.437 245.13 172.224 238.491 173.274 231.975C173.524 229.409 173.637 226.832 173.614 224.254C173.806 222.509 174.168 220.787 174.695 219.112C175.576 215.73 176.719 212.349 177.444 208.921C177.583 207.979 177.692 207.083 177.8 206.172V206.126ZM174.232 327.447C175.962 324.359 176.209 320.02 176.873 316.638C177.495 312.601 178.578 308.648 180.101 304.857C183.329 297.738 188.425 291.701 190.912 284.243C193.311 277.075 194.025 269.45 192.997 261.961C191.914 254.678 190.061 247.529 187.468 240.637C182.649 226.941 177.753 211.299 180.657 196.614C180.696 196.447 180.696 196.272 180.657 196.105C180.779 195.994 180.874 195.856 180.935 195.703C183.653 189.002 188.24 183.35 190.742 176.525C192.289 172.029 193.29 167.363 193.723 162.628C195.814 166.356 198.762 169.532 202.325 171.893C208.107 175.533 214.609 177.877 221.384 178.764C235.201 180.887 249.337 178.844 261.987 172.897C265.099 171.491 267.983 169.627 270.544 167.369C272.953 165.13 274.837 162.428 277.138 160.096C279.148 157.87 280.837 155.376 282.158 152.684L282.992 151.14C284.212 158.598 285.355 166.303 288.088 173.314C291.181 180.611 295.595 187.275 301.108 192.97C302.313 194.283 304.058 196.923 306.02 197.217C305.479 198.498 305.062 199.872 304.645 201.185C303.879 203.924 303.433 206.743 303.317 209.585C302.74 215.522 302.488 221.486 302.56 227.45C302.56 229.844 302.56 232.252 302.56 234.661C302.035 236.561 301.479 238.429 300.907 240.266C299.193 245.825 297.371 251.245 295.27 256.665C293.077 262.316 292.552 268.416 291.038 274.252C289.787 279.086 289.108 284.953 290.498 289.817C291.811 294.449 294.899 298.31 297.386 302.324C300.151 306.787 303.008 311.589 306.869 315.28C307.54 315.882 308.281 316.4 309.077 316.824C308.005 317.017 306.966 317.36 305.989 317.843C301.139 320.221 297.293 324.961 293.633 328.806C291.717 330.902 289.573 332.777 287.239 334.396C286.375 334.89 285.436 335.24 284.459 335.43C283.104 336.002 281.789 336.662 280.521 337.407C278.023 338.529 275.441 339.453 272.798 340.171C268.891 340.912 264.999 341.715 261.107 342.379L256.844 343.104C252.86 343.645 248.86 344.185 244.952 344.973L244.226 345.143L239.747 345.822C235.253 346.517 230.774 346.918 226.264 347.212C221.469 345.938 216.813 344.189 212.364 341.993C209.739 341.047 207.366 339.509 205.43 337.499C203.963 335.693 203.051 333.5 201.538 331.724C195.36 324.668 183.004 325.671 174.896 327.308L174.263 327.447C174.252 327.462 174.242 327.478 174.232 327.493V327.447ZM189.924 131.345C190.069 131.262 190.225 131.199 190.387 131.159H190.541H190.634C190.985 131.273 191.305 131.464 191.572 131.718C191.84 131.972 192.047 132.282 192.178 132.626C193.087 134.827 193.513 137.196 193.429 139.575C193.545 144.649 193.204 149.724 192.41 154.738C191.808 152.252 191.406 149.689 190.788 147.203C189.846 143.003 187.005 135.406 189.924 131.345ZM283.702 143.111C283.054 139.59 282.359 136.07 281.463 132.611C280.768 129.909 280.026 127.237 279.1 124.643C285.602 126.928 284.861 137.135 283.702 143.111ZM304.506 225.659C304.362 221.703 304.48 217.741 304.861 213.8C305.066 210.224 305.505 206.665 306.174 203.146C306.55 201.727 307.004 200.33 307.533 198.961C307.472 201.029 307.292 203.091 306.993 205.138C306.545 207.979 306.529 210.82 306.035 213.677C305.541 216.533 305.201 219.328 304.954 222.2C304.846 223.327 304.691 224.501 304.506 225.659ZM318.051 321.394C320.545 322.561 323.322 322.984 326.051 322.614C328.4 323.36 330.862 323.689 333.325 323.587C335.482 323.375 337.659 323.66 339.688 324.421C341.664 325.052 343.676 325.568 345.712 325.965L346.654 326.135C347.507 326.438 348.379 326.685 349.264 326.876C349.665 326.998 350.081 327.06 350.5 327.061C350.581 327.079 350.665 327.079 350.747 327.061C351.309 327.302 351.81 327.666 352.213 328.125C352.616 328.585 352.912 329.129 353.079 329.717C353.079 329.933 353.202 330.149 353.264 330.366C343.38 329.346 333.372 331.199 323.75 333.454C320.506 334.21 317.371 334.473 314.097 334.998C312.615 335.307 311.154 335.715 309.726 336.218C307.595 336.731 305.426 337.067 303.239 337.221C296.289 337.978 289.247 337.978 282.328 338.889C283.079 338.448 283.877 338.091 284.706 337.824C285.673 337.659 286.609 337.352 287.486 336.913C292.861 333.732 296.598 328.482 301.17 324.344C303.456 322.259 305.803 320.02 308.892 319.217C312.46 318.121 314.977 319.758 318.051 321.363V321.394ZM353.357 329.841C353.125 330.18 353.357 330.134 353.357 329.841V329.841ZM350.268 324.791C349.974 324.699 349.681 324.637 349.388 324.575L346.808 324.112C346.021 323.834 345.264 323.525 344.461 323.216C341.734 321.976 338.895 320.998 335.982 320.298C332.859 319.967 329.705 320.06 326.607 320.576L325.186 320.128C322.622 319.341 320.089 318.46 317.464 317.766C314.951 317.269 312.504 316.482 310.174 315.418C305.541 312.871 302.375 306.833 299.656 302.479C296.938 298.124 293.664 294.141 292.305 289.385C290.76 283.733 292.305 277.619 293.618 272.106C294.297 269.265 294.621 266.346 295.162 263.474C295.856 260.506 296.817 257.607 298.035 254.812C299.718 250.658 301.124 246.35 302.344 242.042C302.344 243.386 302.452 244.713 302.591 246.041C303.209 252.033 304.537 258.008 305.448 263.969C306.992 274.623 307.873 286.343 313.556 295.808C316.284 299.927 319.599 303.625 323.395 306.787C327.048 310.186 331.067 313.169 335.379 315.681C339.596 318.043 344.198 319.248 348.121 322.182C349.221 322.907 350.255 323.729 351.21 324.637C350.963 324.668 350.623 324.729 350.299 324.76L350.268 324.791ZM359.257 328.636C359.257 324.807 366.176 323.386 368.925 322.305C372.168 321.024 375.381 319.665 378.5 318.121C377.087 320.618 376.076 323.323 375.504 326.135C374.655 329.933 375.041 335.199 369.651 334.998C369.34 334.993 369.031 334.967 368.724 334.921H368.554C366.175 333.721 363.694 332.734 361.141 331.971C360.591 331.594 360.137 331.093 359.815 330.508C359.493 329.924 359.312 329.272 359.287 328.605L359.257 328.636ZM387.057 319.742C386.962 321.71 386.608 323.657 386.006 325.532C385.126 329.207 384.632 333.083 382.917 336.511C382.794 335.554 382.392 334.566 382.361 333.608C382.269 331.122 383.504 328.266 384.215 325.888C385.018 323.309 385.836 320.576 386.856 317.92C386.951 318.513 387.007 319.111 387.026 319.711L387.057 319.742ZM385.157 314.6C385.311 314.612 385.458 314.663 385.586 314.75C385.713 314.837 385.816 314.956 385.883 315.094C385.497 316.098 385.126 317.102 384.755 318.059C383.111 322.251 381.749 326.548 380.678 330.921C380.143 333.212 380.217 335.602 380.894 337.855C378.226 337.625 375.59 337.108 373.033 336.31C373.373 336.16 373.699 335.979 374.006 335.77C377.188 333.654 376.724 329.933 377.466 326.598C378.269 323 379.674 318.476 382.639 315.897C383.489 315.542 384.354 315.094 385.157 314.6ZM389.867 311.512C390.439 310.47 391.269 309.593 392.277 308.964C392.642 308.731 393.061 308.598 393.494 308.578C393.926 308.558 394.357 308.652 394.742 308.85C395.126 309.049 395.452 309.345 395.686 309.709C395.921 310.073 396.055 310.493 396.076 310.925C396.153 311.558 396.215 312.191 396.246 312.84C395.937 313.72 395.675 314.569 395.397 315.326C393.186 321.489 391.568 327.849 390.562 334.318C390.439 335.09 391.257 336.063 392.107 335.477C394.518 333.513 396.137 330.743 396.663 327.679C397.79 323.338 398.346 318.869 398.316 314.384V313.442L398.733 312.377C399.134 311.404 399.752 308.81 400.694 308.053C403.86 305.505 403.397 314.492 403.32 315.774C402.702 326.768 396.184 337.16 384.508 337.855C385.818 335.112 386.743 332.202 387.257 329.207C387.952 325.965 389.188 322.66 389.064 319.31C389.003 317.73 388.706 316.169 388.184 314.677C388.697 313.612 389.27 312.576 389.898 311.574L389.867 311.512ZM395.968 320.035C395.659 323.571 395.103 328.188 393.142 331.369C393.869 327.561 394.813 323.798 395.968 320.097V320.035ZM296.444 132.518C303.147 135.606 310.128 133.537 317.031 135.05C318.901 135.336 320.711 135.925 322.391 136.795C323.652 137.652 324.962 138.436 326.314 139.142C328.082 139.883 329.728 140.887 331.194 142.123C332.543 143.58 333.715 145.192 334.684 146.925C338.561 152.468 339.318 159.525 340.353 166.041C341.789 175.151 341.017 184.678 341.017 193.835V221.011C341.017 237.178 336.383 253.438 339.472 269.543C340.249 273.527 341.591 277.38 343.457 280.985C345.233 284.366 348.09 287.038 350.299 290.08C354.639 295.963 357.419 303.359 363.38 307.852C365.869 309.788 368.837 311.01 371.967 311.388C375.921 311.805 379.535 309.999 383.427 310.06C384.469 310.156 385.501 310.331 386.516 310.585C386.516 311.203 384.786 312.13 384.323 312.438C383.479 312.764 382.703 313.246 382.037 313.859C380.91 314.523 379.751 315.156 378.593 315.758C374.761 317.701 370.822 319.423 366.793 320.916C362.809 322.46 354.577 325.548 357.913 331.014L356.523 330.767C356.036 330.102 355.651 329.368 355.38 328.59C355.063 327.192 354.575 325.839 353.928 324.56C352.662 322.12 349.511 320.344 347.256 318.908C343.364 316.422 338.839 315.31 334.901 312.886C330.159 309.847 325.772 306.289 321.819 302.278C317.87 298.588 314.781 294.076 312.769 289.06C310.972 283.776 309.714 278.323 309.016 272.785C308.012 266.347 307.085 259.892 306.004 253.453C305.494 250.365 304.846 247.277 304.645 244.096C304.444 240.915 304.568 237.827 304.645 234.692C305.807 230.579 306.613 226.374 307.054 222.123C307.317 219.112 307.718 216.147 308.228 213.167C308.738 210.187 308.83 206.991 309.309 203.903C309.714 200.733 309.895 197.539 309.85 194.344C310.576 193.047 311.147 191.58 311.672 190.422C312.699 188.196 313.52 185.88 314.128 183.505C314.684 181.328 316.043 176.927 313.371 175.537C311.317 174.456 310.112 176.803 309.572 178.394C308.143 183.348 307.512 188.497 307.703 193.65C307.694 193.685 307.694 193.722 307.703 193.758L307.61 194.036L307.456 194.205C305.371 195.919 303.579 192.569 302.359 191.225C299.996 188.651 297.813 185.917 295.826 183.042C292.983 179.116 290.759 174.778 289.231 170.179C288.072 166.193 287.134 162.147 286.42 158.058C285.772 154.661 285.2 151.248 284.629 147.836C284.897 147.146 285.118 146.439 285.293 145.72C286.621 140.501 287.702 131.468 284.366 126.234L286.668 127.376C289.896 129.028 293.077 130.989 296.444 132.518ZM309.927 189.203C309.927 188.43 310.035 187.658 310.112 186.917C310.242 184.141 310.72 181.391 311.533 178.734C311.533 178.734 312.074 177.267 312.274 177.297C313.17 177.406 312.738 179.799 312.676 180.247C312.355 182.299 311.838 184.315 311.132 186.269C310.776 187.257 310.375 188.23 309.927 189.203ZM274.127 57.4278C274.479 59.5878 274.122 61.8038 273.107 63.7433C272.202 65.7708 271.084 67.6964 269.771 69.4874C269.231 70.2285 268.227 71.8807 267.501 72.1896C267.378 72.2346 267.267 72.3086 267.178 72.4053C267.09 72.5021 267.026 72.6187 266.991 72.7455H266.883V72.6682C267.038 67.2947 266.281 62.3072 268.181 57.119C268.212 57.0175 268.254 56.9192 268.304 56.8256C268.588 56.3956 268.897 55.9831 269.231 55.5903C270.08 54.6793 270.775 54.0462 271.995 54.6793C272.522 54.965 272.983 55.3567 273.35 55.8298C273.717 56.303 273.981 56.8471 274.127 57.4278ZM196.287 46.0786C196.062 43.3181 196.313 40.5396 197.028 37.8639C197.924 33.2315 198.31 28.6919 200.41 24.3375C202.577 19.8854 205.545 15.8706 209.167 12.4941C212.607 9.12311 216.8 6.61953 221.399 5.19045C226.279 3.57035 231.334 2.53372 236.458 2.10222C241.088 2.20332 245.685 2.91986 250.126 4.23305C252.397 4.68748 254.558 5.57904 256.489 6.85807C258.203 8.12424 259.084 10.1007 261.122 10.9809C261.864 11.3051 262.667 11.3669 263.439 11.6602C264.735 12.3135 265.869 13.2472 266.76 14.3934C268.272 15.9668 269.532 17.7636 270.497 19.7205C271.981 23.4089 272.882 27.3054 273.169 31.2705C274.127 38.1727 274.142 46.3874 269.493 52.1933C268.536 53.1036 267.648 54.0843 266.837 55.1271C266.729 54.8646 266.497 54.4477 266.559 54.8183C266.358 53.5058 266.744 50.1859 266.713 48.2712C266.533 43.4333 265.305 38.6921 263.115 34.3742C261.107 30.0352 258.312 25.2022 254.003 22.7933C249.694 20.3845 246.28 22.4073 242.157 24.3375C236.504 27.0551 230.589 29.1705 224.874 31.7801C219.16 34.3896 213.554 37.6168 209.955 43.1448C208.05 46.1251 206.915 49.5312 206.65 53.058C206.627 56.4808 206.927 59.8981 207.546 63.2646C206.984 62.902 206.376 62.6164 205.739 62.4153C205.449 62.3093 205.136 62.282 204.832 62.3362C204.528 62.3905 204.244 62.5243 204.009 62.7241C203.871 62.5905 203.691 62.5087 203.499 62.4925C201.074 62.1374 200.75 59.4043 200.132 57.4433C199.515 55.4823 198.82 53.5058 198.155 51.5602C197.374 49.7908 196.749 47.9566 196.287 46.0786ZM202.82 66.8006C202.814 66.3396 202.741 65.8818 202.603 65.4418C203.195 65.0598 203.877 64.8414 204.58 64.8087C204.671 64.9612 204.798 65.0885 204.951 65.1793C206.495 66.0594 207.113 67.8043 208.194 69.1168C209.8 71.0018 211.069 73.1484 211.947 75.4631C212.638 77.4001 213.155 79.3947 213.492 81.4234C212.529 81.5065 211.56 81.4806 210.604 81.3461C206.727 80.4969 204.843 77.6866 203.221 74.2741C202.943 73.6719 202.634 72.9616 202.356 72.2204C202.602 70.4228 202.757 68.6139 202.82 66.8006ZM208.194 103.242C204.549 102.084 202.943 98.0535 201.044 95.1197C199.144 92.1859 200.009 87.3991 200.426 84.0638C200.515 81.8618 200.721 79.6661 201.044 77.4859C201.183 76.8991 201.352 76.3432 201.538 75.7719C203.082 79.169 205.538 82.1337 209.26 83.1528C210.153 83.4071 211.069 83.5777 211.994 83.6623C212.658 83.6623 213.276 83.5079 213.832 83.5697C214.218 85.0057 214.758 86.3645 215.237 87.7851C215.987 89.8548 216.46 92.0147 216.642 94.2086C216.645 94.8487 216.686 95.4882 216.766 96.1234C216.92 96.9263 217.446 97.6674 217.554 98.4858C218.11 102.485 210.99 104.137 208.194 103.242ZM202.449 125.323C204.944 124.642 207.342 123.645 209.584 122.358C212.348 120.319 214.677 117.749 216.433 114.797C218.189 111.846 219.336 108.573 219.809 105.172C220.148 103.381 220.442 101.574 220.704 99.752C221.03 98.5532 221.073 97.295 220.828 96.077C220.287 94.5329 219.005 93.6373 218.743 91.8616C218.627 90.4252 218.426 88.997 218.141 87.5844C217.677 85.8241 217.307 83.3844 215.824 82.1182L215.546 81.9175C215.082 76.3056 212.78 71.0033 208.997 66.8315C209.199 66.7741 209.375 66.6525 209.501 66.4852C209.626 66.3179 209.694 66.1141 209.692 65.905C209.692 62.8168 208.889 59.7285 208.673 56.5014C208.355 52.6631 209.149 48.8144 210.959 45.4146C213.677 40.4889 218.202 37.2926 223.129 34.8529C228.056 32.4132 233.431 30.3595 238.574 28.1514C240.612 27.2867 242.635 26.4066 244.597 25.3874C246.836 24.2139 248.844 23.1176 251.423 23.8433C255.84 25.1867 258.729 30.1587 260.69 34.0036C262.934 38.0199 264.298 42.4677 264.69 47.0514C264.783 49.383 264.613 51.6837 264.69 54.0462C264.701 54.6211 264.758 55.1943 264.86 55.7602C264.86 55.9146 264.984 55.9763 265.014 56.0999C265.045 56.2234 265.014 56.208 265.014 56.3778C265.037 56.6744 265.119 56.9636 265.254 57.2286C265.389 57.4936 265.575 57.7293 265.802 57.922C265.632 58.5087 265.493 59.0801 265.37 59.6205C264.057 64.8242 265.509 70.1977 264.659 75.4477C264.458 76.6675 264.258 77.8564 264.026 79.03C263.223 81.0682 262.482 83.1682 261.879 85.2991C261.382 86.1115 260.824 86.8857 260.211 87.6152C258.1 89.8637 255.743 91.8682 253.184 93.591C252.504 93.8844 251.84 94.1623 251.161 94.4093C246.975 95.9535 242.388 93.8844 238.342 92.8653C236.442 92.3712 231.16 90.4564 229.986 93.1741C229.446 94.4402 230.558 95.2432 231.145 96.2623C232.102 97.8064 232.334 99.4432 234.048 100.509C237.338 102.531 241.276 101.25 244.674 100.277C248.081 99.2437 251.276 97.6124 254.111 95.4593C255.022 95.0105 255.961 94.6186 256.922 94.2859C258.116 93.9731 259.246 93.4502 260.258 92.7417C260.262 93.2581 260.298 93.7738 260.366 94.2859C260.286 96.6982 260.572 99.1086 261.215 101.435C262.202 104.602 263.774 107.556 265.848 110.144C268.603 113.826 271.706 117.233 275.115 120.32C279.424 128.627 280.814 138.463 282.42 147.573C282.11 148.365 281.754 149.138 281.355 149.889C280.186 152.501 278.725 154.972 276.999 157.255C273.138 161.702 269.277 166.427 264.165 169.392C253.184 175.707 239.994 177.992 227.454 177.236C216.148 176.556 202.557 172.974 196.225 162.752C195.456 161.543 194.75 160.296 194.109 159.015C194.31 157.054 194.511 155.093 194.758 153.148C195.728 147.324 195.873 141.393 195.19 135.529C195.043 133.618 194.328 131.795 193.136 130.295C192.758 129.906 192.307 129.596 191.808 129.384C195.298 127.901 198.82 126.481 202.449 125.323ZM247.547 97.0189C246.418 97.5437 245.251 97.9825 244.056 98.3315C242.125 99.038 240.101 99.4594 238.048 99.5822C235.222 99.5822 234.249 97.9145 232.998 95.6138C232.674 95.0116 231.902 94.4557 232.782 93.8998C233.245 93.591 235.006 94.2086 235.5 94.3167C237.307 94.7336 239.083 95.2586 240.859 95.7682C243.03 96.454 245.275 96.8739 247.547 97.0189ZM111.342 304.687C112.361 301.336 113.736 298.109 114.724 294.743C115.636 291.655 116.269 288.443 117.458 285.478C119.775 279.61 124.192 274.669 127.713 269.512C131.3 264.499 133.77 258.776 134.957 252.727C136.408 245.223 137.397 237.657 138.524 230.122C139.946 220.695 141.932 211.362 144.47 202.173C146.972 193.032 147.637 183.644 149.413 174.379C150.339 169.561 151.081 164.852 151.529 159.972C152.007 154.676 152.81 149.164 155.899 144.624C157.678 142.09 160.047 140.028 162.803 138.617C165.892 137.073 169.182 137.073 172.487 136.378C175.869 135.533 179.188 134.45 182.418 133.136C184.225 132.518 186.016 131.839 187.792 131.113C186.078 134.495 186.974 138.973 187.715 142.493C188.456 146.014 189.259 149.04 190.032 152.329C190.423 154.665 191.06 156.952 191.931 159.154C191.113 165.701 190.665 172.186 187.839 178.347C185.337 183.814 181.846 188.662 179.421 194.19L179.19 194.468C176.95 198.668 176.379 202.729 175.668 207.315C175.036 210.445 174.231 213.538 173.259 216.58C172.19 219.903 171.643 223.372 171.637 226.864C171.554 230.062 171.208 233.249 170.603 236.391C170.124 239.803 169.66 243.216 169.058 246.613C167.01 258.329 164.067 269.872 160.255 281.139C156.255 292.674 148.934 302.942 140.455 311.682L139.945 312.207C136.79 311.325 133.521 310.919 130.246 311.002C126.314 310.892 122.416 311.751 118.894 313.504C116.408 314.924 113.782 317.41 114.879 320.622C115.318 321.787 116.201 322.731 117.335 323.247C116.706 323.545 116.172 324.009 115.79 324.591C114.709 326.413 116.392 327.679 117.952 328.358C117.745 328.564 117.569 328.798 117.427 329.053C116.3 331.122 117.535 332.852 119.342 334.272C118.694 334.936 118.03 335.6 117.396 336.31C115.873 337.9 114.454 339.587 113.149 341.36C112.809 341.869 112.5 342.58 112.099 343.166C110.863 342.888 110.385 340.402 109.968 339.445C109.59 338.441 108.937 337.563 108.083 336.913C105.411 335.106 101.303 335.538 99.3418 332.651C98.7549 331.786 98.2761 330.891 97.7973 330.026C106.23 324.405 108.562 313.813 111.342 304.687ZM85.7507 326.304C88.6233 326.042 91.3416 325.857 93.72 327.849C95.7587 329.547 96.2529 331.925 97.7355 333.948C99.2983 335.717 101.398 336.927 103.713 337.391C105.177 337.62 106.536 338.294 107.605 339.321C108.171 340.297 108.627 341.333 108.964 342.41C109.212 342.969 109.539 343.489 109.937 343.954C109.489 343.707 109.041 343.29 108.392 343.012C106.326 342.047 104.026 341.699 101.767 342.008C100.756 342.055 99.7548 342.226 98.7858 342.518C97.9739 342.772 97.1879 343.103 96.4382 343.506L95.5733 343.907C94.6562 344.392 93.8136 345.005 93.0714 345.729C93.7095 342.882 93.2167 339.898 91.6968 337.407C89.7354 333.948 87.5268 335.677 85.7816 338.657C85.3491 337.021 84.9939 334.519 83.7738 333.377C81.2254 331.014 77.8122 334.535 77.1018 336.882C76.9937 337.237 76.9164 337.592 76.8392 337.963C76.8392 337.607 76.8392 337.268 76.7002 336.913C76.5329 335.962 76.2148 335.045 75.7581 334.195C77.222 333.611 78.595 332.82 79.8354 331.848C81.7506 330.474 84.2525 328.76 84.7777 326.243L85.7507 326.304ZM87.6967 359.966C87.3851 359.916 87.0862 359.806 86.8163 359.642C86.3983 359.195 86.0729 358.671 85.8588 358.098C86.3248 357.067 86.717 356.004 87.0326 354.917C88.0383 352.049 88.2934 348.971 87.7739 345.977C87.4496 344.432 87.0325 342.888 86.5847 341.344C87.4959 339.198 88.577 337.438 89.5037 337.808C90.4303 338.179 91.3107 341.746 91.4651 342.78C91.7586 344.849 90.6002 347.15 89.828 348.957C89.0242 350.547 88.3777 352.213 87.8974 353.929C87.743 354.701 88.4225 357.017 88.5152 358.561C88.3596 359.08 88.0785 359.552 87.6967 359.935V359.966ZM86.0132 349.991C85.8646 351.402 85.6169 352.8 85.2719 354.176C85.2634 354.14 85.2634 354.103 85.2719 354.068C84.8027 351.991 84.5849 349.865 84.6232 347.737C84.8437 346.569 85.1482 345.418 85.5344 344.293C86.0245 346.14 86.1866 348.058 86.0132 349.96V349.991ZM82.5691 347.613C82.5203 349.168 82.6551 350.723 82.9707 352.246C83.1406 353.543 83.2487 354.855 83.3877 356.168C82.8471 355.457 82.4147 354.84 82.1676 354.485C80.4966 351.744 79.4425 348.672 79.0787 345.482C78.7033 343.446 78.5891 341.371 78.7389 339.306C78.7622 338.018 79.201 336.773 79.9899 335.754C82.0594 333.732 82.7544 335.755 83.2795 337.484C83.6502 338.688 84.0981 339.954 84.5151 341.267C83.6211 343.289 82.9679 345.408 82.5691 347.582V347.613ZM75.4956 348.54C75.257 350.183 74.8851 351.805 74.3835 353.388C74.3063 353.604 74.2446 353.851 74.1673 354.099C73.426 352.554 72.8082 351.01 72.1904 349.729C71.1223 347.883 70.5876 345.777 70.646 343.645C70.7701 342.185 71.0816 340.748 71.5727 339.368C71.6962 338.982 73.1171 334.735 73.7194 334.735C75.2948 334.612 75.6191 347.598 75.4956 348.509V348.54ZM71.3101 331.879C70.9858 330.752 74.2754 327.91 75.1712 327.077C75.8431 326.469 76.6466 326.025 77.5188 325.78C78.1703 325.703 78.8287 325.703 79.4802 325.78L82.461 326.227H82.5845C83.0633 326.351 83.0942 326.413 82.7081 326.428C82.7081 326.907 81.8896 327.571 81.5807 327.972C80.7469 328.811 79.8369 329.571 78.8624 330.242C77.5306 331.407 75.9434 332.243 74.2291 332.682C73.9836 332.564 73.7115 332.514 73.4403 332.536C73.169 332.558 72.9084 332.65 72.6846 332.805C72.3972 332.836 72.1072 332.836 71.8198 332.805C71.7117 332.404 71.4182 332.203 71.3101 331.848V331.879ZM70.9858 355.334C69.6507 353.826 68.4806 352.18 67.4953 350.424C66.3273 347.934 66.0757 345.113 66.7849 342.456C67.3672 339.79 68.7588 337.368 70.7696 335.523C70.2337 336.851 69.7697 338.206 69.3795 339.584C68.5984 341.883 68.402 344.34 68.8081 346.733C69.7845 350.066 71.2412 353.239 73.1326 356.152C72.3603 356.847 71.758 356.137 70.9858 355.303V355.334ZM80.2524 359.966C79.2521 359.78 78.3043 359.378 77.4749 358.789C76.6454 358.2 75.9542 357.437 75.4492 356.554C76.3559 354.457 76.9592 352.242 77.2408 349.976C77.3432 349.414 77.4154 348.847 77.457 348.277C77.5497 348.648 77.6269 348.988 77.7196 349.343C78.5996 352.946 80.3981 356.26 82.9398 358.963C82.604 359.304 82.1933 359.562 81.7403 359.718C81.2873 359.873 80.8044 359.921 80.3297 359.858L80.2524 359.966ZM90.662 357.665C90.7543 355.569 91.1177 353.493 91.7431 351.489C92.7848 349.311 94.3831 347.447 96.3765 346.085C96.7162 345.899 97.0715 345.729 97.4421 345.56C99.3844 344.682 101.489 344.219 103.62 344.201H104.006C106.276 344.741 109.643 346.718 109.643 349.389C109.643 351.165 108.099 352.616 106.415 353.62C105.61 353.911 104.838 354.289 104.114 354.747L103.882 354.917C102.644 355.331 101.432 355.821 100.253 356.384C98.4904 357.533 96.6536 358.565 94.7548 359.472C94.3754 359.69 93.9487 359.813 93.5115 359.83C93.0742 359.846 92.6394 359.757 92.2444 359.568C91.8494 359.38 91.5061 359.099 91.2439 358.748C90.9817 358.398 90.8085 357.989 90.7392 357.557L90.662 357.665ZM129.273 344.355C123.895 346.116 118.62 348.178 113.473 350.532L110.91 351.736C111.342 350.944 111.554 350.051 111.524 349.15C111.494 348.248 111.224 347.371 110.74 346.61C110.987 346.611 111.233 346.569 111.466 346.486C113.01 345.946 113.875 343.923 114.709 342.672C116.142 340.605 117.765 338.676 119.559 336.913C119.564 337.343 119.637 337.771 119.775 338.179C121.319 343.243 128.177 342.271 132.362 342.317H136.223C133.906 342.749 131.59 343.491 129.304 344.293L129.273 344.355ZM174.201 352.925C168.409 350.331 163.266 346.532 157.598 343.66C154.532 342.189 151.245 341.23 147.868 340.819C148.378 340.51 148.888 340.202 149.413 339.939C151.791 338.642 154.2 337.376 156.641 336.187C161.43 333.782 166.436 331.833 171.591 330.366C180.317 328.003 195.19 325.841 200.935 334.813C201.898 336.493 202.993 338.093 204.21 339.599C205.982 341.323 208.083 342.672 210.387 343.568C213.569 345.137 216.832 346.534 220.164 347.752L218.187 347.845C212.009 348.154 206.356 350.038 200.379 351.412C194.402 352.786 187.947 354.083 181.723 355.535C179.161 354.819 176.657 353.91 174.232 352.817L174.201 352.925ZM220.226 349.837C216.929 350.826 213.781 352.254 210.866 354.083C207.515 356.214 204.179 358.391 200.735 360.399C198.82 359.781 196.796 359.349 194.912 358.854C192.055 358.113 189.12 357.465 186.201 356.754L189.646 355.982C195.916 354.562 202.449 353.543 208.58 351.613C212.378 350.499 216.301 349.866 220.256 349.729L220.226 349.837ZM195.19 363.286C189.379 365.933 183.321 368.002 177.105 369.462C171.267 371.007 165.382 372.427 159.683 374.419C156.919 375.376 154.339 376.674 151.621 377.708C150.169 378.264 148.857 378.079 147.451 378.542C146.433 378.976 145.451 379.492 144.517 380.086C141.907 381.46 138.741 383.174 135.698 382.232C133.644 381.63 134.756 381.182 135.868 380.21C136.98 379.237 138.061 378.326 139.173 377.399C143.666 373.614 148.5 370.254 153.614 367.363C162.401 362.514 172.301 359.858 182.124 357.588C183.529 357.974 184.935 358.345 186.371 358.7C189.46 359.503 192.642 360.244 195.762 361.093L198.186 361.742C197.244 362.267 196.24 362.823 195.19 363.286ZM340.476 393.041C314.22 393.041 288.166 393.041 262.543 387.004C250.188 384.054 238.929 378.171 227.593 372.597C221.631 369.679 215.7 366.699 209.723 363.827C208.96 363.449 208.15 363.173 207.314 363.008C205.998 362.699 204.741 362.177 203.592 361.464L203.082 361.232C206.573 359.101 209.986 356.816 213.492 354.701C217.879 352.205 222.692 350.545 227.685 349.806C237.477 351.906 247.763 351.798 257.647 352.354C269.679 353.049 281.741 353.157 293.787 353.095C307.131 353.095 320.46 352.755 333.789 352.832C340.507 352.832 347.21 352.987 353.866 353.265C360.523 353.543 366.948 354.407 372.94 357.897C372.959 358.043 373.016 358.181 373.106 358.298C373.195 358.414 373.314 358.505 373.45 358.561C375.319 359.362 377.014 360.522 378.439 361.974C379.813 363.425 381.527 364.537 382.871 366.019C385.539 369.191 387.21 373.08 387.674 377.199C386.632 379.016 385.395 380.715 383.983 382.263C380.891 385.585 377.382 388.491 373.543 390.91C373.125 391.037 372.75 391.277 372.462 391.605C371.797 392.037 371.133 392.439 370.454 392.856L370.284 392.979C360.446 393.026 350.469 393.072 340.522 393.041H340.476Z" fill="#BC785E"/>
</svg>
