<svg width="85" height="26" viewBox="0 0 85 26" fill="none" xmlns="http://www.w3.org/2000/svg">
<path d="M42.08 7.88V19H40.256V14.136H35.024V19H33.2V7.88H35.024V12.648H40.256V7.88H42.08ZM46.6252 9.352V12.616H50.4653V14.104H46.6252V17.512H50.9453V19H44.8012V7.864H50.9453V9.352H46.6252ZM55.3359 7.88V19H53.5119V7.88H55.3359ZM72.5306 7.88L69.2346 19H67.1706L64.8346 10.584L62.3546 19L60.3066 19.016L57.1546 7.88H59.0906L61.3946 16.936L63.8906 7.88H65.9386L68.2586 16.888L70.5786 7.88H72.5306ZM81.059 16.728H76.403L75.603 19H73.699L77.683 7.864H79.795L83.779 19H81.859L81.059 16.728ZM80.547 15.24L78.739 10.072L76.915 15.24H80.547Z" fill="#9E421B"/>
<circle cx="13" cy="13" r="12.5" stroke="#9E421B"/>
</svg>
