<svg width="114" height="23" viewBox="0 0 114 23" fill="none" xmlns="http://www.w3.org/2000/svg">
<path d="M43.8865 6.37305C43.3742 6.37305 42.9564 6.79255 42.9564 7.30703V14.5652H36.0887V7.30703C36.0887 6.79255 35.6709 6.37305 35.1587 6.37305C34.6465 6.37305 34.2106 6.78463 34.2106 7.30703V14.5652H34.076C33.5718 14.5652 33.146 14.9767 33.146 15.4615C33.146 15.9463 33.5638 16.3777 34.076 16.3777H34.2106V19.144C34.2106 19.6684 34.6264 20.078 35.1587 20.078C35.691 20.078 36.0887 19.6585 36.0887 19.144V16.3777H42.9564V19.144C42.9564 19.6585 43.3742 20.078 43.8865 20.078C44.3987 20.078 44.8346 19.6684 44.8346 19.144V7.30703C44.8346 6.78265 44.4188 6.37305 43.8865 6.37305Z" fill="#9C4322"/>
<path d="M62.3689 8.20562C62.8912 8.20562 63.317 7.79404 63.317 7.28945C63.317 6.78486 62.8831 6.35547 62.3689 6.35547L53.9043 6.37328C53.1349 6.37328 52.7131 6.7908 52.7131 7.54669V14.5654H52.223C51.7007 14.5654 51.2749 14.9671 51.2749 15.4618C51.2749 15.9565 51.7007 16.3779 52.223 16.3779H52.7131V18.9226C52.7131 19.6667 53.137 20.0782 53.9043 20.0782H61.9973C62.5015 20.0782 62.9273 19.6667 62.9273 19.1819C62.9273 18.6971 62.5095 18.2657 61.9973 18.2657H54.5933V16.3799H62.2042C62.7264 16.3799 63.1523 15.9683 63.1523 15.4638C63.1523 14.9592 62.7264 14.5674 62.2042 14.5674H54.5933V8.2076H62.3729L62.3689 8.20562Z" fill="#9C4322"/>
<path d="M71.2089 6.37305C70.6766 6.37305 70.2588 6.78463 70.2588 7.30703V19.144C70.2588 19.6684 70.6766 20.078 71.2089 20.078C71.7412 20.078 72.1389 19.6585 72.1389 19.144V7.30703C72.1389 6.79255 71.7211 6.37305 71.2089 6.37305Z" fill="#9C4322"/>
<path d="M88.6285 13.873L90.4403 10.705C90.5367 10.517 90.5367 10.3627 90.5367 10.2717C90.5367 9.76708 90.1189 9.35549 89.6067 9.35549C89.4058 9.35549 89.0322 9.41683 88.7671 9.85414L87.5659 11.9991L86.5354 13.9067L84.6472 17.3379L79.3965 6.86224C79.2338 6.5397 78.9064 6.33984 78.5428 6.33984C78.0306 6.33984 77.6128 6.75143 77.6128 7.25602C77.6128 7.45785 77.6871 7.60824 77.7253 7.68343L83.7252 19.5956C83.894 19.9815 84.2254 20.213 84.6151 20.213C84.9726 20.213 85.2599 20.029 85.4768 19.653L87.5839 15.8004L88.6285 13.875V13.873Z" fill="#9C4322"/>
<path d="M86.5972 13.873L84.7854 10.705C84.689 10.517 84.689 10.3627 84.689 10.2717C84.689 9.76708 85.1068 9.35549 85.619 9.35549C85.8199 9.35549 86.1935 9.41683 86.4586 9.85414L87.6598 11.9991L88.6903 13.9067L90.5784 17.3379L95.8292 6.86224C95.9919 6.5397 96.3193 6.33984 96.6829 6.33984C97.1951 6.33984 97.6129 6.75143 97.6129 7.25602C97.6129 7.45785 97.5386 7.60824 97.5004 7.68343L91.5004 19.5956C91.3317 19.9815 91.0003 20.213 90.6106 20.213C90.253 20.213 89.9658 20.029 89.7489 19.653L87.6417 15.8004L86.5972 13.875V13.873Z" fill="#9C4322"/>
<path d="M113.972 18.9758C113.96 18.9026 113.936 18.8313 113.902 18.766L107.681 6.80436C107.486 6.42048 107.193 6.22656 106.809 6.22656C106.425 6.22656 106.132 6.42048 105.939 6.79842L101.882 14.5671H100.96C100.455 14.5671 100.03 14.9787 100.03 15.4635C100.03 15.9483 100.441 16.3737 100.948 16.3796L99.6961 18.768C99.6579 18.8412 99.5796 18.9936 99.5796 19.2014C99.5796 19.7059 99.9974 20.1175 100.51 20.1175C100.889 20.1175 101.217 19.9137 101.369 19.5833L103.045 16.3816H110.553L112.228 19.5833C112.381 19.9098 112.706 20.1195 113.07 20.1195C113.582 20.1195 114 19.7079 114 19.2033C114 19.1638 113.996 19.1262 113.99 19.0886L113.972 18.9778V18.9758ZM103.973 14.5671L106.789 9.11952L109.605 14.5671H103.971H103.973Z" fill="#9C4322"/>
<path d="M9.69455 19.5672L9.6142 19.2288L9.28879 18.7539L8.875 19.2011L9.69455 19.5672Z" fill="#EFD8C4"/>
<path d="M4.98828 10.2135C4.98828 10.2135 6.1935 9.74851 6.87243 10.7161C7.6036 10.259 7.60962 10.1462 7.60962 10.1462C7.60962 10.1462 7.15767 9.44576 6.87243 9.50117C6.5872 9.55657 5.09876 9.43983 4.98828 10.2135Z" fill="#EFD8C4"/>
<path d="M22.5445 9.1314C22.5887 9.15118 22.6289 9.18087 22.659 9.21253C22.669 9.22242 22.6791 9.23231 22.6891 9.24418C22.6932 9.24814 22.6952 9.25012 22.6992 9.25408C22.7052 9.25804 22.7112 9.26199 22.7173 9.26595C22.7173 9.26595 22.7213 9.26595 22.7213 9.26793C22.7253 9.26793 22.7313 9.26991 22.7353 9.27189C22.7394 9.27189 22.7414 9.27189 22.7454 9.27189C22.7494 9.27189 22.7534 9.26991 22.7574 9.26793C22.7635 9.26397 22.7675 9.26199 22.7715 9.26001C22.7936 9.24814 22.8137 9.23627 22.8338 9.22242C22.892 9.18086 22.9462 9.13733 23.0105 9.10369C23.0166 9.09973 23.0246 9.09775 23.0326 9.09577C23.0266 9.05818 23.0226 9.0186 23.0166 8.98101C23.0065 8.90581 22.9924 8.8326 22.9804 8.75939C22.9784 8.74751 22.9764 8.73762 22.9744 8.72574C22.9161 8.4032 22.8398 8.09056 22.7554 7.78979C22.0544 5.34205 20.5459 3.66603 19.7705 3.21289C19.8569 3.31579 19.9412 3.41868 20.0236 3.52356C20.0236 3.52356 20.0236 3.52554 20.0276 3.52751C21.042 4.82955 21.725 6.39871 21.954 8.11035C21.966 8.19346 21.976 8.27656 21.9841 8.36165C21.9881 8.40123 21.9921 8.44278 21.9961 8.48236C22.0243 8.48236 22.0524 8.49027 22.0745 8.50214C22.1046 8.51995 22.1428 8.55953 22.1488 8.59514C22.1568 8.64066 22.1629 8.68815 22.1669 8.73366C22.3436 8.87415 22.4722 9.0285 22.5465 9.12941L22.5445 9.1314Z" fill="#EFD8C4"/>
<path d="M8.66197 18.2164L7.90268 18.9524C7.78015 18.8792 7.65762 18.806 7.53509 18.7249C4.80126 16.7956 2.80061 13.3426 3.12602 11.9219C3.90539 14.7654 5.97233 17.0825 8.66197 18.2164Z" fill="#EFD8C4"/>
<path d="M18.0969 18.9397C17.2432 19.29 16.2549 19.6442 15.1803 19.8876C15.1521 19.8836 15.132 19.8797 15.12 19.8777L14.4712 18.7498C14.6319 18.7142 14.7926 18.6766 14.9493 18.633C15.8893 18.3778 16.7691 17.986 17.5706 17.4774C17.6068 17.4557 17.6429 17.4319 17.6791 17.4082C17.6891 17.4003 17.7012 17.3943 17.7112 17.3864C17.7654 17.3508 17.8197 17.3152 17.8719 17.2776C17.8799 17.2716 17.89 17.2657 17.898 17.2598V17.3864L18.0969 18.9397Z" fill="#EFD8C4"/>
<path d="M23.0807 11.418C23.0727 11.4892 23.0666 11.5624 23.0566 11.6337C23.0486 11.7049 23.0385 11.7781 23.0285 11.8493C23.0224 11.8889 23.0164 11.9285 23.0104 11.9681C22.9903 12.0927 22.9682 12.2194 22.9441 12.348C22.9441 12.348 22.9441 12.348 22.9441 12.35C22.9341 12.4054 22.922 12.4608 22.91 12.5162C22.8858 12.629 22.8597 12.7437 22.8316 12.8585C22.4299 14.4831 21.5862 16.2363 20.0978 18.0587C19.9953 18.1042 19.8849 18.1537 19.7664 18.2052L19.465 17.384L19.5574 17.4038L19.3646 17.1129L19.0693 16.3075C19.1256 16.2541 19.1818 16.2007 19.2361 16.1453C20.4091 14.9738 21.2789 13.4996 21.7168 11.8513C21.7369 11.7801 21.755 11.7069 21.771 11.6356C21.7891 11.5644 21.8052 11.4912 21.8212 11.4199H23.0807V11.418Z" fill="#EFD8C4"/>
<path d="M13.5312 12.3262C13.5312 12.3262 14.174 13.2998 15.2788 12.9535C16.0281 12.718 13.6678 13.8756 13.6678 13.8756L13.5333 12.3242L13.5312 12.3262Z" fill="#EFD8C4"/>
<path d="M21.0199 21.2154V21.6289H12.4689C12.4689 21.6289 12.3162 21.5379 12.0993 21.4014C12.039 21.3638 11.9727 21.3222 11.9024 21.2767C11.3701 20.9364 10.649 20.4476 10.6289 20.2755C10.6289 20.2755 10.6289 20.2715 10.6289 20.2695C10.6289 20.2695 11.4826 20.9482 13.8006 20.9482C14.8532 20.9482 19.0634 21.1283 20.5217 21.1936C20.8351 21.2075 21.0219 21.2154 21.0219 21.2154H21.0199Z" fill="#EFD8C4"/>
<path d="M0.528809 12.4361L2.66204 10.7284L8.74034 13.4274L2.76247 9.23047L0.528809 12.4361Z" fill="#EFD8C4"/>
<path d="M9.2327 18.8246V18.8207L9.1162 18.9532L9.24274 18.8365L9.2327 18.8246ZM9.2327 18.8246V18.8207L9.1162 18.9532L9.24274 18.8365L9.2327 18.8246ZM23.0424 7.35367C22.482 5.52727 21.4134 3.88489 19.941 2.61056C20.0395 2.53339 20.1399 2.45819 20.2403 2.38102C20.2905 2.34145 20.3046 2.29 20.2865 2.23064C20.2624 2.14555 20.1278 2.07629 20.0374 2.10399C19.8647 2.15742 19.692 2.20887 19.5172 2.26427C19.4148 2.18512 19.3103 2.10597 19.2059 2.0288C19.1797 2.00308 19.1496 1.97933 19.1215 1.95757C19.1094 1.94767 19.0994 1.9358 19.0853 1.92393C19.015 1.86456 18.9447 1.8052 18.8704 1.74584C18.8483 1.72803 18.8443 1.71814 18.8704 1.69835C18.9507 1.63701 19.0291 1.57368 19.1094 1.51036C19.3565 1.31249 19.6036 1.11461 19.8506 0.914757C19.9149 0.863309 19.929 0.776243 19.8788 0.71688C19.8607 0.697092 19.8366 0.683239 19.8205 0.66543C19.7643 0.608046 19.702 0.602109 19.6297 0.627833C19.3344 0.740623 19.0351 0.849455 18.7398 0.968182C18.6575 1.00182 18.5972 1.0038 18.5269 0.944437C18.4566 0.885074 18.3562 0.898927 18.2899 0.964226C18.2397 1.0137 18.2015 1.07504 18.1573 1.13044C18.1473 1.14429 18.1412 1.1621 18.1352 1.17991C18.1258 1.20893 18.1091 1.21421 18.085 1.19574C17.9062 1.07108 17.7295 0.944436 17.5507 0.819774C17.4864 0.776241 17.4201 0.740625 17.3458 0.71688C17.3117 0.699071 17.2755 0.691153 17.2373 0.683238C17.2353 0.683238 17.2333 0.683238 17.2313 0.683238C17.1028 0.655535 16.9762 0.659495 16.8476 0.685219C16.7552 0.705007 16.7191 0.760413 16.7311 0.853416C16.7532 1.01567 16.8175 1.1621 16.92 1.29072C17.0043 1.3956 17.1168 1.46881 17.2273 1.54202C17.3679 1.63701 17.5145 1.72803 17.6531 1.82895C17.6772 1.84676 17.6792 1.85665 17.6531 1.87248C17.629 1.88633 17.613 1.9081 17.5969 1.93184C17.5728 1.97142 17.5467 2.01099 17.5246 2.05057C17.5105 2.07036 17.4985 2.09213 17.4965 2.11389C17.4864 2.13566 17.4824 2.15742 17.4824 2.17919C17.4824 2.21679 17.4965 2.25042 17.5185 2.28406C17.5447 2.32364 17.5848 2.3454 17.623 2.36915C17.6431 2.383 17.6511 2.39685 17.6511 2.4206C17.6451 2.76293 17.6391 3.10723 17.633 3.44956C17.633 3.49903 17.6431 3.54058 17.6772 3.5762C17.6993 3.60192 17.7335 3.60984 17.7616 3.62567C17.85 3.68305 17.9524 3.65139 17.9886 3.55048C18.0609 3.3427 18.1332 3.13295 18.2075 2.92518C18.2718 2.74116 18.3361 2.55911 18.3984 2.37509C18.4064 2.35332 18.4104 2.34541 18.4345 2.36124C18.6595 2.49184 18.8865 2.61649 19.1215 2.72731C19.1436 2.7372 19.1516 2.74907 19.1536 2.77678C19.1617 2.94497 19.1757 3.11515 19.1757 3.28532C19.1757 3.38624 19.2259 3.44758 19.3083 3.4931C19.3726 3.53069 19.479 3.50892 19.4931 3.45154C19.5051 3.40603 19.5292 3.36843 19.5433 3.32688C19.5654 3.2596 19.5855 3.19628 19.6076 3.13098C19.7522 3.25762 19.8928 3.3902 20.0294 3.52673C20.0294 3.52673 20.0314 3.52674 20.0334 3.53069C21.3953 4.88219 22.3173 6.59581 22.6909 8.46772C22.6909 8.47366 22.6929 8.48158 22.6949 8.48751C22.709 8.54292 22.717 8.60228 22.7291 8.65966C22.7331 8.68143 22.7371 8.70518 22.7411 8.72694C22.7592 8.72694 22.7753 8.72892 22.7914 8.7309C22.8577 8.73486 22.9199 8.73486 22.9822 8.7309C23.1107 8.72101 23.2252 8.79818 23.3076 8.73486C23.3217 8.72299 23.3598 8.72299 23.3719 8.70913C23.2996 8.28963 23.177 7.75932 23.0525 7.35565L23.0424 7.35367ZM9.2327 18.8246V18.8207L9.1162 18.9532L9.24274 18.8365L9.2327 18.8246ZM13.4088 6.88867L13.1818 7.25672C13.1577 7.29629 13.1316 7.33785 13.1055 7.38138L13.5755 7.08456C13.4771 6.96782 13.4168 6.89658 13.4088 6.88669V6.88867ZM9.66658 19.2758L9.70876 19.2896C9.70876 19.2896 9.69671 19.2718 9.68867 19.2619C9.68666 19.2599 9.68466 19.256 9.68265 19.254C9.56212 19.0878 9.45165 18.9156 9.35121 18.7395C9.35121 18.7395 9.35121 18.7395 9.35121 18.7375L9.30501 18.7791L9.29899 18.7831L9.24073 18.8365V18.8404L9.29899 18.9137C9.35322 18.9849 9.40946 19.0561 9.46772 19.1254C9.47173 19.1293 9.47575 19.1353 9.47776 19.1392C9.50588 19.1729 9.534 19.2045 9.56212 19.2382C9.56212 19.2382 9.56413 19.2421 9.56614 19.2441C9.60632 19.2896 9.64448 19.3351 9.68666 19.3806C9.6947 19.3905 9.70273 19.4004 9.71278 19.4083H9.77906L9.66658 19.2758ZM9.2327 18.8246V18.8207L9.1162 18.9532L9.24274 18.8365L9.2327 18.8246ZM9.2327 18.8246V18.8207L9.1162 18.9532L9.24274 18.8365L9.2327 18.8246ZM9.2327 18.8246V18.8207L9.1162 18.9532L9.24274 18.8365L9.2327 18.8246ZM23.0083 11.9701C22.9922 11.9701 22.9762 11.9701 22.9601 11.9701C22.8918 11.9701 22.8255 11.9721 22.7572 11.9741C22.7492 12.0275 22.7411 12.081 22.7331 12.1344C22.711 12.2808 22.6849 12.4213 22.6568 12.5618C22.6447 12.6192 22.6347 12.6766 22.6206 12.732C22.1888 14.7305 21.2125 16.4204 19.8245 17.4889L19.7864 17.3841H19.5734C19.469 16.9685 19.3545 16.555 19.232 16.1434C18.8101 14.7147 18.2939 13.3098 17.7576 11.9207L16.4921 15.1362L16.466 15.2193C16.8055 15.3064 17.155 15.3914 17.4965 15.4726C17.6049 16.0761 17.7234 16.6796 17.8701 17.2772C17.8781 17.3128 17.8881 17.3504 17.8962 17.386C17.8259 17.386 17.7636 17.386 17.7094 17.386C17.6391 17.386 17.5828 17.386 17.5487 17.386C17.5507 17.3999 17.5567 17.4316 17.5668 17.4771C17.6069 17.6888 17.7074 18.2132 17.8078 18.7415C16.7693 19.2362 16.0341 19.3055 15.4476 19.3055C15.4416 19.3055 15.4355 19.3055 15.4295 19.3055C15.4215 19.3055 15.3652 19.2936 15.3592 19.2936C15.2527 19.1234 14.9655 18.6624 14.9655 18.6624C14.9575 18.6525 14.9514 18.6406 14.9434 18.6327C14.6461 18.1954 14.1942 17.859 13.686 17.6947C13.3887 17.6017 13.0834 17.5206 12.778 17.4553L13.2159 15.336L13.23 15.2648L13.2099 15.1955L12.9428 14.2319C13.0733 14.1884 13.2039 14.1448 13.232 14.1349C13.24 14.1349 13.3987 14.0558 13.6116 14.0083L14.0656 14.5168C13.8507 14.7068 13.7141 14.9818 13.7141 15.2885C13.7141 15.8604 14.1861 16.3254 14.7666 16.3254C15.3472 16.3254 15.8192 15.8604 15.8192 15.2885C15.8192 14.8928 15.5942 14.5505 15.2648 14.3744L15.8112 14.0538C16.2229 13.8104 16.3093 12.92 16.235 12.3639L16.1265 12.2689C16.0663 12.2254 16.008 12.1799 16.008 12.1799C15.8333 12.0572 13.6538 10.4168 13.5594 10.3555C13.469 10.5355 13.226 11.052 13.0974 11.3172V11.3211L13.0572 11.4537C13.0572 11.4537 12.2477 11.8316 11.3157 12.3283C10.5825 12.7181 9.77505 13.1851 9.22667 13.8361C9.22667 13.8361 9.22667 13.8361 9.22667 13.8381C8.39106 14.9561 8.06565 16.274 8.44127 17.5958C8.36093 17.6928 8.38503 17.6651 8.34285 17.7145L8.12993 17.9718L7.68601 18.508C7.1999 18.233 6.93074 18.0232 6.92471 18.0173C5.29165 16.7568 4.11054 15.0372 3.53605 13.1C3.53605 13.1 3.53605 13.1 3.53605 13.098C3.43963 12.7755 3.3613 12.447 3.29903 12.1126C3.2689 11.9464 3.10619 11.8356 2.93746 11.8653C2.76873 11.895 2.65624 12.0533 2.68637 12.2195C3.14436 14.7028 4.51428 16.9329 6.53904 18.4942C6.5511 18.506 6.81223 18.7118 7.28829 18.9869L7.23204 19.0561L5.26955 21.494H4.87384H4.61874C4.52634 21.4979 4.43193 21.494 4.33752 21.49H4.3335C4.26922 21.49 4.20294 21.4861 4.13665 21.49C4.04827 21.492 3.95989 21.5019 3.8715 21.5256C3.37536 21.6068 2.8772 21.6919 2.38306 21.8007C2.8772 21.9115 3.37536 21.9966 3.8715 22.0777C4.12058 22.143 4.36966 22.0975 4.61673 22.1074H5.50859L5.60902 21.9867L6.19556 21.2763L6.35023 21.0903C6.40245 21.027 6.45669 20.9617 6.51092 20.8964L7.27623 19.9703C7.37667 19.8496 7.47911 19.7269 7.57955 19.6023C7.58959 19.5904 7.59963 19.5785 7.60968 19.5667L8.10382 18.9691C8.33682 18.6861 8.56983 18.4051 8.79681 18.132L8.98161 17.9065L9.04187 17.8333L9.07401 17.7937C9.75697 16.9408 11.615 14.3803 11.8018 14.0142C11.4603 14.2794 11.1289 14.5524 10.8035 14.8334C10.6428 14.9739 10.464 15.1025 10.3515 15.2826C10.1687 15.5042 9.36326 16.4758 8.8169 17.1367C8.83498 17.115 8.80284 16.9764 8.80083 16.9448C8.7948 16.8656 8.7928 16.7865 8.79079 16.7073C8.78677 16.549 8.79079 16.3907 8.80284 16.2344C8.88319 15.2015 9.3954 14.1982 10.2431 13.567C10.695 13.2306 11.2233 13.0011 11.7195 12.7399C12.2879 12.4411 12.8564 12.1423 13.4228 11.8435C13.4409 11.8336 13.459 11.8237 13.4791 11.8138L13.5695 11.7663L13.6137 11.6753C13.6137 11.6753 13.704 11.4873 13.7944 11.2993L15.3994 12.4945L15.0619 12.9952L14.9997 13.0149L13.9772 13.3355C13.9712 13.3355 13.9652 13.3395 13.9612 13.3395L13.9049 13.3573C13.8828 13.4166 13.8165 13.4087 13.7482 13.3988C13.7402 13.3988 13.7302 13.3988 13.7221 13.3968C13.7924 13.381 13.8125 13.3771 13.8748 13.3632C13.8748 13.3632 13.8788 13.3632 13.8808 13.3632C13.8888 13.3632 13.8949 13.3592 13.9049 13.3573H13.9009L13.6137 13.288L13.6518 13.385C13.6518 13.385 13.682 13.3949 13.682 13.3968C13.694 13.3909 13.6337 13.3968 13.6478 13.3988C13.6357 13.4008 13.6639 13.381 13.6518 13.385L13.684 13.387C13.6799 13.387 13.6237 13.3988 13.6237 13.3988C13.6237 13.3988 12.3683 13.7708 12.1895 13.8302C12.1895 13.8302 12.1895 13.8322 12.1895 13.8341C12.2277 13.9667 12.4084 14.6197 12.5209 15.0333L9.46772 18.5436L9.39139 18.6327L9.38536 18.6406L9.33313 18.6999C9.33313 18.6999 9.33313 18.7 9.33313 18.698L9.28693 18.7494L9.22868 18.8127L9.2327 18.8207L9.28894 18.7554L9.3251 18.7118C9.34117 18.7277 9.33514 18.7217 9.35322 18.7375L9.41549 18.6821L9.49785 18.6069L9.58221 18.5298L12.4707 15.8921L12.1493 17.4494L12.0891 17.9421C12.4526 18.0133 12.8383 18.0944 13.1918 18.1914C13.4389 18.2587 13.704 18.3378 13.919 18.4823C14.1299 18.6168 14.3127 18.7969 14.4493 19.0047L14.9052 19.7368L14.9796 19.8575C14.9796 19.8575 18.6695 20.469 18.774 20.4789C18.7378 20.2968 18.4446 18.7435 18.3019 18.0014H19.3545C19.467 18.3121 20.2604 20.4848 20.5195 21.1972C20.5316 21.2288 20.5416 21.2565 20.5497 21.2803C19.5031 21.308 17.7957 21.3614 17.0104 21.3713C16.8999 21.3752 16.7914 21.3812 16.6829 21.3851L13.24 21.3495C13.1034 21.3495 12.9648 21.3337 12.8323 21.306C11.9083 21.1121 11.161 20.6787 10.6267 20.2711C10.6267 20.2711 10.6107 20.2572 10.6006 20.2513C10.6006 20.2513 10.5946 20.2454 10.5926 20.2434C10.5122 20.1801 10.4359 20.1187 10.3656 20.0574C10.1708 19.8556 9.98596 19.6478 9.81924 19.4301C9.81522 19.4242 9.8112 19.4202 9.80718 19.4163C9.80718 19.4163 9.80719 19.4143 9.80317 19.4123C9.80317 19.4123 9.80317 19.4083 9.79915 19.4064C9.79111 19.3965 9.78308 19.3846 9.77505 19.3747C9.75094 19.343 9.73286 19.3193 9.72081 19.3035C9.71478 19.2956 9.71278 19.2896 9.71077 19.2896C9.71077 19.2896 9.69872 19.2718 9.69068 19.2619C9.68867 19.2599 9.68666 19.256 9.68465 19.254C9.56413 19.0878 9.45366 18.9156 9.35322 18.7395C9.35322 18.7395 9.35322 18.7395 9.35322 18.7375L9.30702 18.7791L9.30099 18.7831L9.24274 18.8365V18.8404L9.30099 18.9137C9.35523 18.9849 9.41147 19.0561 9.46972 19.1254C9.47374 19.1293 9.47776 19.1353 9.47977 19.1392C9.50789 19.1729 9.53601 19.2045 9.56413 19.2382C9.56413 19.2382 9.56614 19.2421 9.56815 19.2441C9.60833 19.2896 9.64649 19.3351 9.68867 19.3806C9.69671 19.3905 9.70474 19.4004 9.71478 19.4083C9.73487 19.4301 9.75496 19.4519 9.77705 19.4736C9.86945 19.5765 9.96587 19.6755 10.0643 19.7724C10.0844 19.7942 10.1025 19.812 10.1225 19.8318C10.1687 19.8793 10.217 19.9248 10.2632 19.9703C10.2089 19.9209 10.1567 19.8753 10.1105 19.8318C10.1065 19.8278 10.1045 19.8259 10.1025 19.8219C9.95382 19.6794 9.84133 19.5607 9.77304 19.4816C9.74492 19.4499 9.72483 19.4262 9.71077 19.4083C9.70474 19.4004 9.69872 19.3945 9.69671 19.3905C9.70072 19.3965 9.70474 19.4024 9.70876 19.4083C9.72684 19.4341 9.74491 19.4598 9.76299 19.4855C9.76299 19.4875 9.76701 19.4895 9.76902 19.4934C9.85138 19.6082 9.93976 19.721 10.0322 19.8318C10.3897 20.2533 10.8075 20.6312 11.1751 20.928L11.2394 20.9795C11.2575 20.9953 11.2755 21.0092 11.2956 21.025C11.4081 21.114 11.5146 21.1932 11.609 21.2644C11.625 21.2763 11.6411 21.2882 11.6572 21.3001C11.6753 21.3139 11.6913 21.3258 11.7094 21.3377H11.6733L11.2836 21.3337L6.88856 21.2882L6.19556 21.9906H15.5179C16.0221 22.0045 16.5283 22.0124 17.0324 21.9986C17.0887 21.9966 17.153 21.9926 17.2132 21.9906H21.4877L21.3391 21.6226C21.315 21.5533 21.2848 21.4722 21.2848 21.4722L20.0515 18.0944C20.0696 18.0865 20.0877 18.0766 20.1017 18.0648C21.8372 16.7865 23.0003 14.6375 23.3699 12.1245V12.1205C23.3699 12.1186 23.3699 12.1146 23.3699 12.1126C23.3699 12.1067 23.3719 12.1007 23.3739 12.0909C23.3739 12.079 23.3779 12.0671 23.3799 12.0552C23.3819 12.0354 23.3859 12.0137 23.3879 11.986C23.3879 11.98 23.3879 11.9761 23.39 11.9701C23.2634 11.9701 23.1369 11.9741 23.0103 11.9761L23.0083 11.9701ZM17.2996 19.6141C17.4985 19.5469 17.7054 19.4657 17.9263 19.3648C17.9504 19.4974 17.9745 19.6201 17.9966 19.7289C17.8319 19.7012 17.619 19.6656 17.2996 19.6141ZM19.463 17.386C19.1496 17.386 18.4365 17.386 17.9645 17.386C17.9805 16.6321 17.9544 15.8782 17.9143 15.1283C17.6672 15.0392 17.4201 14.9541 17.171 14.869C17.3558 14.408 17.5326 13.943 17.7074 13.476C18.2095 14.7088 18.7459 15.9297 19.3645 17.113C19.4107 17.204 19.4589 17.293 19.5072 17.3841H19.465L19.463 17.386ZM9.2327 18.8246V18.8207L9.1162 18.9532L9.24274 18.8365L9.2327 18.8246ZM9.66658 19.2758L9.70876 19.2896C9.70876 19.2896 9.69671 19.2718 9.68867 19.2619C9.68666 19.2599 9.68466 19.256 9.68265 19.254C9.56212 19.0878 9.45165 18.9156 9.35121 18.7395C9.35121 18.7395 9.35121 18.7395 9.35121 18.7375L9.30501 18.7791L9.29899 18.7831L9.24073 18.8365V18.8404L9.29899 18.9137C9.35322 18.9849 9.40946 19.0561 9.46772 19.1254C9.47173 19.1293 9.47575 19.1353 9.47776 19.1392C9.50588 19.1729 9.534 19.2045 9.56212 19.2382C9.56212 19.2382 9.56413 19.2421 9.56614 19.2441C9.60632 19.2896 9.64448 19.3351 9.68666 19.3806C9.6947 19.3905 9.70273 19.4004 9.71278 19.4083H9.77906L9.66658 19.2758ZM9.2327 18.8246V18.8207L9.1162 18.9532L9.24274 18.8365L9.2327 18.8246ZM17.5507 17.386C17.5527 17.3999 17.5587 17.4316 17.5688 17.4771C17.6049 17.4553 17.6411 17.4316 17.6772 17.4078C17.6873 17.3999 17.6993 17.394 17.7094 17.386C17.6391 17.386 17.5828 17.386 17.5487 17.386H17.5507ZM9.2327 18.8246V18.8207L9.1162 18.9532L9.24274 18.8365L9.2327 18.8246ZM9.77505 19.3747C9.75094 19.343 9.73286 19.3193 9.72081 19.3035C9.71478 19.2956 9.71278 19.2896 9.71077 19.2896C9.71077 19.2896 9.69872 19.2718 9.69068 19.2619C9.68867 19.2599 9.68666 19.256 9.68465 19.254C9.56413 19.0878 9.45366 18.9156 9.35322 18.7395C9.35322 18.7395 9.35322 18.7395 9.35322 18.7375L9.30702 18.7791L9.30099 18.7831L9.24274 18.8365V18.8404L9.30099 18.9137C9.35523 18.9849 9.41147 19.0561 9.46972 19.1254C9.47374 19.1293 9.47776 19.1353 9.47977 19.1392C9.50789 19.1729 9.53601 19.2045 9.56413 19.2382C9.56413 19.2382 9.56614 19.2421 9.56815 19.2441C9.60833 19.2896 9.64649 19.3351 9.68867 19.3806C9.69671 19.3905 9.70474 19.4004 9.71478 19.4083H9.79915C9.79111 19.3985 9.78308 19.3866 9.77505 19.3767V19.3747ZM9.2327 18.8246V18.8207L9.1162 18.9532L9.24274 18.8365L9.2327 18.8246ZM9.20659 13.0248L6.79616 11.4201L6.74393 11.3844L6.63546 11.3112L6.26185 11.0619L5.0044 10.2249L4.98833 10.215L4.63681 9.98148L2.82297 8.77246L0.0911459 12.0038C-0.0293756 12.1225 -0.0313842 12.3164 0.0911459 12.4371C0.211667 12.5578 0.408519 12.5578 0.529041 12.4371L0.533057 12.4332L2.78681 9.66686L8.73655 13.4265C8.79882 13.4958 8.88519 13.5314 8.96956 13.5314C9.04187 13.5314 9.1162 13.5057 9.17445 13.4542C9.30501 13.3434 9.31706 13.1495 9.20257 13.0229L9.20659 13.0248Z" fill="#9C4322"/>
<path d="M9.69482 19.3887C9.69482 19.3887 9.70319 19.4012 9.70738 19.4075H9.70947C9.70947 19.4075 9.69692 19.3929 9.69482 19.3887Z" fill="#9C4322"/>
<path d="M9.69482 19.3887C9.69482 19.3887 9.70319 19.4012 9.70738 19.4075H9.70947C9.70947 19.4075 9.69692 19.3929 9.69482 19.3887Z" fill="#9C4322"/>
<path d="M9.69482 19.3887C9.69482 19.3887 9.70319 19.4012 9.70738 19.4075H9.70947C9.70947 19.4075 9.69692 19.3929 9.69482 19.3887Z" fill="#9C4322"/>
<path d="M10.6256 20.2707C10.6256 20.2707 10.609 20.2562 10.5986 20.25C10.6028 20.2562 10.6069 20.2604 10.6132 20.2645C10.6173 20.2687 10.6214 20.2728 10.6277 20.277C10.6277 20.277 10.6277 20.2728 10.6277 20.2707H10.6256Z" fill="#9C4322"/>
<path d="M13.7202 13.8334L13.8749 13.4883L14.2023 13.5656L14.2063 13.7759L13.7202 13.8334Z" fill="#9C4322"/>
<path d="M10.2028 19.9528C10.2028 19.9528 9.85128 19.6263 9.48168 19.1375C9.11208 18.6488 9.56203 19.1514 9.56203 19.1514L10.2651 19.9686L10.2048 19.9508L10.2028 19.9528Z" fill="#9C4322"/>
<path d="M7.60998 19.5664C7.59985 19.5786 7.58972 19.5907 7.57959 19.6029L7.60998 19.5664Z" fill="#9C4322"/>
<path d="M10.0886 18.0059L9.58044 18.5283L9.49607 18.6054L9.41572 18.6806L9.35345 18.738L9.30926 18.7796L9.30324 18.7855L9.24699 18.8389L9.00997 19.0586L9.00595 19.0625L8.94971 19.114L9.00193 19.0586V19.0566L9.15459 18.8904L9.2249 18.8112L9.28516 18.7479L9.33136 18.6965L9.46795 18.5461L10.0886 18.0059Z" fill="#9C4322"/>
<path d="M13.7221 13.6242C13.7221 13.6242 13.3384 12.9416 13.5313 12.3262C13.6297 12.7595 13.7241 13.1256 14.0877 13.4758C14.4512 13.8261 13.7221 13.6242 13.7221 13.6242Z" fill="#9C4322"/>
<path d="M10.1229 19.8323H10.1108C10.1008 19.8323 10.0887 19.8323 10.0787 19.8323C10.0626 19.8323 10.0465 19.8323 10.0305 19.8323C10.0184 19.8323 10.0043 19.8323 9.9923 19.8303C9.87177 19.8204 9.74523 19.7986 9.6227 19.7709C9.56444 19.7571 9.50619 19.7432 9.44995 19.7274C9.41781 19.7195 9.38567 19.7096 9.35353 19.6997C8.97389 19.5889 8.66455 19.4523 8.66455 19.4523L8.95179 19.1199L9.00201 19.0605L9.01004 19.0625L9.56043 19.2426H9.56846V19.2446L9.66488 19.2762L9.70706 19.2901C9.70706 19.2901 9.71309 19.298 9.7171 19.3059C9.72916 19.3198 9.74723 19.3455 9.77134 19.3772C9.77937 19.387 9.78741 19.3989 9.79544 19.4088C9.79544 19.4088 9.79946 19.4128 9.79946 19.4147C9.79946 19.4147 9.80147 19.4167 9.80348 19.4187C9.8075 19.4246 9.81151 19.4286 9.81553 19.4326C9.85169 19.48 9.89387 19.5355 9.93404 19.5909C9.93404 19.5909 9.93404 19.5909 9.93404 19.5928C9.93404 19.5928 9.93605 19.5948 9.93806 19.5968C10.0023 19.6799 10.0666 19.765 10.1188 19.8342L10.1229 19.8323Z" fill="#9C4322"/>
<path d="M18.8726 10.1258C18.9087 10.0545 18.977 9.99516 19.0513 9.96548C19.0895 9.94965 19.1277 9.93382 19.1678 9.91997L19.0815 9.8428L18.9047 9.68648L13.7022 5.09375L13.4752 5.29163L9.51006 8.7802L6.63361 11.311L6.56934 11.3684C6.59947 11.3902 6.6296 11.412 6.65973 11.4357L6.74409 11.3843L7.10365 11.1567L9.50202 9.6469L13.1036 7.38121L13.5736 7.08439L13.6439 7.04086L16.8277 8.94839L18.5713 9.99318L18.7601 10.106L18.8525 10.1614C18.8585 10.1475 18.8625 10.1357 18.8706 10.1218L18.8726 10.1258Z" fill="#EFD8C4"/>
<path d="M19.015 9.99521C19.0954 9.95563 19.1837 9.93189 19.2741 9.91606C19.3605 9.90023 19.4489 9.88637 19.5373 9.89033C19.5734 9.89033 19.6096 9.89627 19.6457 9.90022L19.5212 9.78941L19.2802 9.57373L13.7623 4.63867L13.2661 5.06411L9.51792 8.27763L7.60364 9.91804L7.50522 10.0031L7.27221 10.203L6.79213 10.6146L6.26384 11.0677L5.86211 11.41L5.83398 11.4358C5.89224 11.4595 5.95049 11.4852 6.00673 11.5129C6.14734 11.5822 6.27791 11.6653 6.39642 11.7622L6.79615 11.4239L7.10348 11.1607L9.50587 9.12059L13.7081 5.55287L13.7261 5.53704L18.6735 9.87054L18.8383 10.015L18.9126 10.0803C18.9387 10.0467 18.9748 10.019 19.013 10.0011L19.015 9.99521Z" fill="#9C4322"/>
<path d="M4.75129 10.599L4.35156 10.417C4.67496 9.73035 5.38001 9.28711 6.14733 9.28711C6.80216 9.28711 7.41281 9.60569 7.78241 10.138L7.41883 10.3814C7.13159 9.96583 6.65553 9.71848 6.14733 9.71848C5.55075 9.71848 5.00238 10.0628 4.74928 10.5971L4.75129 10.599Z" fill="#9C4322"/>
<path d="M22.6871 8.48537C22.6951 8.53484 22.7012 8.58827 22.7092 8.64565C22.7193 8.71887 22.7293 8.79801 22.7393 8.8831C22.7474 8.94049 22.7534 9.00183 22.7614 9.06317C22.7675 9.11858 22.7735 9.17398 22.7795 9.23137C22.8197 9.24522 22.8518 9.24918 22.894 9.25116C22.9141 9.25116 22.9322 9.25115 22.9523 9.24918C23.0045 9.18981 23.0647 9.13836 23.127 9.09285C23.1993 9.0414 23.2957 8.98006 23.3942 8.9583C23.3922 8.93257 23.3902 8.90685 23.3861 8.88113C23.3861 8.86728 23.3841 8.85342 23.3821 8.83957C23.36 8.78614 23.3379 8.72876 23.3178 8.67138C23.3118 8.65555 23.3058 8.63971 23.3018 8.62388C23.113 8.05993 23.0487 7.38518 23.0447 7.35352L22.7554 7.79082L22.6128 8.00849C22.6128 8.00849 22.6449 8.18064 22.6851 8.46558C22.6851 8.47152 22.6871 8.47944 22.6891 8.48537H22.6871Z" fill="#9C4322"/>
<path d="M23.4405 11.4219C23.4345 11.5011 23.4285 11.5723 23.4244 11.6376C23.4164 11.7207 23.4104 11.7919 23.4023 11.8533C23.3983 11.8948 23.3923 11.9324 23.3883 11.9661C23.3883 11.972 23.3883 11.976 23.3863 11.9819C23.3843 12.0096 23.3802 12.0314 23.3782 12.0512C23.3782 12.065 23.3742 12.0769 23.3722 12.0887C23.3722 12.0986 23.3702 12.1066 23.3682 12.1105C23.3662 12.1145 23.3682 12.1184 23.3682 12.1184C23.3682 12.1184 23.3682 12.1204 23.3682 12.1224C23.3461 12.16 23.1975 12.3974 22.9383 12.5082C22.9303 12.5122 22.9203 12.5162 22.9102 12.5181C22.8359 12.5458 22.7535 12.5637 22.6611 12.5637C22.6993 12.4331 22.7174 12.2866 22.7375 12.1382C22.7475 12.0531 22.7555 11.972 22.7676 11.8889C22.7676 11.875 22.7716 11.8632 22.7736 11.8513C22.7837 11.7801 22.7917 11.7068 22.7997 11.6356C22.8078 11.5644 22.8138 11.4912 22.8218 11.4199H23.4445L23.4405 11.4219Z" fill="#9C4322"/>
<path d="M24.7962 9.76215L24.7902 9.78985C24.7902 9.78985 24.6375 9.0775 23.8682 8.91524C23.6794 8.87566 23.5187 8.86775 23.3841 8.87962C23.2254 8.89545 23.1049 8.93701 23.0145 8.98252C22.9542 9.0122 22.908 9.04584 22.8759 9.07354C22.8317 9.11114 22.8096 9.13884 22.8096 9.13884C22.8096 9.13884 22.7935 9.11114 22.7594 9.06365C22.681 8.94888 22.5023 8.71736 22.2371 8.52344C22.1588 8.46606 22.0744 8.41065 21.98 8.36316C21.6546 8.19694 21.2388 8.11384 20.7426 8.28006C19.435 8.72132 19.6218 9.80767 19.6218 9.80767C19.6218 9.80767 19.5816 9.79579 19.5173 9.78788C19.4129 9.77403 19.2462 9.77205 19.0795 9.84328C18.9951 9.8789 18.9127 9.93233 18.8384 10.0115C18.8103 10.0412 18.7842 10.0748 18.7601 10.1104C18.7018 10.1955 18.6516 10.3043 18.6154 10.4369C18.3824 11.2898 19.2381 11.6341 19.5053 11.6341H20.3389C20.2003 11.6143 20.0597 11.5945 19.9191 11.5806C19.5575 11.547 19.1277 11.5193 18.8947 11.2027C18.8284 11.1137 18.7982 11.0127 18.7721 10.9079C18.744 10.7891 18.7018 10.6704 18.6978 10.5457C18.6898 10.2786 18.8967 10.053 19.1337 9.9541C19.2622 9.90067 19.3928 9.89077 19.5314 9.88484C19.6017 9.88286 19.66 9.89077 19.6981 9.83537C19.8428 9.61572 19.7825 9.33078 19.895 9.10125C19.909 9.07354 19.9271 9.05376 19.9472 9.0399C20.0517 8.79058 20.2646 8.59863 20.5137 8.49178C20.7949 8.37108 21.1002 8.35129 21.4035 8.37701C21.6446 8.3968 21.9418 8.42648 22.1146 8.61842C22.1467 8.65404 22.1568 8.69164 22.1548 8.72924C22.2813 8.82817 22.3837 8.93503 22.4581 9.02407C22.4942 9.00626 22.5344 9.0023 22.5726 9.0122C22.6449 9.02803 22.6991 9.07157 22.7554 9.1151C22.8016 9.14874 22.8518 9.17644 22.9 9.20612C22.9984 9.11905 23.127 9.05573 23.2475 9.01022C23.4805 8.92315 23.7396 8.91326 23.9746 9.00033C24.0811 9.0399 24.1815 9.09531 24.2579 9.17841C24.3442 9.27142 24.3844 9.38421 24.4346 9.497C24.527 9.71269 24.6857 9.79579 24.9127 9.83141C25.1778 9.87297 25.4149 9.96003 25.6017 10.1599C25.7724 10.3419 25.8728 10.5517 25.8166 10.803C25.7664 11.0266 25.6077 11.2601 25.3968 11.363C25.2702 11.4243 25.1316 11.452 24.991 11.4698C24.8464 11.4896 24.7098 11.5272 24.5672 11.5609C24.2759 11.6281 23.9666 11.6064 23.6693 11.6044C23.5629 11.6044 23.4544 11.6064 23.3439 11.6044C23.2776 11.6143 23.2113 11.6242 23.145 11.6321H25.0654C25.0654 11.6321 25.8809 11.6163 25.9552 10.6625C26.0315 9.67904 24.7942 9.7582 24.7942 9.7582L24.7962 9.76215Z" fill="white"/>
<path d="M25.9129 9.89936C25.6237 9.61243 25.1757 9.55505 24.9387 9.54516C24.8262 9.28 24.547 8.83478 23.9143 8.7022C23.6793 8.65273 23.4824 8.64877 23.3157 8.67054C23.1811 8.68835 23.0706 8.72199 22.9782 8.76156C22.934 8.78135 22.8939 8.80114 22.8577 8.82291C22.8336 8.79125 22.8075 8.75959 22.7814 8.72991C22.7613 8.70616 22.7392 8.68241 22.7171 8.65867C22.7131 8.65471 22.7091 8.65075 22.7051 8.6468C22.5122 8.44298 22.2551 8.24115 21.9478 8.11253C21.5882 7.96214 21.1564 7.91267 20.6703 8.07691C19.7081 8.40143 19.4208 9.08806 19.3907 9.56692C19.3546 9.56692 19.3144 9.5689 19.2742 9.57484C19.1577 9.58671 19.0271 9.62035 18.9006 9.68961C18.8142 9.7371 18.7379 9.79646 18.6716 9.86967C18.6354 9.90925 18.6013 9.95278 18.5692 10.0003C18.4968 10.1091 18.4406 10.2377 18.4004 10.3842C18.2739 10.8472 18.4245 11.1717 18.5732 11.3617C18.8383 11.702 19.2742 11.8564 19.5012 11.8564H25.0693C25.4208 11.8484 26.1018 11.5952 26.1721 10.6869C26.1962 10.3663 26.1078 10.1032 25.9089 9.9053L25.9129 9.89936ZM25.0673 11.4171H19.5052C19.4128 11.4171 19.1035 11.3201 18.9267 11.0926C18.7961 10.9263 18.764 10.7285 18.8303 10.491C18.8584 10.3842 18.9006 10.2931 18.9508 10.2199C18.9669 10.1962 18.987 10.1724 19.0071 10.1526C19.0412 10.117 19.0774 10.0873 19.1195 10.0636C19.1698 10.0359 19.222 10.0181 19.2722 10.0082C19.3184 9.9983 19.3646 9.99434 19.4048 9.99434C19.4972 9.99434 19.5635 10.0121 19.5635 10.0121C19.6257 10.03 19.692 10.0201 19.7442 9.98445C19.7543 9.97851 19.7623 9.97257 19.7704 9.96466C19.8266 9.91519 19.8547 9.84 19.8407 9.76678C19.8346 9.72918 19.698 8.85655 20.8169 8.48058C21.305 8.31634 21.7067 8.43111 22.006 8.6191C22.006 8.6191 22.6066 9.21668 22.6207 9.24241C22.6568 9.30375 22.7191 9.3453 22.7914 9.35124C22.7914 9.35124 22.7954 9.35124 22.7975 9.35124C22.8718 9.3552 22.9401 9.32354 22.9843 9.26615C22.9843 9.26615 22.9863 9.26417 22.9903 9.26022C23.0003 9.25032 23.0184 9.23251 23.0506 9.21075C23.1148 9.16524 23.2293 9.10785 23.4081 9.09202C23.5206 9.08213 23.6572 9.08806 23.8239 9.1217C24.4386 9.25032 24.5731 9.80834 24.5772 9.8301C24.6033 9.94685 24.7198 10.022 24.8383 9.99632C24.8624 9.99038 24.8845 9.98247 24.9026 9.97059C25.0914 9.97653 25.4228 10.0201 25.6016 10.2001C25.7081 10.307 25.7522 10.4514 25.7362 10.6434C25.6799 11.3676 25.1235 11.4111 25.0673 11.4131V11.4171Z" fill="#9C4322"/>
<path d="M12.2017 21.4153C12.1575 21.4015 12.1233 21.3975 12.0972 21.4015C12.0028 21.4055 11.9908 21.4727 11.8923 21.447C11.8702 21.4411 11.8481 21.4312 11.818 21.4173C11.7678 21.3916 11.7196 21.3639 11.6694 21.3342C11.6694 21.3342 11.6613 21.3283 11.6553 21.3263C11.0708 20.984 10.4702 20.422 9.9921 19.8284C9.90774 19.7255 9.8294 19.6206 9.75508 19.5177C9.72897 19.4821 9.70486 19.4465 9.67875 19.4109C9.65263 19.3713 9.62652 19.3337 9.60041 19.2941C9.60041 19.2941 9.60041 19.2921 9.5984 19.2902C9.58836 19.2763 9.57831 19.2605 9.56827 19.2446C9.56827 19.2446 9.56827 19.2407 9.56425 19.2387C9.51403 19.1615 9.46583 19.0824 9.42164 19.0052C9.37945 18.932 9.34129 18.8588 9.30513 18.7895C9.30513 18.7895 9.30513 18.7875 9.30513 18.7856C9.2991 18.7757 9.29509 18.7678 9.29107 18.7579C9.29107 18.7579 9.29107 18.7559 9.28906 18.7539C9.28906 18.7539 9.29107 18.7559 9.29308 18.7579C9.29911 18.7658 9.30513 18.7737 9.31116 18.7816C9.31116 18.7816 9.31116 18.7816 9.31116 18.7836C9.43369 18.9439 9.55823 19.1022 9.68678 19.2565C9.68678 19.2585 9.68879 19.2624 9.69281 19.2644C9.73298 19.3139 9.77115 19.3614 9.81333 19.4089C10.0142 19.6463 10.2231 19.8798 10.4441 20.0995C10.4782 20.1351 10.5124 20.1687 10.5485 20.2024C10.5626 20.2182 10.5786 20.232 10.5927 20.2459C10.5947 20.2459 10.5987 20.2499 10.6007 20.2538C10.6048 20.2597 10.6108 20.2637 10.6148 20.2677C10.6188 20.2716 10.6228 20.2756 10.6289 20.2795C11.0165 20.6476 11.4384 20.98 11.9044 21.2551C12.0028 21.3125 12.1032 21.3679 12.2037 21.4213L12.2017 21.4153Z" fill="#9C4322"/>
</svg>
