<svg width="86" height="26" viewBox="0 0 86 26" fill="none" xmlns="http://www.w3.org/2000/svg">
<path d="M42.384 7.64V19H41.28V13.688H34.544V19H33.424V7.64H34.544V12.696H41.28V7.64H42.384ZM53.1885 18.008V19H45.5565V7.64H53.0445V8.632H46.6765V12.728H52.2285V13.672H46.6765V18.008H53.1885ZM55.6265 19V7.64H56.7465V19H55.6265ZM64.1872 7.72H65.2432L66.8432 11.752L68.4592 7.72H69.5312L67.5472 12.568L69.7232 17.704L73.8352 7.64H75.0513L70.2352 19H69.2432L66.8592 13.384L64.4592 19H63.4832L58.6832 7.64H59.8832L64.0112 17.704L66.1712 12.568L64.1872 7.72ZM79.5365 7.64H80.4805L85.2005 19H84.0165L82.5445 15.448H77.4405L75.9845 19H74.7845L79.5365 7.64ZM82.2885 14.568L80.0005 8.952L77.6805 14.568H82.2885Z" fill="#9E421B"/>
<circle cx="13" cy="13" r="12.5" stroke="#9E421B"/>
</svg>
