<svg width="121" height="122" viewBox="0 0 121 122" fill="none" xmlns="http://www.w3.org/2000/svg">
<path d="M4.50044 37C3.85786 65.5794 11.0903 73.5727 38.5004 72.5V59.5C37.5802 51.5752 34.9037 49.2098 27.0004 48C13.2104 45.9347 9.19673 43.1166 4.50044 37Z" fill="#C3911A"/>
<path d="M40 27C49.6301 36.9131 52.9535 42.3309 41.2563 55C38 48.5 32.2563 45.5 32.2563 45.5C32.2563 45.5 33 37.5 40 27Z" fill="#C3911A"/>
<path d="M4.50044 37C3.85786 65.5794 11.0903 73.5727 38.5004 72.5V59.5C37.5802 51.5752 34.9037 49.2098 27.0004 48C13.2104 45.9347 9.19673 43.1166 4.50044 37Z" stroke="white"/>
<path d="M40 27C49.6301 36.9131 52.9535 42.3309 41.2563 55C38 48.5 32.2563 45.5 32.2563 45.5C32.2563 45.5 33 37.5 40 27Z" stroke="white"/>
<path d="M8.00017 63C0.405819 65.9673 0.000637054 69.5 4.50113 71.5C47.2618 81.6051 66.9525 80.1006 98.5003 71.5C104.5 69 99.2307 65.4173 89 61.5" stroke="black" stroke-width="2"/>
<path d="M1.5 68C4.26024 86.3922 7.38371 100.043 30 115.5C45 124 65 121.5 75 115.5C86 110.5 96.7648 92.4395 101 69.5" stroke="black" stroke-width="2" stroke-linecap="round"/>
<path d="M61 78L89 41.5001C87.5519 39.5573 85.7523 39.0432 89 35.5001C92.2477 31.9571 105.032 39.6477 102 44.0001C98.9682 48.3525 99.2525 46.6661 97 46.0001L80 76" stroke="black" stroke-width="2"/>
<path d="M71 46C50.8672 48.0322 43.48 52.6117 43.5 72.5C54.6832 74.034 59.9789 72.6216 66.5 63.5C66.9411 58.1464 68.1338 53.7942 71 46Z" fill="#C3911A" stroke="white"/>
<path d="M18 58C23.6699 67.3692 28.7334 69.8623 39 72.5" stroke="white"/>
<path d="M42.5 40C44.5922 45.3517 43.8935 48.9732 41 56" stroke="white"/>
<path d="M44 73.5C45.2545 65.4767 47.3625 62.2312 53 58" stroke="white"/>
<path d="M9 78C14.1197 98.793 21.9252 105.12 39 113" stroke="black"/>
<path fill-rule="evenodd" clip-rule="evenodd" d="M119.591 58.9773L120.591 58.9941C120.596 58.6634 120.599 58.332 120.599 58C120.599 57.668 120.596 57.3366 120.591 57.0059L119.591 57.0227L118.591 57.0395C118.596 57.359 118.599 57.6792 118.599 58C118.599 58.3208 118.596 58.641 118.591 58.9605L119.591 58.9773ZM119.525 55.0803L120.524 55.0299C120.491 54.3671 120.446 53.7072 120.391 53.0504L119.394 53.1346L118.398 53.2188C118.451 53.8531 118.494 54.4904 118.527 55.1306L119.525 55.0803ZM119.197 51.1982L120.19 51.0801C120.112 50.4234 120.023 49.77 119.923 49.1202L118.935 49.2721L117.947 49.4239C118.043 50.0513 118.129 50.6821 118.204 51.3162L119.197 51.1982ZM119.188 45.226C119.332 45.8686 119.466 46.5152 119.589 47.1657L118.606 47.3514L117.624 47.537C117.505 46.9091 117.376 46.2849 117.236 45.6646L118.212 45.4453L119.188 45.226ZM117.753 43.5556L118.721 43.3029C118.553 42.6624 118.375 42.0262 118.187 41.3945L117.229 41.6803L116.27 41.9661C116.452 42.5759 116.624 43.19 116.785 43.8083L117.753 43.5556ZM116.64 39.8247L117.588 39.5061C117.377 38.8794 117.156 38.2575 116.925 37.6407L115.989 37.9917L115.052 38.3428C115.276 38.9383 115.489 39.5385 115.692 40.1434L116.64 39.8247ZM115.274 36.1814L116.198 35.7983C115.945 35.1873 115.681 34.5816 115.408 33.9814L114.498 34.396L113.588 34.8106C113.851 35.39 114.106 35.9747 114.35 36.5644L115.274 36.1814ZM113.661 32.6392L114.556 32.1937C114.261 31.6021 113.957 31.0163 113.643 30.4364L112.764 30.9123L111.884 31.3882C112.187 31.9481 112.481 32.5136 112.765 33.0847L113.661 32.6392ZM111.808 29.2159L112.671 28.7102C112.337 28.1401 111.993 27.5763 111.64 27.0188L110.795 27.5537L109.95 28.0886C110.291 28.6268 110.623 29.1712 110.945 29.7216L111.808 29.2159ZM109.726 25.9274L110.552 25.364C110.18 24.8181 109.799 24.2789 109.409 23.7466L108.602 24.3378L107.796 24.929C108.172 25.443 108.541 25.9637 108.9 26.4908L109.726 25.9274ZM107.425 22.7875L108.211 22.1692C107.802 21.6501 107.385 21.1382 106.96 20.6336L106.195 21.2782L105.431 21.9229C105.842 22.4101 106.245 22.9045 106.639 23.4058L107.425 22.7875ZM104.916 19.8115L105.658 19.1413C105.215 18.6512 104.764 18.1687 104.305 17.694L103.586 18.389L102.867 19.084C103.311 19.5424 103.746 20.0084 104.173 20.4817L104.916 19.8115ZM102.21 17.0125L102.905 16.2935C102.43 15.8346 101.948 15.3838 101.458 14.9412L100.787 15.6834L100.117 16.4256C100.59 16.853 101.056 17.2884 101.515 17.7315L102.21 17.0125ZM99.3207 14.4034L99.9653 13.6389C99.4607 13.2135 98.9488 12.7965 98.4297 12.3882L97.8114 13.1741L97.1932 13.9601C97.6944 14.3544 98.1888 14.7571 98.6761 15.1679L99.3207 14.4034ZM96.2611 11.9967L96.8523 11.1901C96.32 10.8 95.7808 10.4187 95.2349 10.0464L94.6716 10.8726L94.1082 11.6988C94.6353 12.0583 95.1559 12.4264 95.6699 12.8032L96.2611 11.9967ZM93.0452 9.80376L93.5801 8.95884C93.0227 8.60596 92.4588 8.26232 91.8888 7.92814L91.383 8.79083L90.8773 9.65353C91.4277 9.97618 91.9721 10.308 92.5103 10.6487L93.0452 9.80376ZM89.6866 7.83497L90.1625 6.95548C89.5827 6.64169 88.9968 6.33749 88.4053 6.0431L87.9597 6.93837L87.5142 7.83364C88.0853 8.11784 88.6509 8.41152 89.2107 8.71446L89.6866 7.83497ZM86.2029 6.10137L86.6175 5.19135C86.0173 4.91792 85.4116 4.65442 84.8006 4.40107L84.4176 5.32479L84.0345 6.24852C84.6243 6.49308 85.209 6.74744 85.7884 7.01139L86.2029 6.10137ZM82.6072 4.61028L82.9583 3.67393C82.3414 3.44264 81.7195 3.22155 81.0928 3.01088L80.7742 3.95875L80.4555 4.90662C81.0604 5.10997 81.6607 5.32337 82.2561 5.54663L82.6072 4.61028ZM78.9186 3.37029L79.2045 2.41201C78.5727 2.22358 77.9365 2.04562 77.296 1.87834L77.0433 2.84589L76.7906 3.81344C77.4089 3.97491 78.023 4.14668 78.6328 4.32856L78.9186 3.37029ZM75.1536 2.38692L75.3729 1.41126C74.7303 1.26683 74.0837 1.13306 73.4332 1.01016L73.2475 1.99277L73.0619 2.97538C73.6898 3.09403 74.314 3.22316 74.9343 3.36258L75.1536 2.38692ZM71.3268 1.66388L71.4787 0.675477C70.8289 0.575643 70.1755 0.486595 69.5188 0.408519L69.4007 1.40153L69.2827 2.39453C69.9168 2.46992 70.5476 2.5559 71.1749 2.65228L71.3268 1.66388ZM67.4643 1.20468L67.5485 0.208228C66.8917 0.152724 66.2318 0.108164 65.569 0.0747307L65.5186 1.07346L65.4682 2.07219C66.1085 2.10448 66.7458 2.14752 67.3801 2.20112L67.4643 1.20468ZM63.5762 1.00821L63.593 0.00834718C63.2623 0.00278978 62.9309 0 62.5989 0C62.2669 0 61.9355 0.00279006 61.6048 0.00834801L61.6216 1.00821L61.6384 2.00807C61.9579 2.0027 62.2781 2 62.5989 2C62.9197 2 63.2399 2.0027 63.5594 2.00806L63.5762 1.00821ZM59.6792 1.07346L59.6288 0.0747332C58.966 0.108167 58.3061 0.152727 57.6493 0.208232L57.7335 1.20468L57.8178 2.20113C58.452 2.14753 59.0893 2.10449 59.7296 2.07219L59.6792 1.07346ZM55.7971 1.40153L55.6791 0.408523C55.0223 0.486599 54.369 0.575648 53.7192 0.675482L53.871 1.66388L54.0229 2.65229C54.6502 2.5559 55.2811 2.46993 55.9152 2.39454L55.7971 1.40153ZM51.9503 1.99278L51.7646 1.01016C51.1142 1.13307 50.4675 1.26684 49.8249 1.41127L50.0442 2.38693L50.2635 3.36259C50.8838 3.22317 51.508 3.09404 52.136 2.97539L51.9503 1.99278ZM45.9934 2.41202C46.6251 2.22358 47.2613 2.04563 47.9019 1.87834L48.1546 2.84589L48.4072 3.81344C47.789 3.97491 47.1748 4.14669 46.5651 4.32857L46.2792 3.37029L45.9934 2.41202ZM44.4237 3.95875L44.105 3.01089C43.4784 3.22156 42.8565 3.44264 42.2396 3.67394L42.5907 4.61028L42.9417 5.54663C43.5372 5.32338 44.1375 5.10997 44.7423 4.90662L44.4237 3.95875ZM40.7803 5.3248L40.3972 4.40107C39.7863 4.65443 39.1806 4.91792 38.5804 5.19135L38.9949 6.10137L39.4095 7.01139C39.9889 6.74744 40.5736 6.49309 41.1633 6.24852L40.7803 5.3248ZM37.2381 6.93837L36.7926 6.0431C36.201 6.3375 35.6152 6.64169 35.0353 6.95548L35.5112 7.83497L35.9872 8.71446C36.547 8.41152 37.1126 8.11784 37.6837 7.83364L37.2381 6.93837ZM33.8148 8.79084L33.3091 7.92814C32.739 8.26233 32.1752 8.60597 31.6178 8.95885L32.1527 9.80377L32.6876 10.6487C33.2258 10.308 33.7702 9.97618 34.3206 9.65353L33.8148 8.79084ZM30.5263 10.8726L29.9629 10.0464C29.417 10.4187 28.8779 10.8 28.3456 11.1901L28.9367 11.9967L29.5279 12.8032C30.0419 12.4264 30.5626 12.0583 31.0897 11.6988L30.5263 10.8726ZM27.3864 13.1741L26.7681 12.3882C26.2491 12.7965 25.7371 13.2135 25.2326 13.6389L25.8772 14.4034L26.5218 15.168C27.0091 14.7571 27.5034 14.3544 28.0047 13.9601L27.3864 13.1741ZM24.4105 15.6834L23.7403 14.9412C23.2501 15.3838 22.7676 15.8346 22.2929 16.2935L22.9879 17.0125L23.6829 17.7315C24.1414 17.2884 24.6074 16.853 25.0807 16.4256L24.4105 15.6834ZM21.6114 18.389L20.8924 17.694C20.4336 18.1687 19.9827 18.6512 19.5402 19.1413L20.2823 19.8115L21.0245 20.4817C21.4519 20.0084 21.8873 19.5425 22.3304 19.084L21.6114 18.389ZM19.0024 21.2782L18.2379 20.6336C17.8124 21.1382 17.3954 21.6501 16.9871 22.1692L17.7731 22.7875L18.559 23.4058C18.9533 22.9045 19.356 22.4101 19.7669 21.9229L19.0024 21.2782ZM16.5956 24.3378L15.7891 23.7466C15.3989 24.2789 15.0176 24.8181 14.6454 25.364L15.4716 25.9274L16.2978 26.4908C16.6572 25.9637 17.0254 25.443 17.4021 24.929L16.5956 24.3378ZM14.4027 27.5537L13.5578 27.0189C13.2049 27.5763 12.8613 28.1401 12.5271 28.7102L13.3898 29.2159L14.2525 29.7216C14.5751 29.1712 14.9069 28.6268 15.2476 28.0886L14.4027 27.5537ZM12.4339 30.9123L11.5544 30.4364C11.2406 31.0163 10.9364 31.6021 10.642 32.1937L11.5373 32.6392L12.4326 33.0847C12.7168 32.5136 13.0104 31.9481 13.3134 31.3882L12.4339 30.9123ZM10.7003 34.396L9.79028 33.9814C9.51685 34.5817 9.25336 35.1873 9 35.7983L9.92373 36.1814L10.8475 36.5644C11.092 35.9747 11.3464 35.39 11.6103 34.8106L10.7003 34.396ZM86.0193 109.496L85.3278 111.377C85.7604 111.193 86.1903 111.003 86.6175 110.809L86.2029 109.899L86.0193 109.496ZM87.9597 109.062L88.4053 109.957C88.9968 109.663 89.5827 109.358 90.1625 109.045L89.6866 108.165L89.2107 107.286C88.6509 107.588 88.0853 107.882 87.5142 108.166L87.9597 109.062ZM91.383 107.209L91.8888 108.072C92.4588 107.738 93.0227 107.394 93.5801 107.041L93.0452 106.196L92.5103 105.351C91.9721 105.692 91.4277 106.024 90.8773 106.346L91.383 107.209ZM94.6716 105.127L95.2349 105.954C95.7808 105.581 96.32 105.2 96.8523 104.81L96.2611 104.003L95.6699 103.197C95.1559 103.574 94.6353 103.942 94.1082 104.301L94.6716 105.127ZM97.8114 102.826L98.4297 103.612C98.9488 103.204 99.4607 102.787 99.9653 102.361L99.3207 101.597L98.6761 100.832C98.1888 101.243 97.6944 101.646 97.1932 102.04L97.8114 102.826ZM100.787 100.317L101.458 101.059C101.948 100.616 102.43 100.165 102.905 99.7065L102.21 98.9875L101.515 98.2685C101.056 98.7116 100.59 99.147 100.117 99.5744L100.787 100.317ZM103.586 97.611L104.305 98.306C104.764 97.8313 105.215 97.3488 105.658 96.8587L104.916 96.1885L104.173 95.5183C103.746 95.9916 103.311 96.4576 102.867 96.916L103.586 97.611ZM106.195 94.7218L106.96 95.3664C107.385 94.8618 107.802 94.3499 108.211 93.8308L107.425 93.2125L106.639 92.5942C106.245 93.0955 105.842 93.5899 105.431 94.0771L106.195 94.7218ZM110.552 90.636C110.18 91.1819 109.799 91.7211 109.409 92.2534L108.602 91.6622L107.796 91.071C108.172 90.557 108.541 90.0363 108.9 89.5092L109.726 90.0726L110.552 90.636ZM110.795 88.4463L111.64 88.9811C111.993 88.4237 112.337 87.8599 112.671 87.2898L111.808 86.7841L110.945 86.2784C110.623 86.8288 110.291 87.3732 109.95 87.9114L110.795 88.4463ZM112.764 85.0877L113.643 85.5636C113.957 84.9837 114.261 84.3979 114.556 83.8063L113.661 83.3608L112.765 82.9153C112.481 83.4864 112.187 84.0519 111.884 84.6118L112.764 85.0877ZM114.498 81.604L115.408 82.0186C115.681 81.4183 115.945 80.8127 116.198 80.2017L115.274 79.8186L114.35 79.4356C114.106 80.0253 113.851 80.61 113.588 81.1894L114.498 81.604ZM115.989 78.0083L116.925 78.3593C117.156 77.7424 117.377 77.1206 117.588 76.4939L116.64 76.1752L115.692 75.8566C115.489 76.4615 115.276 77.0617 115.052 77.6572L115.989 78.0083ZM117.229 74.3197L118.187 74.6055C118.375 73.9738 118.553 73.3376 118.721 72.697L117.753 72.4444L116.785 72.1917C116.624 72.81 116.452 73.4241 116.27 74.0338L117.229 74.3197ZM118.212 70.5547L119.188 70.774C119.332 70.1314 119.466 69.4847 119.589 68.8343L118.606 68.6486L117.624 68.4629C117.505 69.0909 117.376 69.7151 117.236 70.3354L118.212 70.5547ZM118.935 66.7279L119.923 66.8797C120.023 66.2299 120.112 65.5766 120.19 64.9198L119.197 64.8018L118.204 64.6837C118.129 65.3178 118.043 65.9487 117.947 66.576L118.935 66.7279ZM119.394 62.8653L120.391 62.9495C120.446 62.2928 120.491 61.6329 120.524 60.9701L119.525 60.9197L118.527 60.8693C118.494 61.5095 118.451 62.1469 118.398 62.7811L119.394 62.8653Z" fill="#C3911A"/>
</svg>
