<svg width="113" height="116" viewBox="0 0 113 116" fill="none" xmlns="http://www.w3.org/2000/svg">
<path fill-rule="evenodd" clip-rule="evenodd" d="M111.916 57.4564L112.916 57.474C112.922 57.1374 112.925 56.8002 112.925 56.4623C112.925 56.1243 112.922 55.7871 112.916 55.4506L111.916 55.4682L110.916 55.4857C110.922 55.8105 110.925 56.1361 110.925 56.4623C110.925 56.7885 110.922 57.114 110.916 57.4388L111.916 57.4564ZM112.703 51.426C112.762 52.0938 112.809 52.7649 112.845 53.4391L111.846 53.4918L110.848 53.5445C110.813 52.8939 110.768 52.2464 110.711 51.6021L111.707 51.5141L112.703 51.426ZM111.497 49.5445L112.49 49.421C112.407 48.7527 112.312 48.0879 112.205 47.427L111.218 47.5858L110.231 47.7446C110.333 48.382 110.425 49.0232 110.505 49.6679L111.497 49.5445ZM111.423 43.4717C111.577 44.1245 111.719 44.7817 111.85 45.443L110.869 45.637L109.888 45.8311C109.762 45.1933 109.624 44.5596 109.476 43.9301L110.45 43.7009L111.423 43.4717ZM109.961 41.7826L110.926 41.5186C110.748 40.8696 110.559 40.2252 110.359 39.5857L109.405 39.8842L108.45 40.1828C108.643 40.7994 108.825 41.4208 108.997 42.0467L109.961 41.7826ZM108.779 38.0046L109.722 37.6719C109.498 37.0369 109.263 36.4072 109.018 35.783L108.087 36.1494L107.157 36.5158C107.394 37.1178 107.62 37.725 107.836 38.3373L108.779 38.0046ZM107.329 34.321L108.246 33.9215C107.977 33.3048 107.697 32.6939 107.407 32.0889L106.506 32.5211L105.604 32.9533C105.883 33.5368 106.153 34.1259 106.412 34.7206L107.329 34.321ZM105.618 30.7506L106.503 30.2863C106.191 29.6905 105.868 29.101 105.536 28.518L104.667 29.0136L103.799 29.5092C104.12 30.0716 104.431 30.6402 104.732 31.2148L105.618 30.7506ZM103.655 27.312L104.506 26.7856C104.152 26.2139 103.788 25.6489 103.414 25.0909L102.583 25.6473L101.752 26.2036C102.113 26.7418 102.464 27.2868 102.805 27.8383L103.655 27.312ZM101.452 24.0214L102.263 23.4359C101.869 22.8909 101.466 22.3532 101.054 21.8231L100.265 22.4371L99.4753 23.0511C99.8731 23.5625 100.262 24.0812 100.642 24.607L101.452 24.0214ZM99.0212 20.8961L99.7882 20.2544C99.3569 19.7389 98.9165 19.2312 98.4674 18.7315L97.7237 19.4L96.98 20.0685C97.4133 20.5505 97.8381 21.0404 98.2542 21.5377L99.0212 20.8961ZM96.3739 17.9509L97.0935 17.2564C96.6268 16.7729 96.1516 16.2977 95.6681 15.8311L94.9737 16.5506L94.2792 17.2701C94.7457 17.7204 95.2042 18.1788 95.6544 18.6453L96.3739 17.9509ZM93.5246 15.2008L94.193 14.4571C93.6934 14.008 93.1857 13.5677 92.6701 13.1364L92.0285 13.9034L91.3868 14.6704C91.8842 15.0865 92.374 15.5113 92.8561 15.9446L93.5246 15.2008ZM90.4874 12.66L91.1015 11.8707C90.5713 11.4583 90.0337 11.0551 89.4887 10.6615L88.9031 11.4721L88.3176 12.2827C88.8433 12.6625 89.362 13.0514 89.8734 13.4493L90.4874 12.66ZM87.2773 10.3412L87.8336 9.5102C87.2757 9.13667 86.7107 8.77281 86.1389 8.41888L85.6126 9.26916L85.0862 10.1194C85.6377 10.4608 86.1827 10.8118 86.721 11.1721L87.2773 10.3412ZM83.9109 8.25739L84.4066 7.38886C83.8236 7.05614 83.234 6.73351 82.6382 6.4212L82.174 7.30691L81.7097 8.19261C82.2843 8.49382 82.853 8.80499 83.4153 9.12591L83.9109 8.25739ZM80.4034 6.41893L80.8356 5.51716C80.2307 5.22721 79.6198 4.94772 79.0031 4.67892L78.6035 5.59561L78.2039 6.51231C78.7986 6.77153 79.3878 7.04107 79.9712 7.32071L80.4034 6.41893ZM76.7752 4.83741L77.1416 3.90696C76.5173 3.66113 75.8876 3.4261 75.2527 3.2021L74.92 4.14513L74.5873 5.08816C75.1995 5.30416 75.8068 5.53081 76.4088 5.76787L76.7752 4.83741ZM73.0403 3.51979L73.3389 2.5654C72.6994 2.36536 72.055 2.17639 71.4059 1.99871L71.1419 2.96322L70.8779 3.92774C71.5037 4.09907 72.1251 4.2813 72.7418 4.47419L73.0403 3.51979ZM69.2237 2.47501L69.4529 1.50162C68.8001 1.34792 68.1429 1.20554 67.4816 1.07471L67.2875 2.0557L67.0934 3.03668C67.7312 3.16286 68.365 3.30016 68.9945 3.44839L69.2237 2.47501ZM65.3388 1.70636L65.4976 0.719045C64.8366 0.612746 64.1719 0.517918 63.5035 0.434773L63.3801 1.42712L63.2566 2.41948C63.9013 2.49968 64.5425 2.59114 65.18 2.69367L65.3388 1.70636ZM61.4105 1.21766L61.4985 0.221546C60.8308 0.162523 60.1597 0.115125 59.4855 0.0795537L59.4328 1.07816L59.3801 2.07678C60.0307 2.1111 60.6782 2.15684 61.3224 2.21378L61.4105 1.21766ZM57.4564 1.00873L57.474 0.00888162C57.1374 0.00296876 56.8002 0 56.4623 0C56.1243 0 55.7871 0.00296862 55.4506 0.00888119L55.4682 1.00873L55.4857 2.00857C55.8105 2.00287 56.1361 2 56.4623 2C56.7885 2 57.114 2.00287 57.4388 2.00857L57.4564 1.00873ZM53.4918 1.07816L53.4391 0.0795526C52.7649 0.115124 52.0938 0.162522 51.426 0.221545L51.5141 1.21766L51.6021 2.21378C52.2464 2.15683 52.8939 2.1111 53.5445 2.07678L53.4918 1.07816ZM47.427 0.719042C48.0879 0.612744 48.7527 0.517916 49.421 0.43477L49.5445 1.42712L49.6679 2.41947C49.0232 2.49968 48.382 2.59114 47.7446 2.69367L47.5858 1.70635L47.427 0.719042ZM45.637 2.05569L45.443 1.07471C44.7817 1.20553 44.1245 1.34791 43.4717 1.50162L43.7009 2.475L43.9301 3.44838C44.5596 3.30016 45.1933 3.16285 45.8311 3.03668L45.637 2.05569ZM41.7826 2.96322L41.5186 1.99871C40.8696 2.17639 40.2252 2.36536 39.5857 2.56539L39.8842 3.51979L40.1828 4.47419C40.7994 4.28129 41.4208 4.09907 42.0467 3.92773L41.7826 2.96322ZM38.0046 4.14512L37.6719 3.20209C37.0369 3.42609 36.4072 3.66112 35.783 3.90695L36.1494 4.83741L36.5158 5.76786C37.1178 5.5308 37.725 5.30416 38.3373 5.08815L38.0046 4.14512ZM34.321 5.59561L33.9215 4.67891C33.3048 4.94771 32.6939 5.2272 32.0889 5.51716L32.5211 6.41893L32.9533 7.3207C33.5368 7.04107 34.1259 6.77153 34.7206 6.5123L34.321 5.59561ZM30.7506 7.3069L30.2863 6.4212C29.6905 6.7335 29.101 7.05613 28.518 7.38885L29.0136 8.25738L29.5092 9.12591C30.0716 8.80499 30.6402 8.49381 31.2148 8.1926L30.7506 7.3069ZM27.312 9.26915L26.7856 8.41887C26.2139 8.77281 25.6489 9.13666 25.0909 9.5102L25.6473 10.3412L26.2036 11.1721C26.7418 10.8118 27.2868 10.4608 27.8383 10.1194L27.312 9.26915ZM24.0214 11.4721L23.4359 10.6615C22.8909 11.0551 22.3532 11.4583 21.8231 11.8707L22.4371 12.66L23.0511 13.4493C23.5625 13.0514 24.0812 12.6625 24.607 12.2827L24.0214 11.4721ZM20.8961 13.9034L20.2544 13.1364C19.7389 13.5677 19.2312 14.008 18.7315 14.4571L19.4 15.2008L20.0685 15.9446C20.5505 15.5113 21.0404 15.0864 21.5377 14.6703L20.8961 13.9034ZM17.9509 16.5506L17.2564 15.8311C16.7729 16.2977 16.2977 16.7729 15.8311 17.2564L16.5506 17.9509L17.2701 18.6453C17.7204 18.1788 18.1788 17.7204 18.6453 17.2701L17.9509 16.5506ZM15.2008 19.4L14.4571 18.7315C14.008 19.2311 13.5677 19.7389 13.1364 20.2544L13.9034 20.8961L14.6704 21.5377C15.0865 21.0404 15.5113 20.5505 15.9446 20.0685L15.2008 19.4ZM12.66 22.4371L11.8707 21.8231C11.4583 22.3532 11.0551 22.8909 10.6615 23.4359L11.4721 24.0214L12.2827 24.607C12.6625 24.0812 13.0514 23.5625 13.4493 23.0511L12.66 22.4371ZM10.3412 25.6473L9.5102 25.0909C9.13667 25.6489 8.77281 26.2139 8.41888 26.7856L9.26916 27.312L10.1194 27.8383C10.4608 27.2868 10.8118 26.7418 11.1721 26.2036L10.3412 25.6473ZM8.25739 29.0136L7.38886 28.5179C7.05614 29.101 6.73351 29.6905 6.4212 30.2863L7.30691 30.7506L8.19261 31.2148C8.49382 30.6402 8.80499 30.0716 9.12591 29.5092L8.25739 29.0136ZM6.41893 32.5211L5.51716 32.0889C5.22721 32.6939 4.94772 33.3048 4.67892 33.9214L5.59561 34.321L6.51231 34.7206C6.77153 34.1259 7.04107 33.5368 7.32071 32.9533L6.41893 32.5211ZM4.83741 36.1494L3.90696 35.783C3.66113 36.4072 3.4261 37.0369 3.2021 37.6718L4.14513 38.0046L5.08816 38.3373C5.30416 37.725 5.53081 37.1178 5.76787 36.5158L4.83741 36.1494ZM3.51979 39.8842L2.5654 39.5857C2.36536 40.2252 2.17639 40.8695 1.99871 41.5186L2.96322 41.7826L3.92774 42.0467C4.09907 41.4208 4.2813 40.7994 4.47419 40.1827L3.51979 39.8842ZM2.47501 43.7009L1.50162 43.4717C1.34792 44.1245 1.20554 44.7816 1.07471 45.443L2.0557 45.637L3.03668 45.8311C3.16286 45.1933 3.30016 44.5596 3.44839 43.9301L2.47501 43.7009ZM1.70636 47.5858L0.719045 47.427C0.612746 48.0879 0.517918 48.7526 0.434773 49.421L1.42712 49.5445L2.41948 49.6679C2.49968 49.0232 2.59114 48.382 2.69367 47.7446L1.70636 47.5858ZM1.21766 51.5141L0.221546 51.426C0.162523 52.0938 0.115125 52.7649 0.0795538 53.4391L1.07816 53.4918L2.07678 53.5444C2.1111 52.8938 2.15684 52.2463 2.21378 51.6021L1.21766 51.5141ZM0 56.4623C0 56.1243 0.00296876 55.7871 0.00888162 55.4506L1.00873 55.4681L2.00857 55.4857C2.00287 55.8105 2 56.136 2 56.4623C2 56.7885 2.00287 57.114 2.00857 57.4388L1.00873 57.4564L0.00888119 57.4739C0.00296861 57.1374 0 56.8002 0 56.4623ZM1.07816 59.4328L0.0795526 59.4854C0.115124 60.1597 0.162522 60.8307 0.221545 61.4985L1.21766 61.4104L2.21378 61.3224C2.15683 60.6782 2.1111 60.0307 2.07678 59.3801L1.07816 59.4328ZM0.719042 65.4976C0.612743 64.8366 0.517916 64.1719 0.43477 63.5035L1.42712 63.38L2.41947 63.2566C2.49968 63.9013 2.59114 64.5425 2.69367 65.18L1.70635 65.3388L0.719042 65.4976ZM2.05569 67.2875L1.07471 67.4816C1.20553 68.1429 1.34791 68.8 1.50162 69.4528L2.475 69.2237L3.44838 68.9945C3.30016 68.3649 3.16285 67.7312 3.03668 67.0934L2.05569 67.2875ZM2.96322 71.1419L1.99871 71.4059C2.17639 72.055 2.36536 72.6994 2.56539 73.3389L3.51979 73.0403L4.47419 72.7418C4.28129 72.1251 4.09907 71.5037 3.92773 70.8779L2.96322 71.1419ZM4.14512 74.92L3.20209 75.2527C3.42609 75.8876 3.66112 76.5173 3.90695 77.1416L4.83741 76.7751L5.76786 76.4087C5.5308 75.8067 5.30416 75.1995 5.08815 74.5873L4.14512 74.92ZM5.59561 78.6035L4.67891 79.0031C4.94771 79.6197 5.2272 80.2307 5.51715 80.8356L6.41893 80.4034L7.3207 79.9712C7.04107 79.3878 6.77153 78.7986 6.5123 78.2039L5.59561 78.6035ZM7.3069 82.1739L6.4212 82.6382C6.7335 83.234 7.05613 83.8235 7.38885 84.4066L8.25738 83.9109L9.12591 83.4153C8.80499 82.8529 8.49381 82.2843 8.1926 81.7097L7.3069 82.1739ZM9.26915 85.6126L8.41887 86.1389C8.7728 86.7107 9.13666 87.2756 9.51019 87.8336L10.3412 87.2773L11.1721 86.7209C10.8118 86.1827 10.4608 85.6377 10.1194 85.0862L9.26915 85.6126ZM11.4721 88.9031L10.6615 89.4887C11.0551 90.0336 11.4583 90.5713 11.8707 91.1014L12.66 90.4874L13.4493 89.8734C13.0514 89.362 12.6625 88.8433 12.2827 88.3176L11.4721 88.9031ZM13.9034 92.0285L13.1364 92.6701C13.5677 93.1857 14.008 93.6934 14.4571 94.193L15.2008 93.5245L15.9446 92.8561C15.5113 92.374 15.0864 91.8842 14.6703 91.3868L13.9034 92.0285ZM16.5506 94.9737L15.8311 95.6681C16.2977 96.1516 16.7729 96.6268 17.2564 97.0935L17.9509 96.3739L18.6453 95.6544C18.1788 95.2042 17.7204 94.7457 17.2701 94.2792L16.5506 94.9737ZM19.4 97.7237L18.7315 98.4674C19.2311 98.9165 19.7389 99.3568 20.2544 99.7881L20.8961 99.0212L21.5377 98.2542C21.0404 97.8381 20.5505 97.4133 20.0685 96.98L19.4 97.7237ZM22.4371 100.265L21.8231 101.054C22.3532 101.466 22.8909 101.869 23.4359 102.263L24.0214 101.452L24.607 100.642C24.0812 100.262 23.5625 99.8731 23.0511 99.4753L22.4371 100.265ZM25.6473 102.583L25.0909 103.414C25.6489 103.788 26.2139 104.152 26.7856 104.506L27 104.159V102.276C26.7329 102.103 26.4674 101.929 26.2036 101.752L25.6473 102.583ZM85.7133 103.818L85.4541 102.575C85.8804 102.307 86.3027 102.032 86.7209 101.752L87.2773 102.583L87.8336 103.414C87.2756 103.788 86.7107 104.152 86.1389 104.506L85.7133 103.818ZM88.9031 101.452L89.4887 102.263C90.0336 101.869 90.5713 101.466 91.1014 101.054L90.4874 100.265L89.8734 99.4753C89.362 99.8731 88.8433 100.262 88.3176 100.642L88.9031 101.452ZM92.0285 99.0212L92.6701 99.7882C93.1857 99.3569 93.6934 98.9165 94.193 98.4674L93.5245 97.7237L92.8561 96.98C92.374 97.4133 91.8842 97.8381 91.3868 98.2542L92.0285 99.0212ZM94.9737 96.3739L95.6681 97.0935C96.1516 96.6268 96.6268 96.1516 97.0935 95.6681L96.3739 94.9737L95.6544 94.2792C95.2042 94.7457 94.7457 95.2042 94.2792 95.6544L94.9737 96.3739ZM97.7237 93.5246L98.4674 94.193C98.9165 93.6934 99.3568 93.1857 99.7881 92.6701L99.0212 92.0285L98.2542 91.3868C97.8381 91.8842 97.4133 92.374 96.98 92.8561L97.7237 93.5246ZM100.265 90.4874L101.054 91.1015C101.466 90.5713 101.869 90.0337 102.263 89.4887L101.452 88.9031L100.642 88.3176C100.262 88.8433 99.8731 89.362 99.4753 89.8734L100.265 90.4874ZM102.583 87.2773L103.414 87.8336C103.788 87.2757 104.152 86.7107 104.506 86.1389L103.655 85.6126L102.805 85.0862C102.464 85.6377 102.113 86.1827 101.752 86.721L102.583 87.2773ZM104.667 83.9109L105.536 84.4066C105.868 83.8236 106.191 83.234 106.503 82.6382L105.618 82.174L104.732 81.7097C104.431 82.2843 104.12 82.853 103.799 83.4153L104.667 83.9109ZM106.506 80.4034L107.407 80.8356C107.697 80.2307 107.977 79.6198 108.246 79.0031L107.329 78.6035L106.412 78.2039C106.153 78.7986 105.883 79.3878 105.604 79.9712L106.506 80.4034ZM108.087 76.7752L109.018 77.1416C109.263 76.5173 109.498 75.8876 109.722 75.2527L108.779 74.92L107.836 74.5873C107.62 75.1995 107.394 75.8068 107.157 76.4088L108.087 76.7752ZM109.405 73.0403L110.359 73.3389C110.559 72.6994 110.748 72.055 110.926 71.4059L109.961 71.1419L108.997 70.8779C108.825 71.5037 108.643 72.1251 108.45 72.7418L109.405 73.0403ZM110.45 69.2237L111.423 69.4529C111.577 68.8001 111.719 68.1429 111.85 67.4816L110.869 67.2875L109.888 67.0934C109.762 67.7312 109.624 68.365 109.476 68.9945L110.45 69.2237ZM111.218 65.3388L112.205 65.4976C112.312 64.8366 112.407 64.1719 112.49 63.5035L111.497 63.3801L110.505 63.2566C110.425 63.9013 110.333 64.5425 110.231 65.18L111.218 65.3388ZM111.707 61.4105L112.703 61.4985C112.762 60.8308 112.809 60.1597 112.845 59.4855L111.846 59.4328L110.848 59.3801C110.813 60.0307 110.768 60.6782 110.711 61.3224L111.707 61.4105Z" fill="#C3911A"/>
<path d="M49.3863 61C42.312 56.8232 38.8366 53.8412 42.4381 35.7375L46.7139 42.725C47.7094 30.5836 50.8046 25.7487 57.4033 18C57.0011 27.2152 58.2193 34.3496 60.5 36.5C62.0685 33.6898 61.8783 29.0694 63.2481 23.375C66.4986 28.3117 67.7856 31.8282 70.7651 42.725C72.5 52 70.1114 57.32 64.5 59.5" stroke="black" stroke-width="1.5"/>
<path d="M36.755 111.566C36.755 115.5 25.6727 115.5 26.0003 111.028C27.3012 93.2591 28.1716 84.4288 30.2771 72.9851C30.2936 72.8955 30.3236 72.8053 30.3639 72.7236C34.2587 64.8408 37.9923 63.7812 45.0196 63.1975C45.238 63.1794 45.4623 63.237 45.6475 63.354C53.9291 68.5843 58.578 67.2038 66.6064 63.2976C66.7759 63.2152 66.9736 63.1811 67.1609 63.2021C79.9847 64.6422 81.3267 68.8957 83.0003 76.0756L86.7644 110.491C86.7644 116 75.5005 115.5 74.9342 111.566L72.2456 86.8303L72.7637 113.773C72.7745 114.333 72.3237 114.793 71.7639 114.793H40.4437C39.8914 114.793 39.4437 114.345 39.4437 113.793V86.8303L36.755 111.566Z" stroke="black" stroke-width="1.5"/>
<path d="M49.1228 61.0191C47.4527 56.1851 47.5942 53.4714 48.0473 48.6512L51.2737 52.9531C50.1211 44.7506 50.8163 41.9166 52.8869 37.8965C53.9497 45.7774 54.8662 48.614 57.1888 50.2644C59.0827 47.7141 59.7635 45.2556 60.4152 40.5852C65.4143 47.449 65.4697 51.697 64.7171 59.4059" stroke="#C3911A" stroke-width="1.5" stroke-linecap="round"/>
</svg>
