<svg width="149" height="149" viewBox="0 0 149 149" fill="none" xmlns="http://www.w3.org/2000/svg">
<path d="M97.0413 115H93.6148C93.0238 115 92.5618 114.49 92.6196 113.902L94.3724 96.0592C94.4174 95.6007 94.1433 95.1707 93.7085 95.018L92.2099 94.4916C91.8167 94.3535 91.5499 93.9764 91.5424 93.5597C91.2428 76.92 93.1228 71.1459 97.8528 66.4998C98.4695 65.8941 99.4706 66.3715 99.4447 67.2354L98.0408 114.03C98.0246 114.57 97.5819 115 97.0413 115Z" fill="#C3911A"/>
<path d="M65.479 115H61L62.6539 84.8061C62.6684 84.5408 62.5732 84.2775 62.3976 84.0781C56.3148 77.1691 56.7079 72.7778 62.5531 64.5733C62.6331 64.4609 62.737 64.3626 62.8586 64.2975C63.6576 63.8697 64.1774 63.9329 64.9692 64.2986C65.1097 64.3635 65.2329 64.4677 65.3259 64.5913C71.558 72.867 71.3017 77.1795 66.079 84.1098C65.9425 84.2908 65.8674 84.5152 65.8721 84.7419L66.4788 113.979C66.4904 114.54 66.0394 115 65.479 115Z" fill="#C3911A"/>
<path d="M81.9836 115H79.0646C78.4921 115 78.0365 114.52 78.0659 113.949L79.5188 85.7704C79.5426 85.3092 79.2458 84.8961 78.8099 84.7437C77.3262 84.2251 76.6176 83.6819 75.7767 82.7968C75.6046 82.6156 75.5117 82.3734 75.5117 82.1235V78.3916L76.7022 65.412L77.1476 77.5512C77.1648 78.0202 77.55 78.3916 78.0194 78.3916C78.4825 78.3916 78.865 78.0296 78.8904 77.5671L79.5593 65.412L80.0006 77.4404C80.0201 77.9713 80.4561 78.3916 80.9874 78.3916C81.519 78.3916 81.9553 77.9706 81.9742 77.4393L82.4165 65L83.0924 77.672C83.1139 78.0755 83.4473 78.3916 83.8514 78.3916C84.2502 78.3916 84.5813 78.0833 84.6096 77.6854L85.5117 65V82.1841C85.5117 82.3972 85.4447 82.6056 85.3144 82.7741C84.6735 83.6032 83.9644 84.2934 82.9278 84.7302C82.5003 84.9103 82.1875 85.312 82.2004 85.7758L82.9832 113.972C82.9988 114.535 82.5467 115 81.9836 115Z" fill="#C3911A"/>
<path fill-rule="evenodd" clip-rule="evenodd" d="M127.312 95.4156L128.243 95.7804C128.364 95.4725 128.482 95.163 128.598 94.8518C128.714 94.5407 128.827 94.2292 128.937 93.9174L127.994 93.584L127.052 93.2506C126.945 93.5519 126.836 93.8529 126.724 94.1535C126.612 94.4541 126.497 94.7532 126.381 95.0507L127.312 95.4156ZM128.611 91.741L129.565 92.0425C129.765 91.4098 129.954 90.7758 130.131 90.141L129.168 89.872L128.205 89.603C128.033 90.2161 127.851 90.8283 127.658 91.4395L128.611 91.741ZM129.659 87.9887L130.631 88.2248C130.787 87.5822 130.932 86.9388 131.065 86.2951L130.086 86.0923L129.107 85.8895C128.978 86.511 128.838 87.1321 128.688 87.7526L129.659 87.9887ZM131.736 82.389C131.647 83.0416 131.546 83.6942 131.434 84.3467L130.449 84.1776L129.463 84.0085C129.571 83.3786 129.668 82.7486 129.754 82.1187L130.745 82.2539L131.736 82.389ZM130.974 80.3229L131.969 80.4239C132.036 79.7653 132.092 79.1069 132.136 78.4492L131.138 78.3825L130.14 78.3157C130.098 78.9506 130.044 79.5861 129.98 80.2218L130.974 80.3229ZM131.234 76.4382L132.234 76.4706C132.255 75.8098 132.265 75.1499 132.264 74.491L131.264 74.4931L130.264 74.4951C130.265 75.1311 130.255 75.7681 130.235 76.4059L131.234 76.4382ZM131.226 72.5472L132.226 72.5107C132.202 71.8498 132.166 71.1902 132.119 70.5323L131.122 70.603L130.124 70.6738C130.17 71.3089 130.204 71.9456 130.227 72.5836L131.226 72.5472ZM130.951 68.6645L131.946 68.5596C131.876 67.9025 131.796 67.2473 131.704 66.5944L130.714 66.7333L129.724 66.8722C129.812 67.5026 129.89 68.1351 129.957 68.7694L130.951 68.6645ZM130.41 64.8099L131.395 64.6372C131.281 63.9863 131.156 63.338 131.02 62.6925L130.042 62.8987L129.063 63.1049C129.194 63.7282 129.315 64.3542 129.425 64.9826L130.41 64.8099ZM129.608 61.0015L130.579 60.762C130.421 60.1205 130.252 59.4821 130.072 58.8471L129.11 59.1195L128.147 59.3919C128.321 60.0051 128.484 60.6215 128.637 61.2409L129.608 61.0015ZM128.548 57.2556L129.5 56.9507C129.299 56.3217 129.086 55.6964 128.864 55.075L127.923 55.4121L126.981 55.7492C127.196 56.3493 127.401 56.9532 127.595 57.5605L128.548 57.2556ZM127.235 53.5908L128.165 53.2219C127.921 52.6081 127.667 51.9986 127.403 51.3935L126.486 51.7938L125.57 52.194C125.825 52.7783 126.071 53.367 126.306 53.9597L127.235 53.5908ZM125.677 50.0233L126.58 49.5922C126.295 48.9964 126 48.4055 125.695 47.8197L124.808 48.2811L123.921 48.7426C124.215 49.3084 124.5 49.879 124.775 50.4543L125.677 50.0233ZM123.881 46.5696L124.752 46.0783C124.427 45.5034 124.093 44.9339 123.75 44.3701L122.896 44.8907L122.042 45.4113C122.374 45.9558 122.697 46.5058 123.01 47.0609L123.881 46.5696ZM121.854 43.246L122.69 42.6967C122.327 42.1452 121.955 41.5996 121.573 41.0603L120.757 41.6377L119.941 42.2152C120.309 42.7361 120.668 43.2629 121.019 43.7954L121.854 43.246ZM119.606 40.0683L120.402 39.4633C120.003 38.938 119.595 38.4191 119.177 37.9069L118.402 38.5388L117.627 39.1706C118.03 39.6651 118.425 40.1661 118.81 40.6733L119.606 40.0683ZM117.146 37.0507L117.899 36.3928C117.466 35.8963 117.023 35.4067 116.571 34.9242L115.841 35.6076L115.111 36.291C115.547 36.7567 115.975 37.2294 116.393 37.7087L117.146 37.0507ZM114.487 34.2099L115.194 33.5019C114.727 33.0361 114.251 32.5777 113.767 32.127L113.085 32.8588L112.404 33.5907C112.871 34.0258 113.33 34.4683 113.781 34.9179L114.487 34.2099ZM111.638 31.5572L112.294 30.8023C111.797 30.3702 111.292 29.9459 110.778 29.5297L110.148 30.3066L109.519 31.0836C110.015 31.4853 110.503 31.8949 110.983 32.312L111.638 31.5572ZM108.615 29.1073L109.217 28.3092C108.691 27.912 108.157 27.5231 107.615 27.1427L107.041 27.9612L106.466 28.7796C106.989 29.1468 107.505 29.5222 108.013 29.9055L108.615 29.1073ZM105.43 26.8713L105.976 26.0336C105.425 25.6739 104.865 25.3228 104.299 24.9805L103.782 25.8364L103.265 26.6924C103.812 27.0228 104.352 27.3617 104.884 27.709L105.43 26.8713ZM102.097 24.8576L102.584 23.9844C102.01 23.664 101.429 23.3524 100.841 23.05L100.384 23.9392L99.9262 24.8285C100.494 25.1206 101.055 25.4214 101.609 25.7308L102.097 24.8576ZM98.6377 23.0787L99.0645 22.1743C98.4684 21.893 97.8656 21.6208 97.2562 21.3581L96.8603 22.2764L96.4644 23.1947C97.053 23.4485 97.6352 23.7113 98.2109 23.983L98.6377 23.0787ZM95.0629 21.537L95.4278 20.6059C95.1198 20.4853 94.8103 20.367 94.4992 20.251C94.188 20.1351 93.8765 20.022 93.5647 19.9118L93.2313 20.8546L92.898 21.7974C93.1992 21.9039 93.5002 22.0131 93.8009 22.1252C94.1015 22.2372 94.4005 22.3515 94.6981 22.4681L95.0629 21.537ZM91.3884 20.2375L91.6899 19.284C91.0571 19.0839 90.4232 18.8953 89.7884 18.718L89.5194 19.6811L89.2504 20.6443C89.8634 20.8155 90.4757 20.9977 91.0869 21.191L91.3884 20.2375ZM87.6361 19.1895L87.8722 18.2177C87.2295 18.0616 86.5862 17.9169 85.9424 17.7836L85.7396 18.7628L85.5368 19.742C86.1583 19.8708 86.7794 20.0104 87.4 20.1612L87.6361 19.1895ZM83.8249 18.4004L83.994 17.4148C83.3416 17.3028 82.6889 17.2024 82.0364 17.1134L81.9012 18.1042L81.766 19.095C82.396 19.181 83.026 19.2779 83.6558 19.386L83.8249 18.4004ZM78.0965 16.7133C78.7543 16.7573 79.4126 16.8127 80.0712 16.8796L79.9702 17.8745L79.8691 18.8694C79.2334 18.8048 78.5979 18.7513 77.9631 18.7089L78.0298 17.7111L78.0965 16.7133ZM76.0855 17.6146L76.1179 16.6152C75.4571 16.5938 74.7972 16.5838 74.1384 16.5852L74.1404 17.5852L74.1425 18.5852C74.7784 18.5839 75.4154 18.5935 76.0532 18.6141L76.0855 17.6146ZM72.1945 17.6226L72.1581 16.6233C71.4971 16.6474 70.8375 16.6828 70.1796 16.7295L70.2504 17.7269L70.3211 18.7244C70.9562 18.6794 71.5929 18.6452 72.2309 18.6219L72.1945 17.6226ZM68.3119 17.8979L68.207 16.9034C67.5499 16.9727 66.8947 17.0532 66.2417 17.1448L66.3806 18.1351L66.5195 19.1254C67.1499 19.037 67.7824 18.9593 68.4168 18.8924L68.3119 17.8979ZM64.4572 18.4385L64.2845 17.4535C63.6337 17.5676 62.9853 17.6928 62.3398 17.8288L62.546 18.8073L62.7522 19.7858C63.3755 19.6545 64.0015 19.5336 64.6299 19.4235L64.4572 18.4385ZM60.6488 19.2411L60.4093 18.2701C59.7679 18.4284 59.1295 18.5974 58.4944 18.7772L58.7668 19.7394L59.0392 20.7015C59.6524 20.528 60.2688 20.3647 60.8882 20.212L60.6488 19.2411ZM56.9029 20.3014L56.598 19.349C55.969 19.5504 55.3437 19.7624 54.7223 19.9849L55.0595 20.9264L55.3966 21.8678C55.9966 21.653 56.6005 21.4482 57.2079 21.2538L56.9029 20.3014ZM53.2381 21.6137L52.8693 20.6842C52.2555 20.9278 51.6459 21.1818 51.0409 21.446L51.4411 22.3624L51.8413 23.2789C52.4256 23.0237 53.0143 22.7784 53.607 22.5431L53.2381 21.6137ZM49.6706 23.1717L49.2395 22.2694C48.6438 22.554 48.0528 22.8487 47.467 23.1535L47.9285 24.0406L48.3899 24.9278C48.9557 24.6335 49.5264 24.3489 50.1017 24.074L49.6706 23.1717ZM46.2169 24.9681L45.7256 24.0972C45.1508 24.4214 44.5813 24.7555 44.0174 25.0994L44.538 25.9532L45.0587 26.807C45.6032 26.4749 46.1531 26.1523 46.7083 25.8391L46.2169 24.9681ZM42.8934 26.9948L42.344 26.1592C41.7926 26.5218 41.247 26.8939 40.7076 27.2755L41.2851 28.0919L41.8626 28.9083C42.3834 28.5398 42.9102 28.1805 43.4427 27.8304L42.8934 26.9948ZM39.7156 29.2427L39.1106 28.4464C38.5853 28.8456 38.0665 29.2539 37.5543 29.6715L38.1861 30.4466L38.8179 31.2217C39.3124 30.8186 39.8134 30.4243 40.3206 30.0389L39.7156 29.2427ZM36.6981 31.7025L36.0401 30.9494C35.5436 31.3832 35.054 31.826 34.5716 32.2775L35.2549 33.0076L35.9383 33.7377C36.404 33.3018 36.8767 32.8743 37.356 32.4555L36.6981 31.7025ZM33.8572 34.3616L33.1492 33.6554C32.6834 34.1224 32.225 34.5979 31.7743 35.082L32.5062 35.7635L33.238 36.4449C33.6731 35.9777 34.1156 35.5186 34.5652 35.0678L33.8572 34.3616ZM31.2045 37.2104L30.4497 36.5545C30.0175 37.0518 29.5932 37.5574 29.177 38.071L29.954 38.7006L30.7309 39.3301C31.1327 38.8343 31.5422 38.3464 31.9593 37.8663L31.2045 37.2104ZM28.7547 40.2339L27.9565 39.6315C27.5594 40.1576 27.1705 40.6917 26.7901 41.2335L27.6085 41.8081L28.4269 42.3827C28.7941 41.8597 29.1695 41.3442 29.5528 40.8363L28.7547 40.2339ZM26.5186 43.4186L25.6809 42.8725C25.3212 43.4242 24.9701 43.9834 24.6278 44.5501L25.4837 45.0671L26.3397 45.5842C26.6701 45.0372 27.0091 44.4973 27.3563 43.9648L26.5186 43.4186ZM24.5049 46.7521L23.6317 46.2647C23.3113 46.8388 22.9997 47.4199 22.6973 48.0081L23.5866 48.4654L24.4759 48.9227C24.7679 48.3548 25.0687 47.7937 25.3781 47.2395L24.5049 46.7521ZM22.726 50.2112L21.8217 49.7844C21.5403 50.3805 21.2682 50.9833 21.0054 51.5927L21.9237 51.9886L22.842 52.3845C23.0958 51.7959 23.3586 51.2137 23.6303 50.6381L22.726 50.2112ZM19.8984 54.3497C20.0143 54.0386 20.1326 53.7291 20.2533 53.4212L21.1843 53.786L22.1154 54.1509C21.9988 54.4484 21.8845 54.7474 21.7725 55.0481C21.6605 55.3487 21.5512 55.6497 21.4447 55.9509L20.5019 55.6176L19.5591 55.2842C19.6694 54.9724 19.7824 54.6609 19.8984 54.3497ZM19.8848 57.4605L18.9314 57.159C18.7313 57.7918 18.5426 58.4257 18.3653 59.0605L19.3285 59.3295L20.2916 59.5986C20.4628 58.9855 20.645 58.3733 20.8383 57.762L19.8848 57.4605ZM18.8368 61.2128L17.8651 60.9768C17.7089 61.6194 17.5643 62.2627 17.4309 62.9065L18.4101 63.1093L19.3894 63.3121C19.5181 62.6906 19.6578 62.0695 19.8085 61.4489L18.8368 61.2128ZM18.0477 65.024L17.0621 64.8549C16.9502 65.5073 16.8497 66.16 16.7607 66.8126L17.7515 66.9477L18.7424 67.0829C18.8283 66.453 18.9252 65.8229 19.0333 65.1931L18.0477 65.024ZM17.5218 68.8787L16.5269 68.7777C16.46 69.4363 16.4047 70.0946 16.3607 70.7524L17.3584 70.8191L18.3562 70.8859C18.3987 70.251 18.4521 69.6155 18.5167 68.9798L17.5218 68.8787ZM17.262 72.7634L16.2625 72.731C16.2411 73.3918 16.2312 74.0517 16.2325 74.7105L17.2325 74.7085L18.2325 74.7065C18.2312 74.0705 18.2408 73.4335 18.2615 72.7957L17.262 72.7634ZM17.2699 76.6544L16.2706 76.6908C16.2947 77.3518 16.3301 78.0114 16.3768 78.6693L17.3743 78.5986L18.3718 78.5278C18.3267 77.8927 18.2925 77.256 18.2693 76.618L17.2699 76.6544ZM17.5452 80.537L16.5507 80.6419C16.62 81.2991 16.7005 81.9542 16.7921 82.6072L17.7824 82.4683L18.7727 82.3294C18.6843 81.699 18.6066 81.0665 18.5397 80.4321L17.5452 80.537ZM18.0858 84.3917L17.1008 84.5644C17.215 85.2152 17.3401 85.8636 17.4761 86.5091L18.4546 86.3029L19.4332 86.0967C19.3018 85.4734 19.181 84.8474 19.0708 84.219L18.0858 84.3917ZM18.8884 88.2001L17.9175 88.4396C18.0757 89.0811 18.2447 89.7195 18.4245 90.3545L19.3867 90.0821L20.3489 89.8097C20.1753 89.1965 20.0121 88.5801 19.8593 87.9607L18.8884 88.2001ZM19.9487 91.946L18.9964 92.2509C19.1977 92.8799 19.4098 93.5052 19.6323 94.1266L20.5737 93.7895L21.5152 93.4523C21.3003 92.8523 21.0956 92.2484 20.9011 91.641L19.9487 91.946ZM21.261 95.6108L20.3315 95.9797C20.5751 96.5934 20.8291 97.203 21.0934 97.808L22.0098 97.4078L22.9262 97.0076C22.671 96.4233 22.4257 95.8346 22.1905 95.2419L21.261 95.6108ZM22.819 99.1783L21.9167 99.6094C22.2013 100.205 22.4961 100.796 22.8008 101.382L23.688 100.92L24.5751 100.459C24.2808 99.8932 23.9962 99.3226 23.7213 98.7472L22.819 99.1783ZM24.6155 102.632L23.7445 103.123C24.0688 103.698 24.4029 104.268 24.7467 104.832L25.6005 104.311L26.4543 103.79C26.1223 103.246 25.7996 102.696 25.4865 102.141L24.6155 102.632ZM26.6422 105.956L25.8066 106.505C26.1691 107.056 26.5413 107.602 26.9228 108.141L27.7392 107.564L28.5556 106.986C28.1872 106.466 27.8278 105.939 27.4777 105.406L26.6422 105.956ZM28.89 109.133L28.0938 109.738C28.4929 110.264 28.9013 110.782 29.3188 111.295L30.0939 110.663L30.869 110.031C30.4659 109.536 30.0716 109.035 29.6862 108.528L28.89 109.133ZM31.3498 112.151L30.5968 112.809C31.0306 113.305 31.4733 113.795 31.9249 114.277L32.6549 113.594L33.385 112.911C32.9491 112.445 32.5217 111.972 32.1028 111.493L31.3498 112.151ZM34.0089 114.992L33.3027 115.7C33.7697 116.165 34.2453 116.624 34.7293 117.075L35.4108 116.343L36.0923 115.611C35.625 115.176 35.1659 114.733 34.7152 114.284L34.0089 114.992ZM36.8578 117.644L36.2019 118.399C36.6992 118.831 37.2047 119.256 37.7184 119.672L38.3479 118.895L38.9775 118.118C38.4817 117.716 37.9937 117.307 37.5137 116.89L36.8578 117.644ZM39.8812 120.094L39.2788 120.892C39.805 121.29 40.339 121.678 40.8808 122.059L41.4554 121.24L42.0301 120.422C41.5071 120.055 40.9916 119.679 40.4837 119.296L39.8812 120.094ZM43.0659 122.33L42.5198 123.168C43.0715 123.528 43.6308 123.879 44.1974 124.221L44.2064 124.206L44.2408 121.897C44.0301 121.763 43.8205 121.629 43.6121 121.493L43.0659 122.33ZM113.063 116.004L111.991 115.987C112.181 115.814 112.37 115.64 112.558 115.464L113.063 116.004ZM114.639 114.84L115.347 115.546C115.813 115.079 116.271 114.604 116.722 114.12L115.99 113.438L115.258 112.757C114.823 113.224 114.381 113.683 113.931 114.134L114.639 114.84ZM117.292 111.991L118.047 112.647C118.479 112.15 118.903 111.644 119.319 111.131L118.542 110.501L117.765 109.871C117.364 110.367 116.954 110.855 116.537 111.335L117.292 111.991ZM119.742 108.968L120.54 109.57C120.937 109.044 121.326 108.51 121.706 107.968L120.888 107.393L120.069 106.819C119.702 107.342 119.327 107.857 118.943 108.365L119.742 108.968ZM121.978 105.783L122.815 106.329C123.175 105.777 123.526 105.218 123.868 104.652L123.013 104.134L122.157 103.617C121.826 104.164 121.487 104.704 121.14 105.237L121.978 105.783ZM123.991 102.449L124.864 102.937C125.185 102.363 125.497 101.782 125.799 101.194L124.91 100.736L124.02 100.279C123.728 100.847 123.428 101.408 123.118 101.962L123.991 102.449ZM125.77 98.9903L126.675 99.4172C126.956 98.8211 127.228 98.2183 127.491 97.6089L126.573 97.213L125.654 96.817C125.4 97.4057 125.138 97.9879 124.866 98.5635L125.77 98.9903Z" fill="#C3911A"/>
<path d="M34.4945 77.3889L45.1703 114.278C45.2941 114.706 45.6857 115 46.1309 115H109.779C110.236 115 110.635 114.69 110.748 114.247L114.717 98.6932L117.981 77.3889C119.817 59.967 117.803 56.6486 97.0373 59.5385C96.4818 59.6158 95.955 59.2088 95.8602 58.656C92.2877 37.83 60.5675 43.261 58.1946 58.6802C58.1103 59.2282 57.6269 59.6499 57.0737 59.6112C39.4564 58.379 30.3749 60.013 34.4945 77.3889Z" stroke="black" stroke-width="1.5"/>
<rect x="47.2617" y="115.75" width="63.5" height="13.5" stroke="black" stroke-width="1.5"/>
</svg>
