<svg width="21" height="19" viewBox="0 0 21 19" fill="none" xmlns="http://www.w3.org/2000/svg">
<g clip-path="url(#clip0_2251_356)">
<mask id="path-1-inside-1_2251_356" fill="white">
<path d="M20.7708 7.57126C20.7538 7.07125 20.3214 6.66877 19.7855 6.65166L19.6444 6.65007C19.3154 6.65007 18.4019 6.67983 17.2725 6.88504C17.0703 5.46005 16.6609 4.44831 16.627 4.36756C16.5266 4.12594 16.3245 3.93342 16.068 3.8343C15.9432 3.78617 15.811 3.76208 15.6787 3.76208C15.5389 3.76208 15.3995 3.78899 15.269 3.8425C15.1944 3.87322 14.3725 4.21901 13.3472 4.89287C12.4487 3.29688 11.4091 2.26803 11.3328 2.19363C11.1405 2.00615 10.8749 1.90039 10.5975 1.90039C10.32 1.90039 10.0544 2.00615 9.86245 2.19329C9.78613 2.2677 8.74518 3.29814 7.84636 4.89569C6.82338 4.22372 6.00056 3.87285 5.92627 3.84216C5.7957 3.78865 5.65627 3.76175 5.51656 3.76175C5.38428 3.76175 5.252 3.7858 5.12719 3.83396C4.87078 3.93308 4.66894 4.12594 4.56822 4.36722C4.53463 4.44797 4.12523 5.45938 3.92311 6.88471C2.79297 6.6792 1.87988 6.65007 1.55089 6.65007L1.40911 6.65166C0.873553 6.66877 0.440741 7.07125 0.423808 7.57126C0.417687 7.74924 0.309494 11.9631 3.11655 14.5841C5.68111 16.9784 9.70548 17.0997 10.4862 17.0997L10.5907 17.0984C10.5927 17.0984 10.5948 17.0997 10.5968 17.0997C10.5988 17.0997 10.6009 17.0984 10.6029 17.0984L10.7074 17.0997C11.4882 17.0997 15.5126 16.9784 18.0771 14.5841C20.8851 11.9634 20.7769 7.74954 20.7708 7.57126ZM15.6787 4.71178C15.6787 4.71178 16.0864 5.70864 16.2726 7.10766C15.6831 7.26188 15.0705 7.46899 14.4624 7.74605C14.3047 7.03893 14.0683 6.37616 13.7898 5.77006C14.829 5.06706 15.6787 4.71178 15.6787 4.71178ZM5.51616 4.71178C5.51616 4.71178 6.3658 5.06517 7.40572 5.76817C7.12657 6.37616 6.88916 7.04149 6.73144 7.75113C6.1233 7.47404 5.51175 7.26378 4.92193 7.10925C5.10811 5.70961 5.51616 4.71178 5.51616 4.71178ZM3.83654 13.9125C1.30827 11.5521 1.44091 7.60136 1.44091 7.60136C1.44091 7.60136 1.47923 7.60039 1.55046 7.60039C2.08363 7.60039 4.45994 7.67955 6.56589 8.73879C6.54149 8.98865 6.52722 9.24229 6.52722 9.50005C6.52722 12.4244 8.22719 14.8948 9.20096 16.0712C7.74219 15.9094 5.44596 15.4151 3.83654 13.9125ZM10.6198 16.1276C10.6001 16.1215 10.5808 16.1158 10.5557 16.1073C10.1975 15.7428 7.5448 12.9248 7.5448 9.50009C7.5448 5.82739 10.5974 2.85013 10.5974 2.85013C10.5974 2.85013 13.65 5.82739 13.65 9.50009C13.65 13.0242 10.847 15.9002 10.6198 16.1276ZM17.3586 13.9125C15.7492 15.4151 13.453 15.9094 11.9942 16.0712C12.9676 14.8948 14.6676 12.4245 14.6676 9.50009C14.6676 9.24073 14.6533 8.98549 14.6282 8.73408C16.7342 7.6758 19.1115 7.6001 19.6443 7.6001C19.7156 7.6001 19.7539 7.60106 19.7539 7.60106C19.7539 7.60106 19.8865 11.5521 17.3586 13.9125Z"/>
</mask>
<path d="M20.7708 7.57126C20.7538 7.07125 20.3214 6.66877 19.7855 6.65166L19.6444 6.65007C19.3154 6.65007 18.4019 6.67983 17.2725 6.88504C17.0703 5.46005 16.6609 4.44831 16.627 4.36756C16.5266 4.12594 16.3245 3.93342 16.068 3.8343C15.9432 3.78617 15.811 3.76208 15.6787 3.76208C15.5389 3.76208 15.3995 3.78899 15.269 3.8425C15.1944 3.87322 14.3725 4.21901 13.3472 4.89287C12.4487 3.29688 11.4091 2.26803 11.3328 2.19363C11.1405 2.00615 10.8749 1.90039 10.5975 1.90039C10.32 1.90039 10.0544 2.00615 9.86245 2.19329C9.78613 2.2677 8.74518 3.29814 7.84636 4.89569C6.82338 4.22372 6.00056 3.87285 5.92627 3.84216C5.7957 3.78865 5.65627 3.76175 5.51656 3.76175C5.38428 3.76175 5.252 3.7858 5.12719 3.83396C4.87078 3.93308 4.66894 4.12594 4.56822 4.36722C4.53463 4.44797 4.12523 5.45938 3.92311 6.88471C2.79297 6.6792 1.87988 6.65007 1.55089 6.65007L1.40911 6.65166C0.873553 6.66877 0.440741 7.07125 0.423808 7.57126C0.417687 7.74924 0.309494 11.9631 3.11655 14.5841C5.68111 16.9784 9.70548 17.0997 10.4862 17.0997L10.5907 17.0984C10.5927 17.0984 10.5948 17.0997 10.5968 17.0997C10.5988 17.0997 10.6009 17.0984 10.6029 17.0984L10.7074 17.0997C11.4882 17.0997 15.5126 16.9784 18.0771 14.5841C20.8851 11.9634 20.7769 7.74954 20.7708 7.57126ZM15.6787 4.71178C15.6787 4.71178 16.0864 5.70864 16.2726 7.10766C15.6831 7.26188 15.0705 7.46899 14.4624 7.74605C14.3047 7.03893 14.0683 6.37616 13.7898 5.77006C14.829 5.06706 15.6787 4.71178 15.6787 4.71178ZM5.51616 4.71178C5.51616 4.71178 6.3658 5.06517 7.40572 5.76817C7.12657 6.37616 6.88916 7.04149 6.73144 7.75113C6.1233 7.47404 5.51175 7.26378 4.92193 7.10925C5.10811 5.70961 5.51616 4.71178 5.51616 4.71178ZM3.83654 13.9125C1.30827 11.5521 1.44091 7.60136 1.44091 7.60136C1.44091 7.60136 1.47923 7.60039 1.55046 7.60039C2.08363 7.60039 4.45994 7.67955 6.56589 8.73879C6.54149 8.98865 6.52722 9.24229 6.52722 9.50005C6.52722 12.4244 8.22719 14.8948 9.20096 16.0712C7.74219 15.9094 5.44596 15.4151 3.83654 13.9125ZM10.6198 16.1276C10.6001 16.1215 10.5808 16.1158 10.5557 16.1073C10.1975 15.7428 7.5448 12.9248 7.5448 9.50009C7.5448 5.82739 10.5974 2.85013 10.5974 2.85013C10.5974 2.85013 13.65 5.82739 13.65 9.50009C13.65 13.0242 10.847 15.9002 10.6198 16.1276ZM17.3586 13.9125C15.7492 15.4151 13.453 15.9094 11.9942 16.0712C12.9676 14.8948 14.6676 12.4245 14.6676 9.50009C14.6676 9.24073 14.6533 8.98549 14.6282 8.73408C16.7342 7.6758 19.1115 7.6001 19.6443 7.6001C19.7156 7.6001 19.7539 7.60106 19.7539 7.60106C19.7539 7.60106 19.8865 11.5521 17.3586 13.9125Z" fill="#C3911A"/>
<path d="M20.7708 7.57126L19.7714 7.60519L19.7714 7.60536L20.7708 7.57126ZM19.7855 6.65166L19.8174 5.65217L19.8071 5.65184L19.7968 5.65173L19.7855 6.65166ZM19.6444 6.65007L19.6557 5.65007H19.6444V6.65007ZM17.2725 6.88504L16.2824 7.0255L16.4284 8.05477L17.4512 7.86893L17.2725 6.88504ZM16.627 4.36756L15.7036 4.75129L15.705 4.75469L16.627 4.36756ZM16.068 3.8343L16.4286 2.90156L16.4279 2.90127L16.068 3.8343ZM15.269 3.8425L14.8897 2.91719L14.8881 2.91785L15.269 3.8425ZM13.3472 4.89287L12.4758 5.38345L13.0012 6.31685L13.8964 5.72855L13.3472 4.89287ZM11.3328 2.19363L12.0309 1.47761L12.0309 1.4776L11.3328 2.19363ZM9.86245 2.19329L9.16442 1.47722L9.16436 1.47728L9.86245 2.19329ZM7.84636 4.89569L7.29734 5.7315L8.19265 6.31961L8.7179 5.38603L7.84636 4.89569ZM5.92627 3.84216L6.30809 2.91792L6.30549 2.91686L5.92627 3.84216ZM5.12719 3.83396L4.76714 2.90103L4.76663 2.90123L5.12719 3.83396ZM4.56822 4.36722L3.64539 3.982L3.6449 3.98318L4.56822 4.36722ZM3.92311 6.88471L3.7442 7.86857L4.76722 8.0546L4.91321 7.02511L3.92311 6.88471ZM1.55089 6.65007L1.55089 5.65L1.53964 5.65013L1.55089 6.65007ZM1.40911 6.65166L1.39786 5.65172L1.38752 5.65184L1.37719 5.65217L1.40911 6.65166ZM0.423808 7.57126L1.42322 7.60564L1.42324 7.60511L0.423808 7.57126ZM3.11655 14.5841L2.43408 15.315L2.43412 15.3151L3.11655 14.5841ZM10.4862 17.0997L10.4862 18.0998L10.4983 18.0996L10.4862 17.0997ZM10.5907 17.0984L10.5907 16.0984L10.5786 16.0985L10.5907 17.0984ZM10.6029 17.0984L10.615 16.0984H10.6029V17.0984ZM10.7074 17.0997L10.6953 18.0997H10.7074V17.0997ZM18.0771 14.5841L17.3948 13.8531L17.3947 13.8532L18.0771 14.5841ZM15.6787 4.71178L16.6043 4.33324L16.2227 3.40037L15.2929 3.78919L15.6787 4.71178ZM16.2726 7.10766L16.5257 8.0751L17.3804 7.85148L17.2638 6.97572L16.2726 7.10766ZM14.4624 7.74605L13.4864 7.96374L13.7548 9.16729L14.877 8.65606L14.4624 7.74605ZM13.7898 5.77006L13.2295 4.94177L12.5271 5.41693L12.8811 6.18755L13.7898 5.77006ZM5.51616 4.71178L5.90019 3.78846L4.97134 3.40213L4.59056 4.33327L5.51616 4.71178ZM7.40572 5.76817L8.31451 6.18542L8.66838 5.41468L7.96577 4.93971L7.40572 5.76817ZM6.73144 7.75113L6.31681 8.66112L7.43987 9.17283L7.70762 7.96809L6.73144 7.75113ZM4.92193 7.10925L3.93066 6.9774L3.81422 7.8528L4.6685 8.07661L4.92193 7.10925ZM3.83654 13.9125L4.51897 13.1815L4.51897 13.1815L3.83654 13.9125ZM1.44091 7.60136L1.41574 6.60168L0.473113 6.62541L0.441474 7.5678L1.44091 7.60136ZM6.56589 8.73879L7.56116 8.83601L7.62782 8.15355L7.01523 7.84543L6.56589 8.73879ZM9.20096 16.0712L9.09073 17.0651L11.5474 17.3375L9.97129 15.4335L9.20096 16.0712ZM10.6198 16.1276L10.3276 17.0839L10.9023 17.2595L11.3271 16.8345L10.6198 16.1276ZM10.5557 16.1073L9.84242 16.8082L10.009 16.9777L10.234 17.0541L10.5557 16.1073ZM10.5974 2.85013L11.2956 2.13424L10.5974 1.45326L9.8992 2.13424L10.5974 2.85013ZM17.3586 13.9125L18.041 14.6434L18.0411 14.6434L17.3586 13.9125ZM11.9942 16.0712L11.2237 15.4337L9.64826 17.3376L12.1044 17.0651L11.9942 16.0712ZM14.6282 8.73408L14.1792 7.84055L13.5648 8.1493L13.6332 8.8335L14.6282 8.73408ZM19.7539 7.60106L20.7533 7.56751L20.7217 6.62512L19.7791 6.60138L19.7539 7.60106ZM21.7702 7.53734C21.7333 6.45015 20.8168 5.68407 19.8174 5.65217L19.7536 7.65115C19.7664 7.65156 19.7756 7.65412 19.7816 7.6566C19.788 7.65925 19.7908 7.6618 19.7907 7.66173C19.7906 7.66163 19.7862 7.65747 19.7813 7.6471C19.776 7.63593 19.7719 7.62106 19.7714 7.60519L21.7702 7.53734ZM19.7968 5.65173L19.6557 5.65013L19.6331 7.65L19.7742 7.6516L19.7968 5.65173ZM19.6444 5.65007C19.2688 5.65007 18.294 5.68307 17.0937 5.90115L17.4512 7.86893C18.5099 7.67658 19.362 7.65007 19.6444 7.65007V5.65007ZM18.2626 6.74458C18.0447 5.20887 17.6042 4.11168 17.549 3.98042L15.705 4.75469C15.7048 4.75431 15.7065 4.75835 15.71 4.76702C15.7134 4.77537 15.7181 4.78729 15.7241 4.80266C15.736 4.83338 15.7527 4.87739 15.773 4.93368C15.8136 5.04633 15.8684 5.20728 15.9285 5.40858C16.0492 5.81225 16.1897 6.37197 16.2824 7.0255L18.2626 6.74458ZM17.5505 3.98382C17.3391 3.47511 16.9243 3.09317 16.4286 2.90156L15.7075 4.76703C15.7152 4.77001 15.7174 4.77259 15.7159 4.7712C15.7144 4.76972 15.7087 4.76363 15.7036 4.75129L17.5505 3.98382ZM16.4279 2.90127C16.1864 2.80815 15.932 2.76208 15.6787 2.76208V4.76208C15.6899 4.76208 15.7001 4.76418 15.7082 4.76732L16.4279 2.90127ZM15.6787 2.76208C15.4109 2.76208 15.1425 2.81361 14.8897 2.91719L15.6482 4.76781C15.6566 4.76437 15.667 4.76208 15.6787 4.76208V2.76208ZM14.8881 2.91785C14.7752 2.96435 13.8922 3.338 12.7979 4.0572L13.8964 5.72855C14.8527 5.10001 15.6135 4.78209 15.6498 4.76715L14.8881 2.91785ZM14.2186 4.4023C13.2551 2.69092 12.1424 1.58634 12.0309 1.47761L10.6347 2.90964C10.6758 2.94972 11.6422 3.90284 12.4758 5.38345L14.2186 4.4023ZM12.0309 1.4776C11.6446 1.10105 11.1255 0.900391 10.5975 0.900391V2.90039C10.6094 2.90039 10.6195 2.90272 10.6268 2.90562C10.634 2.90851 10.636 2.91095 10.6347 2.90966L12.0309 1.4776ZM10.5975 0.900391C10.0696 0.900391 9.55048 1.10089 9.16442 1.47722L10.5605 2.90937C10.5588 2.91095 10.5607 2.90856 10.568 2.90565C10.5753 2.90273 10.5855 2.90039 10.5975 2.90039V0.900391ZM9.16436 1.47728C9.05278 1.58606 7.93863 2.69231 6.97483 4.40535L8.7179 5.38603C9.55173 3.90398 10.5195 2.94933 10.5605 2.90931L9.16436 1.47728ZM8.39539 4.05988C7.30577 3.34415 6.42321 2.96548 6.30809 2.91792L5.54446 4.7664C5.54443 4.76639 5.5447 4.7665 5.54528 4.76674C5.54585 4.76698 5.54665 4.76732 5.54769 4.76775C5.54978 4.76863 5.55267 4.76985 5.55635 4.77143C5.56372 4.77457 5.57397 4.77899 5.58695 4.78467C5.61291 4.79604 5.64941 4.81232 5.69538 4.8335C5.78736 4.87587 5.91664 4.93757 6.07481 5.01856C6.39176 5.18084 6.82119 5.41873 7.29734 5.7315L8.39539 4.05988ZM6.30549 2.91686C6.05272 2.81327 5.78431 2.76175 5.51656 2.76175V4.76175C5.52823 4.76175 5.53868 4.76404 5.54706 4.76747L6.30549 2.91686ZM5.51656 2.76175C5.26344 2.76175 5.00893 2.80772 4.76714 2.90103L5.48724 4.7669C5.49507 4.76388 5.50511 4.76175 5.51656 4.76175V2.76175ZM4.76663 2.90123C4.26975 3.0933 3.85664 3.47595 3.64539 3.982L5.49104 4.75244C5.48626 4.7639 5.48105 4.76944 5.47974 4.77069C5.47848 4.77189 5.48058 4.76947 5.48775 4.7667L4.76663 2.90123ZM3.6449 3.98318C3.5917 4.11108 3.15093 5.20759 2.93302 6.74431L4.91321 7.02511C5.09953 5.71118 5.47756 4.78486 5.49153 4.75126L3.6449 3.98318ZM4.10202 5.90084C2.90061 5.68237 1.92602 5.65007 1.55089 5.65007V7.65007C1.83375 7.65007 2.68532 7.67602 3.7442 7.86857L4.10202 5.90084ZM1.53964 5.65013L1.39786 5.65172L1.42037 7.6516L1.56215 7.65L1.53964 5.65013ZM1.37719 5.65217C0.378448 5.68407 -0.53879 6.44989 -0.575619 7.53742L1.42324 7.60511C1.42269 7.62111 1.41857 7.63607 1.41327 7.64725C1.40835 7.65764 1.40393 7.66177 1.40388 7.66181C1.40386 7.66183 1.40672 7.65925 1.41319 7.65658C1.41923 7.65409 1.42833 7.65156 1.44104 7.65115L1.37719 5.65217ZM-0.575601 7.53689C-0.580397 7.67636 -0.608633 8.86834 -0.259271 10.3859C0.0886619 11.8972 0.831474 13.8186 2.43408 15.315L3.79902 13.8532C2.59457 12.7286 1.98795 11.2325 1.68975 9.9372C1.39297 8.64807 1.42189 7.64415 1.42322 7.60564L-0.575601 7.53689ZM2.43412 15.3151C3.89434 16.6784 5.73076 17.3636 7.24486 17.714C8.76844 18.0666 10.0514 18.0997 10.4862 18.0997V16.0997C10.1403 16.0997 9.02072 16.0721 7.69579 15.7655C6.36137 15.4567 4.90332 14.8842 3.79898 13.8532L2.43412 15.3151ZM10.4983 18.0996L10.6028 18.0984L10.5786 16.0985L10.4742 16.0998L10.4983 18.0996ZM10.5907 18.0984C10.5392 18.0984 10.4939 18.0944 10.4566 18.0894C10.4195 18.0843 10.3883 18.0779 10.3652 18.0725C10.3422 18.0672 10.324 18.0621 10.3136 18.059C10.3082 18.0575 10.3039 18.0562 10.3015 18.0554C10.2992 18.0547 10.2973 18.0541 10.2979 18.0543C10.298 18.0543 10.2986 18.0545 10.2993 18.0548C10.3001 18.055 10.3014 18.0554 10.3029 18.0558C10.3058 18.0567 10.3106 18.0582 10.3164 18.0599C10.3278 18.0631 10.3467 18.0684 10.3703 18.0739C10.3942 18.0794 10.4257 18.0858 10.4631 18.0908C10.5007 18.0958 10.5458 18.0997 10.5968 18.0997V16.0997C10.6473 16.0997 10.6919 16.1036 10.729 16.1085C10.7659 16.1135 10.7969 16.1197 10.8202 16.1251C10.8434 16.1305 10.8618 16.1356 10.8726 16.1388C10.8782 16.1404 10.8827 16.1417 10.8854 16.1425C10.8879 16.1433 10.8899 16.1439 10.8896 16.1438C10.8896 16.1438 10.8896 16.1438 10.8895 16.1438C10.8895 16.1438 10.8895 16.1438 10.8895 16.1438C10.8895 16.1438 10.8894 16.1438 10.8893 16.1437C10.8891 16.1437 10.8888 16.1436 10.8885 16.1435C10.8878 16.1433 10.8867 16.1429 10.8853 16.1425C10.8825 16.1417 10.878 16.1403 10.8723 16.1387C10.8614 16.1355 10.8427 16.1302 10.8192 16.1248C10.7956 16.1192 10.764 16.1128 10.7263 16.1076C10.6885 16.1025 10.6427 16.0984 10.5907 16.0984V18.0984ZM10.5968 18.0997C10.6488 18.0997 10.6946 18.0957 10.7324 18.0905C10.7701 18.0854 10.8017 18.0789 10.8254 18.0734C10.8488 18.0679 10.8675 18.0627 10.8785 18.0595C10.8841 18.0579 10.8887 18.0565 10.8914 18.0556C10.8928 18.0552 10.8939 18.0549 10.8946 18.0547C10.895 18.0545 10.8952 18.0545 10.8954 18.0544C10.8955 18.0544 10.8956 18.0544 10.8956 18.0543C10.8956 18.0543 10.8957 18.0543 10.8957 18.0543C10.8957 18.0543 10.8957 18.0543 10.8957 18.0543C10.896 18.0542 10.894 18.0548 10.8915 18.0556C10.8888 18.0564 10.8843 18.0578 10.8787 18.0594C10.8679 18.0625 10.8495 18.0677 10.8263 18.073C10.803 18.0784 10.772 18.0847 10.7351 18.0896C10.698 18.0946 10.6535 18.0984 10.6029 18.0984V16.0984C10.5519 16.0984 10.5068 16.1023 10.4692 16.1074C10.4318 16.1124 10.4003 16.1188 10.3765 16.1243C10.3528 16.1297 10.3339 16.135 10.3225 16.1383C10.3167 16.14 10.3119 16.1414 10.309 16.1423C10.3075 16.1428 10.3063 16.1431 10.3055 16.1434C10.3047 16.1436 10.3041 16.1438 10.304 16.1438C10.3034 16.144 10.3054 16.1434 10.3076 16.1427C10.3101 16.142 10.3144 16.1407 10.3197 16.1391C10.3302 16.1361 10.3484 16.131 10.3713 16.1256C10.3945 16.1202 10.4256 16.1138 10.4627 16.1088C10.5001 16.1037 10.5453 16.0997 10.5968 16.0997V18.0997ZM10.5909 18.0984L10.6953 18.0996L10.7195 16.0998L10.615 16.0985L10.5909 18.0984ZM10.7074 18.0997C11.1422 18.0997 12.4252 18.0666 13.9488 17.714C15.4629 17.3636 17.2993 16.6784 18.7595 15.3151L17.3947 13.8532C16.2903 14.8842 14.8323 15.4567 13.4979 15.7655C12.173 16.0721 11.0534 16.0997 10.7074 16.0997V18.0997ZM18.7594 15.3152C20.3625 13.8189 21.1056 11.8976 21.4537 10.3862C21.8032 8.86856 21.775 7.67649 21.7702 7.53717L19.7714 7.60536C19.7727 7.64431 19.8016 8.6483 19.5047 9.93734C19.2064 11.2326 18.5996 12.7286 17.3948 13.8531L18.7594 15.3152ZM15.6787 4.71178C14.7531 5.09032 14.753 5.09018 14.753 5.09003C14.753 5.08999 14.7529 5.08985 14.7529 5.08977C14.7528 5.0896 14.7527 5.08944 14.7527 5.0893C14.7526 5.08902 14.7525 5.0888 14.7524 5.08864C14.7523 5.08831 14.7522 5.08822 14.7523 5.08837C14.7524 5.08866 14.7529 5.08988 14.7538 5.09202C14.7555 5.0963 14.7586 5.10424 14.763 5.1157C14.7718 5.13862 14.7856 5.17555 14.8034 5.22535C14.839 5.32505 14.8899 5.47571 14.9467 5.66823C15.0608 6.05463 15.1965 6.60215 15.2813 7.2396L17.2638 6.97572C17.1625 6.21415 17.0012 5.56373 16.8649 5.10195C16.7965 4.87038 16.7339 4.68438 16.6872 4.55345C16.6638 4.48793 16.6444 4.43606 16.6301 4.399C16.623 4.38046 16.6172 4.36562 16.6129 4.35462C16.6107 4.34911 16.6088 4.34457 16.6074 4.341C16.6067 4.33921 16.6061 4.33767 16.6055 4.33638C16.6053 4.33573 16.605 4.33515 16.6048 4.33462C16.6047 4.33436 16.6046 4.33412 16.6045 4.33389C16.6045 4.33377 16.6044 4.33361 16.6044 4.33355C16.6043 4.33339 16.6043 4.33324 15.6787 4.71178ZM16.0195 6.14022C15.3825 6.30686 14.715 6.53208 14.0478 6.83604L14.877 8.65606C15.4261 8.4059 15.9836 8.21691 16.5257 8.0751L16.0195 6.14022ZM15.4384 7.52835C15.2635 6.74397 15.0025 6.0143 14.6985 5.35257L12.8811 6.18755C13.134 6.73802 13.3459 7.33389 13.4864 7.96374L15.4384 7.52835ZM14.3501 6.59835C14.8307 6.27325 15.2678 6.02841 15.5826 5.8659C15.7396 5.78485 15.8651 5.72486 15.949 5.68611C15.9909 5.66675 16.0224 5.65274 16.042 5.6441C16.0519 5.63978 16.0588 5.63681 16.0626 5.63519C16.0645 5.63437 16.0656 5.6339 16.0659 5.63376C16.0661 5.6337 16.066 5.63371 16.0658 5.63381C16.0657 5.63386 16.0655 5.63393 16.0653 5.63403C16.0652 5.63407 16.065 5.63413 16.0649 5.63418C16.0648 5.63421 16.0647 5.63426 16.0647 5.63427C16.0646 5.63432 16.0645 5.63437 15.6787 4.71178C15.2929 3.78919 15.2928 3.78924 15.2926 3.7893C15.2926 3.78932 15.2925 3.78937 15.2924 3.78941C15.2922 3.78949 15.292 3.78957 15.2918 3.78966C15.2913 3.78984 15.2909 3.79004 15.2903 3.79027C15.2893 3.79072 15.288 3.79125 15.2865 3.79188C15.2836 3.79313 15.2798 3.79474 15.2752 3.7967C15.266 3.80062 15.2537 3.80597 15.2382 3.81274C15.2074 3.82627 15.1643 3.84551 15.1104 3.87044C15.0025 3.92028 14.8506 3.99304 14.6653 4.08869C14.2955 4.27957 13.7881 4.56388 13.2295 4.94177L14.3501 6.59835ZM5.51616 4.71178C5.13213 5.6351 5.13201 5.63505 5.13189 5.635C5.13186 5.63499 5.13174 5.63494 5.13167 5.63491C5.13154 5.63485 5.13141 5.6348 5.1313 5.63476C5.13107 5.63466 5.1309 5.63459 5.13078 5.63454C5.13053 5.63443 5.13049 5.63442 5.13064 5.63448C5.13095 5.63461 5.13206 5.63508 5.13394 5.63588C5.13771 5.63748 5.14458 5.64043 5.15439 5.64472C5.17402 5.6533 5.2054 5.66722 5.24726 5.68647C5.33105 5.72502 5.45643 5.78473 5.61336 5.8655C5.92803 6.02745 6.36501 6.27169 6.84567 6.59663L7.96577 4.93971C7.40652 4.56164 6.89872 4.27769 6.52859 4.0872C6.34311 3.99174 6.19109 3.91918 6.08306 3.86949C6.02902 3.84463 5.9859 3.82545 5.95501 3.81196C5.93956 3.80521 5.92716 3.79988 5.91797 3.79596C5.91337 3.794 5.90958 3.7924 5.90661 3.79115C5.90513 3.79053 5.90385 3.78999 5.90278 3.78954C5.90224 3.78932 5.90176 3.78911 5.90133 3.78893C5.90111 3.78884 5.90091 3.78876 5.90072 3.78868C5.90063 3.78864 5.90049 3.78859 5.90045 3.78857C5.90032 3.78851 5.90019 3.78846 5.51616 4.71178ZM6.49693 5.35092C6.19235 6.01431 5.93027 6.74673 5.75526 7.53417L7.70762 7.96809C7.84805 7.33626 8.0608 6.73802 8.31451 6.18542L6.49693 5.35092ZM7.14607 6.84114C6.48182 6.53848 5.81589 6.30971 5.17536 6.1419L4.6685 8.07661C5.2076 8.21784 5.76479 8.4096 6.31681 8.66112L7.14607 6.84114ZM5.9132 7.24111C5.99803 6.60338 6.13379 6.05549 6.24795 5.66877C6.30482 5.47609 6.35578 5.32529 6.39138 5.22549C6.40916 5.17564 6.42305 5.13866 6.43186 5.11571C6.43626 5.10424 6.43939 5.09629 6.44109 5.092C6.44194 5.08986 6.44243 5.08863 6.44255 5.08834C6.44261 5.08819 6.44257 5.08828 6.44244 5.08861C6.44238 5.08877 6.44229 5.08899 6.44217 5.08927C6.44211 5.08941 6.44205 5.08957 6.44198 5.08974C6.44195 5.08982 6.44189 5.08996 6.44187 5.09C6.44181 5.09015 6.44176 5.09029 5.51616 4.71178C4.59056 4.33327 4.5905 4.33342 4.59043 4.33358C4.59041 4.33364 4.59035 4.3338 4.5903 4.33391C4.5902 4.33415 4.5901 4.33439 4.59 4.33465C4.58978 4.33518 4.58955 4.33576 4.58928 4.33641C4.58876 4.3377 4.58813 4.33925 4.58741 4.34103C4.58598 4.3446 4.58416 4.34915 4.58197 4.35465C4.5776 4.36566 4.57178 4.38052 4.56466 4.39907C4.55043 4.43615 4.53099 4.48807 4.5076 4.55363C4.46087 4.68466 4.39818 4.8708 4.32978 5.10253C4.19337 5.56464 4.03201 6.21548 3.93066 6.9774L5.9132 7.24111ZM4.51897 13.1815C3.46131 12.1941 2.92764 10.8376 2.66716 9.65642C2.53877 9.07422 2.48199 8.55784 2.45749 8.18922C2.44528 8.00555 2.4412 7.86033 2.44008 7.76409C2.43952 7.71601 2.4397 7.68031 2.43997 7.6583C2.4401 7.64731 2.44025 7.63975 2.44034 7.63579C2.44039 7.63381 2.44042 7.63273 2.44042 7.63258C2.44042 7.6325 2.44042 7.63266 2.44041 7.63305C2.4404 7.63324 2.44039 7.63349 2.44038 7.6338C2.44038 7.63396 2.44037 7.63424 2.44037 7.63431C2.44036 7.63461 2.44035 7.63491 1.44091 7.60136C0.441474 7.5678 0.441463 7.56814 0.441451 7.56849C0.441447 7.56863 0.441435 7.569 0.441426 7.56928C0.441408 7.56983 0.441389 7.57044 0.441368 7.57111C0.441326 7.57246 0.441278 7.57405 0.441226 7.57588C0.441123 7.57955 0.441001 7.58417 0.440873 7.58974C0.440616 7.60088 0.440333 7.61579 0.440111 7.6343C0.439666 7.67132 0.439466 7.7228 0.440218 7.78737C0.44172 7.9164 0.447031 8.09827 0.461892 8.32186C0.49153 8.76776 0.559604 9.38658 0.714089 10.0871C1.01936 11.4714 1.68351 13.2705 3.15412 14.6434L4.51897 13.1815ZM1.44091 7.60136C1.46608 8.60104 1.46606 8.60104 1.46604 8.60104C1.46603 8.60104 1.46601 8.60104 1.46599 8.60104C1.46597 8.60104 1.46594 8.60105 1.46591 8.60105C1.46585 8.60105 1.4658 8.60105 1.46575 8.60105C1.46564 8.60105 1.46555 8.60106 1.46546 8.60106C1.46529 8.60106 1.46516 8.60106 1.46506 8.60107C1.46487 8.60107 1.46482 8.60107 1.46492 8.60107C1.46512 8.60107 1.46589 8.60105 1.46723 8.60102C1.46992 8.60097 1.47488 8.60088 1.48202 8.60079C1.49632 8.6006 1.51935 8.60039 1.55046 8.60039V6.60039C1.51033 6.60039 1.47859 6.60067 1.45592 6.60096C1.44459 6.60111 1.43551 6.60126 1.42879 6.60139C1.42543 6.60146 1.42265 6.60152 1.42047 6.60156C1.41938 6.60159 1.41844 6.60161 1.41765 6.60163C1.41726 6.60164 1.4169 6.60165 1.41658 6.60165C1.41642 6.60166 1.41627 6.60166 1.41613 6.60167C1.41606 6.60167 1.41599 6.60167 1.41593 6.60167C1.41589 6.60167 1.41586 6.60167 1.41583 6.60167C1.41581 6.60167 1.41579 6.60167 1.41578 6.60167C1.41576 6.60168 1.41574 6.60168 1.44091 7.60136ZM1.55046 8.60039C2.03715 8.60039 4.2228 8.67964 6.11655 9.63215L7.01523 7.84543C4.69709 6.67946 2.13011 6.60039 1.55046 6.60039V8.60039ZM5.57063 8.64158C5.54353 8.91902 5.52722 9.2054 5.52722 9.50005H7.52722C7.52722 9.27918 7.53945 9.05828 7.56116 8.83601L5.57063 8.64158ZM5.52722 9.50005C5.52722 12.7839 7.41675 15.4839 8.43064 16.7088L9.97129 15.4335C9.03762 14.3056 7.52722 12.0649 7.52722 9.50005H5.52722ZM9.3112 15.0772C7.91079 14.9219 5.88578 14.4576 4.51897 13.1815L3.15411 14.6434C5.00614 16.3725 7.57358 16.8968 9.09073 17.0651L9.3112 15.0772ZM10.912 15.1712C10.885 15.1629 10.8841 15.1627 10.8774 15.1605L10.234 17.0541C10.2775 17.0689 10.3153 17.0802 10.3276 17.0839L10.912 15.1712ZM11.2689 15.4064C11.122 15.2569 10.4266 14.5238 9.77308 13.4362C9.1149 12.3409 8.5448 10.9616 8.5448 9.50009H6.5448C6.5448 11.4633 7.30106 13.2054 8.05878 14.4663C8.82117 15.7351 9.63117 16.5932 9.84242 16.8082L11.2689 15.4064ZM8.5448 9.50009C8.5448 7.93101 9.20238 6.45807 9.91561 5.3334C10.2672 4.77901 10.6194 4.32964 10.8822 4.02056C11.0133 3.86647 11.1211 3.74848 11.1941 3.67102C11.2305 3.63232 11.2582 3.60384 11.2756 3.58613C11.2843 3.57728 11.2905 3.57113 11.2939 3.56775C11.2956 3.56606 11.2966 3.56507 11.2969 3.56478C11.2971 3.56463 11.297 3.56466 11.2968 3.56486C11.2967 3.56497 11.2966 3.56511 11.2964 3.56531C11.2963 3.5654 11.2961 3.56558 11.296 3.56563C11.2958 3.56581 11.2956 3.56601 10.5974 2.85013C9.8992 2.13424 9.89898 2.13446 9.89874 2.13469C9.89864 2.13479 9.89839 2.13503 9.8982 2.13522C9.89782 2.13559 9.89739 2.13601 9.89692 2.13648C9.89597 2.13741 9.89483 2.13852 9.89351 2.13982C9.89088 2.14242 9.88751 2.14575 9.88343 2.1498C9.87528 2.15791 9.86428 2.16893 9.85064 2.18278C9.82336 2.21048 9.78546 2.24955 9.73845 2.29944C9.6445 2.39915 9.51381 2.54245 9.35868 2.72486C9.04917 3.08879 8.63819 3.61328 8.22661 4.26229C7.41352 5.54443 6.5448 7.39647 6.5448 9.50009H8.5448ZM10.5974 2.85013C9.8992 3.56601 9.899 3.56581 9.89881 3.56563C9.89876 3.56558 9.89858 3.5654 9.89848 3.5653C9.89828 3.56511 9.89813 3.56497 9.89803 3.56486C9.89782 3.56466 9.89779 3.56463 9.89794 3.56478C9.89824 3.56507 9.89924 3.56606 9.90094 3.56775C9.90434 3.57113 9.91049 3.57728 9.91921 3.58613C9.93665 3.60384 9.96433 3.63232 10.0008 3.67102C10.0738 3.74848 10.1816 3.86647 10.3126 4.02056C10.5755 4.32964 10.9277 4.77901 11.2792 5.3334C11.9925 6.45807 12.65 7.93101 12.65 9.50009H14.65C14.65 7.39647 13.7813 5.54443 12.9682 4.26229C12.5566 3.61328 12.1457 3.08879 11.8362 2.72486C11.681 2.54245 11.5503 2.39915 11.4564 2.29944C11.4094 2.24955 11.3715 2.21048 11.3442 2.18278C11.3306 2.16893 11.3196 2.15791 11.3114 2.1498C11.3073 2.14575 11.304 2.14242 11.3013 2.13982C11.3 2.13852 11.2989 2.13741 11.2979 2.13648C11.2974 2.13601 11.297 2.13559 11.2966 2.13522C11.2964 2.13503 11.2962 2.13479 11.2961 2.13469C11.2959 2.13446 11.2956 2.13424 10.5974 2.85013ZM12.65 9.50009C12.65 11.0051 12.047 12.4206 11.3679 13.527C10.6941 14.6246 9.99451 15.3386 9.91249 15.4207L11.3271 16.8345C11.4723 16.6892 12.2878 15.8515 13.0724 14.5732C13.8516 13.3038 14.65 11.5192 14.65 9.50009H12.65ZM16.6762 13.1815C15.3094 14.4576 13.2844 14.9219 11.8839 15.0773L12.1044 17.0651C13.6216 16.8968 16.189 16.3725 18.041 14.6434L16.6762 13.1815ZM12.7646 16.7087C13.778 15.484 15.6676 12.784 15.6676 9.50009H13.6676C13.6676 12.065 12.1572 14.3056 11.2237 15.4337L12.7646 16.7087ZM15.6676 9.50009C15.6676 9.20412 15.6513 8.91553 15.6233 8.63466L13.6332 8.8335C13.6554 9.05546 13.6676 9.27735 13.6676 9.50009H15.6676ZM15.0772 9.6276C16.9703 8.6763 19.1563 8.6001 19.6443 8.6001V6.6001C19.0668 6.6001 16.498 6.6753 14.1792 7.84055L15.0772 9.6276ZM19.6443 8.6001C19.6754 8.6001 19.6985 8.60031 19.7128 8.60049C19.7199 8.60059 19.7249 8.60067 19.7276 8.60073C19.7289 8.60075 19.7297 8.60077 19.7299 8.60077C19.73 8.60078 19.7299 8.60077 19.7297 8.60077C19.7296 8.60077 19.7295 8.60076 19.7293 8.60076C19.7292 8.60076 19.7292 8.60076 19.7291 8.60075C19.729 8.60075 19.7289 8.60075 19.7289 8.60075C19.7289 8.60075 19.7288 8.60075 19.7288 8.60075C19.7288 8.60075 19.7288 8.60075 19.7288 8.60075C19.7287 8.60075 19.7287 8.60075 19.7539 7.60106C19.7791 6.60138 19.779 6.60138 19.779 6.60138C19.779 6.60138 19.779 6.60138 19.779 6.60138C19.7789 6.60138 19.7789 6.60138 19.7789 6.60137C19.7788 6.60137 19.7787 6.60137 19.7787 6.60137C19.7785 6.60137 19.7784 6.60136 19.7782 6.60136C19.7779 6.60135 19.7775 6.60134 19.7771 6.60133C19.7764 6.60131 19.7754 6.60129 19.7743 6.60127C19.7721 6.60122 19.7694 6.60116 19.766 6.6011C19.7593 6.60097 19.7502 6.60081 19.7389 6.60066C19.7162 6.60037 19.6845 6.6001 19.6443 6.6001V8.6001ZM19.7539 7.60106C18.7544 7.63461 18.7544 7.63431 18.7544 7.63401C18.7544 7.63394 18.7544 7.63366 18.7544 7.6335C18.7544 7.63319 18.7544 7.63294 18.7544 7.63275C18.7544 7.63236 18.7544 7.6322 18.7544 7.63228C18.7544 7.63244 18.7544 7.63351 18.7545 7.63549C18.7545 7.63945 18.7547 7.64701 18.7548 7.65801C18.7551 7.68002 18.7553 7.71573 18.7547 7.76381C18.7536 7.86006 18.7495 8.0053 18.7373 8.18899C18.7128 8.55764 18.656 9.07407 18.5277 9.65631C18.2672 10.8376 17.7336 12.1942 16.6761 13.1816L18.0411 14.6434C19.5115 13.2704 20.1755 11.4713 20.4808 10.0869C20.6352 9.38636 20.7033 8.76751 20.7329 8.32159C20.7478 8.09799 20.7531 7.91611 20.7546 7.78708C20.7553 7.72251 20.7551 7.67103 20.7547 7.63401C20.7545 7.61549 20.7542 7.60058 20.7539 7.58945C20.7538 7.58388 20.7537 7.57925 20.7536 7.57559C20.7535 7.57376 20.7535 7.57217 20.7534 7.57082C20.7534 7.57015 20.7534 7.56953 20.7534 7.56898C20.7534 7.56871 20.7534 7.56834 20.7533 7.5682C20.7533 7.56785 20.7533 7.56751 19.7539 7.60106Z" fill="#C3911A" mask="url(#path-1-inside-1_2251_356)"/>
</g>
<defs>
<clipPath id="clip0_2251_356">
<rect width="20.3509" height="19" fill="white" transform="translate(0.421875)"/>
</clipPath>
</defs>
</svg>
