<svg width="114" height="21" viewBox="0 0 114 21" fill="none" xmlns="http://www.w3.org/2000/svg">
<path d="M43.8865 5.51465C43.3742 5.51465 42.9564 5.90931 42.9564 6.39334V13.2218H36.0887V6.39334C36.0887 5.90931 35.6709 5.51465 35.1587 5.51465C34.6465 5.51465 34.2106 5.90187 34.2106 6.39334V13.2218H34.076C33.5718 13.2218 33.146 13.609 33.146 14.0651C33.146 14.5212 33.5638 14.927 34.076 14.927H34.2106V17.5296C34.2106 18.0229 34.6264 18.4083 35.1587 18.4083C35.691 18.4083 36.0887 18.0136 36.0887 17.5296V14.927H42.9564V17.5296C42.9564 18.0136 43.3742 18.4083 43.8865 18.4083C44.3987 18.4083 44.8346 18.0229 44.8346 17.5296V6.39334C44.8346 5.90001 44.4188 5.51465 43.8865 5.51465Z" fill="#9C4322"/>
<path d="M62.3689 7.23867C62.8912 7.23867 63.317 6.85145 63.317 6.37673C63.317 5.90202 62.8831 5.49805 62.3689 5.49805L53.9043 5.5148C53.1349 5.5148 52.7131 5.9076 52.7131 6.61874V13.2219H52.223C51.7007 13.2219 51.2749 13.5998 51.2749 14.0653C51.2749 14.5307 51.7007 14.9272 52.223 14.9272H52.7131V17.3212C52.7131 18.0212 53.137 18.4084 53.9043 18.4084H61.9973C62.5015 18.4084 62.9273 18.0212 62.9273 17.5651C62.9273 17.109 62.5095 16.7032 61.9973 16.7032H54.5933V14.929H62.2042C62.7264 14.929 63.1523 14.5418 63.1523 14.0671C63.1523 13.5924 62.7264 13.2238 62.2042 13.2238H54.5933V7.24053H62.3729L62.3689 7.23867Z" fill="#9C4322"/>
<path d="M71.2089 5.51465C70.6766 5.51465 70.2588 5.90187 70.2588 6.39334V17.5296C70.2588 18.0229 70.6766 18.4083 71.2089 18.4083C71.7412 18.4083 72.1389 18.0136 72.1389 17.5296V6.39334C72.1389 5.90931 71.7211 5.51465 71.2089 5.51465Z" fill="#9C4322"/>
<path d="M88.6285 12.5706L90.4403 9.59015C90.5367 9.4133 90.5367 9.26809 90.5367 9.18246C90.5367 8.70774 90.1189 8.32052 89.6067 8.32052C89.4058 8.32052 89.0322 8.37823 88.7671 8.78965L87.5659 10.8077L86.5354 12.6023L84.6472 15.8303L79.3965 5.97487C79.2338 5.67143 78.9064 5.4834 78.5428 5.4834C78.0306 5.4834 77.6128 5.87062 77.6128 6.34533C77.6128 6.53522 77.6871 6.6767 77.7253 6.74744L83.7252 17.9544C83.894 18.3175 84.2254 18.5353 84.6151 18.5353C84.9726 18.5353 85.2599 18.3621 85.4768 18.0084L87.5839 14.3838L88.6285 12.5725V12.5706Z" fill="#9C4322"/>
<path d="M86.5972 12.5706L84.7854 9.59015C84.689 9.4133 84.689 9.26809 84.689 9.18246C84.689 8.70774 85.1068 8.32052 85.619 8.32052C85.8199 8.32052 86.1935 8.37823 86.4586 8.78965L87.6598 10.8077L88.6903 12.6023L90.5784 15.8303L95.8292 5.97487C95.9919 5.67143 96.3193 5.4834 96.6829 5.4834C97.1951 5.4834 97.6129 5.87062 97.6129 6.34533C97.6129 6.53522 97.5386 6.6767 97.5004 6.74744L91.5004 17.9544C91.3317 18.3175 91.0003 18.5353 90.6106 18.5353C90.253 18.5353 89.9658 18.3621 89.7489 18.0084L87.6417 14.3838L86.5972 12.5725V12.5706Z" fill="#9C4322"/>
<path d="M113.972 17.3714C113.96 17.3025 113.936 17.2355 113.902 17.1741L107.681 5.92055C107.486 5.55939 107.193 5.37695 106.809 5.37695C106.425 5.37695 106.132 5.55939 105.939 5.91496L101.882 13.2237H100.96C100.455 13.2237 100.03 13.6109 100.03 14.067C100.03 14.5231 100.441 14.9234 100.948 14.929L99.6961 17.1759C99.6579 17.2448 99.5796 17.3882 99.5796 17.5836C99.5796 18.0584 99.9974 18.4456 100.51 18.4456C100.889 18.4456 101.217 18.2538 101.369 17.9429L103.045 14.9308H110.553L112.228 17.9429C112.381 18.2501 112.706 18.4474 113.07 18.4474C113.582 18.4474 114 18.0602 114 17.5855C114 17.5483 113.996 17.5129 113.99 17.4775L113.972 17.3733V17.3714ZM103.973 13.2237L106.789 8.09865L109.605 13.2237H103.971H103.973Z" fill="#9C4322"/>
<path d="M9.69455 17.9272L9.6142 17.6089L9.28879 17.1621L8.875 17.5828L9.69455 17.9272Z" fill="#EFD8C4"/>
<path d="M4.98828 9.12918C4.98828 9.12918 6.1935 8.69169 6.87243 9.60203C7.6036 9.17199 7.60962 9.06588 7.60962 9.06588C7.60962 9.06588 7.15767 8.40687 6.87243 8.45899C6.5872 8.51112 5.09876 8.40128 4.98828 9.12918Z" fill="#EFD8C4"/>
<path d="M22.5445 8.11012C22.5887 8.12874 22.6289 8.15666 22.659 8.18645C22.669 8.19575 22.6791 8.20506 22.6891 8.21623C22.6932 8.21995 22.6952 8.22182 22.6992 8.22554C22.7052 8.22926 22.7112 8.23299 22.7173 8.23671C22.7173 8.23671 22.7213 8.23671 22.7213 8.23857C22.7253 8.23857 22.7313 8.24043 22.7353 8.24229C22.7394 8.24229 22.7414 8.24229 22.7454 8.24229C22.7494 8.24229 22.7534 8.24043 22.7574 8.23857C22.7635 8.23485 22.7675 8.23299 22.7715 8.23112C22.7936 8.21995 22.8137 8.20878 22.8338 8.19575C22.892 8.15666 22.9462 8.1157 23.0105 8.08405C23.0166 8.08033 23.0246 8.07847 23.0326 8.07661C23.0266 8.04123 23.0226 8.004 23.0166 7.96863C23.0065 7.89789 22.9924 7.82901 22.9804 7.76013C22.9784 7.74896 22.9764 7.73965 22.9744 7.72848C22.9161 7.42504 22.8398 7.1309 22.7554 6.84794C22.0544 4.5451 20.5459 2.9683 19.7705 2.54199C19.8569 2.6388 19.9412 2.7356 20.0236 2.83427C20.0236 2.83427 20.0236 2.83613 20.0276 2.83799C21.042 4.06294 21.725 5.53921 21.954 7.14952C21.966 7.22771 21.976 7.30589 21.9841 7.38594C21.9881 7.42318 21.9921 7.46227 21.9961 7.49951C22.0243 7.49951 22.0524 7.50695 22.0745 7.51812C22.1046 7.53487 22.1428 7.5721 22.1488 7.60561C22.1568 7.64843 22.1629 7.69311 22.1669 7.73593C22.3436 7.86811 22.4722 8.01331 22.5465 8.10826L22.5445 8.11012Z" fill="#EFD8C4"/>
<path d="M8.66197 16.6582L7.90268 17.3507C7.78015 17.2818 7.65762 17.2129 7.53509 17.1366C4.80126 15.3215 2.80061 12.073 3.12602 10.7363C3.90539 13.4115 5.97233 15.5915 8.66197 16.6582Z" fill="#EFD8C4"/>
<path d="M18.0969 17.3383C17.2432 17.6678 16.2549 18.0011 15.1803 18.2301C15.1521 18.2263 15.132 18.2226 15.12 18.2207L14.4712 17.1596C14.6319 17.1261 14.7926 17.0907 14.9493 17.0498C15.8893 16.8096 16.7691 16.441 17.5706 15.9626C17.6068 15.9421 17.6429 15.9198 17.6791 15.8974C17.6891 15.89 17.7012 15.8844 17.7112 15.877C17.7654 15.8435 17.8197 15.8099 17.8719 15.7746C17.8799 15.769 17.89 15.7634 17.898 15.7578V15.877L18.0969 17.3383Z" fill="#EFD8C4"/>
<path d="M23.0807 10.2627C23.0727 10.3297 23.0666 10.3986 23.0566 10.4656C23.0486 10.5326 23.0385 10.6015 23.0285 10.6685C23.0224 10.7058 23.0164 10.743 23.0104 10.7802C22.9903 10.8975 22.9682 11.0167 22.9441 11.1377C22.9441 11.1377 22.9441 11.1377 22.9441 11.1395C22.9341 11.1916 22.922 11.2438 22.91 11.2959C22.8858 11.402 22.8597 11.51 22.8316 11.618C22.4299 13.1464 21.5862 14.7958 20.0978 16.5103C19.9953 16.5531 19.8849 16.5997 19.7664 16.6481L19.465 15.8755L19.5574 15.8941L19.3646 15.6205L19.0693 14.8628C19.1256 14.8125 19.1818 14.7622 19.2361 14.7101C20.4091 13.608 21.2789 12.2211 21.7168 10.6704C21.7369 10.6034 21.755 10.5345 21.771 10.4675C21.7891 10.4005 21.8052 10.3316 21.8212 10.2646H23.0807V10.2627Z" fill="#EFD8C4"/>
<path d="M13.5312 11.1171C13.5312 11.1171 14.174 12.033 15.2788 11.7072C16.0281 11.4857 13.6678 12.5748 13.6678 12.5748L13.5333 11.1152L13.5312 11.1171Z" fill="#EFD8C4"/>
<path d="M21.0199 19.4787V19.8678H12.4689C12.4689 19.8678 12.3162 19.7822 12.0993 19.6537C12.039 19.6183 11.9727 19.5793 11.9024 19.5364C11.3701 19.2162 10.649 18.7564 10.6289 18.5945C10.6289 18.5945 10.6289 18.5907 10.6289 18.5889C10.6289 18.5889 11.4826 19.2274 13.8006 19.2274C14.8532 19.2274 19.0634 19.3968 20.5217 19.4582C20.8351 19.4713 21.0219 19.4787 21.0219 19.4787H21.0199Z" fill="#EFD8C4"/>
<path d="M0.528809 11.2199L2.66204 9.61335L8.74034 12.1526L2.76247 8.2041L0.528809 11.2199Z" fill="#EFD8C4"/>
<path d="M9.2327 17.2299V17.2262L9.1162 17.3509L9.24274 17.2411L9.2327 17.2299ZM9.2327 17.2299V17.2262L9.1162 17.3509L9.24274 17.2411L9.2327 17.2299ZM23.0424 6.43804C22.482 4.71976 21.4134 3.17461 19.941 1.97572C20.0395 1.90311 20.1399 1.83237 20.2403 1.75977C20.2905 1.72254 20.3046 1.67414 20.2865 1.61829C20.2624 1.53824 20.1278 1.47308 20.0374 1.49914C19.8647 1.54941 19.692 1.59781 19.5172 1.64993C19.4148 1.57547 19.3103 1.501 19.2059 1.4284C19.1797 1.4042 19.1496 1.38186 19.1215 1.36138C19.1094 1.35208 19.0994 1.3409 19.0853 1.32973C19.015 1.27388 18.9447 1.21804 18.8704 1.16219C18.8483 1.14543 18.8443 1.13613 18.8704 1.11751C18.9507 1.0598 19.0291 1.00023 19.1094 0.940654C19.3565 0.754491 19.6036 0.568332 19.8506 0.380308C19.9149 0.331906 19.929 0.249994 19.8788 0.194145C19.8607 0.175529 19.8366 0.162496 19.8205 0.145741C19.7643 0.091754 19.702 0.0861687 19.6297 0.11037C19.3344 0.216483 19.0351 0.318872 18.7398 0.43057C18.6575 0.462218 18.5972 0.46408 18.5269 0.408231C18.4566 0.352383 18.3562 0.365415 18.2899 0.426849C18.2397 0.473389 18.2015 0.531099 18.1573 0.583225C18.1473 0.596256 18.1412 0.613011 18.1352 0.629765C18.1258 0.657069 18.1091 0.662031 18.085 0.644656C17.9062 0.527373 17.7295 0.40823 17.5507 0.290948C17.4864 0.249992 17.4201 0.216485 17.3458 0.194145C17.3117 0.177391 17.2755 0.169942 17.2373 0.162495C17.2353 0.162495 17.2333 0.162495 17.2313 0.162495C17.1028 0.136432 16.9762 0.140157 16.8476 0.164359C16.7552 0.182975 16.7191 0.235102 16.7311 0.322598C16.7532 0.475251 16.8175 0.61301 16.92 0.734016C17.0043 0.832682 17.1168 0.90156 17.2273 0.970441C17.3679 1.0598 17.5145 1.14544 17.6531 1.24038C17.6772 1.25713 17.6792 1.26644 17.6531 1.28133C17.629 1.29437 17.613 1.31484 17.5969 1.33718C17.5728 1.37441 17.5467 1.41165 17.5246 1.44888C17.5105 1.4675 17.4985 1.48798 17.4965 1.50845C17.4864 1.52893 17.4824 1.54941 17.4824 1.56988C17.4824 1.60526 17.4965 1.6369 17.5185 1.66855C17.5447 1.70578 17.5848 1.72626 17.623 1.7486C17.6431 1.76163 17.6511 1.77466 17.6511 1.797C17.6451 2.11907 17.6391 2.44299 17.633 2.76505C17.633 2.81159 17.6431 2.85068 17.6772 2.88419C17.6993 2.90839 17.7335 2.91584 17.7616 2.93073C17.85 2.98472 17.9524 2.95493 17.9886 2.85999C18.0609 2.66452 18.1332 2.46719 18.2075 2.27172C18.2718 2.09858 18.3361 1.92732 18.3984 1.75418C18.4064 1.73371 18.4104 1.72626 18.4345 1.74116C18.6595 1.86402 18.8865 1.9813 19.1215 2.08555C19.1436 2.09486 19.1516 2.10603 19.1536 2.13209C19.1617 2.29033 19.1757 2.45043 19.1757 2.61053C19.1757 2.70548 19.2259 2.76319 19.3083 2.80601C19.3726 2.84138 19.479 2.8209 19.4931 2.76691C19.5051 2.72409 19.5292 2.68873 19.5433 2.64963C19.5654 2.58634 19.5855 2.52676 19.6076 2.46533C19.7522 2.58447 19.8928 2.7092 20.0294 2.83765C20.0294 2.83765 20.0314 2.83766 20.0334 2.84138C21.3953 4.11287 22.3173 5.72504 22.6909 7.48614C22.6909 7.49172 22.6929 7.49917 22.6949 7.50475C22.709 7.55688 22.717 7.61273 22.7291 7.66671C22.7331 7.68719 22.7371 7.70953 22.7411 7.73001C22.7592 7.73001 22.7753 7.73187 22.7914 7.73374C22.8577 7.73746 22.9199 7.73746 22.9822 7.73374C23.1107 7.72443 23.2252 7.79703 23.3076 7.73746C23.3217 7.72629 23.3598 7.72629 23.3719 7.71325C23.2996 7.31859 23.177 6.81967 23.0525 6.4399L23.0424 6.43804ZM9.2327 17.2299V17.2262L9.1162 17.3509L9.24274 17.2411L9.2327 17.2299ZM13.4088 6.00056L13.1818 6.34682C13.1577 6.38405 13.1316 6.42315 13.1055 6.4641L13.5755 6.18486C13.4771 6.07502 13.4168 6.00801 13.4088 5.9987V6.00056ZM9.66658 17.6543L9.70876 17.6674C9.70876 17.6674 9.69671 17.6506 9.68867 17.6413C9.68666 17.6395 9.68466 17.6357 9.68265 17.6339C9.56212 17.4775 9.45165 17.3155 9.35121 17.1498C9.35121 17.1498 9.35121 17.1498 9.35121 17.148L9.30501 17.1871L9.29899 17.1908L9.24073 17.2411V17.2448L9.29899 17.3137C9.35322 17.3807 9.40946 17.4477 9.46772 17.5129C9.47173 17.5166 9.47575 17.5222 9.47776 17.5259C9.50588 17.5575 9.534 17.5873 9.56212 17.619C9.56212 17.619 9.56413 17.6227 9.56614 17.6246C9.60632 17.6674 9.64448 17.7102 9.68666 17.753C9.6947 17.7623 9.70273 17.7716 9.71278 17.7791H9.77906L9.66658 17.6543ZM9.2327 17.2299V17.2262L9.1162 17.3509L9.24274 17.2411L9.2327 17.2299ZM9.2327 17.2299V17.2262L9.1162 17.3509L9.24274 17.2411L9.2327 17.2299ZM9.2327 17.2299V17.2262L9.1162 17.3509L9.24274 17.2411L9.2327 17.2299ZM23.0083 10.7812C22.9922 10.7812 22.9762 10.7812 22.9601 10.7812C22.8918 10.7812 22.8255 10.7831 22.7572 10.7849C22.7492 10.8352 22.7411 10.8855 22.7331 10.9357C22.711 11.0735 22.6849 11.2057 22.6568 11.3378C22.6447 11.3918 22.6347 11.4458 22.6206 11.4979C22.1888 13.3782 21.2125 14.968 19.8245 15.9733L19.7864 15.8746H19.5734C19.469 15.4837 19.3545 15.0946 19.232 14.7074C18.8101 13.3633 18.2939 12.0415 17.7576 10.7347L16.4921 13.7598L16.466 13.838C16.8055 13.9199 17.155 14 17.4965 14.0763C17.6049 14.6441 17.7234 15.2119 17.8701 15.7741C17.8781 15.8076 17.8881 15.843 17.8962 15.8765C17.8259 15.8765 17.7636 15.8765 17.7094 15.8765C17.6391 15.8765 17.5828 15.8765 17.5487 15.8765C17.5507 15.8895 17.5567 15.9193 17.5668 15.9621C17.6069 16.1613 17.7074 16.6547 17.8078 17.1517C16.7693 17.6171 16.0341 17.6823 15.4476 17.6823C15.4416 17.6823 15.4355 17.6823 15.4295 17.6823C15.4215 17.6823 15.3652 17.6711 15.3592 17.6711C15.2527 17.511 14.9655 17.0772 14.9655 17.0772C14.9575 17.0679 14.9514 17.0568 14.9434 17.0493C14.6461 16.6379 14.1942 16.3214 13.686 16.1669C13.3887 16.0794 13.0834 16.0031 12.778 15.9416L13.2159 13.9478L13.23 13.8808L13.2099 13.8157L12.9428 12.9091C13.0733 12.8681 13.2039 12.8271 13.232 12.8178C13.24 12.8178 13.3987 12.7434 13.6116 12.6987L14.0656 13.1771C13.8507 13.3558 13.7141 13.6146 13.7141 13.9032C13.7141 14.4412 14.1861 14.8787 14.7666 14.8787C15.3472 14.8787 15.8192 14.4412 15.8192 13.9032C15.8192 13.5308 15.5942 13.2088 15.2648 13.0431L15.8112 12.7415C16.2229 12.5125 16.3093 11.6748 16.235 11.1517L16.1265 11.0623C16.0663 11.0214 16.008 10.9785 16.008 10.9785C15.8333 10.8631 13.6538 9.31984 13.5594 9.26213C13.469 9.43154 13.226 9.91742 13.0974 10.1669V10.1706L13.0572 10.2953C13.0572 10.2953 12.2477 10.6509 11.3157 11.1182C10.5825 11.4849 9.77505 11.9243 9.22667 12.5367C9.22667 12.5367 9.22667 12.5367 9.22667 12.5386C8.39106 13.5904 8.06565 14.8303 8.44127 16.0738C8.36093 16.165 8.38503 16.139 8.34285 16.1855L8.12993 16.4275L7.68601 16.932C7.1999 16.6733 6.93074 16.4759 6.92471 16.4704C5.29165 15.2845 4.11054 13.6667 3.53605 11.8442C3.53605 11.8442 3.53605 11.8442 3.53605 11.8423C3.43963 11.5389 3.3613 11.2299 3.29903 10.9153C3.2689 10.7589 3.10619 10.6546 2.93746 10.6826C2.76873 10.7105 2.65624 10.8594 2.68637 11.0158C3.14436 13.3521 4.51428 15.4502 6.53904 16.919C6.5511 16.9302 6.81223 17.1238 7.28829 17.3825L7.23204 17.4477L5.26955 19.7412H4.87384H4.61874C4.52634 19.745 4.43193 19.7412 4.33752 19.7375H4.3335C4.26922 19.7375 4.20294 19.7338 4.13665 19.7375C4.04827 19.7394 3.95989 19.7487 3.8715 19.771C3.37536 19.8473 2.8772 19.9274 2.38306 20.0298C2.8772 20.134 3.37536 20.2141 3.8715 20.2904C4.12058 20.3518 4.36966 20.309 4.61673 20.3183H5.50859L5.60902 20.2048L6.19556 19.5364L6.35023 19.3615C6.40245 19.3019 6.45669 19.2404 6.51092 19.179L7.27623 18.3078C7.37667 18.1942 7.47911 18.0788 7.57955 17.9615C7.58959 17.9503 7.59963 17.9392 7.60968 17.928L8.10382 17.3658C8.33682 17.0996 8.56983 16.8352 8.79681 16.5783L8.98161 16.3661L9.04187 16.2972L9.07401 16.26C9.75697 15.4576 11.615 13.0487 11.8018 12.7043C11.4603 12.9537 11.1289 13.2106 10.8035 13.475C10.6428 13.6072 10.464 13.7282 10.3515 13.8976C10.1687 14.1061 9.36326 15.0201 8.8169 15.6419C8.83498 15.6214 8.80284 15.4911 8.80083 15.4613C8.7948 15.3869 8.7928 15.3124 8.79079 15.238C8.78677 15.089 8.79079 14.9401 8.80284 14.793C8.88319 13.8213 9.3954 12.8774 10.2431 12.2836C10.695 11.9671 11.2233 11.7511 11.7195 11.5054C12.2879 11.2243 12.8564 10.9432 13.4228 10.6621C13.4409 10.6528 13.459 10.6435 13.4791 10.6341L13.5695 10.5895L13.6137 10.5038C13.6137 10.5038 13.704 10.327 13.7944 10.1501L15.3994 11.2745L15.0619 11.7455L14.9997 11.7642L13.9772 12.0657C13.9712 12.0657 13.9652 12.0695 13.9612 12.0695L13.9049 12.0862C13.8828 12.1421 13.8165 12.1346 13.7482 12.1253C13.7402 12.1253 13.7302 12.1253 13.7221 12.1234C13.7924 12.1086 13.8125 12.1048 13.8748 12.0918C13.8748 12.0918 13.8788 12.0918 13.8808 12.0918C13.8888 12.0918 13.8949 12.0881 13.9049 12.0862H13.9009L13.6137 12.0211L13.6518 12.1123C13.6518 12.1123 13.682 12.1216 13.682 12.1234C13.694 12.1179 13.6337 12.1235 13.6478 12.1253C13.6357 12.1272 13.6639 12.1086 13.6518 12.1123L13.684 12.1141C13.6799 12.1141 13.6237 12.1253 13.6237 12.1253C13.6237 12.1253 12.3683 12.4753 12.1895 12.5311C12.1895 12.5311 12.1895 12.533 12.1895 12.5349C12.2277 12.6596 12.4084 13.2739 12.5209 13.663L9.46772 16.9655L9.39139 17.0493L9.38536 17.0568L9.33313 17.1126C9.33313 17.1126 9.33313 17.1126 9.33313 17.1108L9.28693 17.1591L9.22868 17.2187L9.2327 17.2262L9.28894 17.1647L9.3251 17.1238C9.34117 17.1387 9.33514 17.1331 9.35322 17.148L9.41549 17.0959L9.49785 17.0251L9.58221 16.9525L12.4707 14.471L12.1493 15.9361L12.0891 16.3996C12.4526 16.4666 12.8383 16.543 13.1918 16.6342C13.4389 16.6975 13.704 16.7719 13.919 16.9078C14.1299 17.0344 14.3127 17.2038 14.4493 17.3993L14.9052 18.0881L14.9796 18.2017C14.9796 18.2017 18.6695 18.7769 18.774 18.7862C18.7378 18.6149 18.4446 17.1536 18.3019 16.4555H19.3545C19.467 16.7477 20.2604 18.7918 20.5195 19.462C20.5316 19.4918 20.5416 19.5178 20.5497 19.5402C19.5031 19.5662 17.7957 19.6165 17.0104 19.6258C16.8999 19.6295 16.7914 19.6351 16.6829 19.6388L13.24 19.6053C13.1034 19.6053 12.9648 19.5904 12.8323 19.5644C11.9083 19.3819 11.161 18.9742 10.6267 18.5907C10.6267 18.5907 10.6107 18.5777 10.6006 18.5721C10.6006 18.5721 10.5946 18.5665 10.5926 18.5647C10.5122 18.5051 10.4359 18.4474 10.3656 18.3897C10.1708 18.1998 9.98596 18.0043 9.81924 17.7995C9.81522 17.794 9.8112 17.7902 9.80718 17.7865C9.80718 17.7865 9.80719 17.7847 9.80317 17.7828C9.80317 17.7828 9.80317 17.7791 9.79915 17.7772C9.79111 17.7679 9.78308 17.7567 9.77505 17.7474C9.75094 17.7176 9.73286 17.6953 9.72081 17.6804C9.71478 17.673 9.71278 17.6674 9.71077 17.6674C9.71077 17.6674 9.69872 17.6506 9.69068 17.6413C9.68867 17.6395 9.68666 17.6357 9.68465 17.6339C9.56413 17.4775 9.45366 17.3155 9.35322 17.1498C9.35322 17.1498 9.35322 17.1498 9.35322 17.148L9.30702 17.1871L9.30099 17.1908L9.24274 17.2411V17.2448L9.30099 17.3137C9.35523 17.3807 9.41147 17.4477 9.46972 17.5129C9.47374 17.5166 9.47776 17.5222 9.47977 17.5259C9.50789 17.5575 9.53601 17.5873 9.56413 17.619C9.56413 17.619 9.56614 17.6227 9.56815 17.6246C9.60833 17.6674 9.64649 17.7102 9.68867 17.753C9.69671 17.7623 9.70474 17.7716 9.71478 17.7791C9.73487 17.7996 9.75496 17.82 9.77705 17.8405C9.86945 17.9373 9.96587 18.0304 10.0643 18.1216C10.0844 18.1421 10.1025 18.1588 10.1225 18.1775C10.1687 18.2221 10.217 18.265 10.2632 18.3078C10.2089 18.2612 10.1567 18.2184 10.1105 18.1775C10.1065 18.1737 10.1045 18.1719 10.1025 18.1682C9.95382 18.0341 9.84133 17.9224 9.77304 17.848C9.74492 17.8182 9.72483 17.7958 9.71077 17.7791C9.70474 17.7716 9.69872 17.766 9.69671 17.7623C9.70072 17.7679 9.70474 17.7735 9.70876 17.7791C9.72684 17.8033 9.74491 17.8275 9.76299 17.8517C9.76299 17.8535 9.76701 17.8554 9.76902 17.8591C9.85138 17.9671 9.93976 18.0732 10.0322 18.1775C10.3897 18.574 10.8075 18.9296 11.1751 19.2088L11.2394 19.2572C11.2575 19.2721 11.2755 19.2851 11.2956 19.3C11.4081 19.3838 11.5146 19.4583 11.609 19.5253C11.625 19.5365 11.6411 19.5476 11.6572 19.5588C11.6753 19.5718 11.6913 19.583 11.7094 19.5942H11.6733L11.2836 19.5904L6.88856 19.5476L6.19556 20.2085H15.5179C16.0221 20.2215 16.5283 20.229 17.0324 20.2159C17.0887 20.2141 17.153 20.2104 17.2132 20.2085H21.4877L21.3391 19.8622C21.315 19.7971 21.2848 19.7207 21.2848 19.7207L20.0515 16.5429C20.0696 16.5355 20.0877 16.5262 20.1017 16.515C21.8372 15.3124 23.0003 13.2907 23.3699 10.9264V10.9227C23.3699 10.9208 23.3699 10.9171 23.3699 10.9153C23.3699 10.9097 23.3719 10.9041 23.3739 10.8948C23.3739 10.8836 23.3779 10.8724 23.3799 10.8613C23.3819 10.8427 23.3859 10.8222 23.3879 10.7961C23.3879 10.7905 23.3879 10.7868 23.39 10.7812C23.2634 10.7812 23.1369 10.7849 23.0103 10.7868L23.0083 10.7812ZM17.2996 17.9727C17.4985 17.9094 17.7054 17.8331 17.9263 17.7381C17.9504 17.8628 17.9745 17.9783 17.9966 18.0807C17.8319 18.0546 17.619 18.0211 17.2996 17.9727ZM19.463 15.8765C19.1496 15.8765 18.4365 15.8765 17.9645 15.8765C17.9805 15.1672 17.9544 14.4579 17.9143 13.7524C17.6672 13.6686 17.4201 13.5886 17.171 13.5085C17.3558 13.0747 17.5326 12.6373 17.7074 12.1979C18.2095 13.3577 18.7459 14.5063 19.3645 15.6196C19.4107 15.7052 19.4589 15.789 19.5072 15.8746H19.465L19.463 15.8765ZM9.2327 17.2299V17.2262L9.1162 17.3509L9.24274 17.2411L9.2327 17.2299ZM9.66658 17.6543L9.70876 17.6674C9.70876 17.6674 9.69671 17.6506 9.68867 17.6413C9.68666 17.6395 9.68466 17.6357 9.68265 17.6339C9.56212 17.4775 9.45165 17.3155 9.35121 17.1498C9.35121 17.1498 9.35121 17.1498 9.35121 17.148L9.30501 17.1871L9.29899 17.1908L9.24073 17.2411V17.2448L9.29899 17.3137C9.35322 17.3807 9.40946 17.4477 9.46772 17.5129C9.47173 17.5166 9.47575 17.5222 9.47776 17.5259C9.50588 17.5575 9.534 17.5873 9.56212 17.619C9.56212 17.619 9.56413 17.6227 9.56614 17.6246C9.60632 17.6674 9.64448 17.7102 9.68666 17.753C9.6947 17.7623 9.70273 17.7716 9.71278 17.7791H9.77906L9.66658 17.6543ZM9.2327 17.2299V17.2262L9.1162 17.3509L9.24274 17.2411L9.2327 17.2299ZM17.5507 15.8765C17.5527 15.8895 17.5587 15.9193 17.5688 15.9621C17.6049 15.9416 17.6411 15.9193 17.6772 15.897C17.6873 15.8895 17.6993 15.8839 17.7094 15.8765C17.6391 15.8765 17.5828 15.8765 17.5487 15.8765H17.5507ZM9.2327 17.2299V17.2262L9.1162 17.3509L9.24274 17.2411L9.2327 17.2299ZM9.77505 17.7474C9.75094 17.7176 9.73286 17.6953 9.72081 17.6804C9.71478 17.673 9.71278 17.6674 9.71077 17.6674C9.71077 17.6674 9.69872 17.6506 9.69068 17.6413C9.68867 17.6395 9.68666 17.6357 9.68465 17.6339C9.56413 17.4775 9.45366 17.3155 9.35322 17.1498C9.35322 17.1498 9.35322 17.1498 9.35322 17.148L9.30702 17.1871L9.30099 17.1908L9.24274 17.2411V17.2448L9.30099 17.3137C9.35523 17.3807 9.41147 17.4477 9.46972 17.5129C9.47374 17.5166 9.47776 17.5222 9.47977 17.5259C9.50789 17.5575 9.53601 17.5873 9.56413 17.619C9.56413 17.619 9.56614 17.6227 9.56815 17.6246C9.60833 17.6674 9.64649 17.7102 9.68867 17.753C9.69671 17.7623 9.70474 17.7716 9.71478 17.7791H9.79915C9.79111 17.7698 9.78308 17.7586 9.77505 17.7493V17.7474ZM9.2327 17.2299V17.2262L9.1162 17.3509L9.24274 17.2411L9.2327 17.2299ZM9.20659 11.7735L6.79616 10.2637L6.74393 10.2302L6.63546 10.1613L6.26185 9.92673L5.0044 9.13926L4.98833 9.12996L4.63681 8.91028L2.82297 7.77283L0.0911459 10.8129C-0.0293756 10.9246 -0.0313842 11.107 0.0911459 11.2206C0.211667 11.3341 0.408519 11.3341 0.529041 11.2206L0.533057 11.2168L2.78681 8.61428L8.73655 12.1514C8.79882 12.2165 8.88519 12.25 8.96956 12.25C9.04187 12.25 9.1162 12.2258 9.17445 12.1774C9.30501 12.0732 9.31706 11.8907 9.20257 11.7716L9.20659 11.7735Z" fill="#9C4322"/>
<path d="M9.69482 17.7598C9.69482 17.7598 9.70319 17.7716 9.70738 17.7775H9.70947C9.70947 17.7775 9.69692 17.7637 9.69482 17.7598Z" fill="#9C4322"/>
<path d="M9.69482 17.7598C9.69482 17.7598 9.70319 17.7716 9.70738 17.7775H9.70947C9.70947 17.7775 9.69692 17.7637 9.69482 17.7598Z" fill="#9C4322"/>
<path d="M9.69482 17.7598C9.69482 17.7598 9.70319 17.7716 9.70738 17.7775H9.70947C9.70947 17.7775 9.69692 17.7637 9.69482 17.7598Z" fill="#9C4322"/>
<path d="M10.6256 18.5913C10.6256 18.5913 10.609 18.5773 10.5986 18.5713C10.6028 18.5773 10.6069 18.5813 10.6132 18.5853C10.6173 18.5893 10.6214 18.5933 10.6277 18.5973C10.6277 18.5973 10.6277 18.5933 10.6277 18.5913H10.6256Z" fill="#9C4322"/>
<path d="M13.7202 12.5346L13.8749 12.21L14.2023 12.2827L14.2063 12.4805L13.7202 12.5346Z" fill="#9C4322"/>
<path d="M10.2028 18.2913C10.2028 18.2913 9.85128 17.9841 9.48168 17.5243C9.11208 17.0645 9.56203 17.5373 9.56203 17.5373L10.2651 18.3062L10.2048 18.2894L10.2028 18.2913Z" fill="#9C4322"/>
<path d="M7.60998 17.9277C7.59985 17.9392 7.58972 17.9506 7.57959 17.9621L7.60998 17.9277Z" fill="#9C4322"/>
<path d="M10.0886 16.46L9.58044 16.9514L9.49607 17.024L9.41572 17.0948L9.35345 17.1488L9.30926 17.1879L9.30324 17.1934L9.24699 17.2437L9.00997 17.4503L9.00595 17.4541L8.94971 17.5025L9.00193 17.4503V17.4485L9.15459 17.2921L9.2249 17.2176L9.28516 17.1581L9.33136 17.1097L9.46795 16.9682L10.0886 16.46Z" fill="#9C4322"/>
<path d="M13.7221 12.3374C13.7221 12.3374 13.3384 11.6952 13.5313 11.1162C13.6297 11.5239 13.7241 11.8683 14.0877 12.1978C14.4512 12.5273 13.7221 12.3374 13.7221 12.3374Z" fill="#9C4322"/>
<path d="M10.1229 18.1782H10.1108C10.1008 18.1782 10.0887 18.1782 10.0787 18.1782C10.0626 18.1782 10.0465 18.1782 10.0305 18.1782C10.0184 18.1782 10.0043 18.1782 9.9923 18.1763C9.87177 18.167 9.74523 18.1465 9.6227 18.1205C9.56444 18.1074 9.50619 18.0944 9.44995 18.0795C9.41781 18.0721 9.38567 18.0628 9.35353 18.0535C8.97389 17.9492 8.66455 17.8208 8.66455 17.8208L8.95179 17.508L9.00201 17.4521L9.01004 17.454L9.56043 17.6234H9.56846V17.6253L9.66488 17.6551L9.70706 17.6681C9.70706 17.6681 9.71309 17.6755 9.7171 17.683C9.72916 17.696 9.74723 17.7202 9.77134 17.75C9.77937 17.7593 9.78741 17.7705 9.79544 17.7798C9.79544 17.7798 9.79946 17.7835 9.79946 17.7854C9.79946 17.7854 9.80147 17.7872 9.80348 17.7891C9.8075 17.7947 9.81151 17.7984 9.81553 17.8021C9.85169 17.8468 9.89387 17.8989 9.93404 17.9511C9.93404 17.9511 9.93404 17.9511 9.93404 17.9529C9.93404 17.9529 9.93605 17.9548 9.93806 17.9566C10.0023 18.0348 10.0666 18.1149 10.1188 18.18L10.1229 18.1782Z" fill="#9C4322"/>
<path d="M18.8726 9.04662C18.9087 8.9796 18.977 8.92375 19.0513 8.89582C19.0895 8.88093 19.1277 8.86604 19.1678 8.85301L19.0815 8.7804L18.9047 8.63333L13.7022 4.3125L13.4752 4.49866L9.51006 7.78071L6.63361 10.1617L6.56934 10.2157C6.59947 10.2362 6.6296 10.2567 6.65973 10.279L6.74409 10.2306L7.10365 10.0165L9.50202 8.5961L13.1036 6.46454L13.5736 6.1853L13.6439 6.14434L16.8277 7.93895L18.5713 8.92188L18.7601 9.028L18.8525 9.08012C18.8585 9.06709 18.8625 9.05593 18.8706 9.04289L18.8726 9.04662Z" fill="#EFD8C4"/>
<path d="M19.015 8.92321C19.0954 8.88598 19.1837 8.86364 19.2741 8.84875C19.3605 8.83386 19.4489 8.82083 19.5373 8.82455C19.5734 8.82455 19.6096 8.83013 19.6457 8.83385L19.5212 8.7296L19.2802 8.52669L13.7623 3.88379L13.2661 4.28404L9.51792 7.30732L7.60364 8.85061L7.50522 8.93066L7.27221 9.11869L6.79213 9.5059L6.26384 9.93222L5.86211 10.2543L5.83398 10.2785C5.89224 10.3008 5.95049 10.325 6.00673 10.3511C6.14734 10.4162 6.27791 10.4944 6.39642 10.5856L6.79615 10.2673L7.10348 10.0197L9.50587 8.10038L13.7081 4.74387L13.7261 4.72897L18.6735 8.80593L18.8383 8.94183L18.9126 9.00326C18.9387 8.97162 18.9748 8.94555 19.013 8.9288L19.015 8.92321Z" fill="#9C4322"/>
<path d="M4.75129 9.4911L4.35156 9.31982C4.67496 8.67384 5.38001 8.25684 6.14733 8.25684C6.80216 8.25684 7.41281 8.55656 7.78241 9.05733L7.41883 9.28632C7.13159 8.89537 6.65553 8.66267 6.14733 8.66267C5.55075 8.66267 5.00238 8.98659 4.74928 9.48923L4.75129 9.4911Z" fill="#9C4322"/>
<path d="M22.6871 7.50235C22.6951 7.54889 22.7012 7.59916 22.7092 7.65314C22.7193 7.72202 22.7293 7.79648 22.7393 7.87653C22.7474 7.93052 22.7534 7.98823 22.7614 8.04594C22.7675 8.09807 22.7735 8.1502 22.7795 8.20418C22.8197 8.21721 22.8518 8.22094 22.894 8.2228C22.9141 8.2228 22.9322 8.2228 22.9523 8.22094C23.0045 8.16509 23.0647 8.11668 23.127 8.07387C23.1993 8.02546 23.2957 7.96775 23.3942 7.94728C23.3922 7.92308 23.3902 7.89888 23.3861 7.87468C23.3861 7.86164 23.3841 7.84861 23.3821 7.83558C23.36 7.78531 23.3379 7.73133 23.3178 7.67734C23.3118 7.66245 23.3058 7.64755 23.3018 7.63266C23.113 7.1021 23.0487 6.46729 23.0447 6.4375L22.7554 6.84892L22.6128 7.0537C22.6128 7.0537 22.6449 7.21566 22.6851 7.48373C22.6851 7.48932 22.6871 7.49677 22.6891 7.50235H22.6871Z" fill="#9C4322"/>
<path d="M23.4405 10.2646C23.4345 10.339 23.4285 10.406 23.4244 10.4675C23.4164 10.5457 23.4104 10.6127 23.4023 10.6704C23.3983 10.7095 23.3923 10.7449 23.3883 10.7765C23.3883 10.7821 23.3883 10.7858 23.3863 10.7914C23.3843 10.8175 23.3802 10.8379 23.3782 10.8566C23.3782 10.8696 23.3742 10.8808 23.3722 10.8919C23.3722 10.9012 23.3702 10.9087 23.3682 10.9124C23.3662 10.9161 23.3682 10.9198 23.3682 10.9198C23.3682 10.9198 23.3682 10.9217 23.3682 10.9236C23.3461 10.9589 23.1975 11.1823 22.9383 11.2866C22.9303 11.2903 22.9203 11.294 22.9102 11.2959C22.8359 11.322 22.7535 11.3387 22.6611 11.3387C22.6993 11.2158 22.7174 11.0781 22.7375 10.9385C22.7475 10.8584 22.7555 10.7821 22.7676 10.7039C22.7676 10.6909 22.7716 10.6797 22.7736 10.6685C22.7837 10.6015 22.7917 10.5326 22.7997 10.4656C22.8078 10.3986 22.8138 10.3297 22.8218 10.2627H23.4445L23.4405 10.2646Z" fill="#9C4322"/>
<path d="M24.7962 8.70421L24.7902 8.73027C24.7902 8.73027 24.6375 8.06008 23.8682 7.90743C23.6794 7.8702 23.5187 7.86275 23.3841 7.87392C23.2254 7.88881 23.1049 7.92791 23.0145 7.97072C22.9542 7.99865 22.908 8.03029 22.8759 8.05636C22.8317 8.09173 22.8096 8.11779 22.8096 8.11779C22.8096 8.11779 22.7935 8.09173 22.7594 8.04705C22.681 7.93908 22.5023 7.72126 22.2371 7.53883C22.1588 7.48484 22.0744 7.43271 21.98 7.38803C21.6546 7.23166 21.2388 7.15347 20.7426 7.30985C19.435 7.72499 19.6218 8.74703 19.6218 8.74703C19.6218 8.74703 19.5816 8.73585 19.5173 8.72841C19.4129 8.71538 19.2462 8.71351 19.0795 8.78053C18.9951 8.81404 18.9127 8.86431 18.8384 8.93877C18.8103 8.9667 18.7842 8.99834 18.7601 9.03185C18.7018 9.1119 18.6516 9.21429 18.6154 9.33902C18.3824 10.1414 19.2381 10.4653 19.5053 10.4653H20.3389C20.2003 10.4467 20.0597 10.4281 19.9191 10.415C19.5575 10.3834 19.1277 10.3573 18.8947 10.0595C18.8284 9.9757 18.7982 9.88076 18.7721 9.78209C18.744 9.67039 18.7018 9.55869 18.6978 9.44141C18.6898 9.19009 18.8967 8.97786 19.1337 8.88478C19.2622 8.83452 19.3928 8.82521 19.5314 8.81963C19.6017 8.81776 19.66 8.82521 19.6981 8.77308C19.8428 8.56644 19.7825 8.29837 19.895 8.08242C19.909 8.05636 19.9271 8.03774 19.9472 8.02471C20.0517 7.79015 20.2646 7.60957 20.5137 7.50904C20.7949 7.39548 21.1002 7.37687 21.4035 7.40107C21.6446 7.41968 21.9418 7.44761 22.1146 7.62819C22.1467 7.66169 22.1568 7.69707 22.1548 7.73244C22.2813 7.82552 22.3837 7.92604 22.4581 8.00982C22.4942 7.99306 22.5344 7.98934 22.5726 7.99865C22.6449 8.01354 22.6991 8.0545 22.7554 8.09546C22.8016 8.1271 22.8518 8.15316 22.9 8.18109C22.9984 8.09918 23.127 8.0396 23.2475 7.99678C23.4805 7.91487 23.7396 7.90557 23.9746 7.98748C24.0811 8.02471 24.1815 8.07684 24.2579 8.15502C24.3442 8.24252 24.3844 8.34864 24.4346 8.45475C24.527 8.65767 24.6857 8.73585 24.9127 8.76936C25.1778 8.80846 25.4149 8.89037 25.6017 9.07839C25.7724 9.24966 25.8728 9.447 25.8166 9.68342C25.7664 9.89379 25.6077 10.1135 25.3968 10.2103C25.2702 10.268 25.1316 10.294 24.991 10.3108C24.8464 10.3294 24.7098 10.3648 24.5672 10.3964C24.2759 10.4597 23.9666 10.4392 23.6693 10.4374C23.5629 10.4374 23.4544 10.4392 23.3439 10.4374C23.2776 10.4467 23.2113 10.456 23.145 10.4634H25.0654C25.0654 10.4634 25.8809 10.4485 25.9552 9.55124C26.0315 8.62602 24.7942 8.70048 24.7942 8.70048L24.7962 8.70421Z" fill="white"/>
<path d="M25.9129 8.83326C25.6237 8.56333 25.1757 8.50934 24.9387 8.50003C24.8262 8.25058 24.547 7.83171 23.9143 7.70698C23.6793 7.66044 23.4824 7.65671 23.3157 7.67719C23.1811 7.69395 23.0706 7.72559 22.9782 7.76283C22.934 7.78144 22.8939 7.80006 22.8577 7.82054C22.8336 7.79076 22.8075 7.76097 22.7814 7.73304C22.7613 7.71071 22.7392 7.68836 22.7171 7.66602C22.7131 7.6623 22.7091 7.65858 22.7051 7.65485C22.5122 7.46311 22.2551 7.27322 21.9478 7.15221C21.5882 7.01073 21.1564 6.96419 20.6703 7.1187C19.7081 7.42401 19.4208 8.07 19.3907 8.52051C19.3546 8.52051 19.3144 8.52237 19.2742 8.52796C19.1577 8.53913 19.0271 8.57077 18.9006 8.63593C18.8142 8.68061 18.7379 8.73646 18.6716 8.80534C18.6354 8.84257 18.6013 8.88353 18.5692 8.92821C18.4968 9.0306 18.4406 9.1516 18.4004 9.28936C18.2739 9.72498 18.4245 10.0303 18.5732 10.209C18.8383 10.5292 19.2742 10.6744 19.5012 10.6744H25.0693C25.4208 10.667 26.1018 10.4287 26.1721 9.57419C26.1962 9.27261 26.1078 9.02501 25.9089 8.83885L25.9129 8.83326ZM25.0673 10.2611H19.5052C19.4128 10.2611 19.1035 10.1699 18.9267 9.95583C18.7961 9.79945 18.764 9.61329 18.8303 9.38989C18.8584 9.28936 18.9006 9.20373 18.9508 9.13485C18.9669 9.11251 18.987 9.09017 19.0071 9.07155C19.0412 9.03805 19.0774 9.01012 19.1195 8.98778C19.1698 8.96172 19.222 8.94496 19.2722 8.93565C19.3184 8.92635 19.3646 8.92262 19.4048 8.92262C19.4972 8.92262 19.5635 8.93938 19.5635 8.93938C19.6257 8.95613 19.692 8.94682 19.7442 8.91332C19.7543 8.90773 19.7623 8.90214 19.7704 8.8947C19.8266 8.84816 19.8547 8.77742 19.8407 8.70854C19.8346 8.67316 19.698 7.85219 20.8169 7.49848C21.305 7.34396 21.7067 7.45194 22.006 7.62879C22.006 7.62879 22.6066 8.191 22.6207 8.21521C22.6568 8.27292 22.7191 8.31201 22.7914 8.31759C22.7914 8.31759 22.7954 8.31759 22.7975 8.31759C22.8718 8.32132 22.9401 8.29153 22.9843 8.23754C22.9843 8.23754 22.9863 8.23568 22.9903 8.23196C23.0003 8.22265 23.0184 8.2059 23.0506 8.18542C23.1148 8.1426 23.2293 8.08861 23.4081 8.07372C23.5206 8.06441 23.6572 8.07 23.8239 8.10164C24.4386 8.22265 24.5731 8.74763 24.5772 8.76811C24.6033 8.87794 24.7198 8.94869 24.8383 8.92448C24.8624 8.9189 24.8845 8.91145 24.9026 8.90028C25.0914 8.90587 25.4228 8.94682 25.6016 9.11623C25.7081 9.21676 25.7522 9.35266 25.7362 9.53323C25.6799 10.2146 25.1235 10.2555 25.0673 10.2574V10.2611Z" fill="#9C4322"/>
<path d="M12.2017 19.666C12.1575 19.653 12.1233 19.6492 12.0972 19.653C12.0028 19.6567 11.9908 19.72 11.8923 19.6958C11.8702 19.6902 11.8481 19.6809 11.818 19.6679C11.7678 19.6437 11.7196 19.6176 11.6694 19.5897C11.6694 19.5897 11.6613 19.5841 11.6553 19.5822C11.0708 19.2602 10.4702 18.7315 9.9921 18.173C9.90774 18.0762 9.8294 17.9775 9.75508 17.8807C9.72897 17.8472 9.70486 17.8137 9.67875 17.7802C9.65263 17.7429 9.62652 17.7076 9.60041 17.6703C9.60041 17.6703 9.60041 17.6685 9.5984 17.6666C9.58836 17.6536 9.57831 17.6387 9.56827 17.6238C9.56827 17.6238 9.56827 17.6201 9.56425 17.6182C9.51403 17.5456 9.46583 17.4711 9.42164 17.3985C9.37945 17.3297 9.34129 17.2608 9.30513 17.1956C9.30513 17.1956 9.30513 17.1938 9.30513 17.1919C9.2991 17.1826 9.29509 17.1751 9.29107 17.1658C9.29107 17.1658 9.29107 17.164 9.28906 17.1621C9.28906 17.1621 9.29107 17.164 9.29308 17.1658C9.29911 17.1733 9.30513 17.1807 9.31116 17.1882C9.31116 17.1882 9.31116 17.1882 9.31116 17.19C9.43369 17.3408 9.55823 17.4898 9.68678 17.635C9.68678 17.6368 9.68879 17.6405 9.69281 17.6424C9.73298 17.6889 9.77115 17.7336 9.81333 17.7783C10.0142 18.0017 10.2231 18.2214 10.4441 18.428C10.4782 18.4615 10.5124 18.4932 10.5485 18.5248C10.5626 18.5397 10.5786 18.5527 10.5927 18.5658C10.5947 18.5658 10.5987 18.5695 10.6007 18.5732C10.6048 18.5788 10.6108 18.5825 10.6148 18.5863C10.6188 18.59 10.6228 18.5937 10.6289 18.5974C11.0165 18.9437 11.4384 19.2564 11.9044 19.5152C12.0028 19.5692 12.1032 19.6213 12.2037 19.6716L12.2017 19.666Z" fill="#9C4322"/>
</svg>
