<svg width="348" height="63" viewBox="0 0 348 63" fill="none" xmlns="http://www.w3.org/2000/svg">
<path d="M133.699 17.0625C132.139 17.0625 130.866 18.2648 130.866 19.7394V40.5421H109.943V19.7394C109.943 18.2648 108.671 17.0625 107.11 17.0625C105.55 17.0625 104.222 18.2422 104.222 19.7394V40.5421H103.812C102.276 40.5421 100.979 41.7217 100.979 43.1112C100.979 44.5007 102.251 45.7371 103.812 45.7371H104.222V53.6657C104.222 55.1686 105.489 56.3426 107.11 56.3426C108.732 56.3426 109.943 55.1402 109.943 53.6657V45.7371H130.866V53.6657C130.866 55.1402 132.139 56.3426 133.699 56.3426C135.259 56.3426 136.587 55.1686 136.587 53.6657V19.7394C136.587 18.2365 135.321 17.0625 133.699 17.0625Z" fill="#9C4322"/>
<path d="M190.006 22.3145C191.597 22.3145 192.894 21.1348 192.894 19.6886C192.894 18.2424 191.572 17.0117 190.006 17.0117L164.218 17.0628C161.875 17.0628 160.59 18.2594 160.59 20.4259V40.5423H159.096C157.505 40.5423 156.208 41.6936 156.208 43.1115C156.208 44.5293 157.505 45.7373 159.096 45.7373H160.59V53.0307C160.59 55.1632 161.881 56.3428 164.218 56.3428H188.873C190.409 56.3428 191.707 55.1632 191.707 53.7737C191.707 52.3842 190.434 51.1478 188.873 51.1478H166.317V45.743H189.504C191.095 45.743 192.392 44.5633 192.392 43.1171C192.392 41.6709 191.095 40.548 189.504 40.548H166.317V22.3201H190.018L190.006 22.3145Z" fill="#9C4322"/>
<path d="M216.936 17.0625C215.315 17.0625 214.042 18.2422 214.042 19.7394V53.6657C214.042 55.1686 215.315 56.3426 216.936 56.3426C218.558 56.3426 219.77 55.1402 219.77 53.6657V19.7394C219.77 18.2648 218.497 17.0625 216.936 17.0625Z" fill="#9C4322"/>
<path d="M270.004 38.5578L275.524 29.4779C275.818 28.9391 275.818 28.4968 275.818 28.2359C275.818 26.7897 274.545 25.61 272.984 25.61C272.372 25.61 271.234 25.7858 270.426 27.0392L266.767 33.187L263.628 38.6542L257.876 48.4884L241.879 18.4641C241.384 17.5396 240.386 16.9668 239.279 16.9668C237.718 16.9668 236.445 18.1464 236.445 19.5927C236.445 20.1711 236.672 20.6022 236.788 20.8177L255.067 54.9595C255.581 56.0654 256.59 56.7289 257.778 56.7289C258.867 56.7289 259.742 56.2015 260.403 55.124L266.822 44.0817L270.004 38.5635V38.5578Z" fill="#9C4322"/>
<path d="M263.816 38.5578L258.297 29.4779C258.003 28.9391 258.003 28.4968 258.003 28.2359C258.003 26.7897 259.276 25.61 260.836 25.61C261.448 25.61 262.586 25.7858 263.394 27.0392L267.054 33.187L270.193 38.6542L275.945 48.4884L291.941 18.4641C292.437 17.5396 293.434 16.9668 294.542 16.9668C296.102 16.9668 297.375 18.1464 297.375 19.5927C297.375 20.1711 297.149 20.6022 297.033 20.8177L278.754 54.9595C278.24 56.0654 277.23 56.7289 276.043 56.7289C274.954 56.7289 274.079 56.2015 273.418 55.124L266.998 44.0817L263.816 38.5635V38.5578Z" fill="#9C4322"/>
<path d="M347.212 53.1834C347.175 52.9735 347.102 52.7693 346.998 52.5822L328.046 18.2986C327.452 17.1984 326.559 16.6426 325.39 16.6426C324.221 16.6426 323.328 17.1984 322.74 18.2816L310.379 40.5475H307.57C306.034 40.5475 304.737 41.7271 304.737 43.1166C304.737 44.5061 305.991 45.7255 307.534 45.7425L303.721 52.5879C303.605 52.7977 303.366 53.2344 303.366 53.8299C303.366 55.2761 304.639 56.4557 306.2 56.4557C307.356 56.4557 308.354 55.8716 308.819 54.9245L313.922 45.7482H336.797L341.9 54.9245C342.365 55.8603 343.357 56.4614 344.464 56.4614C346.025 56.4614 347.298 55.2818 347.298 53.8356C347.298 53.7221 347.285 53.6144 347.267 53.5066L347.212 53.189V53.1834ZM316.749 40.5475L325.329 24.9342L333.908 40.5475H316.743H316.749Z" fill="#9C4322"/>
<path d="M29.5348 54.8788L29.29 53.909L28.2987 52.5479L27.0381 53.8296L29.5348 54.8788Z" fill="#EFD8C4"/>
<path d="M15.1973 28.0702C15.1973 28.0702 18.8689 26.7374 20.9373 29.5107C23.1647 28.2006 23.1831 27.8773 23.1831 27.8773C23.1831 27.8773 21.8062 25.8697 20.9373 26.0285C20.0683 26.1873 15.5338 25.8527 15.1973 28.0702Z" fill="#EFD8C4"/>
<path d="M68.6814 24.969C68.816 25.0257 68.9384 25.1108 69.0302 25.2015C69.0608 25.2299 69.0914 25.2582 69.122 25.2923C69.1342 25.3036 69.1403 25.3093 69.1526 25.3206C69.1709 25.332 69.1893 25.3433 69.2077 25.3547C69.2077 25.3547 69.2199 25.3547 69.2199 25.3603C69.2321 25.3603 69.2505 25.366 69.2627 25.3717C69.275 25.3717 69.2811 25.3717 69.2933 25.3717C69.3056 25.3717 69.3178 25.366 69.33 25.3603C69.3484 25.349 69.3606 25.3433 69.3729 25.3376C69.4402 25.3036 69.5014 25.2696 69.5626 25.2299C69.74 25.1108 69.9053 24.986 70.1011 24.8896C70.1194 24.8783 70.1439 24.8726 70.1684 24.8669C70.15 24.7591 70.1378 24.6457 70.1195 24.538C70.0889 24.3225 70.046 24.1126 70.0093 23.9028C70.0032 23.8687 69.9971 23.8404 69.9909 23.8064C69.8135 22.8819 69.5809 21.9858 69.3239 21.1238C67.1882 14.1083 62.5926 9.30461 60.2305 8.00586C60.4936 8.30077 60.7506 8.59569 61.0015 8.89627C61.0015 8.89627 61.0015 8.90194 61.0138 8.90761C64.1041 12.6394 66.1847 17.1368 66.8823 22.0426C66.919 22.2808 66.9496 22.519 66.9741 22.7628C66.9863 22.8762 66.9985 22.9954 67.0108 23.1088C67.0965 23.1088 67.1821 23.1315 67.2494 23.1655C67.3412 23.2165 67.4575 23.33 67.4759 23.432C67.5003 23.5625 67.5187 23.6986 67.5309 23.829C68.0694 24.2317 68.4611 24.6741 68.6875 24.9633L68.6814 24.969Z" fill="#EFD8C4"/>
<path d="M26.3888 51.0075L24.0757 53.1173C23.7024 52.9074 23.3291 52.6976 22.9558 52.465C14.6273 46.9354 8.53236 37.0389 9.52371 32.9668C11.898 41.1166 18.1949 47.7578 26.3888 51.0075Z" fill="#EFD8C4"/>
<path d="M55.1315 53.0806C52.5307 54.0845 49.52 55.0997 46.2461 55.7972C46.1604 55.7859 46.0992 55.7746 46.0625 55.7689L44.0859 52.5362C44.5755 52.4341 45.065 52.3263 45.5424 52.2016C48.4062 51.47 51.0866 50.347 53.5282 48.8895C53.6384 48.8271 53.7485 48.759 53.8587 48.691C53.8892 48.6683 53.926 48.6513 53.9566 48.6286C54.1218 48.5265 54.287 48.4244 54.4461 48.3167C54.4706 48.2997 54.5012 48.2826 54.5257 48.2656V48.6286L55.1315 53.0806Z" fill="#EFD8C4"/>
<path d="M70.3152 31.5225C70.2907 31.7266 70.2724 31.9365 70.2418 32.1406C70.2173 32.3448 70.1867 32.5547 70.1561 32.7588C70.1377 32.8722 70.1194 32.9857 70.101 33.0991C70.0398 33.4564 69.9725 33.8194 69.8991 34.188C69.8991 34.188 69.8991 34.188 69.8991 34.1937C69.8685 34.3525 69.8318 34.5113 69.7951 34.6701C69.7216 34.9933 69.6421 35.3223 69.5564 35.6512C68.3325 40.3074 65.7624 45.3323 61.2279 50.5557C60.9158 50.6861 60.5792 50.8279 60.2182 50.9753L59.3003 48.6217L59.5818 48.6784L58.9943 47.8447L58.0947 45.5365C58.2661 45.3833 58.4374 45.2302 58.6026 45.0714C62.1764 41.714 64.8261 37.4888 66.1601 32.7645C66.2213 32.5603 66.2764 32.3505 66.3253 32.1463C66.3804 31.9421 66.4294 31.7323 66.4783 31.5281H70.3152V31.5225Z" fill="#EFD8C4"/>
<path d="M41.2227 34.1248C41.2227 34.1248 43.1809 36.9152 46.5465 35.9227C48.8291 35.2478 41.6388 38.5655 41.6388 38.5655L41.2288 34.1191L41.2227 34.1248Z" fill="#EFD8C4"/>
<path d="M64.0366 59.6025V60.7878H37.9862C37.9862 60.7878 37.5212 60.527 36.8603 60.1356C36.6767 60.0279 36.4748 59.9088 36.2606 59.7783C34.6389 58.8029 32.4421 57.402 32.3809 56.9086C32.3809 56.9086 32.3809 56.8973 32.3809 56.8916C32.3809 56.8916 34.9816 58.8369 42.0434 58.8369C45.25 58.8369 58.0763 59.353 62.519 59.5401C63.4736 59.5798 64.0427 59.6025 64.0427 59.6025H64.0366Z" fill="#EFD8C4"/>
<path d="M1.61133 34.4406L8.11015 29.5462L26.6275 37.2819L8.41612 25.2529L1.61133 34.4406Z" fill="#EFD8C4"/>
<path d="M28.1271 52.7505V52.7392L27.7722 53.1192L28.1577 52.7846L28.1271 52.7505ZM28.1271 52.7505V52.7392L27.7722 53.1192L28.1577 52.7846L28.1271 52.7505ZM70.1982 19.8735C68.4908 14.6388 65.2353 9.9315 60.7498 6.27912C61.0496 6.05794 61.3556 5.84243 61.6616 5.62124C61.8146 5.50781 61.8574 5.36037 61.8023 5.19023C61.7289 4.94636 61.3189 4.74785 61.0435 4.82725C60.5172 4.98038 59.991 5.12783 59.4586 5.28663C59.1465 5.05977 58.8283 4.83292 58.5101 4.61173C58.4305 4.53801 58.3387 4.46996 58.2531 4.40757C58.2163 4.37921 58.1857 4.34518 58.1429 4.31115C57.9287 4.14101 57.7145 3.97087 57.4881 3.80073C57.4208 3.74969 57.4086 3.72133 57.4881 3.66462C57.7329 3.48881 57.9716 3.30732 58.2163 3.12583C58.969 2.55869 59.7217 1.99156 60.4744 1.41875C60.6702 1.2713 60.7131 1.02176 60.5601 0.851614C60.505 0.7949 60.4316 0.755195 60.3826 0.704152C60.2113 0.539682 60.0216 0.522666 59.8013 0.596394C58.9017 0.919664 57.9899 1.23159 57.0904 1.57187C56.8395 1.66829 56.6559 1.67396 56.4417 1.50382C56.2275 1.33368 55.9216 1.37338 55.7196 1.56054C55.5666 1.70232 55.4504 1.87813 55.3157 2.03693C55.2851 2.07663 55.2668 2.12768 55.2484 2.17872C55.2199 2.2619 55.1689 2.27701 55.0954 2.22408C54.5508 1.86678 54.0123 1.50382 53.4677 1.14652C53.2719 1.02175 53.0699 0.919671 52.8435 0.851614C52.7395 0.800571 52.6293 0.777878 52.513 0.755192C52.5069 0.755192 52.5008 0.755192 52.4947 0.755192C52.103 0.675793 51.7175 0.687141 51.3259 0.760869C51.0444 0.817583 50.9342 0.976386 50.9709 1.24294C51.0383 1.708 51.2341 2.12767 51.5462 2.49631C51.8032 2.7969 52.1459 3.00673 52.4824 3.21658C52.9108 3.4888 53.3575 3.74969 53.7798 4.03893C53.8532 4.08998 53.8593 4.11833 53.7798 4.16371C53.7063 4.20341 53.6574 4.26578 53.6084 4.33384C53.535 4.44727 53.4554 4.5607 53.3881 4.67413C53.3453 4.73084 53.3086 4.79323 53.3024 4.85562C53.2718 4.918 53.2596 4.98038 53.2596 5.04277C53.2596 5.15052 53.3024 5.24693 53.3698 5.34335C53.4493 5.45678 53.5717 5.51916 53.688 5.58721C53.7492 5.62691 53.7736 5.66662 53.7736 5.73468C53.7553 6.71583 53.7369 7.70266 53.7186 8.68381C53.7186 8.82559 53.7492 8.94468 53.8532 9.04677C53.9205 9.1205 54.0245 9.14318 54.1102 9.18855C54.3795 9.35302 54.6916 9.26228 54.8017 8.97304C55.022 8.37754 55.2423 7.77637 55.4687 7.18087C55.6645 6.65343 55.8604 6.13167 56.0501 5.60423C56.0745 5.54184 56.0868 5.51917 56.1602 5.56454C56.8456 5.93885 57.5371 6.29614 58.2531 6.61373C58.3204 6.64209 58.3448 6.67612 58.351 6.75552C58.3754 7.23759 58.4183 7.72533 58.4183 8.21307C58.4183 8.50231 58.5713 8.67814 58.8222 8.80858C59.018 8.91634 59.3423 8.85394 59.3851 8.68947C59.4219 8.55902 59.4953 8.45128 59.5381 8.33218C59.6054 8.13936 59.6666 7.95786 59.734 7.7707C60.1746 8.13367 60.6029 8.51366 61.019 8.90498C61.019 8.90498 61.0252 8.90499 61.0313 8.91634C65.1802 12.7899 67.9891 17.7013 69.1273 23.0665C69.1273 23.0835 69.1334 23.1062 69.1395 23.1232C69.1823 23.282 69.2068 23.4521 69.2435 23.6166C69.2558 23.679 69.268 23.747 69.2803 23.8094C69.3353 23.8094 69.3843 23.8151 69.4332 23.8208C69.6352 23.8321 69.8249 23.8321 70.0146 23.8208C70.4062 23.7924 70.755 24.0136 71.0059 23.8321C71.0488 23.7981 71.165 23.7981 71.2017 23.7584C70.9814 22.556 70.6082 21.0361 70.2288 19.8791L70.1982 19.8735ZM28.1271 52.7505V52.7392L27.7722 53.1192L28.1577 52.7846L28.1271 52.7505ZM40.8494 18.5407L40.1579 19.5956C40.0845 19.709 40.0049 19.8281 39.9254 19.9529L41.3573 19.1022C41.0575 18.7675 40.8739 18.5634 40.8494 18.535V18.5407ZM29.4489 54.0436L29.5775 54.0833C29.5775 54.0833 29.5407 54.0323 29.5163 54.0039C29.5101 53.9982 29.504 53.9869 29.4979 53.9812C29.1307 53.5048 28.7942 53.0114 28.4882 52.5067C28.4882 52.5067 28.4882 52.5067 28.4882 52.501L28.3475 52.6201L28.3291 52.6314L28.1516 52.7846V52.7959L28.3291 53.0057C28.4943 53.2099 28.6657 53.4141 28.8431 53.6126C28.8554 53.6239 28.8676 53.6409 28.8737 53.6523C28.9594 53.7487 29.0451 53.8394 29.1307 53.9358C29.1307 53.9358 29.1369 53.9472 29.143 53.9529C29.2654 54.0833 29.3816 54.2137 29.5101 54.3442C29.5346 54.3725 29.5591 54.4009 29.5897 54.4236H29.7916L29.4489 54.0436ZM28.1271 52.7505V52.7392L27.7722 53.1192L28.1577 52.7846L28.1271 52.7505ZM28.1271 52.7505V52.7392L27.7722 53.1192L28.1577 52.7846L28.1271 52.7505ZM28.1271 52.7505V52.7392L27.7722 53.1192L28.1577 52.7846L28.1271 52.7505ZM70.0941 33.1048C70.0452 33.1048 69.9962 33.1048 69.9473 33.1048C69.7392 33.1048 69.5373 33.1105 69.3292 33.1162C69.3047 33.2693 69.2803 33.4224 69.2558 33.5755C69.1885 33.9952 69.1089 34.3979 69.0232 34.8006C68.9865 34.965 68.9559 35.1295 68.9131 35.2883C67.5974 41.0164 64.6234 45.8598 60.3948 48.9223L60.2786 48.6218H59.6299C59.3117 47.4308 58.9629 46.2454 58.5896 45.0658C57.3045 40.9711 55.7319 36.9444 54.098 32.963L50.2427 42.1791L50.1632 42.4172C51.1974 42.6668 52.2621 42.9107 53.3024 43.1432C53.6329 44.873 53.9939 46.6027 54.4407 48.3155C54.4651 48.4176 54.4957 48.5253 54.5202 48.6274C54.306 48.6274 54.1163 48.6274 53.9511 48.6274C53.7369 48.6274 53.5656 48.6274 53.4616 48.6274C53.4677 48.6671 53.486 48.7579 53.5166 48.8883C53.639 49.4951 53.945 50.9981 54.251 52.5123C51.0872 53.9302 48.8475 54.1287 47.0606 54.1287C47.0423 54.1287 47.0239 54.1287 47.0056 54.1287C46.9811 54.1287 46.8097 54.0946 46.7914 54.0946C46.4671 53.6069 45.592 52.2855 45.592 52.2855C45.5675 52.2571 45.5491 52.2231 45.5247 52.2004C44.619 50.947 43.2421 49.9829 41.6939 49.5122C40.7882 49.2456 39.8581 49.0131 38.9279 48.8259L40.262 42.7519L40.3048 42.5477L40.2436 42.3492L39.4297 39.5872C39.8275 39.4625 40.2252 39.3377 40.3109 39.3093C40.3354 39.3093 40.8188 39.0825 41.4675 38.9464L42.8505 40.4039C42.1957 40.9484 41.7796 41.7367 41.7796 42.6157C41.7796 44.2548 43.2176 45.5876 44.9862 45.5876C46.7547 45.5876 48.1927 44.2548 48.1927 42.6157C48.1927 41.4815 47.5074 40.5003 46.5038 39.9956L48.1683 39.0768C49.4227 38.3792 49.6859 35.8271 49.4594 34.2334L49.129 33.9612C48.9454 33.8364 48.768 33.706 48.768 33.706C48.2356 33.3544 41.596 28.6528 41.3084 28.477C41.033 28.9931 40.2926 30.4733 39.9009 31.2333V31.2446L39.7785 31.6246C39.7785 31.6246 37.3124 32.7078 34.473 34.1313C32.2394 35.2486 29.7794 36.5871 28.1088 38.4529C28.1088 38.4529 28.1088 38.453 28.1088 38.4586C25.5631 41.663 24.5718 45.4401 25.7161 49.2286C25.4713 49.5065 25.5448 49.4271 25.4162 49.5689L24.7676 50.3062L23.4152 51.8431C21.9343 51.0548 21.1143 50.4536 21.0959 50.4366C16.1208 46.8239 12.5226 41.8955 10.7725 36.3432C10.7725 36.3432 10.7725 36.3432 10.7725 36.3375C10.4787 35.4131 10.2401 34.4716 10.0504 33.5132C9.9586 33.0368 9.46292 32.7192 8.94889 32.8042C8.43486 32.8893 8.09217 33.343 8.18396 33.8194C9.57919 40.937 13.7526 47.3287 19.921 51.8034C19.9577 51.8374 20.7533 52.4273 22.2036 53.2156L22.0322 53.4141L16.0535 60.4012H14.848H14.0708C13.7894 60.4126 13.5017 60.4012 13.2141 60.3899H13.2019C13.0061 60.3899 12.8041 60.3786 12.6022 60.3899C12.3329 60.3956 12.0637 60.4239 11.7944 60.492C10.2829 60.7245 8.76531 60.9684 7.25993 61.2803C8.76531 61.5979 10.2829 61.8418 11.7944 62.0743C12.5532 62.2615 13.312 62.131 14.0647 62.1594H16.7817L17.0877 61.8134L18.8746 59.7774L19.3458 59.2443C19.5049 59.0628 19.6701 58.8756 19.8353 58.6885L22.1668 56.0343C22.4728 55.6883 22.7849 55.3367 23.0909 54.9794C23.1215 54.9454 23.1521 54.9113 23.1827 54.8773L24.688 53.1645C25.3979 52.3535 26.1077 51.5482 26.7992 50.7655L27.3622 50.119L27.5458 49.9092L27.6437 49.7957C29.7243 47.3514 35.3848 40.0126 35.9539 38.9634C34.9136 39.7233 33.9039 40.506 32.9125 41.3113C32.423 41.714 31.8784 42.0826 31.5357 42.5987C30.9788 43.2339 28.5249 46.0186 26.8604 47.9128C26.9155 47.8504 26.8176 47.4534 26.8115 47.3627C26.7931 47.1358 26.787 46.909 26.7809 46.6821C26.7686 46.2284 26.7809 45.7747 26.8176 45.3267C27.0624 42.3662 28.6228 39.4908 31.2052 37.6816C32.5821 36.7175 34.1915 36.0596 35.703 35.311C37.4348 34.4546 39.1666 33.5982 40.8923 32.7419C40.9473 32.7135 41.0024 32.6851 41.0636 32.6568L41.339 32.5207L41.4736 32.2598C41.4736 32.2598 41.749 31.721 42.0244 31.1822L46.9138 34.6077L45.8857 36.0426L45.696 36.0993L42.5812 37.0181C42.5629 37.0181 42.5445 37.0294 42.5323 37.0294L42.3609 37.0805C42.2936 37.2506 42.0917 37.2279 41.8836 37.1996C41.8591 37.1996 41.8285 37.1996 41.8041 37.1939C42.0182 37.1485 42.0794 37.1372 42.2691 37.0975C42.2691 37.0975 42.2814 37.0975 42.2875 37.0975C42.312 37.0975 42.3303 37.0861 42.3609 37.0805H42.3487L41.4736 36.882L41.5899 37.1599C41.5899 37.1599 41.6817 37.1882 41.6817 37.1939C41.7184 37.1769 41.5348 37.1939 41.5776 37.1996C41.5409 37.2052 41.6266 37.1485 41.5899 37.1599L41.6878 37.1656C41.6755 37.1656 41.5042 37.1996 41.5042 37.1996C41.5042 37.1996 37.6796 38.2658 37.1349 38.4359C37.1349 38.4359 37.1349 38.4416 37.1349 38.4473C37.2512 38.8273 37.802 40.6988 38.1446 41.8841L28.8431 51.9452L28.6106 52.2004L28.5922 52.2231L28.4331 52.3932C28.4331 52.3932 28.4331 52.3932 28.4331 52.3876L28.2924 52.535L28.1149 52.7165L28.1271 52.7392L28.2985 52.552L28.4086 52.4273C28.4576 52.4726 28.4392 52.4556 28.4943 52.501L28.684 52.3422L28.9349 52.1267L29.1919 51.9055L37.9917 44.3455L37.0126 48.8089L36.829 50.2211C37.9366 50.4253 39.1115 50.6578 40.1885 50.9357C40.9412 51.1285 41.749 51.3554 42.4038 51.7694C43.0463 52.155 43.6032 52.6711 44.0193 53.2666L45.4084 55.3651L45.6348 55.711C45.6348 55.711 56.8762 57.4635 57.1944 57.4918C57.0842 56.9701 56.1908 52.518 55.7563 50.3912H58.9629C59.3056 51.2816 61.7228 57.5088 62.5122 59.5505C62.5489 59.6413 62.5795 59.7207 62.604 59.7887C59.4157 59.8681 54.2142 60.0213 51.8215 60.0496C51.485 60.061 51.1545 60.078 50.8241 60.0893L40.3354 59.9872C39.9193 59.9872 39.497 59.9419 39.0932 59.8625C36.2782 59.3067 34.0018 58.0646 32.374 56.8963C32.374 56.8963 32.3251 56.8566 32.2945 56.8396C32.2945 56.8396 32.2761 56.8226 32.27 56.8169C32.0252 56.6354 31.7927 56.4596 31.5785 56.2838C30.9849 55.7053 30.4219 55.1098 29.914 54.486C29.9018 54.469 29.8895 54.4576 29.8773 54.4463C29.8773 54.4463 29.8773 54.4406 29.8651 54.4349C29.8651 54.4349 29.8651 54.4236 29.8528 54.4179C29.8283 54.3896 29.8039 54.3555 29.7794 54.3272C29.706 54.2364 29.6509 54.1684 29.6142 54.123C29.5958 54.1003 29.5897 54.0833 29.5836 54.0833C29.5836 54.0833 29.5469 54.0323 29.5224 54.0039C29.5163 53.9982 29.5101 53.9869 29.504 53.9812C29.1369 53.5048 28.8003 53.0114 28.4943 52.5067C28.4943 52.5067 28.4943 52.5067 28.4943 52.501L28.3536 52.6201L28.3352 52.6314L28.1577 52.7846V52.7959L28.3352 53.0057C28.5004 53.2099 28.6718 53.4141 28.8492 53.6126C28.8615 53.6239 28.8737 53.6409 28.8798 53.6523C28.9655 53.7487 29.0512 53.8394 29.1369 53.9358C29.1369 53.9358 29.143 53.9472 29.1491 53.9529C29.2715 54.0833 29.3878 54.2137 29.5163 54.3442C29.5407 54.3725 29.5652 54.4009 29.5958 54.4236C29.657 54.486 29.7182 54.5484 29.7855 54.6107C30.067 54.9057 30.3607 55.1892 30.6606 55.4671C30.7218 55.5295 30.7769 55.5806 30.8381 55.6373C30.9788 55.7734 31.1257 55.9038 31.2664 56.0343C31.1012 55.8925 30.9421 55.762 30.8013 55.6373C30.7891 55.6259 30.783 55.6203 30.7769 55.6089C30.324 55.2006 29.9813 54.8603 29.7733 54.6334C29.6876 54.5427 29.6264 54.4746 29.5836 54.4236C29.5652 54.4009 29.5469 54.3839 29.5407 54.3726C29.553 54.3896 29.5652 54.4066 29.5775 54.4236C29.6325 54.4973 29.6876 54.571 29.7427 54.6448C29.7427 54.6504 29.7549 54.6561 29.761 54.6675C30.0119 54.9964 30.2812 55.3197 30.5627 55.6373C31.6519 56.8453 32.9248 57.9285 34.0446 58.7792L34.2405 58.9267C34.2955 58.9721 34.3506 59.0117 34.4118 59.0571C34.7545 59.3123 35.0788 59.5392 35.3664 59.7434C35.4154 59.7774 35.4643 59.8114 35.5133 59.8454C35.5684 59.8851 35.6173 59.9192 35.6724 59.9532H35.5623L34.3751 59.9419L20.9858 59.8114L18.8746 61.8248H47.2748C48.8108 61.8645 50.3529 61.8871 51.8889 61.8475C52.0602 61.8418 52.256 61.8304 52.4396 61.8248H65.4617L65.0089 60.7699C64.9355 60.5714 64.8437 60.3389 64.8437 60.3389L61.0863 50.6578C61.1414 50.6351 61.1965 50.6067 61.2393 50.5727C66.5265 46.909 70.0697 40.7499 71.1956 33.5472V33.5358C71.1956 33.5302 71.1956 33.5188 71.1956 33.5132C71.1956 33.4962 71.2018 33.4791 71.2079 33.4508C71.2079 33.4167 71.2201 33.3827 71.2262 33.3487C71.2323 33.292 71.2446 33.2296 71.2507 33.1502C71.2507 33.1332 71.2507 33.1218 71.2568 33.1048C70.8713 33.1048 70.4858 33.1162 70.1003 33.1218L70.0941 33.1048ZM52.7027 55.0134C53.3086 54.8206 53.9389 54.5881 54.612 54.2988C54.6854 54.6788 54.7589 55.0304 54.8262 55.3424C54.3244 55.263 53.6757 55.1609 52.7027 55.0134ZM59.2934 48.6274C58.3387 48.6274 56.1663 48.6274 54.7283 48.6274C54.7772 46.4666 54.6977 44.3058 54.5753 42.1564C53.8226 41.9012 53.0699 41.6573 52.3111 41.4134C52.8741 40.092 53.4126 38.7592 53.945 37.4207C55.4748 40.954 57.1087 44.4533 58.9935 47.8448C59.1343 48.1057 59.2811 48.3609 59.428 48.6218H59.2995L59.2934 48.6274ZM28.1271 52.7505V52.7392L27.7722 53.1192L28.1577 52.7846L28.1271 52.7505ZM29.4489 54.0436L29.5775 54.0833C29.5775 54.0833 29.5407 54.0323 29.5163 54.0039C29.5101 53.9982 29.504 53.9869 29.4979 53.9812C29.1307 53.5048 28.7942 53.0114 28.4882 52.5067C28.4882 52.5067 28.4882 52.5067 28.4882 52.501L28.3475 52.6201L28.3291 52.6314L28.1516 52.7846V52.7959L28.3291 53.0057C28.4943 53.2099 28.6657 53.4141 28.8431 53.6126C28.8554 53.6239 28.8676 53.6409 28.8737 53.6523C28.9594 53.7487 29.0451 53.8394 29.1307 53.9358C29.1307 53.9358 29.1369 53.9472 29.143 53.9529C29.2654 54.0833 29.3816 54.2137 29.5101 54.3442C29.5346 54.3725 29.5591 54.4009 29.5897 54.4236H29.7916L29.4489 54.0436ZM28.1271 52.7505V52.7392L27.7722 53.1192L28.1577 52.7846L28.1271 52.7505ZM53.4677 48.6274C53.4738 48.6671 53.4921 48.7579 53.5227 48.8883C53.6329 48.8259 53.743 48.7579 53.8532 48.6898C53.8838 48.6671 53.9205 48.6501 53.9511 48.6274C53.7369 48.6274 53.5656 48.6274 53.4616 48.6274H53.4677ZM28.1271 52.7505V52.7392L27.7722 53.1192L28.1577 52.7846L28.1271 52.7505ZM29.7794 54.3272C29.706 54.2364 29.6509 54.1684 29.6142 54.123C29.5958 54.1003 29.5897 54.0833 29.5836 54.0833C29.5836 54.0833 29.5469 54.0323 29.5224 54.0039C29.5163 53.9982 29.5101 53.9869 29.504 53.9812C29.1369 53.5048 28.8003 53.0114 28.4943 52.5067C28.4943 52.5067 28.4943 52.5067 28.4943 52.501L28.3536 52.6201L28.3352 52.6314L28.1577 52.7846V52.7959L28.3352 53.0057C28.5004 53.2099 28.6718 53.4141 28.8492 53.6126C28.8615 53.6239 28.8737 53.6409 28.8798 53.6523C28.9655 53.7487 29.0512 53.8394 29.1369 53.9358C29.1369 53.9358 29.143 53.9472 29.1491 53.9529C29.2715 54.0833 29.3878 54.2137 29.5163 54.3442C29.5407 54.3725 29.5652 54.4009 29.5958 54.4236H29.8528C29.8283 54.3952 29.8039 54.3612 29.7794 54.3329V54.3272ZM28.1271 52.7505V52.7392L27.7722 53.1192L28.1577 52.7846L28.1271 52.7505ZM28.0476 36.1277L20.7043 31.5282L20.5452 31.4261L20.2147 31.2162L19.0765 30.5017L15.2458 28.1027L15.1968 28.0743L14.1259 27.4051L8.60008 23.9399L0.277673 33.2012C-0.0894918 33.5415 -0.0956112 34.0973 0.277673 34.4433C0.644839 34.7892 1.24454 34.7892 1.61171 34.4433L1.62394 34.4319L8.48993 26.5033L26.6157 37.279C26.8054 37.4775 27.0685 37.5795 27.3255 37.5795C27.5458 37.5795 27.7722 37.5058 27.9497 37.3584C28.3475 37.0408 28.3842 36.485 28.0354 36.122L28.0476 36.1277Z" fill="#9C4322"/>
<path d="M29.5352 54.3672C29.5352 54.3672 29.5606 54.4038 29.5734 54.4221H29.5798C29.5798 54.4221 29.5415 54.3794 29.5352 54.3672Z" fill="#9C4322"/>
<path d="M29.5352 54.3672C29.5352 54.3672 29.5606 54.4038 29.5734 54.4221H29.5798C29.5798 54.4221 29.5415 54.3794 29.5352 54.3672Z" fill="#9C4322"/>
<path d="M29.5352 54.3672C29.5352 54.3672 29.5606 54.4038 29.5734 54.4221H29.5798C29.5798 54.4221 29.5415 54.3794 29.5352 54.3672Z" fill="#9C4322"/>
<path d="M32.3712 56.8961C32.3712 56.8961 32.3207 56.854 32.2891 56.8359C32.3017 56.854 32.3143 56.866 32.3333 56.8781C32.3459 56.8901 32.3586 56.9022 32.3775 56.9142C32.3775 56.9142 32.3775 56.9022 32.3775 56.8961H32.3712Z" fill="#9C4322"/>
<path d="M41.7988 38.4451L42.27 37.4561L43.2675 37.6778L43.2797 38.2803L41.7988 38.4451Z" fill="#9C4322"/>
<path d="M31.0823 55.9842C31.0823 55.9842 30.0114 55.0485 28.8854 53.6476C27.7594 52.2468 29.1302 53.6873 29.1302 53.6873L31.272 56.0296L31.0884 55.9786L31.0823 55.9842Z" fill="#9C4322"/>
<path d="M23.1834 54.877C23.1526 54.9119 23.1217 54.9468 23.0908 54.9817L23.1834 54.877Z" fill="#9C4322"/>
<path d="M30.7353 50.4043L29.1871 51.9016L28.9301 52.1227L28.6853 52.3382L28.4956 52.5027L28.361 52.6218L28.3426 52.6388L28.1713 52.792L27.4492 53.4215L27.437 53.4328L27.2656 53.5803L27.4247 53.4215V53.4158L27.8898 52.9394L28.104 52.7126L28.2876 52.5311L28.4283 52.3836L28.8444 51.9526L30.7353 50.4043Z" fill="#9C4322"/>
<path d="M41.8041 37.8454C41.8041 37.8454 40.6353 35.8888 41.2227 34.125C41.5226 35.367 41.8102 36.4162 42.9178 37.4201C44.0254 38.4239 41.8041 37.8454 41.8041 37.8454Z" fill="#9C4322"/>
<path d="M30.8392 55.6386H30.8025C30.7719 55.6386 30.7352 55.6386 30.7046 55.6386C30.6556 55.6386 30.6066 55.6386 30.5577 55.6386C30.521 55.6386 30.4781 55.6386 30.4414 55.6329C30.0743 55.6046 29.6887 55.5422 29.3154 55.4628C29.138 55.4231 28.9605 55.3834 28.7892 55.338C28.6913 55.3153 28.5934 55.287 28.4954 55.2586C27.3389 54.941 26.3965 54.5497 26.3965 54.5497L27.2716 53.5969L27.4245 53.4268L27.449 53.4324L29.1257 53.9485H29.1502V53.9542L29.444 54.0449L29.5725 54.0846C29.5725 54.0846 29.5908 54.1073 29.6031 54.13C29.6398 54.1697 29.6948 54.2434 29.7683 54.3342C29.7928 54.3625 29.8172 54.3966 29.8417 54.4249C29.8417 54.4249 29.854 54.4363 29.854 54.4419C29.854 54.4419 29.8601 54.4476 29.8662 54.4533C29.8784 54.4703 29.8907 54.4816 29.9029 54.493C30.0131 54.6291 30.1416 54.7879 30.264 54.9467C30.264 54.9467 30.264 54.9467 30.264 54.9524C30.264 54.9524 30.2701 54.958 30.2762 54.9637C30.472 55.2019 30.6678 55.4458 30.8269 55.6443L30.8392 55.6386Z" fill="#9C4322"/>
<path d="M57.4951 27.8188C57.6053 27.6147 57.8133 27.4445 58.0397 27.3595C58.156 27.3141 58.2723 27.2687 58.3947 27.229L58.1315 27.0078L57.593 26.5598L41.7437 13.3965L41.0522 13.9636L28.9725 23.9623L20.2095 31.216L20.0137 31.3805C20.1055 31.4429 20.1973 31.5052 20.289 31.5733L20.5461 31.4258L21.6414 30.7736L28.948 26.4463L39.9201 19.9526L41.3521 19.1019L41.5663 18.9771L51.2655 24.4443L56.5772 27.4388L57.1524 27.7621L57.4339 27.9209C57.4523 27.8812 57.4645 27.8472 57.489 27.8075L57.4951 27.8188Z" fill="#EFD8C4"/>
<path d="M57.9291 27.4443C58.1738 27.3308 58.4431 27.2628 58.7185 27.2174C58.9816 27.172 59.2509 27.1323 59.5201 27.1437C59.6303 27.1437 59.7404 27.1607 59.8506 27.172L59.4712 26.8544L58.7368 26.2363L41.9268 12.0918L40.4153 13.3112L28.9965 22.5215L23.1646 27.2231L22.8648 27.467L22.1549 28.0398L20.6924 29.2194L19.083 30.5182L17.8591 31.4993L17.7734 31.573C17.9509 31.6411 18.1284 31.7148 18.2997 31.7942C18.7281 31.9927 19.1258 32.2309 19.4869 32.5088L20.7046 31.539L21.6409 30.7847L28.9597 24.9375L41.7616 14.712L41.8166 14.6666L56.8888 27.087L57.3906 27.501L57.617 27.6881C57.6965 27.5917 57.8067 27.5123 57.9229 27.4613L57.9291 27.4443Z" fill="#9C4322"/>
<path d="M14.4746 29.1752L13.2568 28.6534C14.2421 26.6854 16.39 25.415 18.7276 25.415C20.7225 25.415 22.5828 26.3281 23.7088 27.8537L22.6012 28.5513C21.7261 27.3603 20.2758 26.6514 18.7276 26.6514C16.9101 26.6514 15.2395 27.6382 14.4685 29.1695L14.4746 29.1752Z" fill="#9C4322"/>
<path d="M69.1161 23.1181C69.1405 23.2598 69.1589 23.413 69.1834 23.5774C69.214 23.7873 69.2446 24.0141 69.2752 24.258C69.2997 24.4225 69.318 24.5983 69.3425 24.7741C69.3608 24.9329 69.3792 25.0917 69.3976 25.2562C69.5199 25.2959 69.6179 25.3072 69.7464 25.3129C69.8076 25.3129 69.8626 25.3129 69.9238 25.3072C70.0829 25.1371 70.2665 24.9896 70.4562 24.8592C70.6765 24.7117 70.9703 24.5359 71.2701 24.4735C71.264 24.3998 71.2579 24.3261 71.2456 24.2523C71.2456 24.2126 71.2395 24.1729 71.2334 24.1332C71.1661 23.9801 71.0988 23.8156 71.0376 23.6512C71.0192 23.6058 71.0009 23.5604 70.9886 23.515C70.4134 21.8987 70.2176 19.9648 70.2053 19.874L69.3241 21.1274L68.8896 21.7513C68.8896 21.7513 68.9876 22.2447 69.1099 23.0613C69.1099 23.0784 69.1161 23.101 69.1222 23.1181H69.1161Z" fill="#9C4322"/>
<path d="M71.4114 31.535C71.3931 31.7618 71.3747 31.966 71.3625 32.1532C71.338 32.3914 71.3197 32.5955 71.2952 32.7713C71.2829 32.8904 71.2646 32.9982 71.2523 33.0946C71.2523 33.1116 71.2523 33.123 71.2462 33.14C71.2401 33.2194 71.2279 33.2818 71.2217 33.3385C71.2217 33.3782 71.2095 33.4122 71.2034 33.4462C71.2034 33.4746 71.1973 33.4973 71.1911 33.5086C71.185 33.52 71.1911 33.5313 71.1911 33.5313C71.1911 33.5313 71.1911 33.537 71.1911 33.5427C71.1238 33.6504 70.671 34.331 69.8816 34.6486C69.8571 34.6599 69.8265 34.6713 69.7959 34.6769C69.5695 34.7563 69.3186 34.8074 69.0371 34.8074C69.1534 34.433 69.2084 34.0134 69.2696 33.588C69.3002 33.3441 69.3247 33.1116 69.3614 32.8734C69.3614 32.8337 69.3737 32.7997 69.3798 32.7657C69.4104 32.5615 69.4349 32.3516 69.4594 32.1475C69.4838 31.9433 69.5022 31.7335 69.5267 31.5293H71.4237L71.4114 31.535Z" fill="#9C4322"/>
<path d="M75.5414 26.7761L75.523 26.8555C75.523 26.8555 75.058 24.8138 72.7142 24.3487C72.139 24.2353 71.6495 24.2126 71.2395 24.2467C70.756 24.292 70.3889 24.4111 70.1135 24.5416C69.9299 24.6266 69.7892 24.7231 69.6912 24.8025C69.5566 24.9102 69.4893 24.9896 69.4893 24.9896C69.4893 24.9896 69.4403 24.9102 69.3363 24.7741C69.0977 24.4452 68.553 23.7816 67.7453 23.2258C67.5066 23.0613 67.2496 22.9025 66.962 22.7664C65.9706 22.29 64.7039 22.0518 63.1924 22.5282C59.2087 23.793 59.7778 26.9066 59.7778 26.9066C59.7778 26.9066 59.6554 26.8725 59.4596 26.8498C59.1414 26.8101 58.6335 26.8045 58.1255 27.0086C57.8685 27.1107 57.6176 27.2638 57.3912 27.4907C57.3055 27.5758 57.226 27.6722 57.1526 27.7743C56.9751 28.0181 56.8221 28.3301 56.712 28.7101C56.0021 31.1544 58.609 32.1412 59.4229 32.1412H61.9624C61.5402 32.0845 61.1118 32.0278 60.6835 31.9881C59.582 31.8917 58.2724 31.8123 57.5626 30.9049C57.3606 30.6497 57.2688 30.3604 57.1893 30.0598C57.1036 29.7196 56.9751 29.3793 56.9629 29.022C56.9384 28.2563 57.5687 27.6098 58.2908 27.3262C58.6824 27.1731 59.0802 27.1447 59.5024 27.1277C59.7166 27.1221 59.8941 27.1447 60.0103 26.9859C60.4509 26.3564 60.2673 25.5397 60.61 24.8819C60.6529 24.8025 60.7079 24.7457 60.7691 24.706C61.0873 23.9915 61.736 23.4413 62.4948 23.1351C63.3515 22.7891 64.2817 22.7324 65.2057 22.8061C65.94 22.8628 66.8457 22.9479 67.372 23.498C67.4699 23.6001 67.5005 23.7079 67.4944 23.8156C67.8799 24.0992 68.192 24.4055 68.4184 24.6607C68.5286 24.6096 68.6509 24.5983 68.7672 24.6266C68.9875 24.672 69.1527 24.7968 69.3241 24.9216C69.4648 25.018 69.6178 25.0974 69.7647 25.1824C70.0645 24.9329 70.4562 24.7514 70.8233 24.621C71.5332 24.3714 72.3226 24.3431 73.0386 24.5926C73.3629 24.706 73.6689 24.8648 73.9014 25.103C74.1645 25.3696 74.2869 25.6929 74.4399 26.0161C74.7214 26.6343 75.2048 26.8725 75.8963 26.9746C76.7041 27.0937 77.4262 27.3432 77.9953 27.9161C78.5154 28.4378 78.8214 29.039 78.6501 29.7593C78.4971 30.4001 78.0137 31.0693 77.3711 31.3643C76.9856 31.5401 76.5633 31.6195 76.135 31.6705C75.6944 31.7272 75.2783 31.835 74.8438 31.9314C73.9565 32.1242 73.0141 32.0618 72.1084 32.0562C71.7841 32.0562 71.4536 32.0618 71.1171 32.0562C70.9151 32.0845 70.7132 32.1129 70.5113 32.1356H76.3614C76.3614 32.1356 78.8459 32.0902 79.0723 29.3566C79.3048 26.5379 75.5353 26.7648 75.5353 26.7648L75.5414 26.7761Z" fill="white"/>
<path d="M78.9432 27.1699C78.062 26.3475 76.6973 26.1831 75.9752 26.1547C75.6325 25.3947 74.7819 24.1187 72.8543 23.7387C72.1384 23.5969 71.5387 23.5856 71.0307 23.6479C70.6207 23.699 70.2842 23.7954 70.0027 23.9088C69.8681 23.9655 69.7457 24.0223 69.6355 24.0846C69.5621 23.9939 69.4825 23.9032 69.403 23.8181C69.3418 23.75 69.2745 23.682 69.2072 23.6139C69.1949 23.6026 69.1827 23.5912 69.1704 23.5799C68.583 22.9957 67.7997 22.4172 66.8634 22.0486C65.768 21.6176 64.4524 21.4758 62.9715 21.9465C60.0403 22.8766 59.1652 24.8446 59.0734 26.2171C58.9633 26.2171 58.8409 26.2228 58.7185 26.2398C58.3635 26.2738 57.9658 26.3702 57.5803 26.5687C57.3171 26.7048 57.0846 26.875 56.8827 27.0848C56.7725 27.1982 56.6685 27.323 56.5706 27.4591C56.3503 27.771 56.1789 28.1397 56.0565 28.5594C55.671 29.8865 56.13 30.8166 56.5828 31.361C57.3906 32.3365 58.7185 32.7789 59.41 32.7789H76.373C77.4439 32.7562 79.5184 32.0303 79.7326 29.4271C79.806 28.5083 79.5367 27.754 78.9309 27.1869L78.9432 27.1699ZM76.3669 31.5198H59.4222C59.1407 31.5198 58.1983 31.2419 57.6598 30.5897C57.2621 30.1133 57.1641 29.5462 57.3661 28.8656C57.4518 28.5594 57.5803 28.2985 57.7332 28.0887C57.7822 28.0206 57.8434 27.9525 57.9046 27.8958C58.0086 27.7937 58.1188 27.7087 58.2473 27.6406C58.4003 27.5612 58.5594 27.5102 58.7124 27.4818C58.8531 27.4535 58.9938 27.4421 59.1162 27.4421C59.3977 27.4421 59.5997 27.4931 59.5997 27.4931C59.7894 27.5442 59.9913 27.5158 60.1504 27.4138C60.181 27.3967 60.2055 27.3797 60.23 27.357C60.4013 27.2153 60.487 26.9997 60.4441 26.7899C60.4258 26.6821 60.0097 24.1811 63.4182 23.1035C64.9052 22.6328 66.1291 22.9617 67.0409 23.5005C67.0409 23.5005 68.8706 25.2133 68.9134 25.287C69.0236 25.4628 69.2133 25.5819 69.4336 25.5989C69.4336 25.5989 69.4458 25.5989 69.4519 25.5989C69.6784 25.6102 69.8864 25.5195 70.021 25.355C70.021 25.355 70.0272 25.3494 70.0394 25.338C70.07 25.3097 70.1251 25.2586 70.223 25.1962C70.4188 25.0658 70.7676 24.9013 71.3122 24.856C71.6549 24.8276 72.071 24.8446 72.579 24.941C74.4515 25.3097 74.8615 26.909 74.8737 26.9714C74.9533 27.306 75.3082 27.5215 75.6693 27.4478C75.7427 27.4308 75.81 27.4081 75.8651 27.3741C76.4403 27.3911 77.45 27.5158 77.9946 28.0319C78.319 28.3382 78.4536 28.7522 78.4046 29.3023C78.2333 31.3781 76.5382 31.5028 76.3669 31.5085V31.5198Z" fill="#9C4322"/>
<path d="M37.172 60.1759C37.0374 60.1362 36.9333 60.1248 36.8538 60.1362C36.5662 60.1475 36.5294 60.3403 36.2296 60.2666C36.1623 60.2496 36.095 60.2212 36.0032 60.1815C35.8502 60.1078 35.7033 60.0284 35.5503 59.9434C35.5503 59.9434 35.5259 59.9263 35.5075 59.9207C33.7267 58.9395 31.897 57.3288 30.4406 55.6274C30.1836 55.3325 29.945 55.0319 29.7185 54.737C29.639 54.6349 29.5655 54.5328 29.486 54.4308C29.4064 54.3173 29.3269 54.2096 29.2473 54.0961C29.2473 54.0961 29.2473 54.0905 29.2412 54.0848C29.2106 54.0451 29.18 53.9997 29.1494 53.9543C29.1494 53.9543 29.1494 53.943 29.1372 53.9373C28.9842 53.7161 28.8373 53.4893 28.7027 53.2681C28.5742 53.0583 28.4579 52.8484 28.3478 52.6499C28.3478 52.6499 28.3478 52.6443 28.3478 52.6386C28.3294 52.6102 28.3172 52.5875 28.3049 52.5592C28.3049 52.5592 28.3049 52.5535 28.2988 52.5479C28.2988 52.5479 28.3049 52.5535 28.3111 52.5592C28.3294 52.5819 28.3478 52.6046 28.3661 52.6272C28.3661 52.6272 28.3661 52.6272 28.3661 52.6329C28.7394 53.0923 29.1188 53.546 29.5105 53.9884C29.5105 53.9941 29.5166 54.0054 29.5288 54.0111C29.6512 54.1528 29.7675 54.289 29.896 54.4251C30.5079 55.1056 31.1444 55.7749 31.8175 56.4044C31.9215 56.5065 32.0256 56.6029 32.1357 56.6993C32.1785 56.7447 32.2275 56.7844 32.2703 56.8241C32.2764 56.8241 32.2887 56.8354 32.2948 56.8468C32.307 56.8638 32.3254 56.8751 32.3376 56.8865C32.3499 56.8978 32.3621 56.9091 32.3805 56.9205C33.5615 57.9754 34.8466 58.9282 36.2663 59.7165C36.5662 59.881 36.8721 60.0398 37.1781 60.1929L37.172 60.1759Z" fill="#9C4322"/>
</svg>
