<svg width="103" height="106" viewBox="0 0 103 106" fill="none" xmlns="http://www.w3.org/2000/svg">
<path d="M37.7867 74.9825L37.4748 73.6495L36.2034 71.7715L34.5928 73.5398L37.7867 74.9825Z" fill="#EFD8C4"/>
<path d="M19.4424 37.9925C19.4424 37.9925 24.1407 36.1557 26.7863 39.9836C29.6307 38.1741 29.6581 37.7321 29.6581 37.7321C29.6581 37.7321 27.8932 34.9631 26.7863 35.179C25.6794 35.3949 19.8742 34.9391 19.4424 37.9959V37.9925Z" fill="#EFD8C4"/>
<path d="M87.8608 33.7088C88.0288 33.7876 88.1864 33.9075 88.3063 34.0275C88.3475 34.0686 88.3852 34.1097 88.4229 34.1474C88.4366 34.1611 88.4503 34.1748 88.464 34.1886C88.488 34.2057 88.512 34.2194 88.5394 34.2331C88.5462 34.2331 88.5497 34.24 88.5565 34.2434C88.5736 34.2502 88.5908 34.2537 88.6113 34.2605C88.625 34.2605 88.6353 34.2605 88.6456 34.2605C88.6627 34.2571 88.6799 34.2502 88.697 34.2468C88.721 34.2331 88.7381 34.2194 88.7484 34.216C88.8307 34.168 88.9163 34.1234 88.9952 34.0652C89.2213 33.9041 89.4338 33.7259 89.6805 33.5957C89.708 33.582 89.7354 33.5751 89.7628 33.5648C89.7422 33.4141 89.7217 33.2633 89.6977 33.1125C89.6566 32.8178 89.6052 32.5265 89.5572 32.2352C89.5469 32.1906 89.54 32.1461 89.5332 32.1015C89.3036 30.8233 89.0123 29.5862 88.6765 28.397C85.9452 18.7125 80.068 12.0814 77.042 10.2891C77.3778 10.6934 77.7068 11.1012 78.0289 11.5193C78.0324 11.5228 78.0358 11.5296 78.0427 11.5365C81.9939 16.6872 84.6601 22.8934 85.5477 29.665C85.5956 29.994 85.6333 30.323 85.6676 30.6554C85.6847 30.813 85.6984 30.9741 85.7122 31.1351C85.8218 31.1351 85.9349 31.166 86.0206 31.2174C86.1405 31.2859 86.2845 31.447 86.305 31.5875C86.3324 31.7691 86.3564 31.9542 86.377 32.1358C87.0658 32.691 87.5661 33.301 87.8608 33.7054V33.7088Z" fill="#EFD8C4"/>
<path d="M33.7603 69.6477L30.7995 72.5572C30.3231 72.2728 29.8433 71.9746 29.3704 71.6593C18.7195 64.0241 10.9198 50.3643 12.1843 44.7441C15.224 55.9948 23.2739 65.1584 33.7603 69.6443V69.6477Z" fill="#EFD8C4"/>
<path d="M70.5317 72.5052C67.2075 73.8931 63.3522 75.2913 59.1645 76.2508H59.1611C59.0514 76.2337 58.9726 76.22 58.9246 76.2132H58.9178L56.3887 71.7547C57.0158 71.6176 57.6395 71.4634 58.2529 71.2955C61.9129 70.288 65.3467 68.7356 68.4686 66.7239C68.4721 66.7239 68.4721 66.7205 68.4755 66.7205C68.6194 66.6314 68.7599 66.5389 68.9004 66.4464C68.9416 66.4155 68.9861 66.3881 69.0272 66.3607H69.0307C69.2431 66.2202 69.4522 66.0763 69.6578 65.9323C69.6921 65.9083 69.7263 65.8843 69.7606 65.8604V66.3641L70.5317 72.5052Z" fill="#EFD8C4"/>
<path d="M89.9482 42.752C89.9207 43.0364 89.8899 43.3208 89.8556 43.6087C89.8214 43.8931 89.7837 44.1776 89.7426 44.4654C89.722 44.6196 89.698 44.7773 89.674 44.9349C89.5986 45.4318 89.5129 45.9322 89.417 46.4359C89.4136 46.4393 89.4136 46.4428 89.4136 46.4462C89.3724 46.6655 89.3279 46.8814 89.2799 47.1007C89.1874 47.5497 89.0846 48.002 88.9749 48.4544C87.4088 54.8799 84.1189 61.816 78.3205 69.0297C77.9196 69.2114 77.4878 69.4033 77.032 69.6123L75.8566 66.3602L76.2198 66.439L75.4693 65.2875C75.4693 65.2875 75.4659 65.2841 75.4659 65.2807L74.3145 62.097C74.5338 61.8846 74.7497 61.6721 74.9622 61.4528C79.5337 56.8161 82.9229 50.9835 84.633 44.4654C84.7084 44.181 84.7803 43.8966 84.8454 43.6087C84.914 43.3243 84.9791 43.0364 85.0374 42.752H89.9482Z" fill="#EFD8C4"/>
<path d="M52.7314 46.3438C52.7314 46.3438 55.2331 50.1956 59.5408 48.8283C62.4605 47.8996 53.2592 52.478 53.2592 52.478L52.7314 46.3438Z" fill="#EFD8C4"/>
<path d="M81.9151 81.5078V83.1425H48.5915C48.5915 83.1425 47.9953 82.7827 47.1488 82.2412C46.9123 82.0904 46.6519 81.9259 46.3812 81.7512C44.3044 80.4044 41.4978 78.4681 41.4155 77.7896V77.7828C41.4155 77.7828 41.4121 77.7725 41.4121 77.7656C41.4121 77.7656 44.7397 80.4523 53.7697 80.4523C57.8751 80.4523 74.2799 81.1686 79.9652 81.4222C81.1886 81.4736 81.9151 81.5078 81.9151 81.5078Z" fill="#EFD8C4"/>
<path d="M2.06738 46.7857L10.3811 40.0243L34.0613 50.7027L10.7718 34.0957L2.06738 46.7857Z" fill="#EFD8C4"/>
<path d="M19.1986 91.9082C18.6846 91.9082 18.2665 92.3366 18.2665 92.8609V100.256H11.3749V92.8609C11.3749 92.3366 10.9568 91.9082 10.4428 91.9082C9.92875 91.9082 9.4901 92.3263 9.4901 92.8609V100.256H9.35302C8.84583 100.256 8.4209 100.674 8.4209 101.171C8.4209 101.668 8.83898 102.103 9.35302 102.103H9.4901V104.92C9.4901 105.455 9.90819 105.873 10.4428 105.873C10.9774 105.873 11.3749 105.445 11.3749 104.92V102.103H18.2665V104.92C18.2665 105.445 18.6846 105.873 19.1986 105.873C19.7127 105.873 20.1513 105.455 20.1513 104.92V92.8609C20.1513 92.3263 19.7332 91.9082 19.1986 91.9082Z" fill="#9C4322"/>
<path d="M37.7489 93.7764C38.2732 93.7764 38.7016 93.3583 38.7016 92.8443C38.7016 92.3302 38.2664 91.8916 37.7489 91.8916L29.2535 91.9087C28.4824 91.9087 28.0575 92.3337 28.0575 93.1047V100.257H27.564C27.0397 100.257 26.6113 100.668 26.6113 101.172C26.6113 101.676 27.0397 102.104 27.564 102.104H28.0575V104.698C28.0575 105.455 28.4824 105.874 29.2535 105.874H37.3754C37.8825 105.874 38.3075 105.455 38.3075 104.959C38.3075 104.462 37.8894 104.026 37.3754 104.026H29.9457V102.104H37.5844C38.1087 102.104 38.5371 101.686 38.5371 101.172C38.5371 100.658 38.1087 100.257 37.5844 100.257H29.9457V93.7764H37.7523H37.7489Z" fill="#9C4322"/>
<path d="M46.6207 91.9082C46.0861 91.9082 45.668 92.3263 45.668 92.8609V104.92C45.668 105.455 46.0861 105.873 46.6207 105.873C47.1553 105.873 47.5528 105.445 47.5528 104.92V92.8609C47.5528 92.3366 47.1347 91.9082 46.6207 91.9082Z" fill="#9C4322"/>
<path d="M64.1017 99.5465L65.918 96.3183C66.0139 96.1264 66.0139 95.9687 66.0139 95.8762C66.0139 95.3622 65.5958 94.9441 65.0818 94.9441C64.8796 94.9441 64.5061 95.0058 64.2388 95.4513L63.0325 97.6377L61.9976 99.5807L60.1025 103.076L54.8318 92.4047C54.6673 92.0757 54.3384 91.8701 53.9751 91.8701C53.4611 91.8701 53.043 92.2882 53.043 92.8022C53.043 93.0079 53.1184 93.1586 53.1561 93.2375L59.1772 105.372C59.3451 105.766 59.6809 105.999 60.0716 105.999C60.4314 105.999 60.7193 105.811 60.9352 105.431L63.0496 101.507L64.0983 99.543L64.1017 99.5465Z" fill="#9C4322"/>
<path d="M62.0626 99.5465L60.2463 96.3183C60.1504 96.1264 60.1504 95.9687 60.1504 95.8762C60.1504 95.3622 60.5685 94.9441 61.0825 94.9441C61.2847 94.9441 61.6582 95.0058 61.9255 95.4513L63.1318 97.6377L64.1668 99.5807L66.0619 103.076L71.3325 92.4047C71.497 92.0757 71.826 91.8701 72.1892 91.8701C72.7033 91.8701 73.1214 92.2882 73.1214 92.8022C73.1214 93.0079 73.046 93.1586 73.0083 93.2375L66.9871 105.372C66.8192 105.766 66.4834 105.999 66.0927 105.999C65.7329 105.999 65.445 105.811 65.2291 105.431L63.1147 101.507L62.066 99.543L62.0626 99.5465Z" fill="#9C4322"/>
<path d="M89.5363 104.749C89.5226 104.673 89.5021 104.601 89.4644 104.536L83.2205 92.3502C83.0252 91.9595 82.7304 91.7607 82.3466 91.7607C81.9628 91.7607 81.6681 91.9595 81.4762 92.3433L77.405 100.26H76.4797C75.9725 100.26 75.5476 100.678 75.5476 101.175C75.5476 101.671 75.9588 102.1 76.4694 102.107L75.2151 104.54C75.1775 104.615 75.0986 104.769 75.0986 104.982C75.0986 105.496 75.5167 105.914 76.0308 105.914C76.4112 105.914 76.7401 105.705 76.8943 105.369L78.577 102.107H86.1128L87.792 105.369C87.9428 105.702 88.2718 105.914 88.6385 105.914C89.1525 105.914 89.5706 105.496 89.5706 104.982C89.5706 104.941 89.5706 104.903 89.5603 104.865L89.5432 104.752L89.5363 104.749ZM79.5023 100.256L82.3295 94.7079L85.1567 100.256H79.5023Z" fill="#9C4322"/>
<path d="M35.9876 72.0495L35.9773 72.0358L35.5318 72.5567L36.0253 72.0975L35.9876 72.0495ZM35.9876 72.0495L35.9773 72.0358L35.5318 72.5567L36.0253 72.0975L35.9876 72.0495ZM89.8043 26.6699C87.6179 19.446 83.4576 12.9485 77.7209 7.90401C78.1081 7.59902 78.4954 7.29745 78.8861 6.99245C79.078 6.83824 79.1328 6.63262 79.0677 6.39616C78.9717 6.05689 78.4474 5.78616 78.0944 5.8924C77.4193 6.10144 76.7477 6.30706 76.0691 6.52296C75.6716 6.20768 75.2638 5.89583 74.8526 5.59426C74.7497 5.49488 74.6367 5.39549 74.5201 5.31325C74.4722 5.27212 74.431 5.22415 74.3796 5.18303C74.1055 4.94657 73.8279 4.71011 73.5435 4.4805C73.4612 4.41196 73.4441 4.37426 73.5435 4.29544C73.8587 4.05556 74.1637 3.80196 74.4722 3.5518C75.4386 2.77046 76.3981 1.98569 77.3611 1.19749C77.6147 0.995301 77.6627 0.652604 77.4707 0.412718C77.4022 0.337326 77.3097 0.279071 77.2411 0.207105C77.0218 -0.0190733 76.7819 -0.0464915 76.4941 0.0597437C75.3426 0.505246 74.174 0.93704 73.0226 1.4031C72.7039 1.53333 72.4674 1.54361 72.1898 1.31058C71.9191 1.07755 71.5216 1.13238 71.2645 1.3894C71.0658 1.58816 70.9184 1.82805 70.7471 2.0508C70.706 2.10221 70.682 2.17417 70.6648 2.24271C70.6283 2.35923 70.562 2.38093 70.4661 2.30782C69.7704 1.81434 69.0782 1.31401 68.3859 0.8171C68.1392 0.642326 67.8753 0.501821 67.584 0.409293C67.4538 0.340754 67.3099 0.306483 67.1625 0.279068C67.1522 0.272214 67.1454 0.272218 67.1385 0.272218C66.6382 0.162555 66.1413 0.176263 65.6409 0.282498C65.2811 0.361318 65.1372 0.577216 65.1852 0.947326C65.2674 1.59159 65.521 2.16731 65.9219 2.67793C66.2509 3.09601 66.6896 3.38045 67.1214 3.67174C67.6731 4.04871 68.2386 4.40854 68.7834 4.80606C68.8794 4.8746 68.8828 4.91572 68.7766 4.98083C68.6841 5.03224 68.6189 5.12134 68.5607 5.21729C68.4682 5.3715 68.3688 5.52914 68.2797 5.68336C68.2249 5.76218 68.1803 5.84442 68.1666 5.93352C68.1289 6.02262 68.1083 6.1083 68.1083 6.19054C68.1083 6.3379 68.1632 6.47498 68.2488 6.6052C68.3517 6.75942 68.5093 6.84509 68.6566 6.94447C68.7355 6.99588 68.7663 7.05071 68.7629 7.14666C68.7389 8.50373 68.7183 9.8608 68.6943 11.2179C68.6909 11.4132 68.7355 11.5811 68.8657 11.7216C68.9514 11.821 69.0816 11.8553 69.1913 11.9204C69.5374 12.15 69.9315 12.0232 70.072 11.6257C70.3564 10.8066 70.6374 9.97732 70.9253 9.15485C71.172 8.42834 71.4256 7.70525 71.6724 6.98217C71.6998 6.89992 71.7203 6.86565 71.8163 6.92391C72.6902 7.44138 73.5812 7.93143 74.4927 8.37008C74.5784 8.4112 74.6127 8.45918 74.6195 8.56199C74.6469 9.23024 74.7018 9.90192 74.7052 10.5702C74.7052 10.9711 74.9005 11.211 75.2192 11.3926C75.4728 11.54 75.8841 11.4578 75.9423 11.2282C75.9903 11.0499 76.0828 10.9026 76.1377 10.7347C76.2199 10.4708 76.3056 10.2172 76.3878 9.96018C76.9533 10.4639 77.4982 10.9848 78.0293 11.5229C78.0328 11.5229 78.0396 11.5297 78.043 11.54C83.3479 16.886 86.9462 23.6645 88.4027 31.0667C88.4095 31.0907 88.413 31.1181 88.4164 31.1455C88.4678 31.3683 88.5055 31.5979 88.5466 31.8275C88.5638 31.9166 88.5809 32.0057 88.5946 32.0948C88.6631 32.1016 88.7282 32.1051 88.7934 32.1085C89.0504 32.1256 89.2971 32.1256 89.5336 32.1051C90.0373 32.0674 90.476 32.369 90.7981 32.1222C90.853 32.0777 91.0037 32.0742 91.0517 32.0228C90.7673 30.3642 90.2909 28.2635 89.8043 26.6699ZM35.9876 72.0495L35.9773 72.0358L35.5318 72.5567L36.0253 72.0975L35.9876 72.0495ZM52.2622 24.8297L51.3746 26.2861C51.282 26.4403 51.1827 26.6048 51.0764 26.783L52.9098 25.611C52.5295 25.1484 52.293 24.8674 52.2622 24.8297ZM37.6771 73.8315L37.845 73.8864C37.821 73.8521 37.797 73.8178 37.7696 73.7801C37.7593 73.7698 37.7525 73.7596 37.7491 73.7493C37.2796 73.0879 36.8478 72.4093 36.4571 71.7137C36.4571 71.7102 36.4571 71.7068 36.4537 71.7034L36.2755 71.8679L36.2549 71.885L36.0253 72.0975L36.0356 72.1112L36.2515 72.3991C36.464 72.6835 36.6833 72.9645 36.9095 73.2352C36.9232 73.2524 36.9369 73.2729 36.9506 73.2901C37.0568 73.4237 37.1665 73.5505 37.2761 73.6807C37.283 73.6876 37.2864 73.6944 37.2899 73.7013H37.2933V73.7047C37.4475 73.8864 37.6017 74.068 37.7593 74.2462C37.7936 74.2839 37.8244 74.3216 37.8587 74.3558H38.1157L37.6737 73.8315H37.6771ZM35.9876 72.0495L35.9773 72.0358L35.5318 72.5567L36.0253 72.0975L35.9876 72.0495ZM35.9876 72.0495L35.9773 72.0358L35.5318 72.5567L36.0253 72.0975L35.9876 72.0495ZM35.9876 72.0495L35.9773 72.0358L35.5318 72.5567L36.0253 72.0975L35.9876 72.0495ZM89.6741 44.9355C89.6124 44.939 89.5507 44.939 89.489 44.939C89.2252 44.9458 88.9613 44.9492 88.7008 44.9561C88.67 45.1686 88.6391 45.3811 88.6049 45.5935V45.6038C88.5192 46.1692 88.4198 46.7278 88.3102 47.283C88.2656 47.5092 88.2211 47.7354 88.1697 47.9581C86.4905 55.8606 82.6797 62.5466 77.2754 66.7754L77.1246 66.3608H76.2919C75.8841 64.7159 75.4386 63.0812 74.9622 61.4534C73.3173 55.799 71.3057 50.2439 69.2152 44.7471L64.2873 57.4644V57.4713L64.1811 57.79C65.5039 58.1327 66.8644 58.472 68.1974 58.7941C68.619 61.1827 69.0816 63.5678 69.6573 65.9324C69.6882 66.0764 69.7259 66.2203 69.7601 66.3642C69.486 66.3642 69.2427 66.3642 69.0302 66.3608H69.0268C68.7492 66.3642 68.5333 66.3642 68.3996 66.3608C68.4099 66.4156 68.4339 66.5424 68.4682 66.724C68.6258 67.5636 69.0131 69.6335 69.4072 71.7274C65.3599 73.6807 62.4916 73.9549 60.2127 73.9549C60.1921 73.9549 60.1681 73.9617 60.1441 73.9617C60.1099 73.9549 59.8905 73.9172 59.8665 73.9138C59.4553 73.2421 58.3347 71.4155 58.3347 71.4155C58.3073 71.3744 58.2799 71.3333 58.2524 71.2956C57.0907 69.565 55.3327 68.2353 53.3485 67.5876C52.1936 67.2175 50.9976 66.9022 49.8085 66.6418L51.5117 58.2561L51.5699 57.9751L51.4911 57.6975L50.4493 53.8833C50.9565 53.7119 51.4705 53.5372 51.5768 53.5029C51.6042 53.5029 52.2245 53.191 53.0572 53.0026L54.8255 55.0107C53.9893 55.7647 53.4547 56.8476 53.4547 58.0642C53.4547 60.3294 55.2916 62.1662 57.5568 62.1662C59.822 62.1662 61.6554 60.3294 61.6554 58.0642C61.6554 56.5015 60.7781 55.141 59.493 54.4487L61.6211 53.1808C63.2284 52.2212 63.5608 48.6915 63.2763 46.4948C63.2763 46.4914 62.8548 46.1178 62.8548 46.1178C62.6218 45.9431 62.3922 45.7683 62.3922 45.7683C61.7137 45.2817 53.2183 38.791 52.8482 38.5511C52.4986 39.2674 51.5459 41.3064 51.0456 42.3516V42.3619H51.0387L50.8811 42.8828C50.8811 42.8828 47.7249 44.3804 44.0958 46.3406C41.2411 47.8827 38.0917 49.7264 35.9533 52.3069C35.9533 52.3103 35.9499 52.3138 35.9465 52.3172C32.6875 56.7379 31.4195 61.9572 32.8828 67.1833C32.5675 67.5705 32.6601 67.4608 32.5024 67.6562L31.6731 68.6705L29.9425 70.7918C28.0474 69.7055 27.0022 68.8727 26.9782 68.8522C20.6109 63.8625 16.012 57.0601 13.7708 49.4008C13.7708 49.3974 13.7673 49.394 13.7673 49.3906C13.3938 48.1123 13.0854 46.8135 12.8455 45.4941C12.7255 44.8327 12.095 44.3975 11.437 44.5175C10.7825 44.634 10.3404 45.2645 10.4603 45.9225C12.2458 55.7441 17.5815 64.5685 25.4703 70.7473C25.5183 70.7918 26.5361 71.6074 28.3935 72.6972L28.1708 72.9679L20.5252 82.6113L18.9797 82.6045V82.6113H17.9859C17.6226 82.6285 17.2594 82.6113 16.8927 82.5976H16.8756C16.622 82.5908 16.3649 82.5839 16.1113 82.5942C15.7652 82.6045 15.4225 82.6422 15.0798 82.7313C13.1436 83.05 11.2074 83.3858 9.27803 83.8211C11.2074 84.2631 13.1436 84.599 15.0798 84.9177C16.0497 85.1747 17.0195 84.9965 17.9859 85.0342H21.4642L21.8549 84.5578L24.1407 81.7478L24.7404 81.011C24.9426 80.7608 25.1551 80.5038 25.3675 80.2433L28.3524 76.5799H28.3558C28.7465 76.1002 29.144 75.6135 29.5415 75.1235C29.5792 75.0755 29.6204 75.0275 29.658 74.9795L31.584 72.6184C32.4921 71.5012 33.4037 70.384 34.2878 69.3045L35.0109 68.4101L35.244 68.1222L35.3673 67.968C38.0301 64.5925 45.2678 54.4624 45.9943 53.0163C44.6646 54.0683 43.3727 55.1478 42.1047 56.2547C41.481 56.8099 40.7819 57.3171 40.3467 58.0299C39.6339 58.9072 36.4982 62.7488 34.3632 65.367C34.4318 65.2847 34.305 64.7296 34.2981 64.6062C34.2776 64.2943 34.2639 63.9825 34.257 63.6706C34.2433 63.0469 34.257 62.4198 34.305 61.7961C34.6203 57.7078 36.6113 53.7428 39.9183 51.248C41.6832 49.9183 43.7394 49.0102 45.6756 47.9752C47.8894 46.7929 50.1032 45.6141 52.317 44.4318C52.389 44.3941 52.4609 44.353 52.5329 44.3153L52.8859 44.1268L53.0572 43.7635C53.0572 43.7635 53.4102 43.0199 53.7632 42.2797L60.0173 47.0088L58.7048 48.993L58.4649 49.0684H58.4581L54.476 50.3398C54.4554 50.3467 54.4314 50.3535 54.4109 50.357L54.1915 50.4289C54.1058 50.662 53.8488 50.6311 53.5815 50.5969C53.5473 50.5934 53.513 50.59 53.4787 50.5866C53.7529 50.5249 53.8283 50.5078 54.075 50.4529C54.0819 50.4529 54.0887 50.4495 54.099 50.4495C54.1264 50.4426 54.1573 50.4358 54.1915 50.4289H54.1778L53.0606 50.1513L53.2114 50.5386C53.2114 50.5386 53.3245 50.5831 53.3279 50.59C53.3725 50.5694 53.1395 50.5968 53.1943 50.6003C53.1463 50.6106 53.2594 50.5317 53.2114 50.542C53.208 50.542 53.3382 50.5489 53.3348 50.5523C53.3211 50.5557 53.0983 50.6037 53.0983 50.6037C53.0983 50.6037 48.2047 52.0739 47.509 52.3069C47.509 52.3103 47.5124 52.3172 47.5124 52.324C47.6598 52.8518 48.3623 55.4323 48.8078 57.0669L36.906 70.9529H36.9026L36.6079 71.3024L36.5839 71.3299L36.3817 71.5663C36.3817 71.5663 36.3817 71.5595 36.3749 71.556C36.3749 71.556 36.3737 71.5537 36.3714 71.5492L36.1898 71.7514L35.9602 72.005H35.9636L35.9808 72.0358L36.2035 71.7754H36.2069L36.3509 71.6006C36.416 71.6657 36.3886 71.6383 36.4571 71.7034L36.697 71.4841L37.0157 71.1859L37.3413 70.8809L48.5953 60.4425L47.3445 66.6007L47.1115 68.5506C48.5302 68.8316 50.0312 69.1503 51.4123 69.5341C52.3752 69.8014 53.4102 70.1167 54.2464 70.6822C55.0688 71.2168 55.7782 71.9261 56.3128 72.7486L58.0914 75.6478L58.3792 76.1241C58.3792 76.1241 72.7553 78.5436 73.1631 78.5847C73.026 77.8616 71.878 71.7205 71.3262 68.7836H75.4283C75.8669 70.0139 78.958 78.6052 79.969 81.4222C80.0135 81.5456 80.0546 81.6552 80.0889 81.7546C76.0074 81.8677 69.3592 82.0767 66.2955 82.1144C65.8671 82.1281 65.4456 82.1521 65.0207 82.1727L51.6008 82.0356C51.0662 82.0322 50.5316 81.9739 50.0107 81.8608C46.4089 81.0932 43.496 79.3763 41.4159 77.7656C41.3816 77.7382 41.3508 77.7142 41.3165 77.6868H41.3131C41.3131 77.6868 41.2925 77.6663 41.2822 77.6594C40.967 77.4127 40.6688 77.1659 40.3947 76.926C39.6339 76.131 38.9176 75.3051 38.2665 74.4484C38.2528 74.4278 38.2357 74.4107 38.222 74.3901C38.222 74.3867 38.2151 74.3798 38.2083 74.3764C38.2083 74.3695 38.2014 74.3627 38.1946 74.3558C38.1637 74.3147 38.1295 74.2702 38.102 74.229C38.0095 74.1022 37.9375 74.0063 37.893 73.948C37.8724 73.9172 37.8587 73.8966 37.8519 73.8898H37.8484C37.8244 73.8521 37.8005 73.8178 37.773 73.7801C37.7628 73.7698 37.7559 73.7596 37.7525 73.7493C37.283 73.0879 36.8512 72.4093 36.4605 71.7137C36.4605 71.7102 36.4605 71.7068 36.4571 71.7034L36.2789 71.8679L36.2583 71.885L36.0287 72.0975L36.039 72.1112L36.2549 72.3991C36.4674 72.6835 36.6867 72.9645 36.9129 73.2352C36.9266 73.2524 36.9403 73.2729 36.954 73.2901C37.0602 73.4237 37.1699 73.5505 37.2796 73.6807C37.2864 73.6876 37.2898 73.6944 37.2933 73.7013H37.2967V73.7047C37.4509 73.8864 37.6051 74.068 37.7628 74.2462C37.797 74.2839 37.8279 74.3216 37.8621 74.3558C37.941 74.4449 38.0164 74.5306 38.102 74.6163C38.4653 75.0207 38.8388 75.4148 39.2226 75.802C39.298 75.8843 39.3734 75.9596 39.4488 76.035C39.6305 76.2201 39.8155 76.4017 40.0006 76.5834C39.7881 76.3914 39.5893 76.2064 39.4077 76.035C39.394 76.0213 39.3837 76.0111 39.3734 75.9973C39.3666 75.9939 39.3666 75.9905 39.3666 75.9905C38.784 75.4285 38.3522 74.9556 38.0849 74.6437C37.9752 74.5203 37.8964 74.4244 37.8416 74.3558C37.8176 74.325 37.797 74.301 37.7833 74.2839C37.8005 74.3079 37.8142 74.3318 37.8313 74.3558C37.8998 74.4552 37.9684 74.558 38.0404 74.6574C38.0472 74.6677 38.0541 74.6745 38.0609 74.6848C38.383 75.1406 38.7292 75.5861 39.089 76.0213C40.4803 77.6903 42.1116 79.1844 43.5406 80.3598L43.7873 80.5655C43.8593 80.6271 43.9313 80.6854 44.0066 80.7437C44.4453 81.0932 44.8565 81.4119 45.2301 81.6895C45.2918 81.7375 45.3534 81.782 45.4151 81.8266C45.4837 81.878 45.5488 81.926 45.6173 81.9739H45.4734L43.9587 81.9568L26.8274 81.7786L24.1235 84.5613H60.456C62.423 84.6195 64.3935 84.6504 66.3606 84.5921C66.5833 84.5818 66.8267 84.5715 67.0665 84.5613H83.7249L83.1423 83.1083C83.0464 82.8307 82.9299 82.512 82.9299 82.512L78.1253 69.1469C78.1938 69.1195 78.2624 69.0783 78.3172 69.0304C85.0786 63.9722 89.6158 55.4734 91.0551 45.5318C91.0586 45.525 91.062 45.5181 91.062 45.5147C91.0654 45.5044 91.0654 45.4907 91.0688 45.4804C91.0723 45.4599 91.0791 45.4325 91.0826 45.3913C91.0894 45.3434 91.0963 45.2954 91.1031 45.2474C91.1134 45.1686 91.1271 45.0795 91.1374 44.9732C91.1374 44.9527 91.1442 44.9321 91.1477 44.9116C90.6542 44.9184 90.1607 44.9287 89.6707 44.9355H89.6741ZM67.4264 75.1715C68.1974 74.9076 69.0062 74.582 69.8698 74.1879C69.9657 74.7088 70.0583 75.1954 70.1405 75.6272C69.4997 75.521 68.6669 75.3805 67.4264 75.1715ZM75.8566 66.3608C74.6367 66.3608 71.854 66.3642 70.0137 66.3642C70.0754 63.3828 69.976 60.4013 69.8184 57.4302C68.8554 57.0806 67.889 56.7379 66.9192 56.4021C67.6388 54.5755 68.3311 52.7387 69.0096 50.895C70.9664 55.775 73.0568 60.6035 75.466 65.2813C75.466 65.2847 75.4694 65.2847 75.4694 65.2882C75.651 65.648 75.8361 66.0044 76.0246 66.3608H75.8566ZM35.9876 72.0495L35.9773 72.0358L35.5318 72.5567L36.0253 72.0975L35.9876 72.0495ZM37.6771 73.8315L37.845 73.8864C37.821 73.8521 37.797 73.8178 37.7696 73.7801C37.7593 73.7698 37.7525 73.7596 37.7491 73.7493C37.2796 73.0879 36.8478 72.4093 36.4571 71.7137C36.4571 71.7102 36.4571 71.7068 36.4537 71.7034L36.2755 71.8679L36.2549 71.885L36.0253 72.0975L36.0356 72.1112L36.2515 72.3991C36.464 72.6835 36.6833 72.9645 36.9095 73.2352C36.9232 73.2524 36.9369 73.2729 36.9506 73.2901C37.0568 73.4237 37.1665 73.5505 37.2761 73.6807C37.283 73.6876 37.2864 73.6944 37.2899 73.7013H37.2933V73.7047C37.4475 73.8864 37.6017 74.068 37.7593 74.2462C37.7936 74.2839 37.8244 74.3216 37.8587 74.3558H38.1157L37.6737 73.8315H37.6771ZM35.9876 72.0495L35.9773 72.0358L35.5318 72.5567L36.0253 72.0975L35.9876 72.0495ZM68.3996 66.3608C68.4099 66.4156 68.4339 66.5424 68.4682 66.724C68.4716 66.724 68.4716 66.7206 68.475 66.7206C68.6189 66.6315 68.7595 66.539 68.9 66.4465C68.9411 66.4156 68.9856 66.3882 69.0268 66.3608C68.7492 66.3642 68.5333 66.3642 68.3996 66.3608ZM35.9876 72.0495L35.9773 72.0358L35.5318 72.5567L36.0253 72.0975L35.9876 72.0495ZM38.0986 74.229C38.0061 74.1022 37.9341 74.0063 37.8896 73.948C37.869 73.9172 37.8553 73.8966 37.8484 73.8898H37.845C37.821 73.8521 37.797 73.8178 37.7696 73.7801C37.7593 73.7698 37.7525 73.7596 37.7491 73.7493C37.2796 73.0879 36.8478 72.4093 36.4571 71.7137C36.4571 71.7102 36.4571 71.7068 36.4537 71.7034L36.2755 71.8679L36.2549 71.885L36.0253 72.0975L36.0356 72.1112L36.2515 72.3991C36.464 72.6835 36.6833 72.9645 36.9095 73.2352C36.9232 73.2524 36.9369 73.2729 36.9506 73.2901C37.0568 73.4237 37.1665 73.5505 37.2761 73.6807C37.283 73.6876 37.2864 73.6944 37.2899 73.7013H37.2933V73.7047C37.4475 73.8864 37.6017 74.068 37.7593 74.2462C37.7936 74.2839 37.8244 74.3216 37.8587 74.3558H38.1877C38.1569 74.3147 38.1226 74.2702 38.0952 74.229H38.0986ZM35.9876 72.0495L35.9773 72.0358L35.5318 72.5567L36.0253 72.0975L35.9876 72.0495ZM35.8848 49.1061L26.4916 42.756L26.2859 42.6189L25.8644 42.3311L24.408 41.3475L19.504 38.0337L19.4423 37.9926L18.0716 37.0673L11.0018 32.2867L0.357697 45.0658C-0.115221 45.5353 -0.122073 46.3063 0.354271 46.7792C0.823762 47.2556 1.5914 47.2556 2.06432 46.7861H2.06774L2.08145 46.769L2.0883 46.7587L10.875 35.8267L34.0617 50.7031C34.305 50.9772 34.6374 51.1143 34.9732 51.1143C35.2577 51.1143 35.5455 51.0149 35.7717 50.8127C36.2789 50.3707 36.3269 49.6065 35.8848 49.1061Z" fill="#9C4322"/>
<path d="M37.7871 74.2832C37.8042 74.3072 37.818 74.3312 37.8351 74.3552H37.8454C37.8214 74.3243 37.8008 74.3003 37.7871 74.2832Z" fill="#9C4322"/>
<path d="M37.7871 74.2832C37.8042 74.3072 37.818 74.3312 37.8351 74.3552H37.8454C37.8214 74.3243 37.8008 74.3003 37.7871 74.2832Z" fill="#9C4322"/>
<path d="M37.7871 74.2832C37.8042 74.3072 37.818 74.3312 37.8351 74.3552H37.8454C37.8214 74.3243 37.8008 74.3003 37.7871 74.2832Z" fill="#9C4322"/>
<path d="M41.4129 77.7663C41.3786 77.7389 41.3477 77.7149 41.3135 77.6875C41.3306 77.7081 41.3477 77.7252 41.3649 77.7423C41.382 77.7595 41.3991 77.7732 41.4163 77.7903V77.7835C41.4163 77.7835 41.4129 77.7732 41.4129 77.7663Z" fill="#9C4322"/>
<path d="M53.4717 52.297L54.0782 50.9365L55.3496 51.2484L55.3633 52.0743L53.4717 52.297Z" fill="#9C4322"/>
<path d="M39.7639 76.5117C39.7639 76.5117 38.3932 75.2163 36.9504 73.2903C35.5077 71.3644 37.2657 73.3486 37.2657 73.3486L40.0004 76.5836L39.7605 76.5117H39.7639Z" fill="#9C4322"/>
<path d="M29.658 74.9834C29.6203 75.0314 29.5792 75.0793 29.5415 75.1273H29.5381L29.658 74.9834Z" fill="#9C4322"/>
<path d="M39.3187 68.8145L37.338 70.8809L37.0124 71.1859V71.1893L36.6971 71.4875L36.4572 71.7136L36.2825 71.8781L36.2619 71.8987L36.0357 72.1112L35.1139 72.9816L35.0967 72.9987L34.8809 73.2044L35.083 72.9782L35.0865 72.9748L35.6828 72.3134L35.9569 72.0049L36.1865 71.7513L36.3682 71.5491L36.8993 70.9563L36.9028 70.9529L39.3187 68.8145Z" fill="#9C4322"/>
<path d="M53.4787 51.4807C53.4787 51.4807 51.9846 48.7769 52.7316 46.3438C53.1155 48.0572 53.4856 49.5102 54.9009 50.8947C56.3162 52.2792 53.4787 51.4807 53.4787 51.4807Z" fill="#9C4322"/>
<path d="M39.4519 76.0344H39.4039C39.3628 76.0344 39.3217 76.0344 39.2806 76.0275C39.2189 76.0275 39.1572 76.0241 39.0921 76.0207C39.0441 76.0173 38.9927 76.0138 38.9413 76.0104C38.4752 75.9693 37.9818 75.8836 37.4986 75.7739C37.2724 75.7225 37.0462 75.6643 36.8235 75.6026C36.6967 75.5683 36.5699 75.5341 36.4465 75.4964C34.966 75.0611 33.7598 74.5163 33.7598 74.5163L34.8804 73.2037L35.0791 72.9707H35.086L35.1134 72.981L37.2587 73.6938H37.2621L37.2895 73.7006H37.2929V73.7041L37.6665 73.8274H37.6733L37.8413 73.8857H37.8447C37.8447 73.8857 37.8652 73.9165 37.8858 73.9474C37.9304 74.0056 38.0023 74.1016 38.0948 74.2284C38.1257 74.2661 38.1565 74.3106 38.1874 74.3552C38.1942 74.362 38.2011 74.3689 38.2011 74.3758C38.2079 74.3792 38.2114 74.386 38.2148 74.3895C38.2285 74.41 38.2456 74.4272 38.2593 74.4477C38.3964 74.6362 38.5609 74.8521 38.722 75.0714C38.7254 75.0748 38.7254 75.0783 38.7288 75.0817C38.7357 75.0886 38.7391 75.092 38.7425 75.0988C38.9893 75.4278 39.2429 75.7671 39.4485 76.0344H39.4519Z" fill="#9C4322"/>
<path d="M73.5508 37.6395C73.6913 37.3551 73.962 37.1255 74.2499 37.0055C74.3973 36.9438 74.5515 36.8787 74.7057 36.8239L74.3699 36.5223L73.681 35.9055L53.4038 17.7393L52.5231 18.524L37.071 32.3243L25.8649 42.3344L25.6113 42.5606C25.7313 42.6463 25.8478 42.7354 25.9609 42.8279L26.2864 42.6223L27.6915 41.721H27.6983L37.0436 35.7513L51.0769 26.7864L52.9103 25.6144L53.1811 25.443L65.5866 32.9926H65.59L72.3857 37.1289H72.3891L73.1225 37.5778L73.4857 37.7971C73.5063 37.7457 73.5268 37.6909 73.5542 37.6395H73.5508Z" fill="#EFD8C4"/>
<path d="M74.1091 37.1224C74.4244 36.9648 74.7705 36.8722 75.1166 36.8071C75.4525 36.7454 75.7986 36.6872 76.1413 36.7043C76.2818 36.7112 76.4223 36.7283 76.5628 36.742L76.0762 36.3034L75.1338 35.4466L53.6297 15.9268L51.6969 17.606L37.0879 30.3165L29.6309 36.8037L29.247 37.1395L28.3389 37.9277L26.4644 39.5589L24.4082 41.3478L22.8455 42.7049L22.7324 42.8043C22.962 42.8968 23.1882 42.9962 23.4075 43.1058C23.411 43.1058 23.411 43.1093 23.4144 43.1093C23.9593 43.3834 24.4699 43.7158 24.9359 44.0962L26.4918 42.7563L27.6912 41.7179H27.6981L37.0605 33.6441L53.4344 19.5285L53.5029 19.4668L72.7863 36.6118L73.4272 37.1841L73.715 37.4377C73.8213 37.3074 73.9584 37.1978 74.1091 37.1224Z" fill="#9C4322"/>
<path d="M18.5207 39.5141L16.9648 38.7944C18.2225 36.0769 20.9709 34.3223 23.9661 34.3223C26.5157 34.3223 28.9009 35.5834 30.3402 37.691L28.9249 38.6574C27.8043 37.0159 25.9503 36.0357 23.9661 36.0357C21.6392 36.0357 19.5008 37.4031 18.5207 39.5141Z" fill="#9C4322"/>
<path d="M88.4163 31.1455C88.4437 31.3443 88.4746 31.5533 88.502 31.7795C88.5431 32.0708 88.5808 32.3826 88.6219 32.715C88.6493 32.9446 88.6768 33.1845 88.7042 33.4313C88.7282 33.6472 88.7522 33.8699 88.7761 34.0961C88.9338 34.1509 89.0606 34.1715 89.2216 34.1715C89.3005 34.1715 89.3724 34.1715 89.4478 34.1612C89.65 33.9282 89.8865 33.7191 90.1298 33.5478C90.4142 33.349 90.7878 33.1023 91.1682 33.0132C91.1579 32.9104 91.1476 32.8144 91.1373 32.7116C91.1339 32.6568 91.127 32.602 91.1202 32.5471C91.0311 32.3347 90.9454 32.1119 90.87 31.8823C90.846 31.8206 90.8254 31.7589 90.8049 31.6972C90.0715 29.4663 89.8179 26.8001 89.8042 26.6699L88.6768 28.4005L88.1182 29.2607C88.1182 29.2607 88.245 29.9426 88.4026 31.0667C88.4095 31.0907 88.4129 31.1181 88.4163 31.1455Z" fill="#9C4322"/>
<path d="M91.3537 42.7525C91.3331 43.0643 91.3091 43.3487 91.2886 43.6092C91.2577 43.9347 91.2303 44.2192 91.2029 44.4659C91.1858 44.6338 91.1652 44.7812 91.1515 44.9114C91.1481 44.932 91.1446 44.9526 91.1412 44.9731C91.1309 45.0794 91.1172 45.1684 91.1069 45.2438C91.1001 45.2952 91.0932 45.3432 91.0864 45.3912C91.0829 45.4323 91.0761 45.4597 91.0727 45.4803C91.0692 45.5009 91.0692 45.5111 91.0692 45.5111C91.0692 45.5111 91.0692 45.5111 91.0658 45.5111C91.0658 45.5146 91.0624 45.5214 91.059 45.5283C90.9733 45.6756 90.3941 46.6146 89.3866 47.0567C89.3523 47.0704 89.3181 47.0841 89.2804 47.0978C88.9891 47.2109 88.6669 47.2794 88.3105 47.2794C88.4579 46.762 88.5333 46.1862 88.6053 45.6002V45.59C88.643 45.2644 88.6772 44.9388 88.7218 44.6133C88.7286 44.5619 88.7355 44.5139 88.7423 44.4625C88.78 44.1815 88.8143 43.8936 88.8452 43.6058C88.876 43.3247 88.9034 43.0369 88.9274 42.749H91.3537V42.7525Z" fill="#9C4322"/>
<path d="M96.6375 36.2003L96.617 36.31C96.617 36.31 96.0207 33.4896 93.0221 32.8488C92.2853 32.6911 91.6582 32.6637 91.1373 32.7117C90.5204 32.7734 90.0475 32.9379 89.698 33.1161C89.4615 33.236 89.2867 33.3663 89.1565 33.4725C88.9817 33.6198 88.8995 33.7295 88.8995 33.7295C88.8995 33.7295 88.8344 33.6164 88.7042 33.4314C88.3957 32.9756 87.7035 32.064 86.6686 31.2929C86.3636 31.0633 86.0311 30.8474 85.6679 30.659C84.3965 30.001 82.7756 29.6754 80.8496 30.3334C75.7537 32.0777 76.4837 36.3785 76.4837 36.3785C76.4837 36.3785 76.3295 36.334 76.0759 36.3031C75.6715 36.2517 75.0204 36.2415 74.3693 36.519C74.0437 36.6561 73.7181 36.8686 73.4269 37.1839C73.3206 37.3004 73.2178 37.4306 73.1219 37.5745C72.8923 37.9138 72.6969 38.3387 72.5564 38.8699C71.6517 42.242 74.9827 43.6094 76.0211 43.6094H79.2698C78.7249 43.534 78.1834 43.4517 77.6351 43.4003C76.2232 43.2667 74.5543 43.157 73.6462 41.9028C73.3892 41.5498 73.2692 41.1523 73.1698 40.7342C73.0567 40.2613 72.8922 39.7918 72.8785 39.3051C72.8477 38.2496 73.6496 37.3552 74.5783 36.9611C75.0786 36.7486 75.5893 36.7075 76.1273 36.6904C76.398 36.6801 76.6276 36.7144 76.775 36.4916C77.3404 35.6246 77.1074 34.4971 77.5426 33.5821C77.594 33.4691 77.666 33.3937 77.7482 33.3423C78.156 32.3553 78.9854 31.5979 79.9586 31.1764C81.0518 30.7035 82.2478 30.6178 83.4232 30.7172C84.3657 30.7995 85.524 30.9126 86.1922 31.6699C86.3156 31.807 86.3601 31.9612 86.3533 32.1086C86.8468 32.4992 87.2409 32.9207 87.539 33.2771C87.6795 33.2052 87.8372 33.1949 87.9879 33.2292C88.2655 33.2909 88.4848 33.4656 88.7007 33.637C88.8789 33.7706 89.0777 33.8769 89.2627 34.0002C89.65 33.6541 90.1469 33.4074 90.6198 33.2257C91.528 32.8831 92.5389 32.8454 93.4539 33.188C93.8651 33.3423 94.2558 33.565 94.5574 33.8906C94.8966 34.2573 95.0543 34.7028 95.2462 35.1517C95.606 36.0016 96.2297 36.334 97.1105 36.4779C98.1454 36.6458 99.0672 36.9851 99.7937 37.7733C100.462 38.4964 100.853 39.3188 100.633 40.3195C100.438 41.2037 99.8246 42.1255 98.9987 42.5333C98.5018 42.7766 97.9638 42.8829 97.4223 42.9583C96.8569 43.0371 96.3257 43.1879 95.7705 43.3181C94.6328 43.582 93.4265 43.5031 92.2682 43.4894C91.8569 43.486 91.4286 43.4997 90.9968 43.4929C90.7363 43.5306 90.4793 43.5683 90.2189 43.6025H97.7033C97.7033 43.6025 100.88 43.5374 101.168 39.7678C101.463 35.8748 96.6444 36.1935 96.6444 36.1935L96.6375 36.2003Z" fill="white"/>
<path d="M100.99 36.7451C99.8627 35.6074 98.1149 35.3812 97.1931 35.3435C96.7579 34.2983 95.6681 32.5368 93.2007 32.0091C92.2857 31.8138 91.5146 31.8001 90.8704 31.8823C90.3495 31.9508 89.9143 32.0845 89.5579 32.2387C89.3831 32.3175 89.2289 32.3963 89.0918 32.4786C88.9993 32.3552 88.8999 32.2318 88.7937 32.1085C88.7148 32.016 88.6326 31.92 88.5469 31.8275C88.5332 31.8138 88.5195 31.7966 88.5024 31.7795C87.7519 30.9707 86.7512 30.1723 85.5483 29.6685C84.1433 29.0756 82.4607 28.8803 80.5724 29.5246C76.8199 30.8062 75.7062 33.5272 75.5896 35.4189C75.4457 35.4189 75.2915 35.4292 75.1339 35.4463C74.6781 35.4943 74.1743 35.6245 73.6808 35.9021C73.345 36.0906 73.0469 36.3271 72.7864 36.6115C72.6425 36.7691 72.5088 36.9405 72.3889 37.1255H72.3855C72.1044 37.5573 71.8851 38.0645 71.7309 38.6471C71.2409 40.4771 71.8269 41.7588 72.406 42.5127C73.4375 43.8595 75.1407 44.466 76.0214 44.466H97.7174C99.0848 44.4386 101.741 43.4345 102.015 39.8362C102.111 38.5717 101.765 37.5299 100.99 36.7451ZM97.6968 42.7526H76.0214C75.6582 42.7526 74.4553 42.3722 73.7631 41.4709C73.2559 40.8095 73.1325 40.0316 73.3861 39.0892C73.4992 38.6642 73.6568 38.3078 73.8556 38.02C73.9207 37.924 73.9927 37.8349 74.0715 37.7561C74.2017 37.6122 74.3491 37.4956 74.5102 37.4031C74.7055 37.29 74.9077 37.2215 75.1064 37.1803C75.2881 37.1427 75.4663 37.1289 75.6239 37.1289C75.9837 37.1289 76.2408 37.1975 76.2442 37.2009C76.4841 37.2695 76.7445 37.2318 76.9501 37.0947C76.9878 37.0707 77.0221 37.0467 77.053 37.0159C77.2723 36.8205 77.3785 36.5258 77.3271 36.2345C77.3031 36.0872 76.7719 32.6328 81.1276 31.1455C83.033 30.4944 84.5957 30.9536 85.7608 31.6938C85.7677 31.6938 88.1014 34.055 88.1597 34.1578C88.3002 34.4011 88.5435 34.5656 88.8245 34.5896C88.8313 34.593 88.8416 34.593 88.8485 34.593C89.1398 34.6067 89.4071 34.4868 89.5784 34.2537C89.5784 34.2503 89.5887 34.2435 89.599 34.2298C89.6367 34.1921 89.7086 34.1201 89.832 34.0344C90.0822 33.8562 90.5277 33.63 91.2268 33.5649C91.662 33.5238 92.1966 33.5478 92.8443 33.6849C95.2397 34.1955 95.7606 36.399 95.7778 36.4881C95.8771 36.9507 96.3329 37.2455 96.7956 37.1495C96.8881 37.1289 96.9738 37.0947 97.0492 37.0501C97.7859 37.0707 99.0779 37.2489 99.777 37.9548C100.192 38.3764 100.363 38.9487 100.305 39.7094C100.089 42.5778 97.9196 42.7457 97.6968 42.7526Z" fill="#9C4322"/>
<path d="M47.5532 82.2991C47.3818 82.2477 47.2516 82.2305 47.1488 82.2408C46.7821 82.2545 46.7307 82.5253 46.3469 82.419C46.2646 82.3985 46.1721 82.3573 46.0556 82.2991C45.8637 82.1997 45.6718 82.09 45.4799 81.9735C45.4593 81.9632 45.4456 81.953 45.4285 81.9393H45.425C43.1461 80.5856 40.8089 78.365 38.9447 76.0106C38.6191 75.6028 38.3107 75.1916 38.0194 74.7804C37.92 74.6399 37.8207 74.4959 37.7247 74.3554C37.6219 74.2012 37.5191 74.0504 37.4231 73.8962C37.4197 73.8928 37.4163 73.8859 37.4128 73.8825C37.3717 73.8243 37.334 73.7626 37.2963 73.7043H37.2929C37.2929 73.7043 37.2861 73.6872 37.2792 73.6803C37.0839 73.3719 36.8988 73.0635 36.724 72.7585C36.724 72.7585 36.724 72.7585 36.724 72.7516C36.5595 72.4638 36.4088 72.1759 36.2683 71.8983C36.2648 71.8915 36.2614 71.888 36.2614 71.8846C36.2408 71.8469 36.2237 71.8126 36.2066 71.7749C36.2031 71.7681 36.1997 71.7647 36.1963 71.7578C36.2031 71.7612 36.2066 71.7681 36.21 71.7715C36.234 71.8024 36.258 71.8366 36.282 71.8675C36.282 71.8709 36.2854 71.8743 36.2888 71.8777C36.7652 72.5083 37.2518 73.1354 37.7555 73.7489C37.759 73.7591 37.7658 73.7694 37.7761 73.7797C37.9303 73.9716 38.0845 74.1601 38.2456 74.3486C39.0269 75.291 39.846 76.2094 40.7061 77.0799C40.8364 77.2169 40.97 77.354 41.1105 77.4842C41.1688 77.5459 41.227 77.6007 41.2853 77.659C41.2956 77.6659 41.3059 77.6761 41.3161 77.6864C41.3333 77.707 41.3538 77.7241 41.371 77.7413C41.3881 77.7584 41.4052 77.7721 41.4224 77.7892C42.9337 79.2491 44.5752 80.5616 46.3914 81.6445C46.7718 81.8741 47.1625 82.0935 47.56 82.2991H47.5532Z" fill="#9C4322"/>
</svg>
