<svg width="28" height="28" viewBox="0 0 28 28" fill="none" xmlns="http://www.w3.org/2000/svg">
<path d="M14 9.8C11.6797 9.8 9.79999 11.6803 9.79999 14C9.79999 16.3202 11.6804 18.2 14 18.2C16.3202 18.2 18.2 16.3197 18.2 14C18.2 11.6798 16.3197 9.8 14 9.8ZM14 7C17.8646 7 21 10.1319 21 14C21 17.8647 17.8681 21 14 21C10.1353 21 6.99999 17.8681 6.99999 14C6.99999 10.1353 10.1319 7 14 7ZM23.1 6.64881C23.1 7.61496 22.3149 8.39884 21.35 8.39884C20.3839 8.39884 19.6 7.61376 19.6 6.64881C19.6 5.68386 20.385 4.9 21.35 4.9C22.3136 4.89878 23.1 5.68386 23.1 6.64881ZM14 2.8C10.5357 2.8 9.97107 2.80917 8.3598 2.88092C7.26203 2.93245 6.52616 3.0801 5.84245 3.34554C5.23485 3.58119 4.79655 3.86257 4.32955 4.32957C3.86076 4.79836 3.57988 5.23548 3.34518 5.84336C3.07913 6.52865 2.93153 7.26335 2.88092 8.35961C2.80847 9.90528 2.8 10.4455 2.8 14C2.8 17.4643 2.80917 18.0289 2.8809 19.64C2.93247 20.7374 3.0803 21.4743 3.3451 22.1564C3.58136 22.7648 3.86332 23.2042 4.32807 23.669C4.79871 24.1389 5.23713 24.4208 5.83924 24.6532C6.53129 24.9207 7.26669 25.0685 8.35959 25.1191C9.90527 25.1915 10.4455 25.2 14 25.2C17.4643 25.2 18.0289 25.1908 19.64 25.1191C20.735 25.0677 21.4725 24.9194 22.1564 24.6548C22.7632 24.4192 23.2039 24.1363 23.669 23.6719C24.1396 23.2005 24.4209 22.7632 24.6536 22.1596C24.9204 21.4701 25.0685 20.7337 25.1191 19.6405C25.1915 18.0947 25.2 17.5545 25.2 14C25.2 10.5357 25.1908 9.97109 25.1191 8.35992C25.0676 7.26468 24.9193 6.52609 24.6544 5.84245C24.4194 5.23653 24.137 4.79689 23.6704 4.32957C23.2008 3.86001 22.7648 3.5797 22.1565 3.34519C21.4718 3.07936 20.736 2.93154 19.6403 2.88093C18.0947 2.80847 17.5545 2.8 14 2.8ZM14 0C17.8033 0 18.2781 0.0139999 19.7715 0.0839999C21.2612 0.152838 22.2775 0.3885 23.17 0.735C24.0927 1.09084 24.8721 1.5715 25.6502 2.34966C26.4272 3.12784 26.908 3.9095 27.265 4.83C27.6102 5.72134 27.846 6.73866 27.916 8.2285C27.9825 9.72184 28 10.1967 28 14C28 17.8034 27.986 18.2781 27.916 19.7715C27.8471 21.2614 27.6102 22.2775 27.265 23.17C26.9091 24.0929 26.4272 24.8721 25.6502 25.6504C24.8721 26.4274 24.0892 26.908 23.17 27.265C22.2775 27.6104 21.2612 27.846 19.7715 27.916C18.2781 27.9825 17.8033 28 14 28C10.1967 28 9.72181 27.986 8.22849 27.916C6.73866 27.8471 5.72366 27.6104 4.83 27.265C3.90832 26.9091 3.12782 26.4274 2.34966 25.6504C1.5715 24.8721 1.092 24.0894 0.734999 23.17C0.3885 22.2775 0.154 21.2614 0.0840002 19.7715C0.0175002 18.2781 0 17.8034 0 14C0 10.1967 0.0140002 9.72184 0.0840002 8.2285C0.152824 6.7375 0.3885 5.7225 0.734999 4.83C1.09082 3.90834 1.5715 3.12784 2.34966 2.34966C3.12782 1.5715 3.9095 1.092 4.83 0.735C5.72249 0.3885 6.73749 0.154 8.22849 0.0839999C9.72181 0.0174999 10.1967 0 14 0Z" fill="#3A2E2E"/>
</svg>
