<svg width="131" height="119" viewBox="0 0 131 119" fill="none" xmlns="http://www.w3.org/2000/svg">
<path fill-rule="evenodd" clip-rule="evenodd" d="M123.59 59.6095L124.584 59.4995C124.547 59.1652 124.507 58.8306 124.465 58.4957C124.422 58.1609 124.376 57.827 124.328 57.4942L123.338 57.6376L122.349 57.781C122.395 58.1027 122.439 58.4255 122.481 58.7492C122.522 59.073 122.561 59.3964 122.596 59.7196L123.59 59.6095ZM123.022 55.6864L124.006 55.5099C123.887 54.8457 123.757 54.1859 123.617 53.5307L122.639 53.7405L121.661 53.9504C121.797 54.5835 121.923 55.2211 122.038 55.863L123.022 55.6864ZM122.191 51.8124L123.161 51.5694C122.997 50.9171 122.823 50.2697 122.639 49.6272L121.678 49.9031L120.717 50.179C120.895 50.7996 121.063 51.4251 121.221 52.0553L122.191 51.8124ZM121.395 45.7945C121.624 46.424 121.842 47.0589 122.05 47.6991L121.099 48.0078L120.147 48.3165C119.947 47.6981 119.736 47.0849 119.515 46.4769L120.455 46.1357L121.395 45.7945ZM119.749 44.2885L120.676 43.9152C120.425 43.2908 120.164 42.672 119.892 42.0592L118.978 42.4642L118.064 42.8692C118.326 43.4611 118.578 44.0586 118.821 44.6618L119.749 44.2885ZM118.136 38.436C118.448 39.0283 118.752 39.627 119.045 40.2319L118.145 40.6681L117.245 41.1043C116.962 40.5201 116.669 39.9419 116.367 39.3698L117.251 38.9029L118.136 38.436ZM116.297 37.1686L117.165 36.6716C116.831 36.088 116.487 35.5111 116.134 34.941L115.284 35.4676L114.434 35.9941C114.775 36.5448 115.107 37.102 115.43 37.6656L116.297 37.1686ZM114.213 33.8031L115.044 33.2477C114.671 32.6891 114.289 32.1374 113.898 31.593L113.086 32.1766L112.274 32.7601C112.652 33.286 113.021 33.8189 113.381 34.3585L114.213 33.8031ZM111.437 28.4045C111.865 28.9212 112.284 29.4455 112.694 29.9774L111.903 30.5884L111.111 31.1994C110.715 30.6856 110.31 30.179 109.896 29.6798L110.667 29.0421L111.437 28.4045ZM109.379 27.5392L110.127 26.8756C109.681 26.373 109.227 25.8784 108.765 25.3918L108.04 26.0805L107.315 26.7691C107.761 27.2392 108.2 27.7171 108.631 28.2027L109.379 27.5392ZM106.652 24.6682L107.353 23.9553C106.875 23.4844 106.388 23.0218 105.894 22.5678L105.217 23.3041L104.541 24.0404C105.018 24.4792 105.488 24.9261 105.951 25.3811L106.652 24.6682ZM103.737 21.9894L104.388 21.2305C103.879 20.7933 103.362 20.3647 102.838 19.9451L102.213 20.7256L101.588 21.5062C102.094 21.9117 102.594 22.3258 103.086 22.7483L103.737 21.9894ZM100.647 19.5144L101.245 18.7131C100.707 18.3115 100.163 17.919 99.6112 17.5358L99.0405 18.3569L98.4697 19.1781C99.0025 19.5484 99.5288 19.9276 100.049 20.3157L100.647 19.5144ZM97.3958 17.2547L97.9383 16.4147C97.3746 16.0506 96.8046 15.696 96.2285 15.3511L95.7148 16.2091L95.2011 17.0671C95.7578 17.4004 96.3086 17.743 96.8533 18.0948L97.3958 17.2547ZM93.999 15.2211L94.4832 14.3461C93.8961 14.0212 93.3032 13.7061 92.7046 13.4011L92.2505 14.292L91.7964 15.1829C92.3746 15.4777 92.9475 15.7821 93.5148 16.096L93.999 15.2211ZM90.472 13.4233L90.8955 12.5174C90.2879 12.2334 89.6749 11.9595 89.0569 11.6959L88.6646 12.6157L88.2723 13.5355C88.8693 13.7902 89.4615 14.0548 90.0485 14.3292L90.472 13.4233ZM86.83 11.8701L87.1906 10.9374C86.5654 10.6956 85.9353 10.4643 85.3008 10.2436L84.9723 11.1881L84.6438 12.1327C85.2568 12.3458 85.8654 12.5693 86.4694 12.8028L86.83 11.8701ZM83.0921 10.5702L83.388 9.61497C82.7474 9.41655 82.1026 9.22886 81.4538 9.05207L81.1909 10.0169L80.928 10.9817C81.5547 11.1525 82.1775 11.3338 82.7962 11.5254L83.0921 10.5702ZM79.2724 9.52942L79.502 8.55613C78.85 8.40235 78.1943 8.25952 77.5352 8.1278L77.3392 9.10841L77.1433 10.089C77.7799 10.2162 78.4132 10.3542 79.0428 10.5027L79.2724 9.52942ZM75.3914 8.75392L75.5535 7.76715C74.8921 7.65851 74.2275 7.56102 73.5599 7.47485L73.4319 8.46662L73.3039 9.45839C73.9487 9.54162 74.5906 9.63578 75.2293 9.7407L75.3914 8.75392ZM71.4664 8.24717L71.5603 7.25159C70.8936 7.18873 70.2242 7.13714 69.5523 7.09701L69.4927 8.09523L69.4331 9.09345C70.082 9.13222 70.7286 9.18204 71.3725 9.24276L71.4664 8.24717ZM67.5126 8.01101L67.538 7.01133C66.8698 6.99438 66.1994 6.98876 65.527 6.99464L65.5357 7.99461L65.5445 8.99457C66.1941 8.98888 66.8418 8.99431 67.4873 9.01069L67.5126 8.01101ZM63.5568 8.04562L63.514 7.04653C62.8445 7.07518 62.1732 7.11528 61.5005 7.16697L61.5771 8.16403L61.6537 9.16109C62.3039 9.11113 62.9526 9.07239 63.5996 9.0447L63.5568 8.04562ZM59.6091 8.34857L59.499 7.35464C59.1648 7.39165 58.8302 7.43154 58.4953 7.47433C58.1605 7.51712 57.8266 7.56263 57.4938 7.61085L57.6372 8.60052L57.7806 9.59019C58.1023 9.54357 58.425 9.49957 58.7488 9.4582C59.0726 9.41683 59.396 9.37827 59.7191 9.34249L59.6091 8.34857ZM55.686 8.91672L55.5095 7.93243C54.8453 8.05156 54.1855 8.18154 53.5303 8.32215L53.7401 9.29989L53.9499 10.2776C54.5831 10.1418 55.2207 10.0162 55.8626 9.90102L55.686 8.91672ZM51.812 9.74808L51.569 8.77804C50.9167 8.94141 50.2693 9.11541 49.6268 9.29983L49.9027 10.261L50.1786 11.2222C50.7992 11.0441 51.4247 10.876 52.0549 10.7181L51.812 9.74808ZM48.0074 10.8404L47.6987 9.88923C47.0585 10.097 46.4236 10.3152 45.7941 10.5437L46.1353 11.4837L46.4765 12.4237C47.0844 12.203 47.6977 11.9922 48.3161 11.7915L48.0074 10.8404ZM44.2881 12.1903L43.9148 11.2626C43.2903 11.5138 42.6716 11.7753 42.0588 12.0467L42.4638 12.9611L42.8688 13.8754C43.4606 13.6132 44.0582 13.3607 44.6613 13.118L44.2881 12.1903ZM40.6677 13.7939L40.2314 12.8941C39.6266 13.1873 39.0279 13.4904 38.4355 13.8032L38.9025 14.6875L39.3694 15.5718C39.9415 15.2697 40.5197 14.9769 41.1039 14.6937L40.6677 13.7939ZM37.1682 15.6416L36.6711 14.7739C36.0876 15.1082 35.5107 15.452 34.9406 15.8051L35.4672 16.6552L35.9937 17.5053C36.5444 17.1643 37.1016 16.8322 37.6652 16.5094L37.1682 15.6416ZM33.8027 17.726L33.2473 16.8945C32.6886 17.2676 32.137 17.6499 31.5926 18.0411L32.1762 18.8532L32.7597 19.6652C33.2856 19.2873 33.8185 18.9181 34.3581 18.5576L33.8027 17.726ZM30.588 20.0361L29.977 19.2445C29.4451 19.655 28.9207 20.0742 28.404 20.5019L29.0417 21.2722L29.6794 22.0426C30.1785 21.6293 30.6851 21.2243 31.199 20.8278L30.588 20.0361ZM27.5387 22.5602L26.8752 21.8121C26.3726 22.2578 25.878 22.7118 25.3914 23.1739L26.08 23.899L26.7687 24.6241C27.2388 24.1777 27.7167 23.739 28.2023 23.3083L27.5387 22.5602ZM24.6678 25.2867L23.9549 24.5855C23.484 25.0642 23.0214 25.5507 22.5674 26.0448L23.3037 26.7214L24.04 27.3981C24.4787 26.9206 24.9257 26.4505 25.3807 25.988L24.6678 25.2867ZM21.989 28.2018L21.2301 27.5505C20.7929 28.06 20.3643 28.5769 19.9447 29.1008L20.7252 29.7259L21.5058 30.3511C21.9112 29.8448 22.3253 29.3453 22.7479 28.853L21.989 28.2018ZM19.514 31.292L18.7127 30.6938C18.3111 31.2316 17.9186 31.7764 17.5354 32.3277L18.3565 32.8984L19.1777 33.4692C19.5479 32.9364 19.9272 32.4101 20.3153 31.8903L19.514 31.292ZM17.2543 34.5431L16.4143 34.0006C16.0502 34.5643 15.6956 35.1343 15.3507 35.7104L16.2087 36.2241L17.0667 36.7378C17.3999 36.1811 17.7426 35.6303 18.0944 35.0856L17.2543 34.5431ZM15.2207 37.9399L14.3457 37.4557C14.0208 38.0428 13.7057 38.6357 13.4007 39.2342L14.2916 39.6884L15.1825 40.1425C15.4773 39.5642 15.7817 38.9914 16.0956 38.4241L15.2207 37.9399ZM13.4229 41.4669L12.517 41.0434C12.233 41.651 11.959 42.264 11.6955 42.882L12.6153 43.2743L13.5351 43.6666C13.7898 43.0696 14.0544 42.4774 14.3288 41.8904L13.4229 41.4669ZM11.8697 45.1089L10.9369 44.7483C10.6952 45.3735 10.4639 46.0036 10.2432 46.6381L11.1877 46.9666L12.1322 47.2951C12.3454 46.6821 12.5688 46.0735 12.8024 45.4695L11.8697 45.1089ZM10.5698 48.8468L9.61456 48.5509C9.41614 49.1915 9.22844 49.8363 9.05165 50.4851L10.0165 50.748L10.9813 51.0109C11.1521 50.3842 11.3333 49.7614 11.525 49.1427L10.5698 48.8468ZM9.529 52.6665L8.55571 52.4369C8.40194 53.0889 8.2591 53.7446 8.12738 54.4037L9.10799 54.5997L10.0886 54.7956C10.2158 54.159 10.3538 53.5257 10.5023 52.8961L9.529 52.6665ZM8.75351 56.5475L7.76673 56.3854C7.65809 57.0468 7.5606 57.7114 7.47443 58.3789L8.4662 58.507L9.45797 58.635C9.5412 57.9902 9.63536 57.3483 9.74028 56.7096L8.75351 56.5475ZM8.24676 60.4725L7.25117 60.3786C7.18831 61.0453 7.13673 61.7147 7.09659 62.3866L8.09481 62.4462L9.09303 62.5058C9.1318 61.8569 9.18163 61.2103 9.24234 60.5664L8.24676 60.4725ZM8.01059 64.4263L7.01091 64.4009C6.99396 65.0691 6.98834 65.7395 6.99423 66.4119L7.99419 66.4032L8.99415 66.3944C8.98846 65.7448 8.99389 65.0971 9.01027 64.4516L8.01059 64.4263ZM8.0452 68.3821L7.04611 68.4249C7.07477 69.0944 7.11486 69.7656 7.16655 70.4384L8.16361 70.3618L9.16067 70.2852C9.11072 69.635 9.07197 68.9863 9.04429 68.3393L8.0452 68.3821ZM7.47391 73.4436C7.43113 73.1087 7.39124 72.7741 7.35423 72.4399L8.34815 72.3298L9.34208 72.2198C9.37785 72.5429 9.41642 72.8663 9.45778 73.1901C9.49915 73.5138 9.54315 73.8366 9.58977 74.1583L8.6001 74.3017L7.61044 74.4451C7.56221 74.1123 7.5167 73.7784 7.47391 73.4436ZM8.91631 76.2529L7.93201 76.4294C8.05114 77.0936 8.18112 77.7534 8.32173 78.4086L9.29947 78.1988L10.2772 77.989C10.1413 77.3558 10.0157 76.7182 9.9006 76.0763L8.91631 76.2529ZM9.74766 80.1269L8.77762 80.3699C8.94099 81.0222 9.11499 81.6696 9.29941 82.3121L10.2606 82.0362L11.2218 81.7603C11.0436 81.1397 10.8755 80.5142 10.7177 79.884L9.74766 80.1269ZM10.84 83.9315L9.88881 84.2402C10.0966 84.8804 10.3148 85.5153 10.5433 86.1448L11.4833 85.8036L12.4233 85.4624C12.2026 84.8545 11.9918 84.2412 11.7911 83.6228L10.84 83.9315ZM12.1899 87.6508L11.2622 88.0241C11.5134 88.6486 11.7749 89.2673 12.0463 89.8801L12.9606 89.4751L13.875 89.0701C13.6128 88.4783 13.3603 87.8807 13.1176 87.2776L12.1899 87.6508ZM13.7935 91.2712L12.8936 91.7075C13.1869 92.3123 13.49 92.911 13.8027 93.5034L14.687 93.0364L15.5713 92.5695C15.2693 91.9974 14.9765 91.4192 14.6933 90.835L13.7935 91.2712ZM15.6412 94.7707L14.7735 95.2677C15.1077 95.8513 15.4515 96.4282 15.8046 96.9983L16.6548 96.4717L17.5049 95.9452C17.1639 95.3945 16.8318 94.8373 16.509 94.2737L15.6412 94.7707ZM17.7256 98.1362L16.894 98.6916C17.2672 99.2503 17.6495 99.8019 18.0407 100.346L18.8527 99.7627L19.6648 99.1792C19.2869 98.6533 18.9176 98.1204 18.5572 97.5808L17.7256 98.1362ZM114.403 99.6116C114.02 100.163 113.627 100.708 113.226 101.246L112.424 100.647L111.623 100.049C112.011 99.5292 112.391 99.0029 112.761 98.4701L113.582 99.0409L114.403 99.6116ZM114.684 97.3962L115.524 97.9388C115.888 97.3751 116.243 96.805 116.588 96.2289L115.73 95.7152L114.872 95.2015C114.539 95.7582 114.196 96.309 113.844 96.8537L114.684 97.3962ZM116.718 93.9994L117.593 94.4836C117.918 93.8965 118.233 93.3036 118.538 92.7051L117.647 92.2509L116.756 91.7968C116.461 92.3751 116.157 92.9479 115.843 93.5152L116.718 93.9994ZM118.516 90.4724L119.421 90.8959C119.706 90.2883 119.979 89.6753 120.243 89.0573L119.323 88.665L118.403 88.2727C118.149 88.8697 117.884 89.4619 117.61 90.0489L118.516 90.4724ZM120.069 86.8304L121.002 87.1911C121.243 86.5658 121.475 85.9357 121.695 85.3012L120.751 84.9727L119.806 84.6443C119.593 85.2572 119.37 85.8658 119.136 86.4698L120.069 86.8304ZM121.369 83.0925L122.324 83.3884C122.522 82.7478 122.71 82.103 122.887 81.4542L121.922 81.1913L120.957 80.9284C120.786 81.5551 120.605 82.1779 120.413 82.7966L121.369 83.0925ZM122.409 79.2728L123.383 79.5024C123.537 78.8504 123.679 78.1948 123.811 77.5356L122.83 77.3396L121.85 77.1437C121.723 77.7803 121.585 78.4136 121.436 79.0433L122.409 79.2728ZM123.185 75.3918L124.172 75.5539C124.28 74.8925 124.378 74.2279 124.464 73.5604L123.472 73.4324L122.481 73.3043C122.397 73.9491 122.303 74.591 122.198 75.2298L123.185 75.3918ZM123.692 71.4668L124.687 71.5607C124.75 70.894 124.802 70.2246 124.842 69.5528L123.844 69.4931L122.845 69.4335C122.807 70.0825 122.757 70.729 122.696 71.373L123.692 71.4668ZM123.928 67.513L124.928 67.5384C124.945 66.8702 124.95 66.1998 124.944 65.5274L123.944 65.5361L122.944 65.5449C122.95 66.1945 122.945 66.8422 122.928 67.4877L123.928 67.513ZM123.893 63.5572L124.892 63.5145C124.864 62.8449 124.824 62.1737 124.772 61.5009L123.775 61.5775L122.778 61.6541C122.828 62.3043 122.867 62.953 122.894 63.6L123.893 63.5572Z" fill="#C3911A"/>
<path d="M45.0163 62.4907L65.6026 46.6099C65.7917 46.464 66.0288 46.3897 66.2671 46.4063C71.2607 46.7538 72.9189 48.7325 74.8491 53.4994C74.8676 53.545 74.8899 53.5907 74.915 53.6331C79.46 61.3078 88.0583 64.3534 91.0439 66.7418C94.0377 69.1369 89.4333 71.6059 87.4513 71.5319C85.7313 71.4678 74.2367 62.8354 70.9528 59.869C70.473 59.4356 69.5786 59.317 69.0534 59.694C65.0745 62.5511 62.6603 64.5883 59.7885 67.8722C59.2924 68.4395 59.5983 69.3238 60.3357 69.479L70.0135 71.5164C70.0625 71.5268 70.1146 71.5335 70.1646 71.5365C76.8243 71.9423 75.538 74.9031 74.8867 79.2523C74.8804 79.2943 74.872 79.3344 74.8605 79.3753C74.531 80.5445 69.43 98.6125 67.692 102.668C65.8957 106.859 59.3094 106.859 61.1056 100.871C62.6288 95.7938 66.3051 82.1043 67.3874 78.0605C67.5475 77.4622 67.1278 76.8688 66.5111 76.8114C60.2489 76.2288 57.1415 75.8932 52.7229 75.1245C39.7814 72.4137 40.7373 67.3928 44.8742 62.6248C44.9168 62.5756 44.9649 62.5305 45.0163 62.4907Z" stroke="black" stroke-width="1.5"/>
<circle cx="79.2448" cy="42.7916" r="6.43519" stroke="black" stroke-width="1.5"/>
<circle cx="36.1331" cy="93.0882" r="18.4105" stroke="black" stroke-width="1.5"/>
<circle cx="94.8119" cy="93.0882" r="18.4105" stroke="black" stroke-width="1.5"/>
</svg>
