<svg width="116" height="117" viewBox="0 0 116 117" fill="none" xmlns="http://www.w3.org/2000/svg">
<path d="M33.0283 82.6738C40.7871 83.8636 44.0474 85.0774 48.7457 87.7714C56.0375 89.8213 60.5645 90.1984 68.711 90.7449C73.7452 92.7183 74.0858 94.6922 74.2334 98.3912H79.7557L96.3227 87.7714C103.452 85.8693 106.093 90.3201 101.845 93.7185C97.5971 97.1168 88.2516 106.887 88.2516 106.887C83.7206 111.608 80.8236 112.355 75.5078 112.834L52.5689 115.808C44.9581 114.744 40.6744 113.096 33.0283 109.861" stroke="black" stroke-width="1.7"/>
<path d="M44.0732 98.3906L46.622 100.515C59.6675 99.5854 65.6357 99.1429 74.6584 98.3906" stroke="black" stroke-width="1.7"/>
<rect x="17.7367" y="78.4262" width="10.1942" height="33.1331" rx="2.15" stroke="black" stroke-width="1.7"/>
<path d="M29.3499 43.9488C31.1404 42.2253 33.9892 42.2796 35.7127 44.0702L40.5234 49.0681L32.3203 56.964L27.5095 51.9661C25.786 50.1755 25.8404 47.3268 27.631 45.6033L29.3499 43.9488Z" stroke="black"/>
<path d="M42.9701 61.8692C41.1534 63.565 38.3058 63.467 36.6099 61.6502L31.8764 56.5792L40.1996 48.8099L44.9331 53.881C46.629 55.6978 46.531 58.5453 44.7142 60.2412L42.9701 61.8692Z" fill="#C3911A" stroke="black"/>
<path d="M78.2657 58.5276C79.9781 60.3287 79.9063 63.177 78.1051 64.8895L73.0778 69.6694L65.2324 61.4179L70.2598 56.638C72.0609 54.9255 74.9092 54.9974 76.6217 56.7985L78.2657 58.5276Z" stroke="black"/>
<path d="M60.2618 72.0382C58.5771 70.211 58.6926 67.3641 60.5198 65.6795L65.6198 60.9772L73.3378 69.3479L68.2377 74.0502C66.4106 75.7349 63.5637 75.6194 61.879 73.7922L60.2618 72.0382Z" fill="#C3911A" stroke="black"/>
<path d="M66.2825 16.3045C68.7674 16.3453 70.7488 18.3929 70.7079 20.8778L70.5939 27.8139L59.2096 27.6267L59.3236 20.6907C59.3645 18.2057 61.4121 16.2244 63.897 16.2652L66.2825 16.3045Z" stroke="black"/>
<path d="M63.3014 38.6161C60.8174 38.5372 58.8677 36.4595 58.9466 33.9754L59.167 27.0419L70.547 27.4036L70.3267 34.337C70.2478 36.8211 68.1701 38.7708 65.686 38.6919L63.3014 38.6161Z" fill="#C3911A" stroke="black"/>
<path fill-rule="evenodd" clip-rule="evenodd" d="M114.879 58.9197L115.878 58.9365C115.884 58.6061 115.887 58.2751 115.887 57.9434C115.887 57.6116 115.884 57.2806 115.878 56.9502L114.879 56.967L113.879 56.9838C113.884 57.303 113.887 57.6229 113.887 57.9434C113.887 58.2639 113.884 58.5837 113.879 58.9029L114.879 58.9197ZM114.813 55.0265L115.812 54.9761C115.779 54.314 115.734 53.6547 115.679 52.9986L114.682 53.0828L113.686 53.167C113.739 53.8006 113.782 54.4373 113.815 55.0769L114.813 55.0265ZM114.486 51.1483L115.479 51.0302C115.401 50.3742 115.312 49.7214 115.212 49.0723L114.223 49.2241L113.235 49.376C113.331 50.0027 113.417 50.6329 113.493 51.2664L114.486 51.1483ZM113.895 47.3053L114.878 47.1197C114.755 46.4698 114.621 45.8238 114.477 45.1818L113.501 45.4011L112.526 45.6204C112.665 46.2401 112.794 46.8637 112.912 47.491L113.895 47.3053ZM113.043 43.5133L114.01 43.2607C113.843 42.6207 113.665 41.9851 113.477 41.354L112.519 41.6399L111.561 41.9257C111.742 42.5349 111.914 43.1484 112.075 43.766L113.043 43.5133ZM112.216 37.6039C112.447 38.2202 112.668 38.8415 112.879 39.4675L111.931 39.7862L110.983 40.1048C110.78 39.5006 110.567 38.9009 110.344 38.306L111.28 37.955L112.216 37.6039ZM110.566 36.1464L111.49 35.7633C111.237 35.153 110.974 34.5479 110.7 33.9483L109.79 34.3628L108.88 34.7774C109.144 35.3562 109.398 35.9403 109.642 36.5295L110.566 36.1464ZM108.954 32.6078L109.85 32.1622C109.555 31.5712 109.252 30.986 108.938 30.4067L108.059 30.8826L107.179 31.3585C107.482 31.9178 107.775 32.4828 108.059 33.0533L108.954 32.6078ZM106.937 26.9925C107.289 27.5493 107.632 28.1126 107.966 28.6821L107.104 29.1879L106.241 29.6936C105.919 29.1438 105.587 28.5999 105.247 28.0622L106.092 27.5274L106.937 26.9925ZM105.024 25.9026L105.85 25.3392C105.478 24.7939 105.097 24.2552 104.708 23.7234L103.901 24.3146L103.094 24.9058C103.471 25.4193 103.839 25.9394 104.198 26.466L105.024 25.9026ZM102.725 22.7658L103.511 22.1476C103.103 21.629 102.686 21.1176 102.261 20.6135L101.497 21.2581L100.732 21.9027C101.143 22.3895 101.545 22.8834 101.939 23.3841L102.725 22.7658ZM100.218 19.7928L100.96 19.1226C100.518 18.633 100.068 18.151 99.6091 17.6767L98.8901 18.3717L98.1711 19.0667C98.6138 19.5247 99.0488 19.9902 99.4757 20.463L100.218 19.7928ZM97.515 16.9966L98.21 16.2776C97.7358 15.8192 97.2537 15.3688 96.7641 14.9266L96.0939 15.6688L95.4237 16.411C95.8965 16.838 96.362 17.2729 96.82 17.7156L97.515 16.9966ZM94.6286 14.3901L95.2732 13.6256C94.7692 13.2006 94.2577 12.784 93.7392 12.3761L93.1209 13.162L92.5026 13.948C93.0034 14.3419 93.4972 14.7442 93.984 15.1546L94.6286 14.3901ZM91.5721 11.9857L92.1633 11.1792C91.6315 10.7894 91.0928 10.4085 90.5475 10.0366L89.9841 10.8628L89.4207 11.689C89.9473 12.0481 90.4674 12.4159 90.9809 12.7923L91.5721 11.9857ZM88.3594 9.79502L88.8943 8.9501C88.3374 8.59756 87.7741 8.25426 87.2046 7.9204L86.6989 8.7831L86.1931 9.64579C86.743 9.96811 87.2868 10.2996 87.8245 10.6399L88.3594 9.79502ZM85.0041 7.82818L85.48 6.94869C84.9007 6.63521 84.3155 6.33131 83.7245 6.0372L83.279 6.93247L82.8334 7.82774C83.404 8.11166 83.9689 8.40503 84.5282 8.70767L85.0041 7.82818ZM81.5239 6.09631L81.9385 5.18629C81.3388 4.91312 80.7337 4.64988 80.1234 4.39677L79.7403 5.3205L79.3573 6.24423C79.9464 6.48854 80.5305 6.74264 81.1093 7.00633L81.5239 6.09631ZM77.9317 4.6067L78.2828 3.67035C77.6665 3.43928 77.0453 3.21841 76.4192 3.00795L76.1006 3.95582L75.7819 4.90368C76.3862 5.10683 76.9858 5.32002 77.5807 5.54305L77.9317 4.6067ZM74.2468 3.36794L74.5327 2.40966C73.9016 2.22141 73.266 2.04363 72.6261 1.87651L72.3734 2.84406L72.1207 3.81161C72.7384 3.97292 73.3519 4.14452 73.961 4.32621L74.2468 3.36794ZM70.4856 2.38555L70.7049 1.40989C70.0629 1.2656 69.4169 1.13196 68.7671 1.00918L68.5814 1.99179L68.3957 2.9744C69.023 3.09293 69.6466 3.22193 70.2663 3.36121L70.4856 2.38555ZM66.6626 1.66322L66.8145 0.674822C66.1653 0.575086 65.5126 0.486124 64.8565 0.408124L64.7384 1.40113L64.6204 2.39414C65.2538 2.46945 65.884 2.55534 66.5107 2.65163L66.6626 1.66322ZM62.8039 1.20448L62.8881 0.208028C62.232 0.152578 61.5728 0.108061 60.9106 0.0746602L60.8602 1.07339L60.8098 2.07212C61.4494 2.10438 62.0861 2.14738 62.7197 2.20092L62.8039 1.20448ZM58.9197 1.0082L58.9365 0.00833988C58.6061 0.00278735 58.2751 0 57.9434 0C57.6116 0 57.2806 0.00278735 56.9502 0.00833988L56.967 1.0082L56.9838 2.00806C57.303 2.00269 57.6229 2 57.9434 2C58.2639 2 58.5837 2.00269 58.9029 2.00806L58.9197 1.0082ZM55.0265 1.07339L54.9761 0.0746602C54.314 0.108061 53.6547 0.152578 52.9986 0.208028L53.0828 1.20448L53.167 2.20092C53.8006 2.14738 54.4373 2.10438 55.0769 2.07212L55.0265 1.07339ZM51.1483 1.40113L51.0302 0.408125C50.3742 0.486124 49.7214 0.575086 49.0723 0.674822L49.2241 1.66322L49.376 2.65163C50.0027 2.55534 50.6329 2.46945 51.2664 2.39414L51.1483 1.40113ZM47.3053 1.99179L47.1197 1.00918C46.4698 1.13196 45.8238 1.2656 45.1818 1.40989L45.4011 2.38555L45.6204 3.36121C46.2401 3.22193 46.8637 3.09293 47.491 2.9744L47.3053 1.99179ZM43.5133 2.84406L43.2607 1.87651C42.6207 2.04363 41.9851 2.22141 41.354 2.40966L41.6399 3.36794L41.9257 4.32621C42.5349 4.14451 43.1484 3.97291 43.766 3.81161L43.5133 2.84406ZM37.6039 3.67035C38.2202 3.43928 38.8415 3.21841 39.4675 3.00794L39.7862 3.95581L40.1048 4.90368C39.5006 5.10683 38.9009 5.32001 38.306 5.54305L37.955 4.6067L37.6039 3.67035ZM36.1464 5.3205L35.7633 4.39677C35.153 4.64988 34.5479 4.91312 33.9483 5.18628L34.3628 6.0963L34.7774 7.00632C35.3562 6.74264 35.9403 6.48854 36.5295 6.24423L36.1464 5.3205ZM32.6078 6.93247L32.1622 6.0372C31.5712 6.33131 30.986 6.6352 30.4067 6.94869L30.8826 7.82818L31.3585 8.70767C31.9178 8.40503 32.4828 8.11165 33.0533 7.82774L32.6078 6.93247ZM29.1879 8.78309L28.6821 7.9204C28.1126 8.25426 27.5493 8.59756 26.9925 8.95009L27.5274 9.79502L28.0622 10.6399C28.5999 10.2996 29.1438 9.96811 29.6936 9.64579L29.1879 8.78309ZM25.9026 10.8628L25.3392 10.0366C24.7939 10.4085 24.2552 10.7894 23.7234 11.1792L24.3146 11.9857L24.9058 12.7923C25.4193 12.4159 25.9394 12.0481 26.466 11.689L25.9026 10.8628ZM22.7658 13.162L22.1476 12.3761C21.629 12.784 21.1176 13.2006 20.6135 13.6256L21.2581 14.3901L21.9027 15.1546C22.3895 14.7442 22.8834 14.3419 23.3841 13.948L22.7658 13.162ZM19.7928 15.6688L19.1226 14.9266C18.633 15.3688 18.151 15.8192 17.6767 16.2776L18.3717 16.9966L19.0667 17.7156C19.5247 17.2729 19.9902 16.838 20.463 16.411L19.7928 15.6688ZM16.9966 18.3717L16.2776 17.6767C15.8192 18.151 15.3688 18.633 14.9266 19.1226L15.6688 19.7928L16.411 20.463C16.838 19.9902 17.2729 19.5247 17.7156 19.0667L16.9966 18.3717ZM12.3761 22.1476C12.784 21.629 13.2006 21.1176 13.6256 20.6135L14.3901 21.2581L15.1546 21.9027C14.7442 22.3895 14.3419 22.8834 13.948 23.3841L13.162 22.7658L12.3761 22.1476ZM11.9857 24.3146L11.1792 23.7234C10.7894 24.2552 10.4085 24.7939 10.0366 25.3392L10.8628 25.9026L11.689 26.466C12.0481 25.9394 12.4159 25.4193 12.7923 24.9058L11.9857 24.3146ZM9.79502 27.5273L8.9501 26.9925C8.59756 27.5493 8.25426 28.1126 7.9204 28.6821L8.7831 29.1879L9.64579 29.6936C9.96811 29.1438 10.2996 28.5999 10.6399 28.0622L9.79502 27.5273ZM7.82818 30.8826L6.94869 30.4067C6.63521 30.986 6.33131 31.5712 6.0372 32.1622L6.93247 32.6078L7.82774 33.0533C8.11166 32.4828 8.40503 31.9178 8.70767 31.3585L7.82818 30.8826ZM6.09631 34.3628L5.18628 33.9482C4.91312 34.5479 4.64988 35.153 4.39678 35.7633L5.3205 36.1464L6.24423 36.5294C6.48854 35.9403 6.74264 35.3562 7.00633 34.7774L6.09631 34.3628ZM4.6067 37.955L3.67035 37.6039C3.43928 38.2202 3.21841 38.8414 3.00795 39.4675L3.95582 39.7862L4.90368 40.1048C5.10683 39.5005 5.32002 38.9009 5.54305 38.306L4.6067 37.955ZM3.36794 41.6399L2.40966 41.354C2.22141 41.9851 2.04363 42.6207 1.87651 43.2607L2.84406 43.5133L3.81161 43.766C3.97292 43.1484 4.14452 42.5349 4.32621 41.9257L3.36794 41.6399ZM2.38555 45.4011L1.40989 45.1818C1.2656 45.8238 1.13196 46.4698 1.00918 47.1197L1.99179 47.3053L2.9744 47.491C3.09293 46.8637 3.22193 46.2401 3.36121 45.6204L2.38555 45.4011ZM1.66322 49.2241L0.674822 49.0723C0.575086 49.7214 0.486124 50.3742 0.408124 51.0302L1.40113 51.1483L2.39414 51.2664C2.46945 50.6329 2.55534 50.0027 2.65163 49.376L1.66322 49.2241ZM1.20448 53.0828L0.208028 52.9986C0.152578 53.6547 0.108061 54.314 0.0746603 54.9761L1.07339 55.0265L2.07212 55.0769C2.10438 54.4373 2.14738 53.8006 2.20092 53.167L1.20448 53.0828ZM0 57.9434C0 57.6116 0.00278734 57.2806 0.00833989 56.9502L1.0082 56.967L2.00806 56.9838C2.00269 57.303 2 57.6229 2 57.9434C2 58.2639 2.00269 58.5837 2.00806 58.9029L1.0082 58.9197L0.00833989 58.9365C0.00278734 58.6061 0 58.2751 0 57.9434ZM1.07339 60.8602L0.0746602 60.9106C0.108061 61.5728 0.152578 62.232 0.208028 62.8881L1.20448 62.8039L2.20092 62.7197C2.14738 62.0861 2.10438 61.4494 2.07212 60.8098L1.07339 60.8602ZM1.40113 64.7384L0.408124 64.8565C0.486124 65.5126 0.575086 66.1653 0.674822 66.8145L1.66322 66.6626L2.65163 66.5107C2.55534 65.884 2.46945 65.2538 2.39414 64.6204L1.40113 64.7384ZM1.99179 68.5814L1.00918 68.7671C1.13196 69.4169 1.2656 70.0629 1.40989 70.7049L2.38555 70.4856L3.36121 70.2663C3.22193 69.6466 3.09293 69.023 2.9744 68.3957L1.99179 68.5814ZM2.84406 72.3734L1.87651 72.6261C2.04363 73.266 2.22141 73.9016 2.40966 74.5327L3.36794 74.2468L4.32621 73.961C4.14451 73.3519 3.97291 72.7384 3.81161 72.1207L2.84406 72.3734ZM3.95581 76.1006L3.00794 76.4192C3.21841 77.0453 3.43928 77.6665 3.67035 78.2828L4.6067 77.9317L5.54305 77.5807C5.32001 76.9858 5.10683 76.3862 4.90368 75.7819L3.95581 76.1006ZM5.3205 79.7403L4.39677 80.1234C4.64988 80.7337 4.91312 81.3388 5.18628 81.9385L6.0963 81.5239L7.00632 81.1093C6.74264 80.5305 6.48854 79.9464 6.24423 79.3573L5.3205 79.7403ZM6.93247 83.279L6.0372 83.7245C6.33131 84.3155 6.6352 84.9007 6.94869 85.48L7.82818 85.0041L8.70767 84.5282C8.40503 83.9689 8.11165 83.4039 7.82774 82.8334L6.93247 83.279ZM8.78309 86.6989L7.9204 87.2046C8.25426 87.7741 8.59756 88.3374 8.95009 88.8943L9.79502 88.3594L10.6399 87.8245C10.2996 87.2868 9.96811 86.743 9.64579 86.1931L8.78309 86.6989ZM10.8628 89.9841L10.0366 90.5475C10.4085 91.0928 10.7894 91.6315 11.1792 92.1633L11.9857 91.5721L12.7923 90.9809C12.4159 90.4674 12.0481 89.9473 11.689 89.4207L10.8628 89.9841ZM13.162 93.1209L12.3761 93.7392C12.784 94.2577 13.2006 94.7692 13.6256 95.2732L14.3901 94.6286L15.1546 93.984C14.7442 93.4972 14.3419 93.0033 13.948 92.5026L13.162 93.1209ZM16.2776 98.21C15.8192 97.7358 15.3688 97.2537 14.9266 96.7641L15.6688 96.0939L16.411 95.4237C16.5209 95.5454 16.6313 95.6666 16.7423 95.7874L16.7423 97.7608L16.2776 98.21ZM106.092 88.3594L106.937 88.8943C107.289 88.3374 107.632 87.7741 107.966 87.2046L107.104 86.6989L106.241 86.1931C105.919 86.743 105.587 87.2868 105.247 87.8245L106.092 88.3594ZM108.059 85.0041L108.938 85.48C109.252 84.9007 109.555 84.3155 109.85 83.7245L108.954 83.279L108.059 82.8334C107.775 83.404 107.482 83.9689 107.179 84.5282L108.059 85.0041ZM109.79 81.5239L110.7 81.9385C110.974 81.3389 111.237 80.7337 111.49 80.1234L110.566 79.7403L109.642 79.3573C109.398 79.9464 109.144 80.5305 108.88 81.1093L109.79 81.5239ZM111.28 77.9317L112.216 78.2828C112.447 77.6665 112.668 77.0453 112.879 76.4192L111.931 76.1006L110.983 75.7819C110.78 76.3862 110.567 76.9858 110.344 77.5807L111.28 77.9317ZM112.519 74.2468L113.477 74.5327C113.665 73.9016 113.843 73.266 114.01 72.6261L113.043 72.3734L112.075 72.1207C111.914 72.7384 111.742 73.3519 111.561 73.961L112.519 74.2468ZM113.501 70.4856L114.477 70.7049C114.621 70.0629 114.755 69.4169 114.878 68.7671L113.895 68.5814L112.912 68.3957C112.794 69.023 112.665 69.6466 112.526 70.2663L113.501 70.4856ZM114.223 66.6626L115.212 66.8144C115.312 66.1653 115.401 65.5126 115.479 64.8565L114.486 64.7384L113.493 64.6204C113.417 65.2538 113.331 65.884 113.235 66.5107L114.223 66.6626ZM114.682 62.8039L115.679 62.8881C115.734 62.232 115.779 61.5728 115.812 60.9106L114.813 60.8602L113.815 60.8098C113.782 61.4494 113.739 62.0861 113.686 62.7197L114.682 62.8039Z" fill="#C3911A"/>
</svg>
