<svg width="121" height="122" viewBox="0 0 121 122" fill="none" xmlns="http://www.w3.org/2000/svg">
<path d="M4.00044 37C3.35786 65.5794 10.5903 73.5727 38.0004 72.5V59.5C37.0802 51.5752 34.4037 49.2098 26.5004 48C12.7104 45.9347 8.69673 43.1166 4.00044 37Z" fill="#C3911A"/>
<path d="M39.5 27C49.1301 36.9131 52.4535 42.3309 40.7563 55C37.5 48.5 31.7563 45.5 31.7563 45.5C31.7563 45.5 32.5 37.5 39.5 27Z" fill="#C3911A"/>
<path d="M4.00044 37C3.35786 65.5794 10.5903 73.5727 38.0004 72.5V59.5C37.0802 51.5752 34.4037 49.2098 26.5004 48C12.7104 45.9347 8.69673 43.1166 4.00044 37Z" stroke="white"/>
<path d="M39.5 27C49.1301 36.9131 52.4535 42.3309 40.7563 55C37.5 48.5 31.7563 45.5 31.7563 45.5C31.7563 45.5 32.5 37.5 39.5 27Z" stroke="white"/>
<path d="M7.50017 63C-0.0941806 65.9673 -0.499363 69.5 4.00113 71.5C46.7618 81.6051 66.4525 80.1006 98.0003 71.5C104 69 98.7307 65.4173 88.5 61.5" stroke="black" stroke-width="2"/>
<path d="M1 68C3.76024 86.3922 6.88371 100.043 29.5 115.5C44.5 124 64.5 121.5 74.5 115.5C85.5 110.5 96.2648 92.4395 100.5 69.5" stroke="black" stroke-width="2" stroke-linecap="round"/>
<path d="M60.5 78L88.5 41.5001C87.0519 39.5573 85.2523 39.0432 88.5 35.5001C91.7477 31.9571 104.532 39.6477 101.5 44.0001C98.4682 48.3525 98.7525 46.6661 96.5 46.0001L79.5 76" stroke="black" stroke-width="2"/>
<path d="M70.5 46C50.3672 48.0322 42.98 52.6117 43 72.5C54.1832 74.034 59.4789 72.6216 66 63.5C66.4411 58.1464 67.6338 53.7942 70.5 46Z" fill="#C3911A" stroke="white"/>
<path d="M17.5 58C23.1699 67.3692 28.2334 69.8623 38.5 72.5" stroke="white"/>
<path d="M42 40C44.0922 45.3517 43.3935 48.9732 40.5 56" stroke="white"/>
<path d="M43.5 73.5C44.7545 65.4767 46.8625 62.2312 52.5 58" stroke="white"/>
<path d="M8.5 78C13.6197 98.793 21.4252 105.12 38.5 113" stroke="black"/>
<path fill-rule="evenodd" clip-rule="evenodd" d="M119.091 58.9773L120.091 58.9941C120.096 58.6634 120.099 58.332 120.099 58C120.099 57.668 120.096 57.3366 120.091 57.0059L119.091 57.0227L118.091 57.0395C118.096 57.359 118.099 57.6792 118.099 58C118.099 58.3208 118.096 58.641 118.091 58.9605L119.091 58.9773ZM119.025 55.0803L120.024 55.0299C119.991 54.3671 119.946 53.7072 119.891 53.0504L118.894 53.1346L117.898 53.2188C117.951 53.8531 117.994 54.4904 118.027 55.1306L119.025 55.0803ZM118.697 51.1982L119.69 51.0801C119.612 50.4234 119.523 49.77 119.423 49.1202L118.435 49.2721L117.447 49.4239C117.543 50.0513 117.629 50.6821 117.704 51.3162L118.697 51.1982ZM118.688 45.226C118.832 45.8686 118.966 46.5152 119.089 47.1657L118.106 47.3514L117.124 47.537C117.005 46.9091 116.876 46.2849 116.736 45.6646L117.712 45.4453L118.688 45.226ZM117.253 43.5556L118.221 43.3029C118.053 42.6624 117.875 42.0262 117.687 41.3945L116.729 41.6803L115.77 41.9661C115.952 42.5759 116.124 43.19 116.285 43.8083L117.253 43.5556ZM116.14 39.8247L117.088 39.5061C116.877 38.8794 116.656 38.2575 116.425 37.6407L115.489 37.9917L114.552 38.3428C114.776 38.9383 114.989 39.5385 115.192 40.1434L116.14 39.8247ZM114.774 36.1814L115.698 35.7983C115.445 35.1873 115.181 34.5816 114.908 33.9814L113.998 34.396L113.088 34.8106C113.351 35.39 113.606 35.9747 113.85 36.5644L114.774 36.1814ZM113.161 32.6392L114.056 32.1937C113.761 31.6021 113.457 31.0163 113.143 30.4364L112.264 30.9123L111.384 31.3882C111.687 31.9481 111.981 32.5136 112.265 33.0847L113.161 32.6392ZM111.308 29.2159L112.171 28.7102C111.837 28.1401 111.493 27.5763 111.14 27.0188L110.295 27.5537L109.45 28.0886C109.791 28.6268 110.123 29.1712 110.445 29.7216L111.308 29.2159ZM109.226 25.9274L110.052 25.364C109.68 24.8181 109.299 24.2789 108.909 23.7466L108.102 24.3378L107.296 24.929C107.672 25.443 108.041 25.9637 108.4 26.4908L109.226 25.9274ZM106.925 22.7875L107.711 22.1692C107.302 21.6501 106.885 21.1382 106.46 20.6336L105.695 21.2782L104.931 21.9229C105.342 22.4101 105.745 22.9045 106.139 23.4058L106.925 22.7875ZM104.416 19.8115L105.158 19.1413C104.715 18.6512 104.264 18.1687 103.805 17.694L103.086 18.389L102.367 19.084C102.811 19.5424 103.246 20.0084 103.673 20.4817L104.416 19.8115ZM101.71 17.0125L102.405 16.2935C101.93 15.8346 101.448 15.3838 100.958 14.9412L100.287 15.6834L99.6172 16.4256C100.09 16.853 100.556 17.2884 101.015 17.7315L101.71 17.0125ZM98.8207 14.4034L99.4653 13.6389C98.9607 13.2135 98.4488 12.7965 97.9297 12.3882L97.3114 13.1741L96.6932 13.9601C97.1944 14.3544 97.6888 14.7571 98.1761 15.1679L98.8207 14.4034ZM95.7611 11.9967L96.3523 11.1901C95.82 10.8 95.2808 10.4187 94.7349 10.0464L94.1716 10.8726L93.6082 11.6988C94.1353 12.0583 94.6559 12.4264 95.1699 12.8032L95.7611 11.9967ZM92.5452 9.80376L93.0801 8.95884C92.5227 8.60596 91.9588 8.26232 91.3888 7.92814L90.883 8.79083L90.3773 9.65353C90.9277 9.97618 91.4721 10.308 92.0103 10.6487L92.5452 9.80376ZM89.1866 7.83497L89.6625 6.95548C89.0827 6.64169 88.4968 6.33749 87.9053 6.0431L87.4597 6.93837L87.0142 7.83364C87.5853 8.11784 88.1509 8.41152 88.7107 8.71446L89.1866 7.83497ZM85.7029 6.10137L86.1175 5.19135C85.5173 4.91792 84.9116 4.65442 84.3006 4.40107L83.9176 5.32479L83.5345 6.24852C84.1243 6.49308 84.709 6.74744 85.2884 7.01139L85.7029 6.10137ZM82.1072 4.61028L82.4583 3.67393C81.8414 3.44264 81.2195 3.22155 80.5928 3.01088L80.2742 3.95875L79.9555 4.90662C80.5604 5.10997 81.1607 5.32337 81.7561 5.54663L82.1072 4.61028ZM78.4186 3.37029L78.7045 2.41201C78.0727 2.22358 77.4365 2.04562 76.796 1.87834L76.5433 2.84589L76.2906 3.81344C76.9089 3.97491 77.523 4.14668 78.1328 4.32856L78.4186 3.37029ZM74.6536 2.38692L74.8729 1.41126C74.2303 1.26683 73.5837 1.13306 72.9332 1.01016L72.7475 1.99277L72.5619 2.97538C73.1898 3.09403 73.814 3.22316 74.4343 3.36258L74.6536 2.38692ZM70.8268 1.66388L70.9787 0.675477C70.3289 0.575643 69.6755 0.486595 69.0188 0.408519L68.9007 1.40153L68.7827 2.39453C69.4168 2.46992 70.0476 2.5559 70.6749 2.65228L70.8268 1.66388ZM66.9643 1.20468L67.0485 0.208228C66.3917 0.152724 65.7318 0.108164 65.069 0.0747307L65.0186 1.07346L64.9682 2.07219C65.6085 2.10448 66.2458 2.14752 66.8801 2.20112L66.9643 1.20468ZM63.0762 1.00821L63.093 0.00834718C62.7623 0.00278978 62.4309 0 62.0989 0C61.7669 0 61.4355 0.00279006 61.1048 0.00834801L61.1216 1.00821L61.1384 2.00807C61.4579 2.0027 61.7781 2 62.0989 2C62.4197 2 62.7399 2.0027 63.0594 2.00806L63.0762 1.00821ZM59.1792 1.07346L59.1288 0.0747332C58.466 0.108167 57.8061 0.152727 57.1493 0.208232L57.2335 1.20468L57.3178 2.20113C57.952 2.14753 58.5893 2.10449 59.2296 2.07219L59.1792 1.07346ZM55.2971 1.40153L55.1791 0.408523C54.5223 0.486599 53.869 0.575648 53.2192 0.675482L53.371 1.66388L53.5229 2.65229C54.1502 2.5559 54.7811 2.46993 55.4152 2.39454L55.2971 1.40153ZM51.4503 1.99278L51.2646 1.01016C50.6142 1.13307 49.9675 1.26684 49.3249 1.41127L49.5442 2.38693L49.7635 3.36259C50.3838 3.22317 51.008 3.09404 51.636 2.97539L51.4503 1.99278ZM45.4934 2.41202C46.1251 2.22358 46.7613 2.04563 47.4019 1.87834L47.6546 2.84589L47.9072 3.81344C47.289 3.97491 46.6748 4.14669 46.0651 4.32857L45.7792 3.37029L45.4934 2.41202ZM43.9237 3.95875L43.605 3.01089C42.9784 3.22156 42.3565 3.44264 41.7396 3.67394L42.0907 4.61028L42.4417 5.54663C43.0372 5.32338 43.6375 5.10997 44.2423 4.90662L43.9237 3.95875ZM40.2803 5.3248L39.8972 4.40107C39.2863 4.65443 38.6806 4.91792 38.0804 5.19135L38.4949 6.10137L38.9095 7.01139C39.4889 6.74744 40.0736 6.49309 40.6633 6.24852L40.2803 5.3248ZM36.7381 6.93837L36.2926 6.0431C35.701 6.3375 35.1152 6.64169 34.5353 6.95548L35.0112 7.83497L35.4872 8.71446C36.047 8.41152 36.6126 8.11784 37.1837 7.83364L36.7381 6.93837ZM33.3148 8.79084L32.8091 7.92814C32.239 8.26233 31.6752 8.60597 31.1178 8.95885L31.6527 9.80377L32.1876 10.6487C32.7258 10.308 33.2702 9.97618 33.8206 9.65353L33.3148 8.79084ZM30.0263 10.8726L29.4629 10.0464C28.917 10.4187 28.3779 10.8 27.8456 11.1901L28.4367 11.9967L29.0279 12.8032C29.5419 12.4264 30.0626 12.0583 30.5897 11.6988L30.0263 10.8726ZM26.8864 13.1741L26.2681 12.3882C25.7491 12.7965 25.2371 13.2135 24.7326 13.6389L25.3772 14.4034L26.0218 15.168C26.5091 14.7571 27.0034 14.3544 27.5047 13.9601L26.8864 13.1741ZM23.9105 15.6834L23.2403 14.9412C22.7501 15.3838 22.2676 15.8346 21.7929 16.2935L22.4879 17.0125L23.1829 17.7315C23.6414 17.2884 24.1074 16.853 24.5807 16.4256L23.9105 15.6834ZM21.1114 18.389L20.3924 17.694C19.9336 18.1687 19.4827 18.6512 19.0402 19.1413L19.7823 19.8115L20.5245 20.4817C20.9519 20.0084 21.3873 19.5425 21.8304 19.084L21.1114 18.389ZM18.5024 21.2782L17.7379 20.6336C17.3124 21.1382 16.8954 21.6501 16.4871 22.1692L17.2731 22.7875L18.059 23.4058C18.4533 22.9045 18.856 22.4101 19.2669 21.9229L18.5024 21.2782ZM16.0956 24.3378L15.2891 23.7466C14.8989 24.2789 14.5176 24.8181 14.1454 25.364L14.9716 25.9274L15.7978 26.4908C16.1572 25.9637 16.5254 25.443 16.9021 24.929L16.0956 24.3378ZM13.9027 27.5537L13.0578 27.0189C12.7049 27.5763 12.3613 28.1401 12.0271 28.7102L12.8898 29.2159L13.7525 29.7216C14.0751 29.1712 14.4069 28.6268 14.7476 28.0886L13.9027 27.5537ZM11.9339 30.9123L11.0544 30.4364C10.7406 31.0163 10.4364 31.6021 10.142 32.1937L11.0373 32.6392L11.9326 33.0847C12.2168 32.5136 12.5104 31.9481 12.8134 31.3882L11.9339 30.9123ZM10.2003 34.396L9.29028 33.9814C9.01685 34.5817 8.75336 35.1873 8.5 35.7983L9.42373 36.1814L10.3475 36.5644C10.592 35.9747 10.8464 35.39 11.1103 34.8106L10.2003 34.396ZM85.5193 109.496L84.8278 111.377C85.2604 111.193 85.6903 111.003 86.1175 110.809L85.7029 109.899L85.5193 109.496ZM87.4597 109.062L87.9053 109.957C88.4968 109.663 89.0827 109.358 89.6625 109.045L89.1866 108.165L88.7107 107.286C88.1509 107.588 87.5853 107.882 87.0142 108.166L87.4597 109.062ZM90.883 107.209L91.3888 108.072C91.9588 107.738 92.5227 107.394 93.0801 107.041L92.5452 106.196L92.0103 105.351C91.4721 105.692 90.9277 106.024 90.3773 106.346L90.883 107.209ZM94.1716 105.127L94.7349 105.954C95.2808 105.581 95.82 105.2 96.3523 104.81L95.7611 104.003L95.1699 103.197C94.6559 103.574 94.1353 103.942 93.6082 104.301L94.1716 105.127ZM97.3114 102.826L97.9297 103.612C98.4488 103.204 98.9607 102.787 99.4653 102.361L98.8207 101.597L98.1761 100.832C97.6888 101.243 97.1944 101.646 96.6932 102.04L97.3114 102.826ZM100.287 100.317L100.958 101.059C101.448 100.616 101.93 100.165 102.405 99.7065L101.71 98.9875L101.015 98.2685C100.556 98.7116 100.09 99.147 99.6172 99.5744L100.287 100.317ZM103.086 97.611L103.805 98.306C104.264 97.8313 104.715 97.3488 105.158 96.8587L104.416 96.1885L103.673 95.5183C103.246 95.9916 102.811 96.4576 102.367 96.916L103.086 97.611ZM105.695 94.7218L106.46 95.3664C106.885 94.8618 107.302 94.3499 107.711 93.8308L106.925 93.2125L106.139 92.5942C105.745 93.0955 105.342 93.5899 104.931 94.0771L105.695 94.7218ZM110.052 90.636C109.68 91.1819 109.299 91.7211 108.909 92.2534L108.102 91.6622L107.296 91.071C107.672 90.557 108.041 90.0363 108.4 89.5092L109.226 90.0726L110.052 90.636ZM110.295 88.4463L111.14 88.9811C111.493 88.4237 111.837 87.8599 112.171 87.2898L111.308 86.7841L110.445 86.2784C110.123 86.8288 109.791 87.3732 109.45 87.9114L110.295 88.4463ZM112.264 85.0877L113.143 85.5636C113.457 84.9837 113.761 84.3979 114.056 83.8063L113.161 83.3608L112.265 82.9153C111.981 83.4864 111.687 84.0519 111.384 84.6118L112.264 85.0877ZM113.998 81.604L114.908 82.0186C115.181 81.4183 115.445 80.8127 115.698 80.2017L114.774 79.8186L113.85 79.4356C113.606 80.0253 113.351 80.61 113.088 81.1894L113.998 81.604ZM115.489 78.0083L116.425 78.3593C116.656 77.7424 116.877 77.1206 117.088 76.4939L116.14 76.1752L115.192 75.8566C114.989 76.4615 114.776 77.0617 114.552 77.6572L115.489 78.0083ZM116.729 74.3197L117.687 74.6055C117.875 73.9738 118.053 73.3376 118.221 72.697L117.253 72.4444L116.285 72.1917C116.124 72.81 115.952 73.4241 115.77 74.0338L116.729 74.3197ZM117.712 70.5547L118.688 70.774C118.832 70.1314 118.966 69.4847 119.089 68.8343L118.106 68.6486L117.124 68.4629C117.005 69.0909 116.876 69.7151 116.736 70.3354L117.712 70.5547ZM118.435 66.7279L119.423 66.8797C119.523 66.2299 119.612 65.5766 119.69 64.9198L118.697 64.8018L117.704 64.6837C117.629 65.3178 117.543 65.9487 117.447 66.576L118.435 66.7279ZM118.894 62.8653L119.891 62.9495C119.946 62.2928 119.991 61.6329 120.024 60.9701L119.025 60.9197L118.027 60.8693C117.994 61.5095 117.951 62.1469 117.898 62.7811L118.894 62.8653Z" fill="#C3911A"/>
</svg>
