<svg width="123" height="115" viewBox="0 0 123 115" fill="none" xmlns="http://www.w3.org/2000/svg">
<path d="M58.4166 92.0277C58.5731 93.5271 57.6657 97.0257 52.785 99.025C47.9043 101.024 36.6724 104.523 31.6666 106.022C29.4765 106.522 25.1902 105.722 25.5657 98.5252C26.1913 97.3589 26.9733 94.7266 25.0961 93.5271L22.7496 92.0277L24.1575 90.0285L21.3417 87.5294L23.2189 83.0312C23.0625 82.3648 22.2803 80.7321 20.4031 79.5325C18.0567 78.0331 16.6488 77.5333 19.9339 72.5353C22.5619 68.5368 25.0963 64.2052 26.0349 62.5391C26.5042 61.8727 26.8797 59.9402 24.627 57.5411C22.3744 55.142 24.0013 50.5438 25.0963 48.5446C26.0349 43.5465 29.5077 32.7507 35.8902 29.552C43.8683 25.5535 55.1315 22.5547 62.171 23.0545C67.8026 23.4543 69.8362 23.8876 70.1491 24.0543M70.1491 24.0543L72.9648 23.0545C73.747 23.2212 75.5929 24.2542 76.7192 27.0531C78.1271 30.5518 80.9429 38.0488 77.6578 44.0465C78.2836 40.2147 82.4447 32.451 94.0833 32.0512C95.1783 35.883 94.3649 45.0461 82.3508 51.0438C86.5745 48.2116 96.6175 44.9462 103 54.5424C101.436 57.8745 94.9281 63.339 81.4122 58.5409C86.731 60.2069 96.7114 66.2379 94.0833 77.0337C90.1725 77.5335 81.1307 75.4343 76.2499 63.0391C78.9093 66.871 82.0693 76.8338 73.4341 86.0302C69.9926 82.3649 64.4236 72.6354 69.6798 63.0391C68.7412 67.704 64.0482 77.0337 52.785 77.0337C52.3157 71.5358 54.2867 59.8404 65.9254 57.0415C60.4502 59.8737 48.4674 63.339 44.3376 54.5424C46.3712 50.7106 53.5359 44.5463 65.9254 50.544C60.7631 48.7114 50.9079 42.4471 52.785 32.0512C57.0087 31.718 66.4885 34.0504 70.6183 46.0457C69.054 44.0465 66.7701 36.8493 70.1491 24.0543Z" stroke="black" stroke-width="1.5"/>
<path d="M86.5734 76.5332C82.9754 81.8645 78.126 96.7254 87.512 113.519H51.3759C50.2808 110.52 47.4337 104.023 44.8057 102.023" stroke="black" stroke-width="1.5"/>
<path d="M31.1973 49.544C31.9794 44.2127 35.7025 33.2503 44.3376 32.0508" stroke="black" stroke-width="1.5"/>
<path d="M81.1311 54.5424C81.1311 59.142 77.6411 62.7889 73.4337 62.7889C69.2264 62.7889 65.7363 59.142 65.7363 54.5424C65.7363 49.9428 69.2264 46.2959 73.4337 46.2959C77.6411 46.2959 81.1311 49.9428 81.1311 54.5424Z" stroke="#C3911A" stroke-width="1.5"/>
<path d="M80.9776 51.9112L82.7847 50.7746" stroke="black" stroke-width="1.5"/>
<path d="M73.4221 37.9715L74.5777 35.0279" stroke="black" stroke-width="1.5"/>
<circle cx="25" cy="43" r="1" fill="black"/>
<path fill-rule="evenodd" clip-rule="evenodd" d="M121.992 62.4942L122.992 62.5103C122.997 62.1742 123 61.8374 123 61.5C123 61.1626 122.997 60.8258 122.992 60.4897L121.992 60.5058L120.992 60.5219C120.997 60.8473 121 61.1733 121 61.5C121 61.8267 120.997 62.1527 120.992 62.4781L121.992 62.4942ZM121.928 58.5294L122.927 58.4811C122.895 57.8076 122.851 57.1371 122.797 56.4695L121.8 56.5502L120.804 56.6309C120.856 57.2769 120.898 57.9259 120.93 58.5776L121.928 58.5294ZM121.609 54.5805L122.602 54.4674C122.526 53.7992 122.439 53.1342 122.342 52.4727L121.353 52.6182L120.363 52.7638C120.458 53.4037 120.542 54.0471 120.615 54.6936L121.609 54.5805ZM121.032 50.6627L122.016 50.4848C121.897 49.8233 121.766 49.1655 121.626 48.5115L120.648 48.7217L119.671 48.9319C119.807 49.5645 119.933 50.2008 120.048 50.8407L121.032 50.6627ZM120.651 44.6059C120.834 45.2501 121.008 45.8987 121.171 46.5514L120.2 46.7937L119.23 47.0359C119.073 46.4046 118.905 45.7773 118.727 45.1542L119.689 44.88L120.651 44.6059ZM119.115 42.9863L120.067 42.6806C119.862 42.0407 119.646 41.4054 119.42 40.7748L118.479 41.1118L117.537 41.4487C117.756 42.0586 117.964 42.6731 118.163 43.292L119.115 42.9863ZM117.781 39.2583L118.711 38.8905C118.464 38.266 118.207 37.6464 117.94 37.032L117.023 37.4302L116.106 37.8284C116.364 38.4227 116.612 39.022 116.851 39.6261L117.781 39.2583ZM116.205 35.6275L117.108 35.1994C116.821 34.5922 116.523 33.9905 116.217 33.3944L115.328 33.852L114.438 34.3097C114.735 34.8863 115.023 35.4684 115.301 36.0557L116.205 35.6275ZM114.393 32.1071L115.267 31.6205C114.94 31.0339 114.604 30.4532 114.259 29.8786L113.401 30.3935L112.544 30.9084C112.878 31.4644 113.203 32.0262 113.519 32.5937L114.393 32.1071ZM112.354 28.7127L113.194 28.1701C112.83 27.6062 112.456 27.0487 112.074 26.4978L111.253 27.0676L110.431 27.6374C110.801 28.1705 111.162 28.7099 111.514 29.2554L112.354 28.7127ZM110.098 25.4592L110.901 24.8629C110.501 24.324 110.092 23.7919 109.674 23.2668L108.891 23.8889L108.109 24.5111C108.512 25.0192 108.908 25.5341 109.295 26.0555L110.098 25.4592ZM107.634 22.359L108.397 21.7117C107.962 21.2003 107.52 20.696 107.069 20.1991L106.328 20.8709L105.588 21.5427C106.024 22.0235 106.452 22.5114 106.872 23.0064L107.634 22.359ZM104.974 19.4258L105.693 18.7303C105.226 18.2482 104.752 17.7738 104.27 17.3072L103.574 18.0257L102.879 18.7442C103.345 19.1957 103.804 19.6548 104.256 20.1213L104.974 19.4258ZM102.129 16.6717L102.801 15.9309C102.304 15.4803 101.8 15.0377 101.288 14.6033L100.641 15.3656L99.9937 16.1278C100.489 16.5481 100.977 16.9764 101.457 17.4124L102.129 16.6717ZM99.1111 14.1086L99.7333 13.3257C99.2081 12.9084 98.676 12.4994 98.1371 12.0991L97.5408 12.9019L96.9445 13.7046C97.4659 14.092 97.9808 14.4876 98.4889 14.8915L99.1111 14.1086ZM95.9324 11.7473L96.5023 10.9256C95.9513 10.5435 95.3938 10.1703 94.83 9.80597L94.2873 10.6459L93.7446 11.4859C94.2901 11.8383 94.8295 12.1995 95.3626 12.5691L95.9324 11.7473ZM92.6065 9.59854L93.1214 8.74129C92.5468 8.39616 91.9661 8.06015 91.3795 7.73345L90.8929 8.60711L90.4064 9.48076C90.9739 9.79681 91.5357 10.1219 92.0916 10.4558L92.6065 9.59854ZM87.8006 5.89152C88.4078 6.17921 89.0096 6.47655 89.6056 6.78334L89.148 7.67248L88.6904 8.56162C88.1137 8.26484 87.5316 7.97721 86.9443 7.69892L87.3725 6.79522L87.8006 5.89152ZM85.5698 5.97714L85.968 5.05984C85.3536 4.79314 84.7341 4.53617 84.1095 4.28913L83.7417 5.21904L83.3739 6.14894C83.978 6.38789 84.5773 6.63645 85.1716 6.89443L85.5698 5.97714ZM81.8882 4.52108L82.2252 3.57955C81.5946 3.35389 80.9593 3.13824 80.3194 2.93279L80.0137 3.88491L79.708 4.83704C80.3269 5.03576 80.9414 5.24434 81.5513 5.4626L81.8882 4.52108ZM78.12 3.31115L78.3941 2.34947C77.7499 2.16581 77.1013 1.9924 76.4486 1.82941L76.2064 2.79962L75.9641 3.76983C76.5954 3.92747 77.2227 4.09521 77.8458 4.27284L78.12 3.31115ZM74.2783 2.35176L74.4885 1.3741C73.8345 1.23351 73.1767 1.10331 72.5152 0.983696L72.3373 1.96774L72.1593 2.95178C72.7992 3.06749 73.4355 3.19343 74.0681 3.32942L74.2783 2.35176ZM70.3818 1.64721L70.5273 0.657855C69.8658 0.560547 69.2008 0.473772 68.5326 0.397706L68.4195 1.39129L68.3064 2.38487C68.9529 2.45847 69.5963 2.54242 70.2362 2.63656L70.3818 1.64721ZM66.4498 1.19952L66.5305 0.202782C65.8629 0.148737 65.1923 0.105353 64.5189 0.0728009L64.4706 1.07163L64.4224 2.07047C65.0741 2.10197 65.7231 2.14396 66.3691 2.19626L66.4498 1.19952ZM62.4942 1.008L62.5103 0.00813033C62.1742 0.002717 61.8374 0 61.5 0C61.1626 0 60.8258 0.00271703 60.4897 0.00813039L60.5058 1.008L60.5219 2.00787C60.8473 2.00263 61.1733 2 61.5 2C61.8267 2 62.1527 2.00263 62.4781 2.00787L62.4942 1.008ZM58.5294 1.07164L58.4811 0.0728012C57.8076 0.105353 57.1371 0.148737 56.4695 0.202782L56.5502 1.19952L56.6309 2.19626C57.2769 2.14396 57.9259 2.10197 58.5776 2.07047L58.5294 1.07164ZM54.5805 1.39129L54.4674 0.397706C53.7992 0.473773 53.1342 0.560548 52.4727 0.657856L52.6182 1.64721L52.7638 2.63656C53.4037 2.54242 54.0471 2.45847 54.6936 2.38487L54.5805 1.39129ZM50.6627 1.96774L50.4848 0.983697C49.8233 1.10331 49.1655 1.23351 48.5115 1.3741L48.7217 2.35176L48.9319 3.32942C49.5645 3.19343 50.2008 3.06749 50.8407 2.95178L50.6627 1.96774ZM46.7937 2.79962L46.5514 1.82941C45.8987 1.9924 45.2501 2.16581 44.6059 2.34947L44.88 3.31115L45.1542 4.27284C45.7773 4.09521 46.4046 3.92747 47.0359 3.76983L46.7937 2.79962ZM42.9863 3.88491L42.6806 2.93279C42.0407 3.13824 41.4054 3.35389 40.7748 3.57955L41.1118 4.52108L41.4487 5.4626C42.0586 5.24434 42.6731 5.03576 43.292 4.83704L42.9863 3.88491ZM39.2583 5.21903L38.8905 4.28913C38.266 4.53617 37.6464 4.79313 37.032 5.05984L37.4302 5.97713L37.8284 6.89443C38.4227 6.63645 39.022 6.38789 39.6261 6.14894L39.2583 5.21903ZM35.6275 6.79521L35.1994 5.89152C34.5922 6.1792 33.9905 6.47654 33.3944 6.78333L33.852 7.67247L34.3097 8.56161C34.8863 8.26483 35.4684 7.9772 36.0557 7.69891L35.6275 6.79521ZM32.1071 8.6071L31.6205 7.73344C31.0339 8.06013 30.4532 8.39615 29.8786 8.74128L30.3935 9.59853L30.9084 10.4558C31.4644 10.1219 32.0262 9.7968 32.5937 9.48075L32.1071 8.6071ZM28.7127 10.6459L28.1701 9.80596C27.6062 10.1702 27.0487 10.5435 26.4978 10.9255L27.0676 11.7473L27.6374 12.5691C28.1705 12.1994 28.7099 11.8383 29.2554 11.4858L28.7127 10.6459ZM25.4592 12.9019L24.8629 12.0991C24.324 12.4994 23.7919 12.9083 23.2668 13.3257L23.8889 14.1086L24.5111 14.8914C25.0192 14.4876 25.5341 14.0919 26.0555 13.7046L25.4592 12.9019ZM22.359 15.3655L21.7117 14.6033C21.2003 15.0377 20.696 15.4803 20.1991 15.9309L20.8709 16.6717L21.5427 17.4124C22.0235 16.9764 22.5114 16.5481 23.0064 16.1278L22.359 15.3655ZM17.3072 18.7303C17.7738 18.2482 18.2482 17.7738 18.7303 17.3071L19.4258 18.0256L20.1213 18.7442C19.6548 19.1957 19.1957 19.6548 18.7442 20.1213L18.0257 19.4258L17.3072 18.7303ZM16.6717 20.8709L15.9309 20.1991C15.4803 20.696 15.0377 21.2002 14.6033 21.7117L15.3656 22.359L16.1278 23.0063C16.5481 22.5114 16.9764 22.0235 17.4124 21.5426L16.6717 20.8709ZM14.1086 23.8889L13.3257 23.2667C12.9084 23.7919 12.4994 24.324 12.0991 24.8629L12.9019 25.4592L13.7046 26.0555C14.092 25.5341 14.4876 25.0192 14.8915 24.5111L14.1086 23.8889ZM11.7473 27.0676L10.9256 26.4977C10.5435 27.0487 10.1703 27.6062 9.80597 28.17L10.6459 28.7127L11.4859 29.2554C11.8383 28.7099 12.1995 28.1705 12.5691 27.6374L11.7473 27.0676ZM9.59854 30.3935L8.74129 29.8786C8.39616 30.4532 8.06015 31.0339 7.73346 31.6205L8.60711 32.1071L9.48076 32.5936C9.79681 32.0261 10.1219 31.4643 10.4558 30.9084L9.59854 30.3935ZM7.67248 33.852L6.78334 33.3944C6.47655 33.9904 6.17921 34.5922 5.89152 35.1994L6.79522 35.6275L7.69892 36.0557C7.97721 35.4683 8.26484 34.8863 8.56162 34.3096L7.67248 33.852ZM5.97714 37.4302L5.05985 37.032C4.79314 37.6464 4.53617 38.266 4.28913 38.8905L5.21904 39.2583L6.14894 39.6261C6.38789 39.022 6.63645 38.4227 6.89443 37.8284L5.97714 37.4302ZM4.52108 41.1118L3.57955 40.7748C3.35389 41.4054 3.13824 42.0407 2.93279 42.6806L3.88491 42.9863L4.83704 43.292C5.03576 42.6731 5.24434 42.0586 5.4626 41.4487L4.52108 41.1118ZM3.31115 44.88L2.34947 44.6059C2.16581 45.2501 1.9924 45.8987 1.82941 46.5514L2.79962 46.7937L3.76983 47.0359C3.92747 46.4046 4.09521 45.7773 4.27284 45.1542L3.31115 44.88ZM2.35176 48.7217L1.3741 48.5115C1.23351 49.1655 1.10331 49.8233 0.983697 50.4848L1.96774 50.6627L2.95178 50.8407C3.06749 50.2008 3.19343 49.5645 3.32942 48.9319L2.35176 48.7217ZM1.64721 52.6182L0.657856 52.4727C0.560548 53.1342 0.473772 53.7992 0.397705 54.4674L1.39129 54.5805L2.38487 54.6936C2.45847 54.0471 2.54242 53.4037 2.63656 52.7638L1.64721 52.6182ZM1.19952 56.5502L0.202781 56.4695C0.148736 57.1371 0.105353 57.8077 0.0728011 58.4811L1.07163 58.5294L2.07047 58.5776C2.10197 57.9259 2.14396 57.2769 2.19626 56.6309L1.19952 56.5502ZM0 61.5C0 61.1626 0.002717 60.8258 0.00813033 60.4897L1.008 60.5058L2.00787 60.5219C2.00263 60.8473 2 61.1733 2 61.5C2 61.8267 2.00263 62.1527 2.00787 62.4781L1.008 62.4942L0.00813039 62.5103C0.00271702 62.1742 0 61.8374 0 61.5ZM1.07164 64.4706L0.0728011 64.5189C0.105353 65.1924 0.148737 65.8629 0.202782 66.5305L1.19952 66.4498L2.19626 66.3691C2.14396 65.7231 2.10197 65.0742 2.07047 64.4224L1.07164 64.4706ZM1.39129 68.4195L0.397706 68.5326C0.473773 69.2008 0.560548 69.8658 0.657856 70.5273L1.64721 70.3818L2.63656 70.2362C2.54242 69.5963 2.45847 68.9529 2.38487 68.3064L1.39129 68.4195ZM1.96774 72.3373L0.983696 72.5152C1.10331 73.1767 1.23351 73.8345 1.3741 74.4885L2.35176 74.2783L3.32942 74.0681C3.19343 73.4355 3.06749 72.7992 2.95178 72.1593L1.96774 72.3373ZM2.79962 76.2063L1.82941 76.4486C1.9924 77.1013 2.16581 77.7499 2.34947 78.3941L3.31115 78.12L4.27284 77.8458C4.09521 77.2227 3.92747 76.5954 3.76983 75.9641L2.79962 76.2063ZM3.88491 80.0137L2.93279 80.3194C3.13824 80.9593 3.35389 81.5946 3.57955 82.2252L4.52108 81.8882L5.4626 81.5513C5.24434 80.9414 5.03576 80.3269 4.83704 79.708L3.88491 80.0137ZM5.21903 83.7417L4.28913 84.1095C4.53617 84.734 4.79313 85.3536 5.05984 85.968L5.97713 85.5698L6.89443 85.1716C6.63645 84.5773 6.38789 83.978 6.14894 83.3739L5.21903 83.7417ZM6.79521 87.3725L5.89152 87.8006C6.1792 88.4078 6.47654 89.0095 6.78333 89.6056L7.67247 89.148L8.56161 88.6903C8.26483 88.1137 7.9772 87.5316 7.69891 86.9443L6.79521 87.3725ZM8.6071 90.8929L7.73344 91.3795C8.06013 91.9661 8.39615 92.5468 8.74128 93.1214L9.59853 92.6065L10.4558 92.0916C10.1219 91.5356 9.7968 90.9738 9.48075 90.4063L8.6071 90.8929ZM10.6459 94.2873L9.80596 94.8299C10.1702 95.3938 10.5435 95.9513 10.9255 96.5022L11.7473 95.9324L12.5691 95.3626C12.1994 94.8295 11.8383 94.2901 11.4858 93.7446L10.6459 94.2873ZM12.9019 97.5408L12.0991 98.1371C12.4994 98.676 12.9083 99.2081 13.3257 99.7332L14.1086 99.1111L14.8914 98.4889C14.4876 97.9808 14.0919 97.4659 13.7046 96.9445L12.9019 97.5408ZM15.3655 100.641L14.6033 101.288C15.0377 101.8 15.4803 102.304 15.9309 102.801L16.6717 102.129L17.4124 101.457C16.9764 100.977 16.5481 100.489 16.1278 99.9936L15.3655 100.641ZM18.0256 103.574L17.3071 104.27C17.7738 104.752 18.2482 105.226 18.7303 105.693L19.4258 104.974L20.1213 104.256C19.6548 103.804 19.1957 103.345 18.7442 102.879L18.0256 103.574ZM20.8709 106.328L20.1991 107.069C20.696 107.52 21.2002 107.962 21.7117 108.397L22.359 107.634L23.0063 106.872C22.5114 106.452 22.0235 106.024 21.5426 105.588L20.8709 106.328ZM23.8889 108.891L23.2667 109.674C23.7919 110.092 24.324 110.501 24.8629 110.901L25.4592 110.098L26.0555 109.295C25.5341 108.908 25.0192 108.512 24.5111 108.109L23.8889 108.891ZM27.0676 111.253L26.4977 112.074C27.0487 112.456 27.6062 112.83 28.17 113.194L28.7127 112.354L29.2554 111.514C28.7099 111.162 28.1705 110.801 27.6374 110.431L27.0676 111.253ZM94.2873 112.354L94.8299 113.194C95.3938 112.83 95.9513 112.456 96.5022 112.074L95.9324 111.253L95.3626 110.431C94.8295 110.801 94.2901 111.162 93.7446 111.514L94.2873 112.354ZM97.5408 110.098L98.1371 110.901C98.676 110.501 99.2081 110.092 99.7332 109.674L99.1111 108.891L98.4889 108.109C97.9808 108.512 97.4659 108.908 96.9445 109.295L97.5408 110.098ZM100.641 107.634L101.288 108.397C101.8 107.962 102.304 107.52 102.801 107.069L102.129 106.328L101.457 105.588C100.977 106.024 100.489 106.452 99.9936 106.872L100.641 107.634ZM103.574 104.974L104.27 105.693C104.752 105.226 105.226 104.752 105.693 104.27L104.974 103.574L104.256 102.879C103.804 103.345 103.345 103.804 102.879 104.256L103.574 104.974ZM106.328 102.129L107.069 102.801C107.52 102.304 107.962 101.8 108.397 101.288L107.634 100.641L106.872 99.9937C106.452 100.489 106.024 100.977 105.588 101.457L106.328 102.129ZM108.891 99.1111L109.674 99.7333C110.092 99.2081 110.501 98.676 110.901 98.1371L110.098 97.5408L109.295 96.9445C108.908 97.4659 108.512 97.9808 108.109 98.4889L108.891 99.1111ZM111.253 95.9324L112.074 96.5023C112.456 95.9513 112.83 95.3938 113.194 94.83L112.354 94.2873L111.514 93.7446C111.162 94.2901 110.801 94.8295 110.431 95.3626L111.253 95.9324ZM113.401 92.6065L114.259 93.1214C114.604 92.5468 114.94 91.9661 115.267 91.3795L114.393 90.8929L113.519 90.4064C113.203 90.9739 112.878 91.5357 112.544 92.0916L113.401 92.6065ZM115.328 89.148L116.217 89.6056C116.523 89.0096 116.821 88.4078 117.108 87.8006L116.205 87.3725L115.301 86.9443C115.023 87.5316 114.735 88.1137 114.438 88.6904L115.328 89.148ZM117.023 85.5698L117.94 85.968C118.207 85.3536 118.464 84.7341 118.711 84.1095L117.781 83.7417L116.851 83.3739C116.612 83.978 116.364 84.5773 116.106 85.1716L117.023 85.5698ZM118.479 81.8882L119.42 82.2252C119.646 81.5946 119.862 80.9593 120.067 80.3194L119.115 80.0137L118.163 79.708C117.964 80.3269 117.756 80.9414 117.537 81.5513L118.479 81.8882ZM119.689 78.12L120.651 78.3941C120.834 77.7499 121.008 77.1013 121.171 76.4486L120.2 76.2064L119.23 75.9641C119.073 76.5954 118.905 77.2227 118.727 77.8458L119.689 78.12ZM122.016 72.5152C121.897 73.1767 121.766 73.8345 121.626 74.4885L120.648 74.2783L119.671 74.0681C119.807 73.4355 119.933 72.7992 120.048 72.1593L121.032 72.3373L122.016 72.5152ZM121.353 70.3818L122.342 70.5273C122.439 69.8658 122.526 69.2008 122.602 68.5326L121.609 68.4195L120.615 68.3064C120.542 68.9529 120.458 69.5963 120.363 70.2362L121.353 70.3818ZM121.8 66.4498L122.797 66.5305C122.851 65.8629 122.895 65.1923 122.927 64.5189L121.928 64.4706L120.93 64.4224C120.898 65.0741 120.856 65.7231 120.804 66.3691L121.8 66.4498Z" fill="#C3911A"/>
</svg>
