<svg width="118" height="112" viewBox="0 0 118 112" fill="none" xmlns="http://www.w3.org/2000/svg">
<path fill-rule="evenodd" clip-rule="evenodd" d="M116.933 59.9648L117.933 59.9817C117.939 59.6454 117.942 59.3085 117.942 58.9709C117.942 58.6333 117.939 58.2963 117.933 57.9601L116.933 57.9769L115.934 57.9937C115.939 58.3187 115.942 58.6445 115.942 58.9709C115.942 59.2973 115.939 59.623 115.934 59.948L116.933 59.9648ZM116.867 56.0014L117.866 55.951C117.832 55.2771 117.786 54.6062 117.73 53.9384L116.734 54.0226L115.737 54.1068C115.792 54.7521 115.835 55.4005 115.868 56.0518L116.867 56.0014ZM116.533 52.0532L117.526 51.9352C117.447 51.2674 117.356 50.6031 117.255 49.9425L116.267 50.0943L115.278 50.2462C115.376 50.8844 115.464 51.5262 115.54 52.1713L116.533 52.0532ZM116.507 45.983C116.654 46.6364 116.79 47.2939 116.915 47.9552L115.932 48.1409L114.949 48.3265C114.829 47.6877 114.697 47.0527 114.556 46.4216L115.531 46.2023L116.507 45.983ZM115.064 44.2805L116.032 44.0278C115.862 43.3765 115.681 42.7296 115.489 42.0874L114.531 42.3732L113.573 42.659C113.758 43.2794 113.933 43.9041 114.097 44.5332L115.064 44.2805ZM114.206 38.2707C114.441 38.8979 114.666 39.5302 114.88 40.1674L113.933 40.486L112.985 40.8047C112.778 40.1893 112.561 39.5787 112.334 38.9729L113.27 38.6218L114.206 38.2707ZM112.543 36.7806L113.467 36.3975C113.209 35.7763 112.941 35.1605 112.663 34.5503L111.753 34.9648L110.843 35.3794C111.112 35.9688 111.371 36.5637 111.62 37.1636L112.543 36.7806ZM110.902 33.1781L111.797 32.7326C111.498 32.1311 111.189 31.5355 110.87 30.9459L109.99 31.4218L109.111 31.8977C109.419 32.4672 109.718 33.0426 110.007 33.6236L110.902 33.1781ZM108.833 27.4711C109.192 28.0379 109.541 28.6112 109.881 29.1908L109.018 29.6965L108.155 30.2022C107.827 29.6423 107.49 29.0884 107.143 28.5409L107.988 28.006L108.833 27.4711ZM106.901 26.3519L107.727 25.7886C107.349 25.2335 106.961 24.6853 106.564 24.1441L105.758 24.7353L104.951 25.3265C105.335 25.8494 105.709 26.3791 106.075 26.9153L106.901 26.3519ZM104.56 23.1586L105.346 22.5403C104.931 22.0125 104.507 21.492 104.074 20.979L103.31 21.6236L102.545 22.2683C102.963 22.764 103.373 23.2669 103.774 23.7769L104.56 23.1586ZM102.008 20.1319L102.75 19.4617C102.3 18.9634 101.842 18.4728 101.376 17.9902L100.656 18.6852L99.9375 19.3802C100.388 19.8466 100.831 20.3206 101.266 20.8021L102.008 20.1319ZM99.2565 17.2852L99.9516 16.5662C99.4689 16.0997 98.9783 15.6413 98.48 15.1913L97.8098 15.9335L97.1396 16.6757C97.6211 17.1105 98.0952 17.5534 98.5615 18.0042L99.2565 17.2852ZM96.3181 14.6318L96.9627 13.8673C96.4497 13.4347 95.9292 13.0107 95.4014 12.5955L94.7832 13.3815L94.1649 14.1675C94.6748 14.5686 95.1778 14.9783 95.6735 15.3963L96.3181 14.6318ZM93.2064 12.184L93.7976 11.3775C93.2564 10.9808 92.7082 10.5931 92.1532 10.2146L91.5898 11.0408L91.0264 11.867C91.5626 12.2327 92.0923 12.6072 92.6152 12.9905L93.2064 12.184ZM89.9357 9.95374L90.4706 9.10881C89.9039 8.75003 89.3306 8.40063 88.751 8.06086L88.2453 8.92355L87.7395 9.78625C88.2995 10.1145 88.8533 10.452 89.4008 10.7987L89.9357 9.95374ZM86.52 7.95141L86.9959 7.07192C86.4063 6.75287 85.8106 6.44358 85.2092 6.14426L84.7636 7.03953L84.3181 7.9348C84.8991 8.22393 85.4745 8.5227 86.044 8.8309L86.52 7.95141ZM82.9769 6.18827L83.3915 5.27825C82.7812 5.00025 82.1654 4.73234 81.5442 4.47474L81.1611 5.39847L80.7781 6.3222C81.3781 6.571 81.9729 6.82977 82.5624 7.09829L82.9769 6.18827ZM79.3199 4.67179L79.671 3.73544C79.0438 3.50028 78.4115 3.27549 77.7744 3.06129L77.4557 4.00916L77.137 4.95703C77.7524 5.16391 78.3631 5.38101 78.9689 5.60814L79.3199 4.67179ZM75.5685 3.41067L75.8544 2.45239C75.2121 2.26081 74.5652 2.07987 73.9139 1.90979L73.6613 2.87734L73.4086 3.84489C74.0376 4.00916 74.6624 4.18391 75.2827 4.36895L75.5685 3.41067ZM71.7394 2.41056L71.9587 1.4349C71.3054 1.28805 70.6479 1.15204 69.9865 1.02708L69.8009 2.00969L69.6152 2.9923C70.254 3.11301 70.8891 3.24438 71.5201 3.38621L71.7394 2.41056ZM67.8474 1.67519L67.9993 0.686791C67.3386 0.585287 66.6743 0.494747 66.0066 0.415364L65.8885 1.40837L65.7705 2.40138C66.4156 2.47807 67.0574 2.56554 67.6956 2.6636L67.8474 1.67519ZM63.9191 1.20817L64.0033 0.211719C63.3356 0.155285 62.6646 0.109978 61.9907 0.0759851L61.9403 1.07472L61.89 2.07345C62.5413 2.1063 63.1897 2.15008 63.8349 2.20461L63.9191 1.20817ZM59.9648 1.00835L59.9817 0.00848815C59.6454 0.0028369 59.3085 0 58.9709 0C58.6333 0 58.2963 0.00283676 57.9601 0.00848773L57.9769 1.00835L57.9937 2.00821C58.3187 2.00274 58.6445 2 58.9709 2C59.2973 2 59.623 2.00274 59.948 2.00821L59.9648 1.00835ZM56.0014 1.07471L55.951 0.0759841C55.2771 0.109977 54.6062 0.155284 53.9384 0.211717L54.0226 1.20817L54.1068 2.20461C54.7521 2.15008 55.4005 2.1063 56.0518 2.07344L56.0014 1.07471ZM52.0532 1.40837L51.9352 0.415362C51.2674 0.494745 50.6031 0.585284 49.9425 0.686789L50.0943 1.67519L50.2462 2.66359C50.8844 2.56554 51.5262 2.47807 52.1713 2.40138L52.0532 1.40837ZM48.1409 2.00968L47.9552 1.02707C47.2939 1.15204 46.6364 1.28804 45.983 1.43489L46.2023 2.41055L46.4216 3.38621C47.0527 3.24437 47.6877 3.113 48.3265 2.9923L48.1409 2.00968ZM44.2805 2.87734L44.0278 1.90979C43.3765 2.07987 42.7296 2.2608 42.0874 2.45239L42.3732 3.41067L42.659 4.36894C43.2794 4.18391 43.9041 4.00915 44.5332 3.84488L44.2805 2.87734ZM40.486 4.00915L40.1674 3.06129C39.5302 3.27549 38.8979 3.50027 38.2707 3.73543L38.6218 4.67178L38.9729 5.60813C39.5787 5.381 40.1893 5.1639 40.8047 4.95702L40.486 4.00915ZM36.7806 5.39847L36.3975 4.47474C35.7763 4.73234 35.1605 5.00025 34.5503 5.27825L34.9648 6.18827L35.3794 7.09829C35.9688 6.82976 36.5637 6.571 37.1636 6.32219L36.7806 5.39847ZM33.1781 7.03953L32.7326 6.14426C32.1311 6.44358 31.5355 6.75287 30.9459 7.07191L31.4218 7.9514L31.8977 8.83089C32.4672 8.52269 33.0426 8.22393 33.6236 7.9348L33.1781 7.03953ZM29.6965 8.92355L29.1908 8.06085C28.6112 8.40063 28.0379 8.75002 27.4711 9.10881L28.006 9.95373L28.5409 10.7987C29.0884 10.452 29.6423 10.1145 30.2022 9.78624L29.6965 8.92355ZM26.3519 11.0408L25.7886 10.2146C25.2335 10.5931 24.6853 10.9808 24.1441 11.3774L24.7353 12.184L25.3265 12.9905C25.8494 12.6072 26.3791 12.2326 26.9153 11.867L26.3519 11.0408ZM23.1586 13.3815L22.5403 12.5955C22.0125 13.0107 21.492 13.4347 20.979 13.8672L21.6236 14.6317L22.2683 15.3962C22.764 14.9783 23.2669 14.5686 23.7769 14.1674L23.1586 13.3815ZM20.1319 15.9335L19.4617 15.1913C18.9634 15.6413 18.4728 16.0997 17.9902 16.5662L18.6852 17.2852L19.3802 18.0042C19.8466 17.5534 20.3206 17.1105 20.8021 16.6757L20.1319 15.9335ZM17.2852 18.6852L16.5662 17.9902C16.0997 18.4728 15.6413 18.9634 15.1913 19.4617L15.9335 20.1319L16.6757 20.8021C17.1105 20.3206 17.5534 19.8466 18.0042 19.3802L17.2852 18.6852ZM14.6318 21.6236L13.8673 20.979C13.4347 21.492 13.0107 22.0125 12.5955 22.5403L13.3815 23.1586L14.1675 23.7768C14.5686 23.2669 14.9783 22.764 15.3963 22.2682L14.6318 21.6236ZM12.184 24.7353L11.3775 24.1441C10.9808 24.6853 10.5931 25.2335 10.2146 25.7886L11.0408 26.3519L11.867 26.9153C12.2327 26.3791 12.6072 25.8494 12.9905 25.3265L12.184 24.7353ZM9.95374 28.006L9.10881 27.4711C8.75003 28.0379 8.40063 28.6111 8.06086 29.1907L8.92355 29.6965L9.78625 30.2022C10.1145 29.6423 10.452 29.0884 10.7987 28.5409L9.95374 28.006ZM7.95141 31.4218L7.07192 30.9459C6.75287 31.5354 6.44358 32.1311 6.14426 32.7326L7.03953 33.1781L7.9348 33.6236C8.22393 33.0426 8.5227 32.4672 8.8309 31.8977L7.95141 31.4218ZM6.18827 34.9648L5.27825 34.5503C5.00025 35.1605 4.73234 35.7763 4.47474 36.3975L5.39847 36.7806L6.3222 37.1636C6.571 36.5636 6.82977 35.9688 7.09829 35.3794L6.18827 34.9648ZM4.67179 38.6218L3.73544 38.2707C3.50028 38.8979 3.27549 39.5302 3.06129 40.1674L4.00916 40.486L4.95703 40.8047C5.16391 40.1893 5.38101 39.5786 5.60814 38.9729L4.67179 38.6218ZM3.41067 42.3732L2.45239 42.0873C2.26081 42.7296 2.07987 43.3765 1.90979 44.0278L2.87734 44.2805L3.84489 44.5331C4.00916 43.9041 4.18391 43.2794 4.36895 42.659L3.41067 42.3732ZM2.41056 46.2023L1.4349 45.983C1.28805 46.6364 1.15204 47.2938 1.02707 47.9552L2.00969 48.1409L2.9923 48.3265C3.11301 47.6877 3.24438 47.0527 3.38621 46.4216L2.41056 46.2023ZM1.67519 50.0943L0.686792 49.9424C0.585287 50.6031 0.494747 51.2674 0.415365 51.9351L1.40837 52.0532L2.40138 52.1712C2.47807 51.5261 2.56554 50.8844 2.6636 50.2462L1.67519 50.0943ZM1.20817 54.0226L0.211719 53.9384C0.155285 54.6062 0.109978 55.2771 0.0759851 55.951L1.07472 56.0014L2.07345 56.0518C2.1063 55.4004 2.15008 54.7521 2.20461 54.1068L1.20817 54.0226ZM0 58.9709C0 58.6333 0.0028369 58.2963 0.00848815 57.9601L1.00835 57.9769L2.00821 57.9937C2.00274 58.3187 2 58.6445 2 58.9709C2 59.2973 2.00274 59.623 2.00821 59.948L1.00835 59.9648L0.00848773 59.9816C0.00283676 59.6454 0 59.3085 0 58.9709ZM1.07471 61.9403L0.0759841 61.9907C0.109977 62.6646 0.155283 63.3355 0.211717 64.0033L1.20817 63.9191L2.20461 63.8349C2.15008 63.1896 2.1063 62.5413 2.07344 61.8899L1.07471 61.9403ZM1.40837 65.8885L0.415362 66.0066C0.494744 66.6743 0.585284 67.3386 0.686789 67.9993L1.67519 67.8474L2.66359 67.6956C2.56554 67.0573 2.47807 66.4156 2.40138 65.7705L1.40837 65.8885ZM2.00968 69.8008L1.02707 69.9865C1.15204 70.6479 1.28804 71.3053 1.43489 71.9587L2.41055 71.7394L3.38621 71.5201C3.24437 70.889 3.113 70.254 2.9923 69.6152L2.00968 69.8008ZM2.87734 73.6613L1.90979 73.9139C2.07987 74.5652 2.2608 75.2121 2.45239 75.8544L3.41067 75.5685L4.36894 75.2827C4.18391 74.6624 4.00915 74.0376 3.84488 73.4086L2.87734 73.6613ZM4.00915 77.4557L3.06129 77.7744C3.27548 78.4115 3.50027 79.0438 3.73543 79.671L4.67178 79.3199L5.60813 78.9689C5.381 78.3631 5.1639 77.7524 4.95702 77.137L4.00915 77.4557ZM5.39847 81.1611L4.47474 81.5442C4.73234 82.1654 5.00024 82.7812 5.27825 83.3915L6.18827 82.9769L7.09829 82.5623C6.82976 81.9729 6.571 81.3781 6.32219 80.7781L5.39847 81.1611ZM7.03953 84.7636L6.14426 85.2092C6.44358 85.8106 6.75287 86.4063 7.07191 86.9959L7.9514 86.5199L8.83089 86.044C8.52269 85.4745 8.22393 84.8991 7.9348 84.3181L7.03953 84.7636ZM8.92355 88.2452L8.06085 88.751C8.40063 89.3306 8.75002 89.9039 9.10881 90.4706L9.95373 89.9357L10.7987 89.4008C10.452 88.8533 10.1145 88.2994 9.78624 87.7395L8.92355 88.2452ZM11.0408 91.5898L10.2146 92.1532C10.5931 92.7082 10.9808 93.2564 11.3774 93.7976L12.184 93.2064L12.9905 92.6152C12.6072 92.0923 12.2326 91.5626 11.867 91.0264L11.0408 91.5898ZM13.3815 94.7831L12.5955 95.4014C13.0107 95.9292 13.4347 96.4497 13.8672 96.9627L14.6317 96.3181L15.3962 95.6735C14.9783 95.1778 14.5686 94.6748 14.1674 94.1649L13.3815 94.7831ZM15.9335 97.8098L15.1913 98.48C15.6413 98.9783 16.0997 99.4689 16.5662 99.9515L17.2852 99.2565L18.0042 98.5615C17.5534 98.0951 17.1105 97.6211 16.6757 97.1396L15.9335 97.8098ZM18.6852 100.656L17.9902 101.375C18.4728 101.842 18.9634 102.3 19.4617 102.75L20.1319 102.008L20.8021 101.266C20.3206 100.831 19.8466 100.388 19.3802 99.9375L18.6852 100.656ZM21.6236 103.31L20.979 104.074C21.492 104.507 22.0125 104.931 22.5403 105.346L23.1586 104.56L23.5094 104.114L23.4545 103.519C23.0547 103.2 22.6592 102.875 22.2682 102.545L21.6236 103.31ZM93.4651 106.806L93.5571 106.236L93.7976 106.564C93.6871 106.645 93.5763 106.726 93.4651 106.806ZM94.7831 104.56L95.4014 105.346C95.9292 104.931 96.4497 104.507 96.9627 104.074L96.3181 103.31L95.6735 102.545C95.1778 102.963 94.6748 103.373 94.1649 103.774L94.7831 104.56ZM97.8098 102.008L98.48 102.75C98.9783 102.3 99.4689 101.842 99.9515 101.376L99.2565 100.656L98.5615 99.9375C98.0951 100.388 97.6211 100.831 97.1396 101.266L97.8098 102.008ZM102.75 98.48C102.3 98.9783 101.842 99.4689 101.375 99.9516L100.656 99.2565L99.9375 98.5615C100.388 98.0952 100.831 97.6211 101.266 97.1396L102.008 97.8098L102.75 98.48ZM103.31 96.3181L104.074 96.9627C104.507 96.4497 104.931 95.9292 105.346 95.4014L104.56 94.7832L103.774 94.1649C103.373 94.6748 102.963 95.1778 102.545 95.6735L103.31 96.3181ZM105.758 93.2064L106.564 93.7976C106.961 93.2564 107.349 92.7082 107.727 92.1532L106.901 91.5898L106.075 91.0264C105.709 91.5626 105.334 92.0923 104.951 92.6152L105.758 93.2064ZM107.988 89.9357L108.833 90.4706C109.192 89.9039 109.541 89.3306 109.881 88.751L109.018 88.2453L108.155 87.7395C107.827 88.2995 107.49 88.8533 107.143 89.4008L107.988 89.9357ZM109.99 86.52L110.87 86.9959C111.189 86.4063 111.498 85.8106 111.797 85.2092L110.902 84.7636L110.007 84.3181C109.718 84.8991 109.419 85.4745 109.111 86.044L109.99 86.52ZM111.753 82.9769L112.663 83.3915C112.941 82.7812 113.209 82.1654 113.467 81.5442L112.543 81.1611L111.62 80.7781C111.371 81.3781 111.112 81.9729 110.843 82.5624L111.753 82.9769ZM113.27 79.3199L114.206 79.671C114.441 79.0438 114.666 78.4115 114.88 77.7744L113.933 77.4557L112.985 77.137C112.778 77.7524 112.561 78.3631 112.334 78.9689L113.27 79.3199ZM114.531 75.5685L115.489 75.8544C115.681 75.2121 115.862 74.5652 116.032 73.9139L115.064 73.6613L114.097 73.4086C113.933 74.0376 113.758 74.6624 113.573 75.2827L114.531 75.5685ZM115.531 71.7394L116.507 71.9587C116.654 71.3053 116.79 70.6479 116.915 69.9865L115.932 69.8009L114.949 69.6152C114.829 70.254 114.697 70.8891 114.556 71.5201L115.531 71.7394ZM116.267 67.8474L117.255 67.9993C117.356 67.3386 117.447 66.6743 117.526 66.0066L116.533 65.8885L115.54 65.7705C115.464 66.4156 115.376 67.0574 115.278 67.6956L116.267 67.8474ZM116.734 63.9191L117.73 64.0033C117.786 63.3356 117.832 62.6646 117.866 61.9907L116.867 61.9403L115.868 61.89C115.835 62.5413 115.792 63.1897 115.737 63.8349L116.734 63.9191Z" fill="#C3911A"/>
<path d="M45.8341 110.49L22.3691 109.186C21.5259 109.14 21.1168 108.133 21.6883 107.511L36.4153 91.4848C36.5768 91.3091 36.6702 91.0775 36.6786 90.839C37.0595 79.9706 37.392 74.6998 38.5772 70.0509C38.5897 70.002 38.6067 69.9526 38.6264 69.9063C46.1762 52.1991 49.6943 48.0171 54.8463 40.9723C55.498 40.0811 56.9697 40.7312 56.724 41.8076C55.0862 48.9829 52.3919 60.9248 53.0742 58.8777C54.0394 55.9821 57.9003 57.4299 57.9003 58.8777C57.9003 60.3135 58.7248 85.1951 57.4502 97.6586C57.429 97.8651 57.3438 98.0526 57.2063 98.208L46.6386 110.154C46.4359 110.383 46.1395 110.507 45.8341 110.49Z" stroke="black" stroke-width="1.5"/>
<path d="M53.5572 57.4297C50.2265 65.7636 49.8272 71.0145 49.6963 80.5949" stroke="black" stroke-width="1.5"/>
<path d="M70.5549 110.974L95.2841 109.667C96.1404 109.622 96.5463 108.591 95.9505 107.974L80.4906 91.9704C80.3192 91.7931 80.2193 91.5547 80.2103 91.3082C79.8101 80.4509 79.4604 75.1823 78.2154 70.536C78.2019 70.4854 78.1834 70.4343 78.162 70.3865C70.1482 52.5081 66.4554 48.4188 60.9521 41.2474C60.2841 40.3769 58.8385 41.0448 59.0946 42.1117C60.8117 49.2653 63.6976 61.4243 62.9743 59.3602C61.9596 56.4645 57.9007 57.9123 57.9007 59.3602C57.9007 60.7959 57.0096 85.2014 58.3491 97.6574C58.3713 97.8643 58.458 98.0521 58.5971 98.207L69.7579 110.643C69.9599 110.868 70.2529 110.99 70.5549 110.974Z" stroke="black" stroke-width="1.5"/>
<path d="M62.4675 57.9121C65.969 66.246 66.3887 71.497 66.5264 81.0773" stroke="black" stroke-width="1.5"/>
<line x1="39.4219" y1="30.7317" x2="46.9346" y2="42.5452" stroke="#C3911A"/>
<line x1="57.5" y1="22.9966" x2="57.5954" y2="36.9963" stroke="#C3911A"/>
<line x1="76.2865" y1="31.2812" x2="68.4132" y2="42.8575" stroke="#C3911A"/>
</svg>
