<svg width="126" height="123" viewBox="0 0 126 123" fill="none" xmlns="http://www.w3.org/2000/svg">
<g filter="url(#filter0_d_1276_1884)">
<line x1="46.5615" y1="77.8945" x2="78.7421" y2="77.8945" stroke="#C3911A" stroke-width="2"/>
<path fill-rule="evenodd" clip-rule="evenodd" d="M120.217 59.6003L121.217 59.6171C121.222 59.2829 121.225 58.948 121.225 58.6125C121.225 58.277 121.222 57.9421 121.217 57.6079L120.217 57.6247L119.217 57.6415C119.222 57.9645 119.225 58.2882 119.225 58.6125C119.225 58.9368 119.222 59.2605 119.217 59.5835L120.217 59.6003ZM120.151 55.6614L121.149 55.611C121.116 54.9412 121.071 54.2743 121.015 53.6106L120.018 53.6948L119.022 53.7791C119.076 54.4202 119.119 55.0645 119.152 55.7118L120.151 55.6614ZM119.819 51.7376L120.812 51.6195C120.733 50.9559 120.643 50.2956 120.542 49.639L119.554 49.7908L118.566 49.9427C118.663 50.5769 118.75 51.2146 118.826 51.8557L119.819 51.7376ZM119.222 47.8495L120.204 47.6638C120.08 47.0064 119.945 46.353 119.799 45.7036L118.823 45.9229L117.847 46.1422C117.988 46.7693 118.119 47.4003 118.239 48.0351L119.222 47.8495ZM118.359 44.0129L119.327 43.7602C119.158 43.1129 118.978 42.47 118.787 41.8316L117.829 42.1174L116.871 42.4033C117.055 43.0197 117.228 43.6405 117.392 44.2656L118.359 44.0129ZM117.234 40.2419L118.182 39.9233C117.969 39.29 117.746 38.6616 117.512 38.0382L116.576 38.3892L115.64 38.7403C115.865 39.3423 116.081 39.9491 116.287 40.5606L117.234 40.2419ZM115.854 36.5594L116.777 36.1763C116.521 35.5589 116.255 34.9468 115.979 34.3403L115.069 34.7549L114.159 35.1694C114.426 35.7552 114.683 36.3462 114.93 36.9424L115.854 36.5594ZM114.223 32.9792L115.118 32.5336C114.821 31.9358 114.513 31.3438 114.196 30.7578L113.317 31.2337L112.437 31.7096C112.743 32.2756 113.04 32.8474 113.328 33.4247L114.223 32.9792ZM112.35 29.5191L113.213 29.0134C112.875 28.4373 112.528 27.8675 112.172 27.3042L111.327 27.8391L110.482 28.3739C110.826 28.918 111.162 29.4684 111.488 30.0248L112.35 29.5191ZM110.246 26.1952L111.072 25.6318C110.696 25.0802 110.311 24.5353 109.917 23.9974L109.11 24.5886L108.304 25.1798C108.684 25.6994 109.057 26.2257 109.42 26.7586L110.246 26.1952ZM107.92 23.0216L108.706 22.4033C108.293 21.8788 107.872 21.3614 107.442 20.8515L106.678 21.4961L105.913 22.1408C106.328 22.6334 106.735 23.1331 107.134 23.6399L107.92 23.0216ZM105.384 20.0137L106.126 19.3435C105.679 18.8482 105.223 18.3606 104.759 17.8809L104.04 18.5759L103.321 19.2709C103.769 19.7343 104.21 20.2054 104.642 20.6839L105.384 20.0137ZM102.649 17.1846L103.344 16.4656C102.864 16.0018 102.377 15.5463 101.882 15.099L101.211 15.8412L100.541 16.5834C101.02 17.0154 101.491 17.4556 101.954 17.9036L102.649 17.1846ZM99.7288 14.5475L100.373 13.783C99.8636 13.353 99.3462 12.9316 98.8217 12.519L98.2034 13.3049L97.5851 14.0909C98.0918 14.4895 98.5916 14.8966 99.0842 15.312L99.7288 14.5475ZM96.6364 12.1148L97.2276 11.3083C96.6897 10.914 96.1448 10.5287 95.5931 10.1525L95.0298 10.9787L94.4664 11.8049C94.9992 12.1683 95.5256 12.5405 96.0452 12.9214L96.6364 12.1148ZM93.3859 9.89837L93.9208 9.05345C93.3575 8.69684 92.7877 8.34957 92.2116 8.01186L91.7059 8.87455L91.2002 9.73725C91.7566 10.0634 92.3069 10.3988 92.851 10.7433L93.3859 9.89837ZM89.9912 7.90842L90.4672 7.02893C89.8812 6.71182 89.2891 6.40442 88.6913 6.10691L88.2458 7.00218L87.8003 7.89745C88.3776 8.18476 88.9494 8.48165 89.5153 8.78791L89.9912 7.90842ZM86.4701 6.15619L86.8847 5.24617C86.2781 4.96985 85.666 4.70357 85.0486 4.44754L84.6656 5.37127L84.2825 6.295C84.8787 6.54223 85.4698 6.79937 86.0556 7.06621L86.4701 6.15619ZM82.8358 4.64908L83.1868 3.71273C82.5634 3.479 81.935 3.25558 81.3017 3.04268L80.983 3.99055L80.6644 4.93842C81.2759 5.14399 81.8827 5.35973 82.4847 5.58543L82.8358 4.64908ZM79.1075 3.39576L79.3934 2.43748C78.755 2.24706 78.1121 2.06723 77.4647 1.89818L77.2121 2.86573L76.9594 3.83328C77.5844 3.99651 78.2053 4.17017 78.8217 4.35404L79.1075 3.39576ZM75.3021 2.40183L75.5214 1.42617C74.872 1.28021 74.2185 1.14503 73.5612 1.02083L73.3755 2.00344L73.1899 2.98606C73.8247 3.106 74.4557 3.23655 75.0828 3.37749L75.3021 2.40183ZM71.4342 1.67102L71.586 0.682615C70.9294 0.581727 70.2691 0.491738 69.6054 0.412838L69.4874 1.40584L69.3693 2.39885C70.0104 2.47506 70.6481 2.56198 71.2823 2.65942L71.4342 1.67102ZM67.5301 1.20688L67.6143 0.21043C66.9506 0.15434 66.2838 0.109309 65.614 0.0755225L65.5636 1.07425L65.5132 2.07298C66.1604 2.10563 66.8047 2.14914 67.4459 2.20333L67.5301 1.20688ZM63.6003 1.00829L63.6171 0.00843617C63.2829 0.00281952 62.948 0 62.6125 0C62.277 0 61.9421 0.00281952 61.6079 0.00843617L61.6247 1.00829L61.6415 2.00815C61.9645 2.00273 62.2882 2 62.6125 2C62.9368 2 63.2605 2.00273 63.5835 2.00815L63.6003 1.00829ZM59.6614 1.07425L59.611 0.0755223C58.9412 0.109309 58.2743 0.15434 57.6106 0.210431L57.6948 1.20688L57.7791 2.20333C58.4202 2.14914 59.0645 2.10563 59.7118 2.07298L59.6614 1.07425ZM55.7376 1.40584L55.6195 0.412838C54.9559 0.491738 54.2956 0.581727 53.639 0.682615L53.7908 1.67102L53.9427 2.65942C54.5769 2.56198 55.2146 2.47506 55.8557 2.39885L55.7376 1.40584ZM51.8495 2.00344L51.6638 1.02083C51.0064 1.14503 50.353 1.28021 49.7036 1.42617L49.9229 2.40183L50.1422 3.37749C50.7693 3.23655 51.4003 3.106 52.0351 2.98606L51.8495 2.00344ZM48.0129 2.86573L47.7602 1.89818C47.1129 2.06723 46.47 2.24706 45.8316 2.43749L46.1174 3.39576L46.4033 4.35404C47.0197 4.17017 47.6405 3.99651 48.2656 3.83328L48.0129 2.86573ZM44.2419 3.99055L43.9233 3.04268C43.29 3.25558 42.6616 3.479 42.0382 3.71273L42.3892 4.64908L42.7403 5.58543C43.3423 5.35973 43.9491 5.144 44.5606 4.93842L44.2419 3.99055ZM40.5594 5.37127L40.1763 4.44755C39.5589 4.70358 38.9468 4.96986 38.3403 5.24617L38.7549 6.15619L39.1694 7.06621C39.7552 6.79938 40.3462 6.54224 40.9424 6.295L40.5594 5.37127ZM36.9792 7.00219L36.5336 6.10692C35.9358 6.40442 35.3438 6.71183 34.7578 7.02893L35.2337 7.90842L35.7096 8.78791C36.2756 8.48165 36.8474 8.18477 37.4247 7.89746L36.9792 7.00219ZM33.5191 8.87456L33.0134 8.01187C32.4373 8.34958 31.8675 8.69685 31.3042 9.05345L31.8391 9.89837L32.3739 10.7433C32.918 10.3988 33.4684 10.0634 34.0248 9.73725L33.5191 8.87456ZM30.1952 10.9787L29.6318 10.1525C29.0802 10.5287 28.5353 10.914 27.9974 11.3083L28.5886 12.1148L29.1798 12.9214C29.6994 12.5405 30.2257 12.1683 30.7586 11.8049L30.1952 10.9787ZM27.0216 13.3049L26.4033 12.519C25.8788 12.9316 25.3614 13.353 24.8515 13.783L25.4961 14.5475L26.1408 15.312C26.6334 14.8966 27.1331 14.4895 27.6399 14.0909L27.0216 13.3049ZM24.0137 15.8412L23.3435 15.099C22.8482 15.5463 22.3606 16.0019 21.8809 16.4656L22.5759 17.1846L23.2709 17.9036C23.7343 17.4556 24.2054 17.0154 24.6839 16.5834L24.0137 15.8412ZM21.1846 18.5759L20.4656 17.8809C20.0018 18.3606 19.5463 18.8482 19.099 19.3435L19.8412 20.0137L20.5834 20.6839C21.0154 20.2054 21.4556 19.7343 21.9036 19.2709L21.1846 18.5759ZM18.5475 21.4961L17.783 20.8515C17.353 21.3614 16.9316 21.8788 16.519 22.4033L17.3049 23.0216L18.0909 23.6399C18.4895 23.1331 18.8966 22.6334 19.312 22.1408L18.5475 21.4961ZM16.1148 24.5886L15.3083 23.9974C14.914 24.5353 14.5287 25.0802 14.1525 25.6318L14.9787 26.1952L15.8049 26.7586C16.1683 26.2257 16.5405 25.6994 16.9214 25.1798L16.1148 24.5886ZM13.8984 27.8391L13.0534 27.3042C12.6968 27.8675 12.3496 28.4373 12.0119 29.0134L12.8746 29.5191L13.7372 30.0248C14.0634 29.4684 14.3988 28.9181 14.7433 28.374L13.8984 27.8391ZM11.9084 31.2337L11.0289 30.7578C10.7118 31.3438 10.4044 31.9358 10.1069 32.5336L11.0022 32.9792L11.8975 33.4247C12.1848 32.8474 12.4817 32.2756 12.7879 31.7097L11.9084 31.2337ZM10.1562 34.7549L9.24617 34.3403C8.96985 34.9469 8.70358 35.5589 8.44755 36.1763L9.37127 36.5594L10.295 36.9425C10.5422 36.3462 10.7994 35.7552 11.0662 35.1694L10.1562 34.7549ZM8.64908 38.3892L7.71273 38.0382C7.479 38.6616 7.25558 39.29 7.04268 39.9233L7.99055 40.2419L8.93842 40.5606C9.14399 39.9491 9.35973 39.3423 9.58543 38.7403L8.64908 38.3892ZM7.39576 42.1174L6.43748 41.8316C6.24706 42.47 6.06723 43.1129 5.89818 43.7602L6.86573 44.0129L7.83328 44.2656C7.99651 43.6405 8.17017 43.0197 8.35404 42.4033L7.39576 42.1174ZM6.40183 45.9229L5.42617 45.7036C5.28021 46.353 5.14503 47.0065 5.02083 47.6638L6.00344 47.8495L6.98606 48.0351C7.106 47.4003 7.23655 46.7693 7.37749 46.1422L6.40183 45.9229ZM5.67102 49.7908L4.68262 49.639C4.58173 50.2956 4.49174 50.9559 4.41284 51.6195L5.40584 51.7376L6.39885 51.8557C6.47506 51.2146 6.56198 50.5769 6.65942 49.9427L5.67102 49.7908ZM5.20688 53.6948L4.21043 53.6106C4.15434 54.2743 4.10931 54.9412 4.07552 55.611L5.07425 55.6614L6.07298 55.7118C6.10563 55.0645 6.14914 54.4202 6.20333 53.7791L5.20688 53.6948ZM4 58.6125C4 58.277 4.00282 57.9421 4.00844 57.6079L5.00829 57.6247L6.00815 57.6415C6.00273 57.9645 6 58.2882 6 58.6125C6 58.9368 6.00273 59.2605 6.00815 59.5835L5.00829 59.6003L4.00844 59.6171C4.00282 59.2829 4 58.948 4 58.6125ZM5.07425 61.5636L4.07552 61.614C4.10931 62.2838 4.15434 62.9506 4.21043 63.6144L5.20688 63.5301L6.20333 63.4459C6.14914 62.8047 6.10563 62.1604 6.07298 61.5132L5.07425 61.5636ZM5.40584 65.4874L4.41284 65.6054C4.49174 66.2691 4.58173 66.9294 4.68262 67.586L5.67102 67.4342L6.65942 67.2823C6.56198 66.6481 6.47506 66.0104 6.39885 65.3693L5.40584 65.4874ZM6.00344 69.3755L5.02083 69.5612C5.14503 70.2185 5.28021 70.872 5.42617 71.5214L6.40183 71.3021L7.37749 71.0828C7.23655 70.4557 7.106 69.8247 6.98606 69.1899L6.00344 69.3755ZM6.86573 73.2121L5.89818 73.4648C6.06723 74.1121 6.24706 74.755 6.43749 75.3934L7.39576 75.1076L8.35404 74.8217C8.17017 74.2053 7.99651 73.5844 7.83328 72.9594L6.86573 73.2121ZM7.99055 76.9831L7.04268 77.3017C7.25558 77.935 7.479 78.5634 7.71273 79.1868L8.64908 78.8358L9.58543 78.4847C9.35973 77.8827 9.144 77.2759 8.93842 76.6644L7.99055 76.9831ZM9.37127 80.6656L8.44755 81.0486C8.70358 81.6661 8.96986 82.2781 9.24617 82.8847L10.1562 82.4701L11.0662 82.0556C10.7994 81.4698 10.5422 80.8787 10.295 80.2825L9.37127 80.6656ZM11.0022 84.2458L10.1069 84.6913C10.4044 85.2892 10.7118 85.8812 11.0289 86.4672L11.9084 85.9913L12.7879 85.5153C12.4817 84.9494 12.1848 84.3776 11.8975 83.8003L11.0022 84.2458ZM12.8746 87.7059L12.0119 88.2116C12.3496 88.7877 12.6968 89.3575 13.0535 89.9208L13.8984 89.3859L14.7433 88.851C14.3988 88.3069 14.0634 87.7566 13.7373 87.2002L12.8746 87.7059ZM14.9787 91.0298L14.1525 91.5931C14.5287 92.1448 14.914 92.6897 15.3083 93.2276L16.1148 92.6364L16.9214 92.0452C16.5405 91.5256 16.1683 90.9992 15.8049 90.4664L14.9787 91.0298ZM17.3049 94.2034L16.519 94.8217C16.9316 95.3462 17.353 95.8636 17.783 96.3735L18.5475 95.7288L19.312 95.0842C18.8966 94.5916 18.4895 94.0919 18.0909 93.5851L17.3049 94.2034ZM20.4656 99.3441C20.0019 98.8644 19.5463 98.3768 19.099 97.8815L19.8412 97.2113L20.5834 96.5411C21.0154 97.0196 21.4556 97.4907 21.9036 97.9541L21.1846 98.6491L20.4656 99.3441ZM22.5759 100.04L21.8809 100.759C22.3606 101.223 22.8482 101.679 23.3435 102.126L24.0137 101.384L24.6839 100.642C24.2054 100.21 23.7343 99.7694 23.2709 99.3214L22.5759 100.04ZM25.4961 102.678L24.8515 103.442C25.3614 103.872 25.8788 104.293 26.4033 104.706L27.0216 103.92L27.6399 103.134C27.1331 102.735 26.6334 102.328 26.1408 101.913L25.4961 102.678ZM28.5886 105.11L27.9974 105.917C28.5353 106.311 29.0802 106.696 29.6318 107.072L30.1952 106.246L30.7586 105.42C30.2257 105.057 29.6994 104.684 29.1798 104.304L28.5886 105.11ZM31.8391 107.327L31.3042 108.172C31.8675 108.528 32.4373 108.875 33.0134 109.213L33.5191 108.35L34.0248 107.488C33.4684 107.162 32.9181 106.826 32.374 106.482L31.8391 107.327ZM35.2337 109.317L34.7578 110.196C35.3438 110.513 35.9358 110.821 36.5336 111.118L36.9792 110.223L37.4247 109.328C36.8474 109.04 36.2756 108.743 35.7097 108.437L35.2337 109.317ZM38.7549 111.069L38.3403 111.979C38.9468 112.255 39.5589 112.521 40.1763 112.777L40.5594 111.854L40.9425 110.93C40.3462 110.683 39.7552 110.426 39.1694 110.159L38.7549 111.069ZM42.3892 112.576L42.0382 113.512C42.6616 113.746 43.29 113.969 43.9233 114.182L44.2419 113.234L44.5606 112.287C43.9491 112.081 43.3423 111.865 42.7403 111.64L42.3892 112.576ZM46.5614 115C46.3175 114.931 46.0742 114.86 45.8316 114.787L46.1174 113.829L46.4033 112.871C46.456 112.887 46.5087 112.902 46.5614 112.918V115ZM79.0665 114.884C79.1756 114.852 79.2846 114.82 79.3934 114.787L79.1076 113.829L78.863 113.009L79.0665 114.884ZM80.9831 113.234L81.3017 114.182C81.935 113.969 82.5634 113.746 83.1868 113.512L82.8358 112.576L82.4847 111.64C81.8827 111.865 81.2759 112.081 80.6644 112.287L80.9831 113.234ZM84.6656 111.854L85.0486 112.777C85.6661 112.521 86.2781 112.255 86.8847 111.979L86.4701 111.069L86.0556 110.159C85.4698 110.426 84.8787 110.683 84.2825 110.93L84.6656 111.854ZM88.2458 110.223L88.6913 111.118C89.2892 110.821 89.8812 110.513 90.4672 110.196L89.9913 109.317L89.5153 108.437C88.9494 108.743 88.3776 109.04 87.8003 109.328L88.2458 110.223ZM91.7059 108.35L92.2116 109.213C92.7877 108.875 93.3575 108.528 93.9208 108.172L93.3859 107.327L92.851 106.482C92.3069 106.826 91.7566 107.162 91.2002 107.488L91.7059 108.35ZM95.0298 106.246L95.5931 107.072C96.1448 106.696 96.6897 106.311 97.2276 105.917L96.6364 105.11L96.0452 104.304C95.5256 104.684 94.9992 105.057 94.4664 105.42L95.0298 106.246ZM98.2034 103.92L98.8217 104.706C99.3462 104.293 99.8636 103.872 100.373 103.442L99.7288 102.678L99.0842 101.913C98.5916 102.328 98.0919 102.735 97.5851 103.134L98.2034 103.92ZM101.211 101.384L101.882 102.126C102.377 101.679 102.864 101.223 103.344 100.759L102.649 100.04L101.954 99.3214C101.491 99.7694 101.02 100.21 100.541 100.642L101.211 101.384ZM104.04 98.6491L104.759 99.3441C105.223 98.8644 105.679 98.3768 106.126 97.8815L105.384 97.2113L104.642 96.5411C104.21 97.0196 103.769 97.4907 103.321 97.9541L104.04 98.6491ZM106.678 95.7288L107.442 96.3735C107.872 95.8636 108.293 95.3462 108.706 94.8217L107.92 94.2034L107.134 93.5851C106.735 94.0918 106.328 94.5916 105.913 95.0842L106.678 95.7288ZM109.11 92.6364L109.917 93.2276C110.311 92.6897 110.696 92.1448 111.072 91.5931L110.246 91.0298L109.42 90.4664C109.057 90.9992 108.684 91.5256 108.304 92.0452L109.11 92.6364ZM111.327 89.3859L112.172 89.9208C112.528 89.3575 112.875 88.7877 113.213 88.2116L112.35 87.7059L111.488 87.2002C111.162 87.7566 110.826 88.3069 110.482 88.851L111.327 89.3859ZM113.317 85.9912L114.196 86.4672C114.513 85.8812 114.821 85.2891 115.118 84.6913L114.223 84.2458L113.328 83.8003C113.04 84.3776 112.743 84.9494 112.437 85.5153L113.317 85.9912ZM115.069 82.4701L115.979 82.8847C116.255 82.2781 116.521 81.666 116.777 81.0486L115.854 80.6656L114.93 80.2825C114.683 80.8787 114.426 81.4698 114.159 82.0556L115.069 82.4701ZM116.576 78.8358L117.512 79.1868C117.746 78.5634 117.969 77.935 118.182 77.3017L117.234 76.983L116.287 76.6644C116.081 77.2759 115.865 77.8827 115.64 78.4847L116.576 78.8358ZM117.829 75.1075L118.787 75.3934C118.978 74.755 119.158 74.1121 119.327 73.4647L118.359 73.2121L117.392 72.9594C117.228 73.5844 117.055 74.2053 116.871 74.8217L117.829 75.1075ZM118.823 71.3021L119.799 71.5214C119.945 70.872 120.08 70.2185 120.204 69.5612L119.222 69.3755L118.239 69.1899C118.119 69.8247 117.988 70.4557 117.847 71.0828L118.823 71.3021ZM120.812 65.6054C120.733 66.2691 120.643 66.9294 120.542 67.586L119.554 67.4342L118.566 67.2823C118.663 66.6481 118.75 66.0104 118.826 65.3693L119.819 65.4874L120.812 65.6054ZM120.018 63.5301L121.015 63.6143C121.071 62.9506 121.116 62.2838 121.149 61.614L120.151 61.5636L119.152 61.5132C119.119 62.1604 119.076 62.8047 119.022 63.4459L120.018 63.5301Z" fill="#C3911A"/>
<rect x="21.25" y="36.6211" width="82.7713" height="56.052" rx="7.75" stroke="black" stroke-width="1.5"/>
<path d="M57.364 91.9229C55.4188 100.91 53.9576 105.963 46.8613 114.189H79.1472C72.9133 104.874 71.264 100.108 69.8115 91.9229" stroke="black" stroke-width="1.5"/>
<path d="M58.2931 69.8472L58.2932 69.8472C61.2233 70.8256 64.3993 70.8256 67.3294 69.8472C68.2319 69.5459 69.1445 69.3278 70.0732 69.3278H70.447C73.0815 69.3278 75.6074 70.358 77.4691 72.1906C79.3307 74.0231 80.3758 76.5077 80.3758 79.0975C80.3758 79.6943 80.135 80.2674 79.7051 80.6906C79.275 81.1139 78.6909 81.3525 78.0811 81.3525H47.5447C46.9348 81.3525 46.3508 81.1139 45.9207 80.6906C45.4908 80.2674 45.25 79.6943 45.25 79.0976C45.2504 76.508 46.2957 74.0238 48.1572 72.1917C50.0189 70.3594 52.5445 69.3293 55.1788 69.3293H55.5557C56.4822 69.3293 57.3924 69.546 58.2931 69.8472ZM47.2947 79.0973L47.2944 79.3475L47.5447 79.3475L78.0811 79.346L78.3314 79.3459L78.3311 79.0957C78.3289 77.0358 77.4966 75.0617 76.0182 73.6063C74.5398 72.1511 72.5362 71.3333 70.4472 71.3311H70.447H70.0732C69.4861 71.3311 68.8197 71.4665 67.9871 71.744L67.9869 71.744C64.6304 72.8645 60.9922 72.8645 57.6357 71.744L57.6356 71.744C56.8085 71.4681 56.1436 71.3327 55.5557 71.3327H55.1788H55.1785C53.0895 71.3348 51.0859 72.1526 49.6076 73.6079C48.1292 75.0632 47.2969 77.0373 47.2947 79.0973ZM75.7864 57.8058V57.8055V56.5531C75.7864 49.5055 69.9627 43.7784 62.8129 43.7784C55.6631 43.7784 49.8394 49.5055 49.8394 56.5531V57.8055C49.8394 58.0701 49.7327 58.3247 49.5414 58.513C49.3499 58.7014 49.0895 58.808 48.817 58.808C48.5446 58.808 48.2842 58.7014 48.0927 58.513C47.9014 58.3247 47.7947 58.0701 47.7947 57.8055V56.5531C47.7947 48.4066 54.5275 41.7734 62.8129 41.7734C71.0983 41.7734 77.8311 48.4066 77.8311 56.5531V57.8052C77.8282 60.0621 76.9162 62.2265 75.2938 63.8236C73.6713 65.4208 71.4706 66.32 69.1743 66.3228H61.5405C60.9307 66.3228 60.3466 66.0843 59.9166 65.661C59.4866 65.2378 59.2458 64.6646 59.2458 64.0679C59.2458 63.4711 59.4866 62.898 59.9166 62.4748C60.3466 62.0515 60.9307 61.8129 61.5405 61.8129H64.0852C64.6951 61.8129 65.2792 62.0515 65.7092 62.4748C66.1392 62.898 66.3799 63.4711 66.3799 64.0679V64.3179H66.6299H69.1746H69.1749C70.9265 64.3159 72.6066 63.6302 73.8464 62.4098C75.0863 61.1893 75.7844 59.5336 75.7864 57.8058ZM56.2104 63.79C54.1805 62.0024 52.8841 59.438 52.8841 56.5531C52.8841 53.9633 53.9292 51.4787 55.7908 49.6462C57.6525 47.8136 60.1784 46.7833 62.8129 46.7833C65.4474 46.7833 67.9733 47.8136 69.835 49.6462C71.6966 51.4787 72.7417 53.9633 72.7417 56.5531C72.7417 57.649 72.5148 58.6903 72.1726 59.6859C71.8553 60.1785 71.4176 60.5858 70.8988 60.8702C70.3716 61.1592 69.7781 61.3116 69.1741 61.3129H69.0056C69.8359 60.2783 70.3857 59.0489 70.5982 57.7404C70.8388 56.2586 70.6364 54.74 70.0158 53.3697C69.3952 51.9996 68.3834 50.8372 67.1042 50.024C65.8255 49.211 64.3345 48.7818 62.8129 48.7883C61.2888 48.7812 59.7954 49.2113 58.5149 50.0262C57.2341 50.8415 56.2217 52.0067 55.602 53.38C54.9823 54.7534 54.7823 56.275 55.0268 57.7587C55.2613 59.1816 55.8947 60.51 56.8533 61.5952C56.4765 62.271 56.257 63.0208 56.2104 63.79Z" fill="black" stroke="#F5F3EF" stroke-width="0.5"/>
<rect x="59.5332" y="63.0967" width="5.70945" height="2.07616" rx="1.03808" fill="#C3911A"/>
</g>
<defs>
<filter id="filter0_d_1276_1884" x="0" y="0" width="125.225" height="123" filterUnits="userSpaceOnUse" color-interpolation-filters="sRGB">
<feFlood flood-opacity="0" result="BackgroundImageFix"/>
<feColorMatrix in="SourceAlpha" type="matrix" values="0 0 0 0 0 0 0 0 0 0 0 0 0 0 0 0 0 0 127 0" result="hardAlpha"/>
<feOffset dy="4"/>
<feGaussianBlur stdDeviation="2"/>
<feComposite in2="hardAlpha" operator="out"/>
<feColorMatrix type="matrix" values="0 0 0 0 0 0 0 0 0 0 0 0 0 0 0 0 0 0 0.25 0"/>
<feBlend mode="normal" in2="BackgroundImageFix" result="effect1_dropShadow_1276_1884"/>
<feBlend mode="normal" in="SourceGraphic" in2="effect1_dropShadow_1276_1884" result="shape"/>
</filter>
</defs>
</svg>
