<svg width="28" height="28" viewBox="0 0 28 28" fill="none" xmlns="http://www.w3.org/2000/svg">
<path d="M15.4 25.1133C20.9248 24.4244 25.2 19.7114 25.2 14C25.2 7.81441 20.1856 2.8 14 2.8C7.8144 2.8 2.8 7.81441 2.8 14C2.8 19.7114 7.07516 24.4244 12.6 25.1133V16.8H9.79999V14H12.6V11.6841C12.6 9.81197 12.7949 9.13307 13.161 8.44862C13.527 7.76418 14.0641 7.22702 14.7486 6.86098C15.2844 6.57446 15.949 6.40153 17.1104 6.32736C17.5713 6.29791 18.168 6.33546 18.9 6.44V9.1H18.2C16.9158 9.1 16.3859 9.16065 16.0691 9.33006C15.8727 9.43515 15.7352 9.57261 15.63 9.7691C15.4606 10.0859 15.4 10.3999 15.4 11.6841V14H18.9L18.2 16.8H15.4V25.1133ZM14 28C6.26801 28 0 21.7319 0 14C0 6.26801 6.26801 0 14 0C21.7319 0 28 6.26801 28 14C28 21.7319 21.7319 28 14 28Z" fill="#3A2E2E"/>
</svg>
