<svg width="227" height="69" viewBox="0 0 227 69" fill="none" xmlns="http://www.w3.org/2000/svg">
<path d="M108.548 32.8865V20.7754H112.336V49.9231H108.548V37.1326V36.6326H108.048H92.8787H92.3787V37.1326V49.9231H88.6331V20.7754H92.3787V32.8865V33.3865H92.8787H108.048H108.548V32.8865ZM125.215 46.7194H140.605V49.9231H120.97V20.7754H140.223V23.9791H125.215H124.715V24.4791V33.0563V33.5563H125.215H138.147V36.5052H125.215H124.715V37.0052V46.2194V46.7194H125.215ZM178.564 30.8089L182.215 20.9028H185.587L180.679 33.6409L180.608 33.8253L180.683 34.0084L185.174 45.0909L185.652 46.2709L186.105 45.0808L195.346 20.7754H199.468L187.547 49.9231H184.106L178.599 36.7277L178.139 35.6263L177.677 36.7265L172.128 49.9231H168.643L156.763 20.7754H160.845L170.128 45.0815L170.582 46.2683L171.059 45.0909L175.55 34.0084L175.624 33.8253L175.553 33.6409L170.646 20.9028H174.016L177.625 30.8072L178.092 32.0892L178.564 30.8089ZM214.963 20.7754L226.27 49.9231H222.343L219.288 42.0472L219.165 41.728H218.822H207.212H206.868L206.745 42.0493L203.733 49.9231H199.767L211.155 20.7754H214.963ZM217.89 39.2037H218.605L218.36 38.5319L213.529 25.3264L213.068 24.0647L212.592 25.3211L207.592 38.5266L207.336 39.2037H208.06H217.89ZM147.348 49.9231V20.7754H151.093V49.9231H147.348ZM68.354 34.5C68.354 53.2787 53.1634 68.5 34.427 68.5C15.6906 68.5 0.5 53.2787 0.5 34.5C0.5 15.7213 15.6906 0.5 34.427 0.5C53.1634 0.5 68.354 15.7213 68.354 34.5Z" stroke="#3A2E2E"/>
</svg>