<svg width="28" height="28" viewBox="0 0 28 28" fill="none" xmlns="http://www.w3.org/2000/svg">
<path d="M1.55555 0H26.4444C27.3036 0 28 0.696453 28 1.55556V26.4444C28 27.3036 27.3036 28 26.4444 28H1.55555C0.696437 28 0 27.3036 0 26.4444V1.55556C0 0.696453 0.696437 0 1.55555 0ZM3.11111 3.11111V24.8889H24.8889V3.11111H3.11111ZM6.99999 9.33333C5.71133 9.33333 4.66666 8.28867 4.66666 7C4.66666 5.71133 5.71133 4.66667 6.99999 4.66667C8.28864 4.66667 9.33332 5.71133 9.33332 7C9.33332 8.28867 8.28864 9.33333 6.99999 9.33333ZM5.44444 10.8889H8.55555V22.5556H5.44444V10.8889ZM14 11.557C14.9091 10.6794 15.9686 10.1111 17.1111 10.1111C20.3327 10.1111 22.5556 12.7227 22.5556 15.9444V22.5556H19.4445V15.9444C19.4445 14.441 18.2257 13.2222 16.7222 13.2222C15.2188 13.2222 14 14.441 14 15.9444V22.5556H10.8889V10.8889H14V11.557Z" fill="#3A2E2E"/>
</svg>
