<svg width="29" height="28" viewBox="0 0 29 28" fill="none" xmlns="http://www.w3.org/2000/svg">
<path d="M7.61631 23.0922L8.66716 23.6838C10.4227 24.6722 12.418 25.2 14.5 25.2C20.9065 25.2 26.1 20.1856 26.1 14C26.1 7.81441 20.9065 2.8 14.5 2.8C8.09349 2.8 2.9 7.81441 2.9 14C2.9 16.0108 3.44698 17.9379 4.47133 19.6333L5.08378 20.6469L4.13622 24.0092L7.61631 23.0922ZM0.00606127 28L1.9664 21.0441C0.716242 18.975 0 16.5683 0 14C0 6.26801 6.49186 0 14.5 0C22.5081 0 29 6.26801 29 14C29 21.7319 22.5081 28 14.5 28C11.8409 28 9.34891 27.309 7.20632 26.1026L0.00606127 28ZM9.26743 7.43166C9.46156 7.41849 9.65634 7.41647 9.85073 7.42563C9.92926 7.43061 10.0074 7.43938 10.0856 7.4481C10.3166 7.47384 10.5705 7.60963 10.6559 7.79652C11.0884 8.7435 11.5081 9.69591 11.915 10.6535C12.0047 10.8649 11.9506 11.1389 11.7798 11.404C11.6931 11.5399 11.5569 11.7306 11.3992 11.9256C11.2352 12.1282 10.8823 12.5007 10.8823 12.5007C10.8823 12.5007 10.7393 12.6662 10.7932 12.8722C10.8142 12.95 10.8811 13.0634 10.9418 13.1587C10.9755 13.2115 11.0067 13.2587 11.0269 13.2913C11.398 13.8895 11.8968 14.496 12.5061 15.0662C12.6807 15.2296 12.8501 15.3964 13.0322 15.5512C13.7112 16.1293 14.4794 16.6016 15.3091 16.9515L15.3165 16.9547C15.439 17.0057 15.502 17.0335 15.6813 17.107C15.7718 17.144 15.8643 17.1759 15.9593 17.2001C15.9937 17.2088 16.0289 17.2137 16.0643 17.2161C16.2987 17.2297 16.4343 17.0845 16.4922 17.0177C17.5412 15.7906 17.6372 15.7105 17.6445 15.7111V15.7133C17.7824 15.573 17.9992 15.5243 18.1926 15.5358C18.2809 15.541 18.3688 15.5574 18.4491 15.5928C19.2202 15.9324 20.481 16.4622 20.481 16.4622L21.3241 16.8281C21.4654 16.8939 21.5943 17.0489 21.6005 17.1996C21.6043 17.2932 21.6147 17.4444 21.5801 17.7211C21.5347 18.0832 21.4206 18.5193 21.3072 18.7478C21.2274 18.9081 21.1242 19.0504 21.0041 19.1708C20.8413 19.334 20.7204 19.4331 20.5246 19.574C20.4054 19.6596 20.3437 19.7 20.3437 19.7C20.1422 19.8226 20.0287 19.8839 19.7887 20.0073C19.4155 20.1992 19.0031 20.3095 18.5807 20.3305C18.3115 20.3438 18.0429 20.3626 17.774 20.3486C17.7621 20.3479 16.9501 20.2275 16.9501 20.2275C14.8883 19.7039 12.9816 18.723 11.3816 17.3628C11.0544 17.0848 10.751 16.7839 10.4414 16.4863C9.15225 15.2471 8.17631 13.911 7.58452 12.647C7.2927 12.0238 7.10791 11.3562 7.10499 10.6694C7.09964 9.81967 7.38776 8.99248 7.92382 8.3186C8.0295 8.18576 8.12979 8.04797 8.30285 7.8902C8.48612 7.72311 8.60275 7.63342 8.7284 7.57135C8.89587 7.48863 9.07982 7.44439 9.26743 7.43166Z" fill="#3A2E2E"/>
</svg>
